<?xml version="1.0" encoding="UTF-8"?>
<svg version="1.1" xmlns="http://www.w3.org/2000/svg" width="512" height="512">
<path d="M0 0 C0.83802824 -0.00465992 1.67605649 -0.00931984 2.53947952 -0.01412097 C5.36034008 -0.02611492 8.1807229 -0.01665859 11.00158787 -0.00736332 C13.03928136 -0.01153431 15.07697253 -0.01701052 17.11465937 -0.02368313 C22.72420242 -0.03818726 28.33359917 -0.03387752 33.9431504 -0.02651632 C39.98891938 -0.02179923 46.03465604 -0.03428153 52.08041477 -0.04453373 C63.24309685 -0.06075957 74.4057334 -0.06316111 85.56842104 -0.05822874 C95.88068872 -0.0536743 106.19293899 -0.05426732 116.50520611 -0.06006908 C117.8876492 -0.06082594 119.2700923 -0.06158192 120.6525354 -0.06233703 C122.73566659 -0.0634822 124.81879777 -0.06463208 126.90192895 -0.06579627 C146.27299701 -0.07650379 165.64405925 -0.08122393 185.01512909 -0.07332611 C185.74558067 -0.07302894 186.47603225 -0.07273176 187.22861872 -0.07242559 C193.1606752 -0.06997657 199.0927316 -0.06736502 205.024788 -0.06474145 C228.1662165 -0.05463812 251.30757244 -0.06299502 274.44899082 -0.086236 C300.44036409 -0.11229687 326.43169368 -0.1251597 352.4230805 -0.11804825 C355.19340614 -0.11733217 357.96373178 -0.11665779 360.73405743 -0.1160078 C361.41619672 -0.115838 362.09833602 -0.11566819 362.80114621 -0.11549323 C373.10684724 -0.11318841 383.41250778 -0.12117595 393.71819973 -0.13429928 C405.43581623 -0.14919382 417.15335397 -0.14970079 428.87097424 -0.13222837 C434.85242798 -0.12368835 440.83370005 -0.1216419 446.81514454 -0.13687992 C452.28707906 -0.15064768 457.75867492 -0.14606624 463.23058946 -0.12664068 C465.21370893 -0.12285596 467.19685502 -0.12587314 469.17995095 -0.13625234 C471.86945888 -0.14933155 474.55778215 -0.13792031 477.24723816 -0.12025452 C478.02259349 -0.12990503 478.79794882 -0.13955554 479.59679976 -0.14949849 C484.77779529 -0.07931299 487.75824532 1.01146933 491.68653965 4.38031673 C495.07263664 8.47782524 495.1120779 12.42556818 495.06685638 17.53760338 C495.0715163 18.35874788 495.07617622 19.17989239 495.08097735 20.02592006 C495.09296924 22.78934993 495.08351579 25.55229193 495.0742197 28.31572628 C495.07839078 30.31217183 495.08386705 32.30861501 495.09053952 34.30505377 C495.10504245 39.80058204 495.10073428 45.29596097 495.0933727 50.79149759 C495.08865532 56.71456633 495.10113818 62.63760209 495.11139011 68.56066036 C495.12761543 79.49664028 495.13001762 90.43257004 495.12508512 101.3685596 C495.12053056 111.47143356 495.12112386 121.57428974 495.12692547 131.67716312 C495.12768233 133.03157227 495.12843831 134.38598141 495.12919341 135.74039056 C495.13033859 137.78128272 495.13148846 139.82217489 495.13265266 141.86306704 C495.14336006 160.8411767 495.14808043 179.81928042 495.1401825 198.79739189 C495.13973674 199.87082635 495.13973674 199.87082635 495.13928197 200.96594636 C495.13683295 206.77756625 495.13422141 212.58918607 495.13159784 218.40080589 C495.12149454 241.07230833 495.12985139 263.74373673 495.15309238 286.41522884 C495.17915371 311.87922519 495.19201596 337.34317695 495.18490463 362.80718714 C495.18418856 365.52134294 495.18351417 368.23549876 495.18286419 370.94965458 C495.18269438 371.61796237 495.18252457 372.28627016 495.18234962 372.97482971 C495.18004487 383.07121536 495.18803197 393.16755967 495.20115566 403.26393604 C495.21584459 414.74367709 495.21655646 426.22331447 495.19908475 437.70305341 C495.19054518 443.56299248 495.18849719 449.42274612 495.20373631 455.28267574 C495.21750541 460.64358736 495.21292089 466.00415332 495.19349707 471.36504454 C495.18971276 473.30778741 495.19272836 475.25055746 495.20310872 477.19327628 C495.21619079 479.82833434 495.20477428 482.46218382 495.1871109 485.09718895 C495.19676141 485.85650082 495.20641192 486.6158127 495.21635488 487.39813402 C495.14534764 492.53548028 494.0169313 495.48261424 490.68653965 499.38031673 C486.55769054 502.80724476 482.52819968 502.80529537 477.3730793 502.76063347 C476.53505106 502.76529339 475.69702281 502.76995331 474.83359978 502.77475443 C472.01273922 502.78674839 469.1923564 502.77729206 466.37149143 502.76799679 C464.33379794 502.77216777 462.29610677 502.77764399 460.25841993 502.7843166 C454.64887688 502.79882073 449.03948013 502.79451099 443.4299289 502.78714979 C437.38415992 502.78243269 431.33842326 502.794915 425.29266453 502.8051672 C414.12998245 502.82139304 402.9673459 502.82379458 391.80465826 502.81886221 C381.49239058 502.81430777 371.18014031 502.81490079 360.86787319 502.82070255 C359.4854301 502.82145941 358.102987 502.82221539 356.7205439 502.8229705 C354.63741271 502.82411567 352.55428153 502.82526555 350.47115035 502.82642974 C331.10008229 502.83713725 311.72902005 502.8418574 292.35795021 502.83395958 C291.62749863 502.83366241 290.89704705 502.83336523 290.14446058 502.83305905 C284.2124041 502.83061003 278.2803477 502.82799849 272.3482913 502.82537492 C249.2068628 502.81527159 226.06550686 502.82362849 202.92408848 502.84686947 C176.93271521 502.87293034 150.94138562 502.88579317 124.9499988 502.87868172 C122.17967316 502.87796564 119.40934752 502.87729126 116.63902187 502.87664127 C115.95688258 502.87647146 115.27474328 502.87630166 114.57193309 502.8761267 C104.26623206 502.87382188 93.96057152 502.88180942 83.65487957 502.89493275 C71.93726307 502.90982729 60.21972532 502.91033426 48.50210506 502.89286184 C42.52065132 502.88432182 36.53937925 502.88227537 30.55793476 502.89751339 C25.08600024 502.91128115 19.61440438 502.90669971 14.14248984 502.88727415 C12.15937037 502.88348943 10.17622428 502.88650661 8.19312835 502.8968858 C5.50362042 502.90996501 2.81529715 502.89855378 0.12584114 502.88088799 C-0.64951419 502.8905385 -1.42486952 502.90018901 -2.22372046 502.91013196 C-7.40471599 502.83994646 -10.38516602 501.74916414 -14.31346035 498.38031673 C-17.69955734 494.28280823 -17.73899861 490.33506529 -17.69377708 485.22303009 C-17.698437 484.40188558 -17.70309692 483.58074108 -17.70789805 482.73471341 C-17.71988994 479.97128354 -17.71043649 477.20834154 -17.7011404 474.44490719 C-17.70531148 472.44846164 -17.71078775 470.45201846 -17.71746022 468.4555797 C-17.73196315 462.96005142 -17.72765498 457.4646725 -17.7202934 451.96913588 C-17.71557602 446.04606714 -17.72805888 440.12303138 -17.73831081 434.19997311 C-17.75453613 423.26399319 -17.75693832 412.32806343 -17.75200582 401.39207387 C-17.74745126 391.28919991 -17.74804456 381.18634373 -17.75384617 371.08347034 C-17.75460303 369.7290612 -17.75535901 368.37465206 -17.75611411 367.02024291 C-17.75725929 364.97935074 -17.75840916 362.93845858 -17.75957336 360.89756643 C-17.77028076 341.91945677 -17.77500113 322.94135305 -17.7671032 303.96324158 C-17.76680602 303.2476186 -17.76650885 302.53199563 -17.76620267 301.79468711 C-17.76375365 295.98306722 -17.76114211 290.1714474 -17.75851854 284.35982758 C-17.74841524 261.68832514 -17.75677209 239.01689674 -17.78001308 216.34540462 C-17.80607441 190.88140827 -17.81893666 165.41745651 -17.81182534 139.95344633 C-17.81110926 137.23929052 -17.81043487 134.52513471 -17.80978489 131.81097889 C-17.80961508 131.1426711 -17.80944527 130.4743633 -17.80927032 129.78580376 C-17.80696557 119.68941811 -17.81495267 109.5930738 -17.82807636 99.49669743 C-17.84276529 88.01695638 -17.84347716 76.537319 -17.82600545 65.05758006 C-17.81746588 59.19764099 -17.81541789 53.33788735 -17.83065701 47.47795773 C-17.84442611 42.11704611 -17.83984159 36.75648015 -17.82041777 31.39558893 C-17.81663346 29.45284606 -17.81964906 27.51007601 -17.83002942 25.56735719 C-17.84311149 22.93229912 -17.83169498 20.29844965 -17.8140316 17.66344452 C-17.82368211 16.90413264 -17.83333263 16.14482077 -17.84327558 15.36249945 C-17.77226834 10.22515318 -16.643852 7.27801923 -13.31346035 3.38031673 C-9.18461124 -0.04661129 -5.15512038 -0.0446619 0 0 Z M12.68653965 30.38031673 C12.68653965 60.08031673 12.68653965 89.78031673 12.68653965 120.38031673 C161.84653965 120.38031673 311.00653965 120.38031673 464.68653965 120.38031673 C464.68653965 90.68031673 464.68653965 60.98031673 464.68653965 30.38031673 C315.52653965 30.38031673 166.36653965 30.38031673 12.68653965 30.38031673 Z M12.68653965 150.38031673 C12.68653965 256.64031673 12.68653965 362.90031673 12.68653965 472.38031673 C161.84653965 472.38031673 311.00653965 472.38031673 464.68653965 472.38031673 C464.68653965 366.12031673 464.68653965 259.86031673 464.68653965 150.38031673 C315.52653965 150.38031673 166.36653965 150.38031673 12.68653965 150.38031673 Z " fill="#000000" transform="translate(17.31346035003662,4.619683265686035)"/>
<path d="M0 0 C5.77428006 3.84952004 9.32311774 9.03063237 11.55208111 15.63606834 C12.20522096 19.08307181 12.1480192 22.51133483 12.14717102 26.00650024 C12.15084771 26.81957276 12.1545244 27.63264527 12.1583125 28.47035635 C12.16933727 31.19850567 12.17319115 33.9266169 12.17700195 36.65478516 C12.18326756 38.60956951 12.18991445 40.56435266 12.19691467 42.51913452 C12.21794747 48.94243542 12.22831694 55.36573654 12.23828125 61.7890625 C12.24232922 64.00155017 12.24644616 66.21403771 12.25063133 68.42652512 C12.26968198 78.82226317 12.28391278 89.21799413 12.2922433 99.61374629 C12.30201295 111.60693702 12.32832601 123.59994305 12.36874419 135.59306872 C12.39892424 144.86711584 12.41371401 154.14111009 12.41702431 163.41520536 C12.4193728 168.95214558 12.4283072 174.48888845 12.45348549 180.02577591 C12.47680387 185.23788263 12.4809842 190.4496626 12.47072411 195.66180801 C12.47022954 197.57011503 12.47652652 199.47843834 12.49028015 201.38669586 C12.63191181 222.21011024 12.63191181 222.21011024 5.75 230.8125 C-2.27068313 237.19258885 -8.64137894 240.00003979 -19 239 C-26.70153467 237.34285864 -31.15504333 233.2726525 -36.4453125 227.64453125 C-40.61596948 223.32719979 -45.29472004 219.71201382 -50 216 C-50.96292969 215.19691406 -51.92585937 214.39382813 -52.91796875 213.56640625 C-74.30987447 196.18717739 -101.38080351 187.35219846 -128.30273438 182.93481445 C-129.3727771 182.75860062 -130.44281982 182.58238678 -131.54528809 182.40083313 C-132.35534302 182.2685582 -133.16539795 182.13628326 -134 182 C-133.99111755 182.82605743 -133.98223511 183.65211487 -133.9730835 184.50320435 C-133.89282334 192.30083404 -133.83197771 200.09832432 -133.79275131 207.89627266 C-133.7719063 211.90498652 -133.74364594 215.91335811 -133.69824219 219.921875 C-133.65467301 223.79279809 -133.63083968 227.66339265 -133.62049103 231.53454208 C-133.6131194 233.00891158 -133.59872408 234.48326378 -133.57707977 235.95749283 C-133.54789643 238.02820459 -133.5440499 240.0975716 -133.54589844 242.16845703 C-133.53701599 243.34538116 -133.52813354 244.5223053 -133.51898193 245.7348938 C-134.26068412 250.76949976 -136.81894476 253.82955085 -140.36523438 257.34399414 C-146.12013066 259.9659354 -151.92652558 259.55271457 -158.15625 259.49609375 C-159.54577714 259.49624891 -160.9353047 259.49774066 -162.3248291 259.50050354 C-165.22993215 259.50188432 -168.13453958 259.48938438 -171.03955078 259.46655273 C-174.75180272 259.43816834 -178.46323191 259.44090937 -182.17554474 259.45364285 C-185.04273428 259.4606184 -187.90973573 259.45278951 -190.77690125 259.44038582 C-192.14514951 259.43588949 -193.51341809 259.43551854 -194.88166809 259.43945122 C-196.79809927 259.44238156 -198.71452597 259.42363174 -200.63085938 259.40405273 C-201.71862671 259.39864975 -202.80639404 259.39324677 -203.92712402 259.38768005 C-208.76797296 258.77694907 -212.0147136 257.06517448 -215.3125 253.5 C-218.08476825 249.39293593 -218.14343774 246.17895415 -218.20532227 241.32543945 C-218.21522186 240.652005 -218.22512146 239.97857056 -218.23532104 239.284729 C-218.26688389 237.06094873 -218.29167275 234.8371471 -218.31640625 232.61328125 C-218.33698029 231.07056628 -218.35797688 229.5278569 -218.37937927 227.9851532 C-218.4345535 223.92622398 -218.48398325 219.86724427 -218.53222656 215.80822754 C-218.58247554 211.66572582 -218.63814387 207.52329734 -218.69335938 203.38085938 C-218.80088409 195.25396819 -218.90234166 187.1270157 -219 179 C-219.875354 178.54689453 -220.75070801 178.09378906 -221.65258789 177.62695312 C-222.81008545 177.01787109 -223.96758301 176.40878906 -225.16015625 175.78125 C-226.87537476 174.8850293 -226.87537476 174.8850293 -228.62524414 173.97070312 C-233.75199018 170.97691784 -237.84679663 167.20625524 -242 163 C-242.56203125 162.45988281 -243.1240625 161.91976562 -243.703125 161.36328125 C-254.51174315 150.07111966 -257.37406684 135.45240897 -257.37060547 120.4387207 C-257.37495565 118.33395983 -257.41129297 116.23134146 -257.44921875 114.12695312 C-257.58636694 97.82572307 -252.38414048 83.00086479 -241.125 70.9375 C-229.74298275 60.55977839 -216.2391939 53.87956832 -200.65307617 53.87402344 C-199.93011856 53.8721553 -199.20716095 53.87028717 -198.46229553 53.86836243 C-196.8947453 53.86436818 -195.32718929 53.86228449 -193.75963402 53.86190033 C-190.38777151 53.85844827 -187.0160955 53.83701638 -183.64429951 53.81666946 C-177.38320539 53.77896628 -171.12230489 53.74735124 -164.86108398 53.74951172 C-119.24467366 53.74666274 -76.30529866 45.08941175 -41.8359375 12.984375 C-40.73726709 11.87065431 -39.64546866 10.75008857 -38.5625 9.62109375 C-28.09318103 -1.24082468 -14.62068498 -8.11530155 0 0 Z M-21.37402344 36.32910156 C-22.23302246 37.22580566 -22.23302246 37.22580566 -23.109375 38.140625 C-41.89446399 57.15503349 -66.83279327 68.22425469 -91.875 76.3125 C-92.5865625 76.54300049 -93.298125 76.77350098 -94.03125 77.01098633 C-100.97824084 79.16060634 -107.80133331 80.45742857 -115 82 C-115 105.43 -115 128.86 -115 153 C-111.39836418 154.20054527 -107.98998471 155.31004324 -104.33984375 156.2265625 C-74.47775475 163.91380541 -46.35197787 175.63005624 -23.8828125 197.35546875 C-21.99831913 199.2149565 -21.99831913 199.2149565 -19 200 C-19 145.55 -19 91.1 -19 35 C-20.19881723 34.88412338 -20.19881723 34.88412338 -21.37402344 36.32910156 Z M-220.30859375 94.7890625 C-227.07210822 103.63005371 -227.70767099 113.97199469 -226.76171875 124.703125 C-225.50067405 133.82340787 -221.33501299 141.04186763 -213.98143005 146.68400574 C-206.4848848 151.66294028 -198.12533603 151.40355662 -189.43359375 151.29296875 C-188.30248169 151.28994751 -187.17136963 151.28692627 -186.00598145 151.28381348 C-181.81639363 151.26822209 -177.6269368 151.22633882 -173.4375 151.1875 C-159.3609375 151.0946875 -159.3609375 151.0946875 -145 151 C-145 129.22 -145 107.44 -145 85 C-159.293125 84.87625 -159.293125 84.87625 -173.875 84.75 C-176.8641748 84.71358398 -179.85334961 84.67716797 -182.93310547 84.63964844 C-185.32779219 84.62795548 -187.72248693 84.61776509 -190.1171875 84.609375 C-191.33994385 84.58891113 -192.5627002 84.56844727 -193.82250977 84.54736328 C-204.63771769 84.54299438 -212.85930902 86.69266819 -220.30859375 94.7890625 Z M-187 182 C-187 197.18 -187 212.36 -187 228 C-179.74 228 -172.48 228 -165 228 C-165 212.82 -165 197.64 -165 182 C-172.26 182 -179.52 182 -187 182 Z " fill="#000000" transform="translate(317,188)"/>
<path d="M0 0 C1.04301773 -0.00700928 2.08603546 -0.01401855 3.16065979 -0.02124023 C6.60095008 -0.03881354 10.04041453 -0.02719833 13.48071289 -0.01367188 C15.87675636 -0.01636717 18.27279877 -0.0202499 20.6688385 -0.02526855 C25.68818587 -0.03116291 30.70724829 -0.02260303 35.7265625 -0.00390625 C42.15376214 0.01887045 48.58029317 0.00576723 55.00746822 -0.01819611 C59.95493079 -0.032666 64.90223546 -0.0280423 69.84970284 -0.01768494 C72.21913291 -0.01502033 74.58857742 -0.018278 76.95799065 -0.02760315 C80.2731599 -0.03778649 83.58725433 -0.02224067 86.90234375 0 C87.87763031 -0.00809692 88.85291687 -0.01619385 89.85775757 -0.02453613 C95.93386042 0.05080261 99.53538975 0.97656236 104.51586914 4.51757812 C107.38121864 8.00052175 108.41848916 11.71071542 108.95336914 16.14257812 C108.27281082 21.39259947 106.52283646 24.84496649 102.57836914 28.33007812 C98.65999673 31.12891556 95.87350497 31.63788251 91.14044189 31.66474915 C90.2714325 31.67190445 89.4024231 31.67905975 88.50708008 31.68643188 C87.56155273 31.68912079 86.61602539 31.69180969 85.6418457 31.69458008 C84.13868805 31.70443687 84.13868805 31.70443687 82.60516357 31.7144928 C79.28893965 31.7342028 75.97276096 31.7458831 72.65649414 31.75585938 C70.95589466 31.76197267 70.95589466 31.76197267 69.22093964 31.76820946 C63.22061852 31.78906001 57.2203202 31.80336636 51.2199707 31.81274414 C45.0282917 31.82380869 38.83697206 31.85821245 32.64542007 31.89791584 C27.87896056 31.9240811 23.11258672 31.93243591 18.34606171 31.93602562 C16.06395795 31.94089146 13.78185801 31.95250531 11.49982452 31.97106361 C8.30208467 31.99545318 5.10527541 31.99449003 1.9074707 31.98754883 C0.97004028 32.00035889 0.03260986 32.01316895 -0.93322754 32.02636719 C-6.93694398 31.97900919 -11.47283551 30.92873661 -16.48413086 27.51757812 C-20.03124788 23.88178318 -20.76991313 20.95128027 -20.98413086 16.01757812 C-20.78382835 11.09681303 -19.91330158 8.21747285 -16.48413086 4.51757812 C-11.12529162 -0.05593123 -6.7214951 -0.05568693 0 0 Z " fill="#000000" transform="translate(80.484130859375,60.482421875)"/>
<path d="M0 0 C3.56982001 3.22983715 6.21194949 5.82504529 7.0078125 10.73828125 C7.22088378 15.41874709 6.93684099 19.80522157 4.23852539 23.81298828 C-2.88634723 30.71039107 -15.62275069 34.13460596 -24.73950195 37.80908203 C-27.0754484 38.75524468 -29.40165091 39.723161 -31.72851562 40.69140625 C-33.239034 41.30344086 -34.75008419 41.91416493 -36.26171875 42.5234375 C-36.9432048 42.81084808 -37.62469086 43.09825867 -38.326828 43.39437866 C-43.82689559 45.56445398 -49.71854388 46.66478945 -55.4407196 44.64633179 C-59.34449996 42.78284845 -61.80330633 40.22773136 -63.71484375 36.36328125 C-65.43978655 31.16803932 -64.85715491 26.79735697 -63.125 21.6875 C-57.63134734 13.39508274 -42.04858798 9.57115058 -33.06542969 5.94091797 C-30.73992145 4.9959044 -28.42506526 4.02737303 -26.109375 3.05859375 C-8.57499776 -4.12870263 -8.57499776 -4.12870263 0 0 Z " fill="#000000" transform="translate(432.375,215.625)"/>
<path d="M0 0 C0.64355438 0.2521225 1.28710876 0.504245 1.95016479 0.76400757 C3.99026085 1.56706118 6.02224193 2.38874293 8.0546875 3.2109375 C9.39275588 3.739481 10.73129553 4.26683306 12.0703125 4.79296875 C15.38207601 6.09990603 18.68049536 7.4370623 21.97424316 8.78869629 C23.93343878 9.58746691 25.89934414 10.36780313 27.86621094 11.14746094 C29.11427232 11.65476323 30.36200818 12.16286729 31.609375 12.671875 C33.25655518 13.33388916 33.25655518 13.33388916 34.93701172 14.00927734 C39.44760314 16.38563559 43.18603793 19.6998865 44.9296875 24.5859375 C45.62640583 29.49537134 45.46627841 33.47147946 43.3046875 37.9609375 C40.17795623 41.41679838 37.59088439 44.23688152 32.77020264 44.8691864 C26.08406296 44.97920304 20.91049004 43.56141358 14.7578125 41.04296875 C13.83176208 40.67749435 12.90571167 40.31201996 11.95159912 39.93547058 C10.00888906 39.16432342 8.06946945 38.38483908 6.13330078 37.59741211 C3.18170977 36.39925841 0.21922515 35.2320618 -2.74609375 34.06835938 C-4.64134554 33.31169813 -6.53590234 32.55329328 -8.4296875 31.79296875 C-9.30792175 31.44692093 -10.18615601 31.10087311 -11.09100342 30.74433899 C-16.87269172 28.37085449 -22.07373346 25.85306684 -25.4453125 20.3359375 C-26.66846745 14.95405572 -27.03742144 9.82179869 -24.5078125 4.7734375 C-18.55657705 -4.2056195 -9.14941462 -3.63981818 0 0 Z " fill="#000000" transform="translate(394.0703125,352.4140625)"/>
<path d="M0 0 C1.10644867 -0.00145523 2.21289734 -0.00291046 3.35287476 -0.00440979 C5.68091478 -0.00275666 8.0089664 0.00873849 10.33691406 0.02954102 C13.89435284 0.05856043 17.45030551 0.05012345 21.0078125 0.03710938 C23.27604888 0.04334558 25.54428059 0.05173559 27.8125 0.0625 C28.8719986 0.05956436 29.93149719 0.05662872 31.02310181 0.05360413 C36.50203583 0.12346429 40.57992385 0.33955717 45.2734375 3.49609375 C49.94521093 8.67292377 50.6212716 11.88962873 50.55859375 18.73046875 C50.0623423 23.54342805 47.73529165 26.21143404 44.2109375 29.30859375 C40.86964026 31.35648561 38.09816385 31.63104182 34.27050781 31.6730957 C33.25224915 31.68593094 32.23399048 31.69876617 31.18487549 31.71199036 C30.0848822 31.71937729 28.98488892 31.72676422 27.8515625 31.734375 C26.15154083 31.74648262 26.15154083 31.74648262 24.41717529 31.75883484 C22.01641366 31.77267277 19.61563238 31.78339622 17.21484375 31.79125977 C13.55170179 31.80846103 9.88946498 31.85235005 6.2265625 31.89648438 C3.8932358 31.90661246 1.55990143 31.9151282 -0.7734375 31.921875 C-2.41128204 31.94813713 -2.41128204 31.94813713 -4.08221436 31.97492981 C-10.53854224 31.95660696 -14.47567973 31.34224478 -19.7265625 27.49609375 C-23.51352609 23.3304338 -24.09370232 19.30095646 -23.99609375 13.84375 C-23.5508419 9.96554188 -22.27357105 7.41865569 -19.7265625 4.49609375 C-13.62928172 -0.00914214 -7.32689819 -0.07798589 0 0 Z " fill="#000000" transform="translate(391.7265625,289.50390625)"/>
<path d="M0 0 C4.65702344 2.45552145 8.31667974 4.95003921 10 10 C10.49676139 15.18749192 10.60303415 19.61804673 8.5 24.4375 C4.7823469 28.24809443 1.12239871 30.78338689 -4.30859375 31.16015625 C-10.50357844 30.73183522 -14.66109533 28.57279514 -18.875 23.9375 C-20.6472895 19.3098552 -20.63954548 14.8864149 -20 10 C-15.92065851 1.37062378 -9.12361068 -1.49834907 0 0 Z " fill="#000000" transform="translate(442,61)"/>
<path d="M0 0 C4.65702344 2.45552145 8.31667974 4.95003921 10 10 C10.49676139 15.18749192 10.60303415 19.61804673 8.5 24.4375 C4.7823469 28.24809443 1.12239871 30.78338689 -4.30859375 31.16015625 C-10.50357844 30.73183522 -14.66109533 28.57279514 -18.875 23.9375 C-20.6472895 19.3098552 -20.63954548 14.8864149 -20 10 C-15.92065851 1.37062378 -9.12361068 -1.49834907 0 0 Z " fill="#000000" transform="translate(382,61)"/>
<path d="M0 0 C4.65702344 2.45552145 8.31667974 4.95003921 10 10 C10.49676139 15.18749192 10.60303415 19.61804673 8.5 24.4375 C4.7823469 28.24809443 1.12239871 30.78338689 -4.30859375 31.16015625 C-10.50357844 30.73183522 -14.66109533 28.57279514 -18.875 23.9375 C-20.6472895 19.3098552 -20.63954548 14.8864149 -20 10 C-15.92065851 1.37062378 -9.12361068 -1.49834907 0 0 Z " fill="#000000" transform="translate(322,61)"/>
</svg>
