<?xml version="1.0" encoding="UTF-8"?>
<svg version="1.1" xmlns="http://www.w3.org/2000/svg" width="512" height="512">
<path d="M0 0 C0.95877548 -0.01606293 1.91755096 -0.03212585 2.90538025 -0.04867554 C7.30767859 -0.09355729 11.70983018 -0.13423714 16.11230469 -0.15722656 C18.421327 -0.17371381 20.73029983 -0.20090682 23.0390625 -0.23925781 C41.60027134 -0.54557036 54.82016104 0.51392728 68.83422852 13.77490234 C81.70266633 27.40615992 80.16235352 41.66736438 80.16235352 60.19287109 C100.62235352 59.86287109 121.08235352 59.53287109 142.16235352 59.19287109 C143.81235352 55.89287109 145.46235352 52.59287109 147.16235352 49.19287109 C154.19107057 39.3344108 163.47113032 33.13559979 175.16235352 30.19287109 C178.42533735 29.75831795 181.62300056 29.66756591 184.91235352 29.69287109 C185.7841626 29.69859131 186.65597168 29.70431152 187.55419922 29.71020508 C200.30708707 30.06003492 209.8209964 35.0867062 218.86938477 43.84521484 C223.31216382 48.62542015 225.07822914 53.02462234 228.16235352 59.19287109 C248.62235352 59.52287109 269.08235352 59.85287109 290.16235352 60.19287109 C290.16235352 51.94287109 290.16235352 43.69287109 290.16235352 35.19287109 C293.30499927 23.76506835 299.17220099 13.93995171 309.16235352 7.19287109 C316.01798628 3.35010852 322.06354613 0.12148531 330 0 C330.95877548 -0.01606293 331.91755096 -0.03212585 332.90538025 -0.04867554 C337.30767859 -0.09355729 341.70983018 -0.13423714 346.11230469 -0.15722656 C348.421327 -0.17371381 350.73029983 -0.20090682 353.0390625 -0.23925781 C371.60027134 -0.54557036 384.82016104 0.51392728 398.83422852 13.77490234 C406.47703307 21.87075974 410.28983577 31.83619879 410.35522461 42.78442383 C410.3634021 43.54441177 410.37157959 44.30439972 410.38000488 45.0874176 C410.40479337 47.60042554 410.42136487 50.11337692 410.43579102 52.62646484 C410.44111469 53.48917559 410.44643837 54.35188633 410.45192337 55.24073982 C410.47863624 59.81388585 410.49801054 64.38700486 410.51245117 68.96020508 C410.52574409 72.72445221 410.55351277 76.4881513 410.59448242 80.25219727 C410.64413604 84.81509672 410.66861271 89.37750247 410.67567825 93.94066048 C410.68234025 95.6688177 410.69742832 97.39696613 410.72156906 99.12496758 C410.93268115 115.16108237 407.93147097 126.86896425 396.58032227 138.86474609 C389.58534331 145.46827854 379.99131723 150.23777293 370.32470703 150.38574219 C369.36593155 150.40180511 368.40715607 150.41786804 367.41932678 150.43441772 C363.01702844 150.47929947 358.61487685 150.51997933 354.21240234 150.54296875 C351.90338003 150.55945599 349.5944072 150.58664901 347.28564453 150.625 C328.72443569 150.93131255 315.50454599 149.87181491 301.49047852 136.61083984 C288.6220407 122.97958226 290.16235352 108.71837781 290.16235352 90.19287109 C259.47235352 90.68787109 259.47235352 90.68787109 228.16235352 91.19287109 C226.51235352 94.49287109 224.86235352 97.79287109 223.16235352 101.19287109 C217.5638219 109.045357 210.38300534 115.11932049 201.16235352 118.19287109 C201.16235352 123.80287109 201.16235352 129.41287109 201.16235352 135.19287109 C203.84360352 135.74974609 206.52485352 136.30662109 209.28735352 136.88037109 C228.94781523 141.19534654 246.66583273 149.24343038 262.16235352 162.19287109 C263.15750977 163.02431641 264.15266602 163.85576172 265.17797852 164.71240234 C287.44808454 183.92687583 300.95014619 211.25760366 305.16235352 240.19287109 C306.07374118 257.27290441 306.33158352 274.74889741 301.16235352 291.19287109 C300.94804687 291.881875 300.73374023 292.57087891 300.51293945 293.28076172 C290.69106059 323.79006229 269.54702238 349.56029609 240.99829102 364.27099609 C228.05749883 370.76892579 215.4948963 374.80411396 201.16235352 377.19287109 C201.16235352 382.80287109 201.16235352 388.41287109 201.16235352 394.19287109 C202.60610352 394.83224609 204.04985352 395.47162109 205.53735352 396.13037109 C216.09063454 401.45185557 224.38294128 409.85463438 228.16235352 421.19287109 C248.62235352 421.52287109 269.08235352 421.85287109 290.16235352 422.19287109 C290.16235352 413.94287109 290.16235352 405.69287109 290.16235352 397.19287109 C293.30499927 385.76506835 299.17220099 375.93995171 309.16235352 369.19287109 C316.01798628 365.35010852 322.06354613 362.12148531 330 362 C331.43816322 361.97590561 331.43816322 361.97590561 332.90538025 361.95132446 C337.30767859 361.90644271 341.70983018 361.86576286 346.11230469 361.84277344 C348.421327 361.82628619 350.73029983 361.79909318 353.0390625 361.76074219 C371.60027134 361.45442964 384.82016104 362.51392728 398.83422852 375.77490234 C406.47703307 383.87075974 410.28983577 393.83619879 410.35522461 404.78442383 C410.3634021 405.54441177 410.37157959 406.30439972 410.38000488 407.0874176 C410.40479337 409.60042554 410.42136487 412.11337692 410.43579102 414.62646484 C410.44111469 415.48917559 410.44643837 416.35188633 410.45192337 417.24073982 C410.47863624 421.81388585 410.49801054 426.38700486 410.51245117 430.96020508 C410.52574409 434.72445221 410.55351277 438.4881513 410.59448242 442.25219727 C410.64413604 446.81509672 410.66861271 451.37750247 410.67567825 455.94066048 C410.68234025 457.6688177 410.69742832 459.39696613 410.72156906 461.12496758 C410.93268115 477.16108237 407.93147097 488.86896425 396.58032227 500.86474609 C389.58534331 507.46827854 379.99131723 512.23777293 370.32470703 512.38574219 C369.36593155 512.40180511 368.40715607 512.41786804 367.41932678 512.43441772 C363.01702844 512.47929947 358.61487685 512.51997933 354.21240234 512.54296875 C351.90338003 512.55945599 349.5944072 512.58664901 347.28564453 512.625 C328.72443569 512.93131255 315.50454599 511.87181491 301.49047852 498.61083984 C288.6220407 484.97958226 290.16235352 470.71837781 290.16235352 452.19287109 C259.47235352 452.68787109 259.47235352 452.68787109 228.16235352 453.19287109 C226.51235352 456.49287109 224.86235352 459.79287109 223.16235352 463.19287109 C216.13363646 473.05133138 206.85357671 479.2501424 195.16235352 482.19287109 C191.89936968 482.62742424 188.70170647 482.71817627 185.41235352 482.69287109 C184.54054443 482.68715088 183.66873535 482.68143066 182.77050781 482.67553711 C170.01761996 482.32570727 160.50371063 477.29903599 151.45532227 468.54052734 C147.01254321 463.76032203 145.24647789 459.36111985 142.16235352 453.19287109 C111.47235352 452.69787109 111.47235352 452.69787109 80.16235352 452.19287109 C80.16235352 460.44287109 80.16235352 468.69287109 80.16235352 477.19287109 C77.01970776 488.62067383 71.15250604 498.44579047 61.16235352 505.19287109 C54.30672075 509.03563367 48.2611609 512.26425687 40.32470703 512.38574219 C39.36593155 512.40180511 38.40715607 512.41786804 37.41932678 512.43441772 C33.01702844 512.47929947 28.61487685 512.51997933 24.21240234 512.54296875 C21.90338003 512.55945599 19.5944072 512.58664901 17.28564453 512.625 C-1.27556431 512.93131255 -14.49545401 511.87181491 -28.50952148 498.61083984 C-36.15232604 490.51498244 -39.96512874 480.5495434 -40.03051758 469.60131836 C-40.03869507 468.84133041 -40.04687256 468.08134247 -40.05529785 467.29832458 C-40.08008634 464.78531664 -40.09665784 462.27236527 -40.11108398 459.75927734 C-40.11640766 458.8965666 -40.12173134 458.03385586 -40.12721634 457.14500237 C-40.15392921 452.57185634 -40.17330351 447.99873733 -40.18774414 443.42553711 C-40.20103706 439.66128998 -40.22880574 435.89759089 -40.26977539 432.13354492 C-40.31942901 427.57064547 -40.34390568 423.00823972 -40.35097122 418.44508171 C-40.35763322 416.71692448 -40.37272128 414.98877606 -40.39686203 413.26077461 C-40.60797412 397.22465982 -37.60676394 385.51677794 -26.25561523 373.52099609 C-19.26063627 366.91746365 -9.6666102 362.14796926 0 362 C1.43816322 361.97590561 1.43816322 361.97590561 2.90538025 361.95132446 C7.30767859 361.90644271 11.70983018 361.86576286 16.11230469 361.84277344 C18.421327 361.82628619 20.73029983 361.79909318 23.0390625 361.76074219 C41.60027134 361.45442964 54.82016104 362.51392728 68.83422852 375.77490234 C81.70266633 389.40615992 80.16235352 403.66736438 80.16235352 422.19287109 C100.62235352 421.86287109 121.08235352 421.53287109 142.16235352 421.19287109 C143.81235352 417.89287109 145.46235352 414.59287109 147.16235352 411.19287109 C152.76088513 403.34038519 159.94170169 397.2664217 169.16235352 394.19287109 C169.16235352 388.58287109 169.16235352 382.97287109 169.16235352 377.19287109 C165.20235352 376.38849609 165.20235352 376.38849609 161.16235352 375.56787109 C129.67406609 368.73742754 101.51144968 350.51170484 83.9074707 323.24951172 C66.94988644 295.78662944 59.82711256 261.55841761 66.78735352 229.69287109 C67.47933182 226.82368511 68.27736078 224.00814478 69.16235352 221.19287109 C69.37666016 220.50386719 69.5909668 219.81486328 69.81176758 219.10498047 C79.66817589 188.48842249 100.77650906 162.97952813 129.31030273 148.13085938 C142.22701911 141.58906867 154.83923762 137.58005708 169.16235352 135.19287109 C169.16235352 129.58287109 169.16235352 123.97287109 169.16235352 118.19287109 C166.99672852 117.23380859 166.99672852 117.23380859 164.78735352 116.25537109 C154.2340725 110.93388661 145.94176575 102.53110781 142.16235352 91.19287109 C111.47235352 90.69787109 111.47235352 90.69787109 80.16235352 90.19287109 C80.16235352 98.44287109 80.16235352 106.69287109 80.16235352 115.19287109 C77.01970776 126.62067383 71.15250604 136.44579047 61.16235352 143.19287109 C54.30672075 147.03563367 48.2611609 150.26425687 40.32470703 150.38574219 C39.36593155 150.40180511 38.40715607 150.41786804 37.41932678 150.43441772 C33.01702844 150.47929947 28.61487685 150.51997933 24.21240234 150.54296875 C21.90338003 150.55945599 19.5944072 150.58664901 17.28564453 150.625 C-1.27556431 150.93131255 -14.49545401 149.87181491 -28.50952148 136.61083984 C-36.15232604 128.51498244 -39.96512874 118.5495434 -40.03051758 107.60131836 C-40.03869507 106.84133041 -40.04687256 106.08134247 -40.05529785 105.29832458 C-40.08008634 102.78531664 -40.09665784 100.27236527 -40.11108398 97.75927734 C-40.11640766 96.8965666 -40.12173134 96.03385586 -40.12721634 95.14500237 C-40.15392921 90.57185634 -40.17330351 85.99873733 -40.18774414 81.42553711 C-40.20103706 77.66128998 -40.22880574 73.89759089 -40.26977539 70.13354492 C-40.31942901 65.57064547 -40.34390568 61.00823972 -40.35097122 56.44508171 C-40.35763322 54.71692448 -40.37272128 52.98877606 -40.39686203 51.26077461 C-40.60797412 35.22465982 -37.60676394 23.51677794 -26.25561523 11.52099609 C-19.26063627 4.91746365 -9.6666102 0.14796926 0 0 Z M-4.65014648 34.63037109 C-9.29780529 40.07477141 -9.95709566 44.15689343 -9.98291016 51.15722656 C-9.98929001 52.33550018 -9.99566986 53.5137738 -10.00224304 54.72775269 C-10.00335587 55.99241364 -10.00446869 57.25707458 -10.00561523 58.56005859 C-10.00894363 59.86814484 -10.01227203 61.17623108 -10.01570129 62.5239563 C-10.02167672 65.28941676 -10.02354283 68.05484604 -10.02294922 70.8203125 C-10.02284769 74.34960028 -10.03649775 77.87868649 -10.05372143 81.40792656 C-10.06756837 84.79197336 -10.06693153 88.17598386 -10.06811523 91.56005859 C-10.07530075 92.82067108 -10.08248627 94.08128357 -10.08988953 95.38009644 C-10.25593549 105.97583462 -10.25593549 105.97583462 -5.40014648 115.00537109 C1.82617829 121.17418493 8.83240479 120.37926322 17.97241211 120.37817383 C20.02421925 120.38035712 22.07548524 120.39853326 24.12719727 120.41748047 C25.4355957 120.41941406 26.74399414 120.42134766 28.09204102 120.42333984 C29.28039551 120.42744873 30.46875 120.43155762 31.69311523 120.43579102 C36.97838604 120.06571048 40.93496362 119.256609 44.97485352 115.75537109 C49.62251232 110.31097078 50.28180269 106.22884876 50.30761719 99.22851562 C50.31399704 98.050242 50.32037689 96.87196838 50.32695007 95.6579895 C50.3280629 94.39332855 50.32917572 93.1286676 50.33032227 91.82568359 C50.33365067 90.51759735 50.33697906 89.20951111 50.34040833 87.86178589 C50.34638376 85.09632543 50.34824986 82.33089615 50.34765625 79.56542969 C50.34755472 76.03614191 50.36120478 72.5070557 50.37842846 68.97781563 C50.3922754 65.59376883 50.39163856 62.20975833 50.39282227 58.82568359 C50.40000778 57.56507111 50.4071933 56.30445862 50.41459656 55.00564575 C50.58064252 44.40990757 50.58064252 44.40990757 45.72485352 35.38037109 C38.49852874 29.21155726 31.49230224 30.00647897 22.35229492 30.00756836 C20.30048778 30.00538507 18.24922179 29.98720893 16.19750977 29.96826172 C14.88911133 29.96632813 13.58071289 29.96439453 12.23266602 29.96240234 C11.04431152 29.95829346 9.85595703 29.95418457 8.6315918 29.94995117 C3.34632099 30.32003171 -0.61025659 31.12913319 -4.65014648 34.63037109 Z M325.34985352 34.63037109 C320.70219471 40.07477141 320.04290434 44.15689343 320.01708984 51.15722656 C320.01070999 52.33550018 320.00433014 53.5137738 319.99775696 54.72775269 C319.99664413 55.99241364 319.99553131 57.25707458 319.99438477 58.56005859 C319.99105637 59.86814484 319.98772797 61.17623108 319.98429871 62.5239563 C319.97832328 65.28941676 319.97645717 68.05484604 319.97705078 70.8203125 C319.97715231 74.34960028 319.96350225 77.87868649 319.94627857 81.40792656 C319.93243163 84.79197336 319.93306847 88.17598386 319.93188477 91.56005859 C319.92469925 92.82067108 319.91751373 94.08128357 319.91011047 95.38009644 C319.74406451 105.97583462 319.74406451 105.97583462 324.59985352 115.00537109 C331.82617829 121.17418493 338.83240479 120.37926322 347.97241211 120.37817383 C350.02421925 120.38035712 352.07548524 120.39853326 354.12719727 120.41748047 C355.4355957 120.41941406 356.74399414 120.42134766 358.09204102 120.42333984 C359.28039551 120.42744873 360.46875 120.43155762 361.69311523 120.43579102 C366.97838604 120.06571048 370.93496362 119.256609 374.97485352 115.75537109 C379.62251232 110.31097078 380.28180269 106.22884876 380.30761719 99.22851562 C380.31399704 98.050242 380.32037689 96.87196838 380.32695007 95.6579895 C380.3280629 94.39332855 380.32917572 93.1286676 380.33032227 91.82568359 C380.33365067 90.51759735 380.33697906 89.20951111 380.34040833 87.86178589 C380.34638376 85.09632543 380.34824986 82.33089615 380.34765625 79.56542969 C380.34755472 76.03614191 380.36120478 72.5070557 380.37842846 68.97781563 C380.3922754 65.59376883 380.39163856 62.20975833 380.39282227 58.82568359 C380.40000778 57.56507111 380.4071933 56.30445862 380.41459656 55.00564575 C380.58064252 44.40990757 380.58064252 44.40990757 375.72485352 35.38037109 C368.49852874 29.21155726 361.49230224 30.00647897 352.35229492 30.00756836 C350.30048778 30.00538507 348.24922179 29.98720893 346.19750977 29.96826172 C344.88911133 29.96632813 343.58071289 29.96439453 342.23266602 29.96240234 C341.04431152 29.95829346 339.85595703 29.95418457 338.6315918 29.94995117 C333.34632099 30.32003171 329.38974341 31.12913319 325.34985352 34.63037109 Z M172.28735352 67.31787109 C170.597511 71.63635752 170.50274369 75.61957629 171.16235352 80.19287109 C173.32534189 84.59895852 175.5591583 87.39162079 180.16235352 89.19287109 C185.20560735 89.87713166 188.99312236 89.7668573 193.59985352 87.50537109 C196.95891363 84.47402416 198.85590982 82.45147461 199.47875977 77.86083984 C199.74449004 72.143353 199.13082503 68.59036656 195.16235352 64.19287109 C191.32522156 60.80716643 187.5283389 60.67995937 182.59985352 60.84130859 C177.93709206 61.51382227 175.31045059 63.89169441 172.28735352 67.31787109 Z M121.53735352 192.31787109 C103.41267175 210.52507087 95.89058581 233.81682756 95.84326172 259.08789062 C96.10553515 283.42348054 106.41306952 303.99158243 123.16235352 321.19287109 C124.0034668 322.16160156 124.0034668 322.16160156 124.86157227 323.14990234 C138.07324454 337.95668465 159.7867444 345.1037391 178.91235352 347.00537109 C202.66082954 348.27195648 225.84151317 340.54438683 243.75268555 324.79443359 C260.20051564 309.88662633 272.91616521 289.00468683 274.33935547 266.37890625 C274.90498249 239.63894515 270.33823514 215.42662245 251.19970703 195.34570312 C249.85589886 193.95950714 248.50922546 192.57609041 247.16235352 191.19287109 C246.60161133 190.54705078 246.04086914 189.90123047 245.46313477 189.23583984 C234.13773904 176.5430735 214.80161814 168.22455874 198.16235352 166.19287109 C197.13239258 166.06009766 196.10243164 165.92732422 195.04125977 165.79052734 C167.33612204 162.99171093 141.40801076 173.02496622 121.53735352 192.31787109 Z M-4.65014648 396.63037109 C-9.29780529 402.07477141 -9.95709566 406.15689343 -9.98291016 413.15722656 C-9.98929001 414.33550018 -9.99566986 415.5137738 -10.00224304 416.72775269 C-10.00335587 417.99241364 -10.00446869 419.25707458 -10.00561523 420.56005859 C-10.00894363 421.86814484 -10.01227203 423.17623108 -10.01570129 424.5239563 C-10.02167672 427.28941676 -10.02354283 430.05484604 -10.02294922 432.8203125 C-10.02284769 436.34960028 -10.03649775 439.87868649 -10.05372143 443.40792656 C-10.06756837 446.79197336 -10.06693153 450.17598386 -10.06811523 453.56005859 C-10.07530075 454.82067108 -10.08248627 456.08128357 -10.08988953 457.38009644 C-10.25593549 467.97583462 -10.25593549 467.97583462 -5.40014648 477.00537109 C1.82617829 483.17418493 8.83240479 482.37926322 17.97241211 482.37817383 C20.02421925 482.38035712 22.07548524 482.39853326 24.12719727 482.41748047 C25.4355957 482.41941406 26.74399414 482.42134766 28.09204102 482.42333984 C29.28039551 482.42744873 30.46875 482.43155762 31.69311523 482.43579102 C36.97838604 482.06571048 40.93496362 481.256609 44.97485352 477.75537109 C49.62251232 472.31097078 50.28180269 468.22884876 50.30761719 461.22851562 C50.31399704 460.050242 50.32037689 458.87196838 50.32695007 457.6579895 C50.3280629 456.39332855 50.32917572 455.1286676 50.33032227 453.82568359 C50.33365067 452.51759735 50.33697906 451.20951111 50.34040833 449.86178589 C50.34638376 447.09632543 50.34824986 444.33089615 50.34765625 441.56542969 C50.34755472 438.03614191 50.36120478 434.5070557 50.37842846 430.97781563 C50.3922754 427.59376883 50.39163856 424.20975833 50.39282227 420.82568359 C50.40000778 419.56507111 50.4071933 418.30445862 50.41459656 417.00564575 C50.58064252 406.40990757 50.58064252 406.40990757 45.72485352 397.38037109 C38.49852874 391.21155726 31.49230224 392.00647897 22.35229492 392.00756836 C20.30048778 392.00538507 18.24922179 391.98720893 16.19750977 391.96826172 C14.88911133 391.96632813 13.58071289 391.96439453 12.23266602 391.96240234 C11.04431152 391.95829346 9.85595703 391.95418457 8.6315918 391.94995117 C3.34632099 392.32003171 -0.61025659 393.12913319 -4.65014648 396.63037109 Z M325.34985352 396.63037109 C320.70219471 402.07477141 320.04290434 406.15689343 320.01708984 413.15722656 C320.01070999 414.33550018 320.00433014 415.5137738 319.99775696 416.72775269 C319.99664413 417.99241364 319.99553131 419.25707458 319.99438477 420.56005859 C319.99105637 421.86814484 319.98772797 423.17623108 319.98429871 424.5239563 C319.97832328 427.28941676 319.97645717 430.05484604 319.97705078 432.8203125 C319.97715231 436.34960028 319.96350225 439.87868649 319.94627857 443.40792656 C319.93243163 446.79197336 319.93306847 450.17598386 319.93188477 453.56005859 C319.92469925 454.82067108 319.91751373 456.08128357 319.91011047 457.38009644 C319.74406451 467.97583462 319.74406451 467.97583462 324.59985352 477.00537109 C331.82617829 483.17418493 338.83240479 482.37926322 347.97241211 482.37817383 C350.02421925 482.38035712 352.07548524 482.39853326 354.12719727 482.41748047 C355.4355957 482.41941406 356.74399414 482.42134766 358.09204102 482.42333984 C359.28039551 482.42744873 360.46875 482.43155762 361.69311523 482.43579102 C366.97838604 482.06571048 370.93496362 481.256609 374.97485352 477.75537109 C379.62251232 472.31097078 380.28180269 468.22884876 380.30761719 461.22851562 C380.31399704 460.050242 380.32037689 458.87196838 380.32695007 457.6579895 C380.3280629 456.39332855 380.32917572 455.1286676 380.33032227 453.82568359 C380.33365067 452.51759735 380.33697906 451.20951111 380.34040833 449.86178589 C380.34638376 447.09632543 380.34824986 444.33089615 380.34765625 441.56542969 C380.34755472 438.03614191 380.36120478 434.5070557 380.37842846 430.97781563 C380.3922754 427.59376883 380.39163856 424.20975833 380.39282227 420.82568359 C380.40000778 419.56507111 380.4071933 418.30445862 380.41459656 417.00564575 C380.58064252 406.40990757 380.58064252 406.40990757 375.72485352 397.38037109 C368.49852874 391.21155726 361.49230224 392.00647897 352.35229492 392.00756836 C350.30048778 392.00538507 348.24922179 391.98720893 346.19750977 391.96826172 C344.88911133 391.96632813 343.58071289 391.96439453 342.23266602 391.96240234 C341.04431152 391.95829346 339.85595703 391.95418457 338.6315918 391.94995117 C333.34632099 392.32003171 329.38974341 393.12913319 325.34985352 396.63037109 Z M172.28735352 429.31787109 C170.597511 433.63635752 170.50274369 437.61957629 171.16235352 442.19287109 C173.32534189 446.59895852 175.5591583 449.39162079 180.16235352 451.19287109 C185.20560735 451.87713166 188.99312236 451.7668573 193.59985352 449.50537109 C196.95891363 446.47402416 198.85590982 444.45147461 199.47875977 439.86083984 C199.74449004 434.143353 199.13082503 430.59036656 195.16235352 426.19287109 C191.32522156 422.80716643 187.5283389 422.67995937 182.59985352 422.84130859 C177.93709206 423.51382227 175.31045059 425.89169441 172.28735352 429.31787109 Z " fill="#000000" transform="translate(70.837646484375,-0.19287109374999997)"/>
<path d="M0 0 C5.86627209 1.7450927 11.29164338 4.33303871 16.8125 6.9375 C17.77865234 7.38029297 18.74480469 7.82308594 19.74023438 8.27929688 C20.65740234 8.71177734 21.57457031 9.14425781 22.51953125 9.58984375 C23.35589111 9.98034912 24.19225098 10.37085449 25.05395508 10.77319336 C27 12 27 12 28 15 C27.0621851 17.30122451 26.06987529 19.41597262 24.921875 21.609375 C24.4310141 22.57692719 24.4310141 22.57692719 23.93023682 23.56402588 C22.87947175 25.63092775 21.81530926 27.69056241 20.75 29.75 C19.70167496 31.79643091 18.65620018 33.84427824 17.61260986 35.89312744 C16.96259447 37.1670975 16.3094279 38.43946662 15.65252686 39.7098999 C13.57185682 43.76001483 11.80283122 47.79339383 10 52 C39.205 52.495 39.205 52.495 69 53 C63.55172479 64.50191433 58.10051093 75.98417793 52.4453125 87.3828125 C52.11530117 88.04815884 51.78528984 88.71350517 51.44527817 89.39901352 C49.71300855 92.88977494 47.97807868 96.37920018 46.24121094 99.86767578 C44.81411652 102.73540802 43.39297407 105.60598062 41.9765625 108.47900391 C40.24378888 111.99364855 38.50140823 115.50336348 36.75182724 119.00967026 C36.09217027 120.33569532 35.43591724 121.66341951 34.78317642 122.9928627 C33.8792776 124.8320561 32.9617054 126.6645107 32.04345703 128.49658203 C31.52655304 129.53847687 31.00964905 130.5803717 30.4770813 131.65383911 C29 134 29 134 26 135 C23.27270508 133.92016602 23.27270508 133.92016602 20.01953125 132.25390625 C18.85615234 131.66416016 17.69277344 131.07441406 16.49414062 130.46679688 C15.26681644 129.8322452 14.03960431 129.19747676 12.8125 128.5625 C11.57403282 127.93072804 10.33510548 127.29985725 9.09570312 126.66992188 C6.05914911 125.12210641 3.02763591 123.56516863 0 122 C1.45381867 117.22501334 3.44175277 112.85239992 5.6953125 108.4140625 C6.00782959 107.79104248 6.32034668 107.16802246 6.64233398 106.52612305 C7.79881888 104.22353161 8.96231269 101.92446578 10.125 99.625 C12.72375 94.46875 15.3225 89.3125 18 84 C-11.205 83.505 -11.205 83.505 -41 83 C-35.5189702 71.4289371 -30.0168741 59.91778712 -24.25491333 48.49124146 C-18.11913682 36.3206118 -12.05194387 24.12718694 -6.26025391 11.78808594 C-4.34756843 7.72802964 -2.42080087 3.79077178 0 0 Z " fill="#000000" transform="translate(242,188)"/>
</svg>
