<?xml version="1.0" encoding="UTF-8"?>
<svg version="1.1" xmlns="http://www.w3.org/2000/svg" width="512" height="512">
<path d="M0 0 C5.79882971 0.62662552 10.79730809 2.73418297 16.15234375 4.91015625 C17.14761078 5.30914124 18.14287781 5.70812622 19.16830444 6.11920166 C22.42716239 7.42761158 25.68236296 8.74486326 28.9375 10.0625 C31.20777391 10.97653452 33.47820189 11.89018646 35.7487793 12.8034668 C51.68465889 19.22139836 67.58782558 25.71863125 83.47311401 32.26063538 C93.15636425 36.24836168 102.85478152 40.1972467 112.5625 44.125 C126.68607904 49.84019273 140.79838993 55.58263102 154.90658569 61.33569336 C174.01027416 69.1255567 193.12189513 76.89526661 212.25 84.625 C213.23909363 85.02473022 214.22818726 85.42446045 215.24725342 85.83630371 C218.04490374 86.9667375 220.84271064 88.0967824 223.640625 89.2265625 C224.44555389 89.55163788 225.25048279 89.87671326 226.07980347 90.2116394 C227.60794089 90.82832445 229.13733676 91.44190199 230.66809082 92.05206299 C232.34201223 92.73252348 234.00600252 93.43760994 235.66296387 94.15838623 C236.5447229 94.53457092 237.42648193 94.91075562 238.33496094 95.29833984 C239.13222595 95.64714203 239.92949097 95.99594421 240.75091553 96.35531616 C243.37570527 97.10769321 244.44655306 96.87811566 247 96 C249.23973089 94.01997908 251.31684005 92.03064805 253.39819336 89.89477539 C254.03138489 89.25720306 254.66457642 88.61963074 255.31695557 87.96273804 C256.69254386 86.57572907 258.06465516 85.18526512 259.43369865 83.79179573 C261.61062182 81.57651204 263.79683903 79.37079532 265.98573303 77.16734314 C271.42850237 71.68448416 276.85515946 66.18576722 282.28186035 60.68701172 C286.85625057 56.0529899 291.4370215 51.42545114 296.02615547 46.80602837 C298.16195858 44.65101704 300.28838106 42.48704968 302.41453552 40.32252502 C312.24300589 30.38324637 322.43533318 20.97287987 334.8125 14.25 C335.47789795 13.88495361 336.1432959 13.51990723 336.82885742 13.14379883 C343.96433626 9.33580618 351.2643689 6.3496753 359 4 C360.03205566 3.68458252 360.03205566 3.68458252 361.08496094 3.36279297 C380.29693317 -2.21017922 404.78871425 -3.09444182 424 3 C426.64792003 4.70668936 426.98527718 5.95358978 427.94921875 8.9921875 C431.80834688 29.28834287 432.07204139 51.13209446 426 71 C425.68651611 72.03205566 425.68651611 72.03205566 425.36669922 73.08496094 C420.69637589 87.8690706 413.17889268 101.31691908 403 113 C402.38681915 113.70723206 401.77363831 114.41446411 401.14187622 115.14312744 C394.96613054 122.1317117 388.3846742 128.65176932 381.72091293 135.17086029 C378.29568121 138.52648607 374.88769584 141.89958568 371.4765625 145.26953125 C367.15779263 149.53421473 362.83400729 153.79344114 358.4921875 158.03466797 C354.95889834 161.4869929 351.44282535 164.95603344 347.93777847 168.43701935 C346.60351614 169.75584313 345.2629791 171.06835003 343.91613388 172.37432098 C342.04206821 174.19304017 340.1907633 176.03228751 338.34326172 177.87792969 C337.50348534 178.67759911 337.50348534 178.67759911 336.64674377 179.49342346 C334.91711988 181.17281862 334.91711988 181.17281862 333 184 C333.13711685 188.57582012 334.79829729 192.34908204 336.5625 196.546875 C336.82498535 197.17730713 337.0874707 197.80773926 337.35791016 198.45727539 C337.93039782 199.83068094 338.50570294 201.20291471 339.08349609 202.57409668 C340.69412623 206.39794885 342.28253939 210.23105454 343.875 214.0625 C344.21289551 214.87378357 344.55079102 215.68506714 344.89892578 216.52093506 C348.66424207 225.57106556 352.33261802 234.65985521 356 243.75 C362.5929863 260.0756083 369.22605444 276.38460842 375.875 292.6875 C383.16065679 310.5532686 390.417407 328.43032491 397.6390686 346.322052 C405.37384794 365.48240483 413.16625747 384.61910402 420.96875 403.75195312 C421.4233812 404.86682098 421.87801239 405.98168884 422.34642029 407.13034058 C423.19881197 409.22036691 424.05139069 411.31031698 424.90419006 413.400177 C425.47380714 414.79657913 425.47380714 414.79657913 426.05493164 416.22119141 C426.38401016 417.02763092 426.71308868 417.83407043 427.05213928 418.66494751 C427.36493332 419.43551483 427.67772736 420.20608215 428 421 C428.37261963 421.87010712 428.74523926 422.74021423 429.12915039 423.63668823 C430.22214725 426.60286323 430.07930477 428.04188323 429 431 C427.24438477 432.83007813 427.24438477 432.83007813 424.94140625 434.53125 C424.08998047 435.16998047 423.23855469 435.80871094 422.36132812 436.46679688 C421.43771484 437.13775391 420.51410156 437.80871094 419.5625 438.5 C418.61181641 439.20705078 417.66113281 439.91410156 416.68164062 440.64257812 C410.11417831 445.51012357 403.483103 450.29272877 396.8347168 455.04907227 C388.19365878 461.24890444 379.77690362 467.74267982 371.33886719 474.21435547 C367.90966108 476.8324362 364.45796257 479.42006865 361 482 C357.7425081 480.61839226 356.09226686 479.18026874 354.0390625 476.31640625 C353.21921875 475.1871875 353.21921875 475.1871875 352.3828125 474.03515625 C351.80273438 473.21917969 351.22265625 472.40320313 350.625 471.5625 C349.36740573 469.82406086 348.10958705 468.08578404 346.8515625 466.34765625 C346.2112207 465.4570752 345.57087891 464.56649414 344.91113281 463.64892578 C341.97248199 459.57580859 338.98550947 455.5388212 336 451.5 C334.84480191 449.93247601 333.6898554 448.36476657 332.53515625 446.796875 C330.08603654 443.47292287 327.63526944 440.15019229 325.18359375 436.828125 C324.55646484 435.97798828 323.92933594 435.12785156 323.28320312 434.25195312 C322.09092326 432.63575153 320.89824319 431.01984507 319.70507812 429.40429688 C316.43005246 424.96378165 313.19522571 420.49830659 310 416 C306.85589313 417.39379806 304.72811175 419.02338558 302.3046875 421.45239258 C301.59715332 422.15685013 300.88961914 422.86130768 300.16064453 423.58711243 C299.40638184 424.34856064 298.65211914 425.11000885 297.875 425.89453125 C297.09108887 426.6789006 296.30717773 427.46326996 295.49951172 428.27140808 C293.84300527 429.93093411 292.18892847 431.59288841 290.53710938 433.25708008 C288.0148134 435.79757969 285.48466055 438.33003883 282.953125 440.86132812 C281.34327832 442.4760924 279.73388815 444.09131194 278.125 445.70703125 C276.99360596 446.84009453 276.99360596 446.84009453 275.83935547 447.99604797 C272.3435999 451.52332486 268.99399868 455.02384043 266 459 C261.29800337 458.12404534 258.82539777 455.22497797 255.57910156 451.91967773 C254.94453537 451.28554962 254.30996918 450.65142151 253.65617371 449.99807739 C251.56046839 447.90028206 249.47558904 445.79206052 247.390625 443.68359375 C245.93968071 442.2270543 244.48807267 440.77117578 243.03582764 439.31593323 C239.21515785 435.48380855 235.40358258 431.64276013 231.59381104 427.79980469 C227.70469635 423.88000326 223.80707635 419.96867956 219.91015625 416.05664062 C212.2650737 408.37938251 204.62956898 400.69267333 197 393 C198.57413332 389.17280705 200.98646953 386.80241712 203.92456055 383.92773438 C204.42389099 383.43614334 204.92322144 382.94455231 205.43768311 382.43806458 C206.51868357 381.37467576 207.60187872 380.31351435 208.68701744 379.25434875 C210.40235635 377.57847216 212.11003228 375.89513877 213.81562805 374.20935059 C218.66440856 369.41859213 223.52279612 364.63775227 228.39575195 359.87158203 C231.37827414 356.95336397 234.34859323 354.02319125 237.31147194 351.08503723 C238.44361994 349.96717858 239.58042761 348.85401929 240.72186852 347.74565125 C242.31397911 346.19906294 243.89017708 344.63780587 245.46362305 343.07226562 C246.36582077 342.18720337 247.26801849 341.30214111 248.19755554 340.39025879 C250.24843977 338.20723362 250.24843977 338.20723362 249.87249756 335.81796265 C248.7447849 333.46822599 247.359823 331.56312779 245.75390625 329.5078125 C245.08560791 328.64397949 244.41730957 327.78014648 243.72875977 326.89013672 C243.01389404 325.9776416 242.29902832 325.06514648 241.5625 324.125 C240.10264685 322.23554828 238.6443154 320.34491989 237.1875 318.453125 C236.47335937 317.52693359 235.75921875 316.60074219 235.0234375 315.64648438 C232.31020338 312.09780461 229.66382533 308.50629422 227.0625 304.875 C226.65652588 304.31441895 226.25055176 303.75383789 225.83227539 303.17626953 C224.12516818 300.7776806 222.93893582 298.81680747 222 296 C216.2077296 300.93259121 210.74637757 306.11460408 205.38085938 311.50561523 C204.56039124 312.32593735 203.7399231 313.14625946 202.89459229 313.99143982 C200.20859836 316.67812519 197.52615456 319.36832514 194.84375 322.05859375 C192.97210168 323.93210899 191.10025679 325.80542574 189.22814941 327.67848206 C184.82065523 332.08907021 180.41571386 336.5021986 176.01170969 340.91627127 C170.99305921 345.94614333 165.97153021 350.9731375 160.94977093 355.99990547 C150.63000039 366.33009653 140.31380529 376.66385319 130 387 C131.63043012 392.02443776 133.31075458 396.97478609 135.38842773 401.8359375 C135.83576767 402.8873291 136.2831076 403.9387207 136.7440033 405.02197266 C137.45660057 406.68172119 137.45660057 406.68172119 138.18359375 408.375 C138.68037125 409.53950684 139.17714874 410.70401367 139.6889801 411.90380859 C141.00167932 414.97889336 142.3174841 418.05261052 143.63476562 421.12573242 C144.70213682 423.61788835 145.76636345 426.11138084 146.83042812 428.60494995 C149.04433241 433.79274988 151.26073143 438.97948766 153.48217773 444.1640625 C153.90594696 445.15954102 154.32971619 446.15501953 154.7663269 447.18066406 C155.56228709 448.99968659 156.38967823 450.80542665 157.25442505 452.59277344 C157.63074066 453.37426758 158.00705627 454.15576172 158.39477539 454.9609375 C158.72965469 455.62657715 159.064534 456.2922168 159.40956116 456.97802734 C160.22113237 459.75727338 159.94486701 461.26173765 159 464 C157.05747986 466.42353821 157.05747986 466.42353821 154.48022461 468.97387695 C153.77774849 469.67722923 153.77774849 469.67722923 153.06108093 470.39479065 C151.51746321 471.93563129 149.96018547 473.46183433 148.40234375 474.98828125 C147.32673042 476.05643086 146.25199938 477.1254696 145.17811584 478.19535828 C142.35428011 481.00394804 139.5186382 483.80031667 136.68035889 486.59429932 C133.78422863 489.44945473 130.89943964 492.31601871 128.01367188 495.18164062 C122.35347868 500.79898124 116.68076067 506.40346028 111 512 C107.98202605 510.64698836 105.88852043 509.13770945 103.55612564 506.8022213 C102.88979968 506.13987744 102.22347373 505.47753358 101.53695607 504.79511869 C100.81321821 504.06555514 100.08948035 503.3359916 99.34381104 502.58432007 C98.56860194 501.81081982 97.79339284 501.03731958 96.99469256 500.24037993 C94.39044423 497.63943379 91.79342265 495.03138892 89.19628906 492.42333984 C87.33408177 490.56056859 85.47148247 488.69819726 83.60838318 486.83631897 C79.59399507 482.82297975 75.58328616 478.80599382 71.57505035 474.78651047 C65.77980518 468.9750138 59.9790477 463.16904516 54.17692837 457.3644125 C44.76361257 447.94671905 35.35477211 438.52456758 25.94873047 429.09960938 C16.81142502 419.94394695 7.67202214 410.79038667 -1.47021484 401.63964844 C-2.03370611 401.07563172 -2.59719738 400.511615 -3.17776415 399.93050687 C-6.00463666 397.10102429 -8.83155052 394.27158301 -11.65848494 391.44216228 C-35.11207012 367.9678424 -58.55839831 344.48628677 -82 321 C-80.31425217 317.4244158 -78.3333807 315.05228998 -75.55371094 312.21557617 C-74.63225281 311.27167526 -73.71079468 310.32777435 -72.76141357 309.35527039 C-71.75303317 308.33387839 -70.74400434 307.31312621 -69.734375 306.29296875 C-68.97056393 305.51880332 -68.97056393 305.51880332 -68.19132233 304.72899818 C-65.49930135 302.00120706 -62.80123618 299.27956348 -60.09814453 296.56274414 C-57.30735068 293.755356 -54.53814196 290.92763553 -51.7732811 288.09473705 C-49.64193888 285.91866429 -47.49519072 283.75830036 -45.34394073 281.60192299 C-44.31582004 280.56590165 -43.29358756 279.52400231 -42.27745819 278.47621727 C-40.8562088 277.01363166 -39.41051501 275.57491999 -37.96386719 274.13745117 C-37.14827332 273.31234543 -36.33267944 272.48723969 -35.49237061 271.63713074 C-33 270 -33 270 -30.04171753 270.10157776 C-27.04259379 270.98741921 -24.23859036 271.99542903 -21.36865234 273.23730469 C-19.74568741 273.93373077 -19.74568741 273.93373077 -18.0899353 274.64422607 C-16.93361603 275.14835022 -15.77729675 275.65247437 -14.5859375 276.171875 C-12.74242081 276.96587027 -10.89890406 277.75986539 -9.05538368 278.55385208 C-6.47781394 279.66605472 -3.9029641 280.78448434 -1.32800293 281.90270996 C2.52377243 283.5737627 6.37947784 285.2357201 10.23462486 286.89897537 C13.24283227 288.19702864 16.25026176 289.4968161 19.2562561 290.79998779 C21.43869522 291.7453953 23.6233232 292.68576985 25.81036377 293.6204834 C28.00085868 294.56787171 30.18014285 295.54147857 32.3493042 296.53674316 C33.4140094 297.01349487 34.4787146 297.49024658 35.57568359 297.98144531 C36.52381927 298.41724915 37.47195496 298.85305298 38.44882202 299.30206299 C40.91873038 300.24765771 40.91873038 300.24765771 42.9210043 299.26661301 C45.21814672 297.8670957 46.91371543 296.33513125 48.81510925 294.43212891 C49.55960831 293.69182434 50.30410736 292.95151978 51.07116699 292.18878174 C51.87807983 291.37624939 52.68499268 290.56371704 53.51635742 289.7265625 C54.37364944 288.87116882 55.23094147 288.01577515 56.11421204 287.13446045 C58.46066882 284.79107223 60.80257032 282.4433052 63.14240432 280.09331512 C65.59167262 277.63525681 68.04621803 275.18247852 70.50007629 272.72900391 C74.61829672 268.60984747 78.73262832 264.48683909 82.84448242 260.36132812 C87.60134595 255.58872412 92.36343102 250.821382 97.12853736 246.05700874 C101.71108472 241.47507121 106.29077043 236.89028517 110.86886024 232.30389404 C112.81821909 230.35100092 114.76842816 228.39896268 116.71928978 226.4475708 C119.43981426 223.72585748 122.15606486 220.99990399 124.87182617 218.2734375 C125.68481171 217.46090515 126.49779724 216.6483728 127.3354187 215.81121826 C128.43947807 214.70076141 128.43947807 214.70076141 129.56584167 213.56787109 C130.20866687 212.92337006 130.85149206 212.27886902 131.51379681 211.61483765 C133.08879513 210.05294097 133.08879513 210.05294097 134 208 C133.41766602 207.72397949 132.83533203 207.44795898 132.23535156 207.16357422 C130.07887902 206.04105913 128.20057882 204.8085361 126.234375 203.3828125 C125.51620605 202.86356201 124.79803711 202.34431152 124.05810547 201.80932617 C123.29643066 201.25349854 122.53475586 200.6976709 121.75 200.125 C120.57074951 199.26902222 120.57074951 199.26902222 119.36767578 198.39575195 C111.51604997 192.68040366 103.74618571 186.85712952 96 181 C92.14691234 182.57523746 89.55256086 185.17747444 86.68066406 188.09228516 C85.90437904 188.8681321 85.90437904 188.8681321 85.1124115 189.65965271 C83.40869711 191.36475671 81.71217022 193.07682768 80.015625 194.7890625 C78.83350593 195.974913 77.65094355 197.16032174 76.46795654 198.3453064 C73.35971272 201.46117638 70.25752263 204.58300634 67.15655518 207.70611572 C63.98951498 210.89363619 60.81678613 214.0754832 57.64453125 217.2578125 C51.42410597 223.49966976 45.21006463 229.74783485 39 236 C36.20892407 234.72407899 34.14618737 233.39974677 31.96867371 231.24282837 C31.1126355 230.40175285 31.1126355 230.40175285 30.23930359 229.54368591 C29.62561417 228.93066116 29.01192474 228.31763641 28.37963867 227.68603516 C27.72395905 227.03867905 27.06827942 226.39132294 26.39273071 225.72434998 C24.22900045 223.58470001 22.07299238 221.43747929 19.91796875 219.2890625 C18.41921103 217.79926892 16.92037472 216.30955441 15.42146301 214.81991577 C12.2831823 211.69811967 9.14931802 208.5719606 6.01782227 205.44335938 C1.99645451 201.42739066 -2.0408374 197.42784504 -6.08223438 193.43204689 C-9.18148268 190.36246859 -12.26948856 187.28176984 -15.35443687 184.19782639 C-16.83878058 182.71770096 -18.32726406 181.24171546 -19.81986427 179.76991653 C-21.90073183 177.71576734 -23.96536377 175.64656398 -26.02661133 173.57275391 C-26.65042191 172.96377762 -27.27423248 172.35480133 -27.91694641 171.72737122 C-29.60359192 170.01113892 -29.60359192 170.01113892 -32 167 C-31.54252931 163.09188586 -29.69138469 161.32673701 -26.93920898 158.59863281 C-26.07839218 157.7380426 -25.21757538 156.87745239 -24.33067322 155.99078369 C-23.39526199 155.07085632 -22.45985077 154.15092896 -21.49609375 153.203125 C-20.53279924 152.2454278 -19.57016651 151.28706453 -18.60816956 150.32806396 C-16.07807517 147.80940769 -13.53910072 145.29989162 -10.99816895 142.79217529 C-8.40546323 140.23019268 -5.82126044 137.65966499 -3.23632812 135.08984375 C1.8341599 130.05150159 6.9140788 125.02276666 12 120 C9.15520336 117.08278139 6.3607513 114.36570972 3.05859375 111.9765625 C2.32060547 111.43837891 1.58261719 110.90019531 0.82226562 110.34570312 C0.03529297 109.77787109 -0.75167969 109.21003906 -1.5625 108.625 C-3.27273332 107.37842405 -4.98234901 106.13100037 -6.69140625 104.8828125 C-7.56941895 104.2424707 -8.44743164 103.60212891 -9.35205078 102.94238281 C-14.42727052 99.21949435 -19.45024172 95.42673586 -24.47192383 91.63208008 C-28.77081611 88.39151983 -33.09676801 85.20171 -37.484375 82.08203125 C-38.36738281 81.44910156 -39.25039063 80.81617187 -40.16015625 80.1640625 C-41.85288804 78.95387416 -43.55316703 77.75415527 -45.26171875 76.56640625 C-46.01582031 76.025 -46.76992188 75.48359375 -47.546875 74.92578125 C-48.21557617 74.45567627 -48.88427734 73.98557129 -49.57324219 73.5012207 C-51 72 -51 72 -51 68 C-49.75341797 65.91967773 -49.75341797 65.91967773 -47.9921875 63.68359375 C-47.34233887 62.84683105 -46.69249023 62.01006836 -46.02294922 61.14794922 C-45.31412598 60.25350098 -44.60530273 59.35905273 -43.875 58.4375 C-42.39452803 56.53356635 -40.91538627 54.62859769 -39.4375 52.72265625 C-38.68984375 51.76246582 -37.9421875 50.80227539 -37.171875 49.81298828 C-34.00747884 45.71449766 -30.93416296 41.55233068 -27.875 37.375 C-27.02965698 36.22366577 -27.02965698 36.22366577 -26.16723633 35.04907227 C-24.44351778 32.70033658 -22.72176024 30.35017148 -21 28 C-18.523002 24.62340225 -16.04322231 21.24886208 -13.5625 17.875 C-12.72984619 16.73877197 -12.72984619 16.73877197 -11.88037109 15.57958984 C-8.00997076 10.31486937 -4.03471016 5.13976781 0 0 Z M329.046875 59.125 C327.66713705 60.72394865 326.32782688 62.3576878 325 64 C326.14275391 64.52787109 326.14275391 64.52787109 327.30859375 65.06640625 C336.45661503 69.44055375 344.08414776 74.53815942 351 82 C351.53109375 82.54914063 352.0621875 83.09828125 352.609375 83.6640625 C357.07944083 88.47037222 360.31904343 93.64341629 363.51953125 99.36328125 C365.01464363 102.10463777 365.01464363 102.10463777 367 105 C384.00256824 89.19667246 397.88457504 69.83785579 399.11572266 45.734375 C399.23924459 40.81759965 399.16065825 35.9149525 399 31 C371.68896921 29.76946545 347.87001552 38.64542311 329.046875 59.125 Z M9.45361328 39.54125977 C8.91462402 40.25080811 8.37563477 40.96035645 7.8203125 41.69140625 C7.22089844 42.47193359 6.62148437 43.25246094 6.00390625 44.05664062 C5.07384766 45.29704102 5.07384766 45.29704102 4.125 46.5625 C3.51269531 47.36236328 2.90039062 48.16222656 2.26953125 48.98632812 C0.49621473 51.31214475 -1.25599688 53.65214723 -3 56 C-3.5146582 56.68690918 -4.02931641 57.37381836 -4.55957031 58.08154297 C-7.13104324 61.21149274 -7.13104324 61.21149274 -8 65 C-6.63560003 66.2517269 -6.63560003 66.2517269 -4.80078125 67.4765625 C-4.09663086 67.97438232 -3.39248047 68.47220215 -2.66699219 68.98510742 C-1.89000977 69.52627197 -1.11302734 70.06743652 -0.3125 70.625 C6.81899277 75.67539873 13.82113787 80.86259949 20.75 86.1875 C26.99191918 90.97447228 33.26456745 95.68336108 39.69555664 100.21264648 C44.76480905 103.79673454 49.7278883 107.51610469 54.6875 111.25 C61.28904287 116.21992576 67.90660094 121.16555655 74.5625 126.0625 C75.34343018 126.63726074 76.12436035 127.21202148 76.92895508 127.80419922 C80.84164925 130.68204781 84.75765875 133.55532886 88.67578125 136.42578125 C98.03126143 143.288608 107.29493866 150.25816469 116.50634766 157.31323242 C122.42074036 161.83078894 128.41212406 166.2003063 134.5078125 170.46875 C137.23580187 172.40978866 139.8679615 174.45221718 142.4921875 176.53125 C143.26143555 177.13686768 144.03068359 177.74248535 144.82324219 178.36645508 C146.32997852 179.55851557 147.82843457 180.761136 149.31738281 181.9753418 C150.33977051 182.78225464 150.33977051 182.78225464 151.3828125 183.60546875 C151.98496582 184.09168701 152.58711914 184.57790527 153.20751953 185.07885742 C154.95774515 186.19843433 154.95774515 186.19843433 156.93485641 185.7121973 C160.3942215 184.51918075 162.63350328 181.75499603 165.14550781 179.19506836 C165.75081329 178.59020096 166.35611877 177.98533356 166.97976685 177.36213684 C168.97807947 175.36173476 170.9655573 173.35091749 172.953125 171.33984375 C174.33680839 169.95056499 175.72115576 168.56194725 177.10614014 167.17396545 C180.7492614 163.51939089 184.38328385 159.85589668 188.01550293 156.19049072 C191.72364608 152.45165739 195.4402983 148.72130418 199.15625 144.99023438 C206.44586704 137.66844458 213.72590271 130.33720638 221 123 C218.52145029 120.52145029 216.31769803 119.79798477 213.046875 118.515625 C212.10811523 118.14432213 212.10811523 118.14432213 211.15039062 117.76551819 C209.76235494 117.21684489 208.37342989 116.6704178 206.98376465 116.12588501 C203.02600583 114.5740019 199.07582318 113.00303157 195.125 111.43359375 C193.81931061 110.91547371 193.81931061 110.91547371 192.48724365 110.3868866 C180.87731979 105.77155104 169.31638898 101.03558291 157.75 96.3125 C153.09009197 94.41084951 148.42990168 92.50989198 143.76953125 90.609375 C142.61524124 90.13865067 141.46095123 89.66792633 140.27168274 89.18293762 C128.66932794 84.45374102 117.05504158 79.75424353 105.4375 75.0625 C104.47049164 74.67194427 103.50348328 74.28138855 102.50717163 73.8789978 C98.70636381 72.34397248 94.90553279 70.80900464 91.10462952 69.2742157 C82.68736538 65.87490811 74.27332892 62.467671 65.86080933 59.05664062 C63.60283355 58.14134957 61.34454064 57.22684501 59.08618164 56.3125 C52.3935285 53.60161878 45.70447636 50.88260697 39.02604675 48.13684082 C36.02329595 46.90253971 33.01910648 45.67176147 30.01486206 44.44110107 C28.60254192 43.86121977 27.19100345 43.27943052 25.78030396 42.69561768 C23.85279387 41.89792508 21.92281385 41.10652024 19.9921875 40.31640625 C18.90276855 39.86724854 17.81334961 39.41809082 16.69091797 38.95532227 C12.75949982 37.48741648 12.75949982 37.48741648 9.45361328 39.54125977 Z M294.80598354 92.61523247 C293.55541547 93.82517775 293.55541547 93.82517775 292.27958339 95.05956638 C290.91341045 96.4114978 290.91341045 96.4114978 289.51963806 97.79074097 C288.53899494 98.74745254 287.55753177 99.70332415 286.5753184 100.65842354 C283.87140409 103.29301903 281.18026933 105.9403472 278.49121249 108.59009457 C276.18407569 110.86033246 273.86967939 113.12309732 271.55521976 115.38586561 C263.25303736 123.50310466 254.98064605 131.65042674 246.71484375 139.8046875 C246.06096755 140.44966605 245.40709136 141.09464461 244.73340073 141.75916797 C231.72442312 154.59238189 218.72871789 167.43899116 205.756217 180.30908012 C202.90122425 183.14113916 200.0460485 185.97301353 197.19067383 188.8046875 C196.48106432 189.50842739 195.77145481 190.21216728 195.04034198 190.93723263 C183.60169713 202.27785839 172.10390721 213.55650699 160.58064621 224.81107508 C148.71888642 236.39854165 136.91805322 248.04548726 125.17116839 259.74940693 C118.58704751 266.30635017 111.97957642 272.83503748 105.30259514 279.29751205 C65.91879867 315.98212183 65.91879867 315.98212183 49.42134285 365.81573868 C48.87251775 371.99334515 47.42936862 377.97222506 46 384 C57.37477884 381.60410181 68.66015658 378.89750728 79.92709351 376.04098511 C81.51332165 375.63968451 83.10025744 375.24117041 84.68789673 374.8454895 C86.95686146 374.27889282 89.2227967 373.70142908 91.48828125 373.12109375 C92.17104126 372.95237762 92.85380127 372.7836615 93.55725098 372.60983276 C99.70909959 371.00999359 103.84047617 368.40508492 108.31934929 363.95188618 C109.57355433 362.71197972 109.57355433 362.71197972 110.85309684 361.44702464 C111.7613695 360.53906538 112.66964216 359.63110612 113.60543823 358.69563293 C114.58763498 357.72075548 115.57025304 356.74630234 116.5532552 355.772237 C119.25059881 353.09682274 121.94166257 350.4151689 124.63167572 347.73238695 C127.53474038 344.83919996 130.4434387 341.95168553 133.35127258 339.06329346 C140.36844892 332.09034511 147.37588474 325.1076479 154.38188285 318.12347105 C157.01973014 315.49408065 159.65814533 312.86526047 162.29656472 310.23644415 C173.92430696 298.65085655 185.54894563 287.06216352 197.16535759 275.46521473 C200.00669401 272.62871786 202.84805165 269.79224225 205.68945312 266.95581055 C206.39566363 266.25082983 207.10187413 265.54584912 207.82948495 264.81950536 C219.2831687 253.38679862 230.75553579 241.97303182 242.23571204 230.56693415 C254.01948063 218.85858455 265.78629557 207.1334125 277.5366298 195.39150733 C284.13557725 188.79814483 290.74182706 182.21247422 297.36712265 175.64557838 C303.0060795 170.05623216 308.62958888 164.45191443 314.23330788 158.82723091 C317.09381893 155.95696335 319.9611925 153.09454939 322.84852409 150.25124168 C325.49054334 147.64916854 328.11102666 145.02727303 330.71576668 142.38789793 C332.11193802 140.98405552 333.53035122 139.60244285 334.94936359 138.22169238 C339.26881406 134.08550925 339.26881406 134.08550925 341.34170365 128.70148599 C341.13877775 126.27530057 341.13877775 126.27530057 340 123 C339.74863281 122.12472656 339.49726563 121.24945313 339.23828125 120.34765625 C334.01888969 107.46434796 326.23318112 97.88054789 313.42578125 91.96484375 C306.61616605 89.25634946 300.50619958 87.03627549 294.80598354 92.61523247 Z M35.27270508 141.38671875 C34.18058824 142.47931119 33.09670796 143.5801754 32.01953125 144.6875 C31.44667892 145.26459717 30.8738266 145.84169434 30.28361511 146.4362793 C28.45276435 148.28394376 26.63260815 150.14175807 24.8125 152 C23.57425738 153.25328593 22.33533332 154.50589901 21.09570312 155.7578125 C18.05583532 158.83078528 15.02551984 161.91290242 12 165 C13.58431453 168.90851199 16.26635095 171.52367356 19.2265625 174.421875 C19.73424164 174.92672424 20.24192078 175.43157349 20.76498413 175.95172119 C22.38033842 177.55592096 24.00252209 179.15300856 25.625 180.75 C26.72441698 181.83938107 27.82338059 182.9292199 28.921875 184.01953125 C31.6093602 186.68501885 34.30299021 189.34415143 37 192 C44.11905227 186.19316781 50.47374812 179.63714556 56.9375 173.125 C58.10979204 171.94768362 59.28231614 170.77059826 60.45507812 169.59375 C63.30606982 166.73182511 66.15389615 163.86678543 69 161 C65.11587404 157.0140659 65.11587404 157.0140659 60.765625 153.5703125 C60.19561768 153.17054199 59.62561035 152.77077148 59.03833008 152.35888672 C58.44818115 151.9517041 57.85803223 151.54452148 57.25 151.125 C52.2705445 147.64506561 47.4480014 144.06201264 42.76953125 140.1796875 C39.41803285 137.94535523 38.17533487 138.84656041 35.27270508 141.38671875 Z M301.08740234 214.71972656 C300.47117508 215.32777634 299.85494781 215.93582611 299.220047 216.56230164 C297.17218845 218.58524896 295.12856708 220.61239852 293.0859375 222.640625 C292.04286375 223.67571323 292.04286375 223.67571323 290.9787178 224.73171234 C287.30023392 228.38344211 283.62545103 232.03885569 279.953125 235.69677734 C276.14857632 239.4846559 272.33018278 243.25825737 268.50859642 247.02893448 C265.58197304 249.92199513 262.66636745 252.82596953 259.75365067 255.7330246 C258.35037758 257.12955681 256.94283134 258.52180836 255.53104782 259.90973663 C253.5601212 261.84924044 251.60534888 263.80371344 249.65380859 265.76269531 C249.06268784 266.33741074 248.47156708 266.91212616 247.86253357 267.5042572 C246.07201875 269.26363767 246.07201875 269.26363767 244 272 C244.47077035 275.571777 246.04917766 277.68048806 248.24609375 280.4921875 C249.24672852 281.78576172 249.24672852 281.78576172 250.26757812 283.10546875 C250.98365234 284.01941406 251.69972656 284.93335938 252.4375 285.875 C253.9169945 287.78780292 255.39486231 289.70186515 256.87109375 291.6171875 C257.94593018 293.0108252 257.94593018 293.0108252 259.04248047 294.43261719 C261.8345871 298.09460188 264.48514273 301.84171275 267.13061523 305.61083984 C270.95137635 311.01089098 274.97582061 316.25060626 279 321.5 C283.84816864 327.82562047 288.62305756 334.17875473 293.21191406 340.69458008 C296.79632245 345.76410564 300.51585845 350.72756122 304.25 355.6875 C309.21992576 362.28904287 314.16555655 368.90660094 319.0625 375.5625 C319.63726074 376.34343018 320.21202148 377.12436035 320.80419922 377.92895508 C323.68204781 381.84164925 326.55532886 385.75765875 329.42578125 389.67578125 C335.63690642 398.14253483 341.92287874 406.54191249 348.3125 414.875 C354.10888852 422.43607912 359.70793073 430.07659628 365 438 C368.57884873 436.7125852 371.30901333 435.20733924 374.28515625 432.84765625 C375.06310547 432.23599609 375.84105469 431.62433594 376.64257812 430.99414062 C377.44115234 430.35669922 378.23972656 429.71925781 379.0625 429.0625 C380.65741984 427.80321791 382.25246753 426.54409772 383.84765625 425.28515625 C384.54898682 424.72707275 385.25031738 424.16898926 385.97290039 423.59399414 C387.95988881 422.03154113 389.97192949 420.50860681 392 419 C391.33589436 415.00658538 390.12329466 411.50591877 388.61328125 407.75390625 C388.36433105 407.13231125 388.11538086 406.51071625 387.85888672 405.87028503 C387.01448586 403.76589379 386.16356661 401.6642035 385.3125 399.5625 C384.69596235 398.03102322 384.07967847 396.49944426 383.46362305 394.96777344 C376.84476081 378.53565445 370.14271006 362.13693626 363.45043945 345.73461914 C357.43947666 331.0007595 351.45542679 316.25638948 345.5 301.5 C337.50504369 281.69096319 329.4540931 261.90500822 321.3828125 242.12695312 C316.88379677 231.09960791 312.39702204 220.0684822 308 209 C305.60960648 209 302.79475983 213.0247581 301.08740234 214.71972656 Z M-28.91796875 309.625 C-30.01550756 310.74249406 -31.10507895 311.86785643 -32.1875 313 C-33.02571289 313.85851562 -33.02571289 313.85851562 -33.88085938 314.734375 C-35.26073093 316.14962788 -36.63126734 317.57397155 -38 319 C-36.42122567 322.8239492 -34.00498287 325.23642099 -31.09130859 328.13574219 C-30.34472237 328.88276649 -30.34472237 328.88276649 -29.58305359 329.6448822 C-27.9428793 331.28366733 -26.29574339 332.91526134 -24.6484375 334.546875 C-23.50742744 335.68415347 -22.36685923 336.8218754 -21.22671509 337.96002197 C-18.22921238 340.94989979 -15.22575149 343.93372191 -12.2210083 346.9163208 C-9.15413288 349.96271321 -6.09293306 353.01479703 -3.03125 356.06640625 C2.97362783 362.04985434 8.98481232 368.02691663 15 374 C15.66 373.67 16.32 373.34 17 373 C17.90486376 370.11128666 18.69113663 367.26258014 19.41796875 364.328125 C19.75022209 363.01627228 19.75022209 363.01627228 20.08918762 361.67791748 C20.55636115 359.8227757 21.01926716 357.9665549 21.47827148 356.109375 C22.18195538 353.27235409 22.90546318 350.44091134 23.63085938 347.609375 C24.08194533 345.8075957 24.53185352 344.00552106 24.98046875 342.203125 C25.3069062 340.93411346 25.3069062 340.93411346 25.63993835 339.63946533 C25.93067986 338.44362823 25.93067986 338.44362823 26.22729492 337.22363281 C26.40113205 336.52715637 26.57496918 335.83067993 26.7540741 335.11309814 C27.06786393 332.41688472 26.89618579 330.57174988 26 328 C24.02623531 326.48382384 24.02623531 326.48382384 21.43603516 325.50463867 C20.46477692 325.08458054 19.49351868 324.6645224 18.49282837 324.23173523 C17.43558563 323.79819229 16.3783429 323.36464935 15.2890625 322.91796875 C14.20998627 322.45892654 13.13091003 321.99988434 12.01913452 321.52693176 C9.73464901 320.55916149 7.44623043 319.60063159 5.15429688 318.65063477 C1.63872591 317.19319033 -1.86487993 315.70970077 -5.3671875 314.22070312 C-7.58528865 313.28491886 -9.80401861 312.3506234 -12.0234375 311.41796875 C-13.07663177 310.97430466 -14.12982605 310.53064056 -15.2149353 310.0735321 C-16.19249786 309.66923477 -17.17006042 309.26493744 -18.17724609 308.84838867 C-19.03804779 308.49040695 -19.89884949 308.13242523 -20.78573608 307.76359558 C-24.82909292 306.3692318 -25.66633984 306.69983985 -28.91796875 309.625 Z M266.6484375 365.21875 C265.96136719 365.90453125 265.27429688 366.5903125 264.56640625 367.296875 C263.48166016 368.38742187 263.48166016 368.38742187 262.375 369.5 C261.67503906 370.19609375 260.97507812 370.8921875 260.25390625 371.609375 C256.17762686 375.69321706 252.27573822 379.87183624 248.52368164 384.25585938 C246.45569645 386.62305793 244.25588603 388.81247415 242 391 C243.5391801 394.66752005 245.75485452 396.98580573 248.5703125 399.765625 C249.46621094 400.65507812 250.36210937 401.54453125 251.28515625 402.4609375 C252.22230469 403.38132812 253.15945313 404.30171875 254.125 405.25 C255.07988637 406.19484856 256.03431859 407.14015633 256.98828125 408.0859375 C259.32109087 410.39518338 261.65844086 412.69963203 264 415 C269.49834647 410.4660232 274.39795069 405.58914254 279.25 400.375 C279.95640625 399.62476563 280.6628125 398.87453125 281.390625 398.1015625 C284.4456858 394.8382021 287.3664568 391.61835557 290 388 C289.3498291 387.13834229 289.3498291 387.13834229 288.68652344 386.25927734 C286.70596705 383.63247313 284.72796513 381.00375588 282.75 378.375 C282.06808594 377.47136719 281.38617188 376.56773437 280.68359375 375.63671875 C275.0030899 368.08109712 275.0030899 368.08109712 272.578125 364.3515625 C271.79695313 363.18753906 271.79695313 363.18753906 271 362 C269.12355943 362 267.89902397 363.97043674 266.6484375 365.21875 Z M92.87402344 403.91796875 C92.07349548 404.11817627 91.27296753 404.31838379 90.44818115 404.5246582 C89.59387512 404.743396 88.73956909 404.96213379 87.859375 405.1875 C86.97719299 405.40946045 86.09501099 405.6314209 85.18609619 405.86010742 C82.37292779 406.56899023 79.56146792 407.28440601 76.75 408 C74.84125483 408.48220249 72.93240185 408.96397844 71.0234375 409.4453125 C66.3476936 410.62526517 61.67347118 411.81107905 57 413 C56.67717666 416.12777975 56.67717666 416.12777975 58.97412109 418.33488464 C59.89789551 419.25199722 60.82166992 420.1691098 61.7734375 421.11401367 C62.28062317 421.62163742 62.78780884 422.12926117 63.31036377 422.65226746 C64.99156378 424.33137445 66.68314686 425.99960185 68.375 427.66796875 C69.54150468 428.82887931 70.70734954 429.99045321 71.87255859 431.15266418 C74.94354302 434.21218539 78.02342953 437.26259183 81.10522461 440.31121826 C84.24742637 443.42275106 87.38116964 446.54277667 90.515625 449.66210938 C96.66881322 455.78310738 102.83142699 461.89450687 109 468 C112.71888798 466.25005138 115.32788648 464.10071624 118.3125 461.25 C119.21613281 460.40953125 120.11976563 459.5690625 121.05078125 458.703125 C123.28694849 456.20023676 123.28694849 456.20023676 122.8515625 453.38330078 C121.76953145 449.08433682 120.12099862 445.20776886 118.32421875 441.1640625 C117.95778763 440.32587982 117.59135651 439.48769714 117.21382141 438.62411499 C116.43942227 436.85608952 115.66178106 435.08948096 114.88110352 433.32421875 C113.6957267 430.64360387 112.51983413 427.95899443 111.34570312 425.2734375 C110.58909474 423.54923636 109.8319505 421.82527025 109.07421875 420.1015625 C108.7261467 419.30859772 108.37807465 418.51563293 108.01945496 417.69863892 C105.81684781 412.72323811 103.46705736 407.84991245 101 403 C97.84898102 403 95.82828149 403.17005532 92.87402344 403.91796875 Z " fill="#000000" transform="translate(82,0)"/>
</svg>
