<?xml version="1.0" encoding="UTF-8"?>
<svg version="1.1" xmlns="http://www.w3.org/2000/svg" width="512" height="512">
<path d="M0 0 C9.19218208 6.74194812 17.50622065 16.7798293 19.421875 28.35546875 C19.19523666 29.94912766 19.19523666 29.94912766 18.96401978 31.57498169 C18.54598049 35.94929403 18.38951973 39.38316829 20.421875 43.35546875 C26.42615517 49.29925081 34.93889558 52.6026262 42.4453125 56.22265625 C44.70621775 57.35779959 46.96528011 58.49662029 49.2225647 59.63894653 C53.95488312 62.01744526 58.70449724 64.35479373 63.47216797 66.66113281 C68.97328084 69.32304699 74.43153783 72.06020433 79.873649 74.84052169 C85.1246564 77.52075769 90.40277725 80.14355467 95.69459915 82.74240494 C97.93676033 83.85013147 100.17185061 84.97229212 102.39942551 86.10906601 C113.74530059 92.59609309 113.74530059 92.59609309 126.13775635 93.48760986 C128.99716761 91.67724998 131.06853507 89.76737557 133.421875 87.35546875 C143.72285824 81.62582429 156.99766561 81.65893556 168.28515625 84.23828125 C182.33175189 89.22308957 190.82734035 98.50995041 197.22265625 111.5859375 C201.50774729 121.48212496 200.98108994 135.48361338 197.421875 145.48046875 C191.56892894 158.32397574 182.74392658 165.19444296 170.421875 171.35546875 C170.421875 222.83546875 170.421875 274.31546875 170.421875 327.35546875 C173.721875 329.00546875 177.021875 330.65546875 180.421875 332.35546875 C190.11873038 339.00714668 196.63103546 348.99112421 199.421875 360.35546875 C199.85386139 363.61873532 199.94718023 366.8161086 199.921875 370.10546875 C199.91615479 370.97727783 199.91043457 371.84908691 199.90454102 372.74731445 C199.55381803 385.53276158 194.49456692 394.88111778 185.83984375 404.02734375 C175.30805839 413.96975912 163.35816717 415.92030714 149.5625 415.69921875 C140.77789511 415.31308227 133.9279461 412.08178344 126.7331543 407.25048828 C125.92508835 406.70876984 125.1170224 406.16705139 124.2844696 405.60891724 C123.36248528 404.98846024 123.36248528 404.98846024 122.421875 404.35546875 C109.10511135 410.67466273 95.82221409 417.06066225 82.57624149 423.52700901 C76.42449051 426.52820818 70.26365466 429.50689246 64.07641602 432.43432617 C58.10420302 435.2600986 52.16387848 438.14632508 46.23931694 441.07102776 C43.97539126 442.17621672 41.70135744 443.26094475 39.41758919 444.32452583 C27.93631212 448.94908585 27.93631212 448.94908585 19.42246628 457.25391769 C18.5486813 460.55704479 18.68324465 463.47559 19.06028748 466.84654236 C19.86293009 474.63556618 15.58239932 482.17409697 11.046875 488.29296875 C3.79710687 496.80019131 -6.14121373 504.4819878 -17.66186523 505.54833984 C-32.20672027 506.0750382 -44.10662342 504.99872375 -55.65625 495.15625 C-62.61878044 488.63241558 -68.98118307 480.00523881 -70.578125 470.35546875 C-70.35148666 468.76180984 -70.35148666 468.76180984 -70.12026978 467.13595581 C-69.70223049 462.76164347 -69.54576973 459.32776921 -71.578125 455.35546875 C-77.58240517 449.41168669 -86.09514558 446.1083113 -93.6015625 442.48828125 C-95.86246775 441.35313791 -98.12153011 440.21431721 -100.3788147 439.07199097 C-105.11113312 436.69349224 -109.86074724 434.35614377 -114.62841797 432.04980469 C-120.12953084 429.38789051 -125.58778783 426.65073317 -131.029899 423.87041581 C-136.2809064 421.19017981 -141.55902725 418.56738283 -146.85084915 415.96853256 C-149.09301033 414.86080603 -151.32810061 413.73864538 -153.55567551 412.60187149 C-164.90155059 406.11484441 -164.90155059 406.11484441 -177.29400635 405.22332764 C-180.15341761 407.03368752 -182.22478507 408.94356193 -184.578125 411.35546875 C-194.87910824 417.08511321 -208.15391561 417.05200194 -219.44140625 414.47265625 C-233.48800189 409.48784793 -241.98359035 400.20098709 -248.37890625 387.125 C-252.67959089 377.19279998 -252.13399618 363.18077293 -248.515625 353.16796875 C-242.69347042 340.43098633 -233.91029438 333.52155344 -221.578125 327.35546875 C-221.578125 275.87546875 -221.578125 224.39546875 -221.578125 171.35546875 C-226.528125 168.88046875 -226.528125 168.88046875 -231.578125 166.35546875 C-241.43658529 159.32675169 -247.63539631 150.04669194 -250.578125 138.35546875 C-251.01267814 135.09248491 -251.10343018 131.89482171 -251.078125 128.60546875 C-251.07240479 127.73365967 -251.06668457 126.86185059 -251.06079102 125.96362305 C-250.71006803 113.17817592 -245.65081692 103.82981972 -236.99609375 94.68359375 C-226.46430839 84.74117838 -214.51441717 82.79063036 -200.71875 83.01171875 C-191.93414511 83.39785523 -185.0841961 86.62915406 -177.8894043 91.46044922 C-177.08133835 92.00216766 -176.2732724 92.54388611 -175.4407196 93.10202026 C-174.82606339 93.51565826 -174.21140717 93.92929626 -173.578125 94.35546875 C-160.26136135 88.03627477 -146.97846409 81.65027525 -133.73249149 75.18392849 C-127.58074051 72.18272932 -121.41990466 69.20404504 -115.23266602 66.27661133 C-109.26045302 63.4508389 -103.32012848 60.56461242 -97.39556694 57.63990974 C-95.13164126 56.53472078 -92.85760744 55.44999275 -90.57383919 54.38641167 C-79.09256212 49.76185165 -79.09256212 49.76185165 -70.57871628 41.45701981 C-69.7049313 38.15389271 -69.83949465 35.2353475 -70.21653748 31.86439514 C-71.01918009 24.07537132 -66.73864932 16.53684053 -62.203125 10.41796875 C-46.6174441 -7.87101012 -20.7668186 -13.24671308 0 0 Z M-57.578125 71.35546875 C-70.86121459 77.98534699 -84.14316674 84.61749901 -97.42375851 91.25237942 C-103.58982538 94.33283181 -109.756266 97.41253161 -115.92358398 100.49047852 C-121.8701898 103.45827637 -127.81575747 106.42814661 -133.76068306 109.39930916 C-136.03424 110.53516046 -138.30815009 111.67030513 -140.58241081 112.80474663 C-143.75630486 114.38808876 -146.9289583 115.97388992 -150.10131836 117.56030273 C-151.52658844 118.27024132 -151.52658844 118.27024132 -152.98065186 118.99452209 C-153.84027023 119.42501862 -154.69988861 119.85551514 -155.58555603 120.29905701 C-156.33681731 120.67422675 -157.08807859 121.0493965 -157.86210537 121.43593502 C-159.55644015 122.23735504 -159.55644015 122.23735504 -160.578125 123.35546875 C-160.68636273 125.60440829 -160.76382145 127.8548445 -160.828125 130.10546875 C-161.47028274 142.33864687 -165.79886164 152.6678151 -174.578125 161.35546875 C-179.58343526 165.44790944 -184.79710916 168.49374185 -190.578125 171.35546875 C-190.85855134 191.57406562 -191.07010556 211.79226753 -191.19987106 232.01240635 C-191.26172798 241.40126646 -191.34604186 250.7889178 -191.48339844 260.17700195 C-191.60307477 268.36057892 -191.68043827 276.54328057 -191.70718694 284.72770828 C-191.7228227 289.06117273 -191.75950533 293.39213342 -191.84688568 297.72479439 C-191.92852212 301.80582198 -191.95343494 305.88332324 -191.93541718 309.9650898 C-191.93871126 311.46041057 -191.96249344 312.95585246 -192.0085907 314.45046616 C-192.14081423 318.95980917 -192.08453468 323.04152645 -190.578125 327.35546875 C-186.93790268 330.66291911 -183.05922722 332.4283406 -178.578125 334.35546875 C-170.44350659 339.75349181 -164.99474815 348.5920946 -161.9921875 357.78125 C-161.578125 360.35546875 -161.578125 360.35546875 -161.8515625 363.8984375 C-162.20030542 369.79192229 -162.20030542 369.79192229 -160.578125 375.35546875 C-158.07013577 377.53526016 -155.23174886 378.80321491 -152.22460938 380.17749023 C-150.47775255 381.0339317 -148.73126277 381.89112215 -146.98510742 382.74899292 C-145.63568558 383.39498507 -145.63568558 383.39498507 -144.25900269 384.05402756 C-140.07839793 386.08351636 -135.98733303 388.27558794 -131.88476562 390.45727539 C-123.85882721 394.67684105 -115.80177564 398.83505827 -107.73084259 402.9678278 C-102.89042821 405.44814601 -98.06159673 407.94712964 -93.25292969 410.48852539 C-88.54548975 412.97554015 -83.81529029 415.41279731 -79.06523132 417.81735039 C-77.27335884 418.73503821 -75.49027589 419.67011227 -73.71687317 420.62300301 C-64.39003507 426.15272025 -64.39003507 426.15272025 -54.14404297 426.37789917 C-51.3125628 424.58060145 -49.03656625 422.62384985 -46.578125 420.35546875 C-36.25555195 414.68135195 -23.0018326 414.59149374 -11.71484375 417.2734375 C-6.64495511 419.11432538 -2.35539255 421.46154278 2.1105957 424.46044922 C2.91866165 425.00216766 3.7267276 425.54388611 4.5592804 426.10202026 C5.17393661 426.51565826 5.78859283 426.92929626 6.421875 427.35546875 C19.70496459 420.72559051 32.98691674 414.09343849 46.26750851 407.45855808 C52.43357538 404.37810569 58.600016 401.29840589 64.76733398 398.22045898 C70.7139398 395.25266113 76.65950747 392.28279089 82.60443306 389.31162834 C84.87799 388.17577704 87.15190009 387.04063237 89.42616081 385.90619087 C92.60005486 384.32284874 95.7727083 382.73704758 98.94506836 381.15063477 C99.89524841 380.67734238 100.84542847 380.20404999 101.82440186 379.71641541 C103.11382942 379.07067062 103.11382942 379.07067062 104.42930603 378.41188049 C105.18056731 378.03671075 105.93182859 377.661541 106.70585537 377.27500248 C108.40019015 376.47358246 108.40019015 376.47358246 109.421875 375.35546875 C109.53011273 373.10652921 109.60757145 370.856093 109.671875 368.60546875 C110.27019355 356.9813917 114.21363732 346.76848575 122.421875 338.35546875 C126.33461458 334.85880781 130.5891599 332.20288882 135.1796875 329.68359375 C135.97777832 329.2443457 136.77586914 328.80509766 137.59814453 328.35253906 C138.19997559 328.02350586 138.80180664 327.69447266 139.421875 327.35546875 C139.70230134 307.13687188 139.91385556 286.91866997 140.04362106 266.69853115 C140.10547798 257.30967104 140.18979186 247.9220197 140.32714844 238.53393555 C140.44682477 230.35035858 140.52418827 222.16765693 140.55093694 213.98322922 C140.5665727 209.64976477 140.60325533 205.31880408 140.69063568 200.98614311 C140.77227212 196.90511552 140.79718494 192.82761426 140.77916718 188.7458477 C140.78246126 187.25052693 140.80624344 185.75508504 140.8523407 184.26047134 C140.98455922 179.75129901 140.92646438 175.66985192 139.421875 171.35546875 C135.78211557 168.05096068 131.88116031 166.31968396 127.421875 164.35546875 C119.13910509 158.55759733 114.06188577 150.48657231 110.87109375 140.96484375 C110.421875 138.35546875 110.421875 138.35546875 110.69140625 134.80859375 C111.04427224 128.91711741 111.04427224 128.91711741 109.421875 123.35546875 C106.91388659 121.17567489 104.07550011 119.90772316 101.06835938 118.53344727 C99.32150255 117.6770058 97.57501277 116.81981535 95.82885742 115.96194458 C94.47943558 115.31595243 94.47943558 115.31595243 93.10275269 114.65690994 C88.92214793 112.62742114 84.83108303 110.43534956 80.72851562 108.25366211 C72.70257721 104.03409645 64.64552564 99.87587923 56.57459259 95.7431097 C51.73417821 93.26279149 46.90534673 90.76380786 42.09667969 88.22241211 C37.38923975 85.73539735 32.65904029 83.29814019 27.90898132 80.89358711 C26.11710884 79.97589929 24.33402589 79.04082523 22.56062317 78.08793449 C13.23378507 72.55821725 13.23378507 72.55821725 2.98779297 72.33303833 C0.1563128 74.13033605 -2.11968375 76.08708765 -4.578125 78.35546875 C-14.90069805 84.02958555 -28.1544174 84.11944376 -39.44140625 81.4375 C-44.51129489 79.59661212 -48.80085745 77.24939472 -53.2668457 74.25048828 C-54.07491165 73.70876984 -54.8829776 73.16705139 -55.7155304 72.60891724 C-56.33018661 72.19527924 -56.94484283 71.78164124 -57.578125 71.35546875 Z " fill="#002774" transform="translate(281.578125,6.64453125)"/>
<path d="M0 0 C3.66944815 3.00099539 6.96937735 6.29600157 10.25927734 9.70410156 C10.99662109 10.41050781 11.73396484 11.11691406 12.49365234 11.84472656 C18.94211982 18.39317028 22.66740798 26.35694556 26.25927734 34.70410156 C26.71818359 35.74695313 27.17708984 36.78980469 27.64990234 37.86425781 C32.07293307 50.18333282 30.50373476 63.870087 30.25927734 76.70410156 C40.15927734 76.70410156 50.05927734 76.70410156 60.25927734 76.70410156 C60.25927734 116.96410156 60.25927734 157.22410156 60.25927734 198.70410156 C-9.04072266 198.70410156 -78.34072266 198.70410156 -149.74072266 198.70410156 C-149.74072266 158.44410156 -149.74072266 118.18410156 -149.74072266 76.70410156 C-139.84072266 76.70410156 -129.94072266 76.70410156 -119.74072266 76.70410156 C-119.82322266 72.37285156 -119.90572266 68.04160156 -119.99072266 63.57910156 C-120.0452323 53.23293499 -119.93955383 44.2912345 -115.74072266 34.70410156 C-115.47759277 34.07149414 -115.21446289 33.43888672 -114.94335938 32.78710938 C-110.53806528 22.351025 -104.85740753 14.53928292 -96.74072266 6.70410156 C-96.03431641 5.96675781 -95.32791016 5.22941406 -94.60009766 4.46972656 C-70.40433808 -19.35663211 -26.63378874 -19.82779112 0 0 Z M-80.72900391 35.00878906 C-90.14826955 47.62877604 -89.74072266 61.31200403 -89.74072266 76.70410156 C-79.84072266 76.70410156 -69.94072266 76.70410156 -59.74072266 76.70410156 C-59.74072266 96.50410156 -59.74072266 116.30410156 -59.74072266 136.70410156 C-49.84072266 136.70410156 -39.94072266 136.70410156 -29.74072266 136.70410156 C-29.74072266 116.90410156 -29.74072266 97.10410156 -29.74072266 76.70410156 C-19.84072266 76.70410156 -9.94072266 76.70410156 0.25927734 76.70410156 C0.25927734 57.18541271 -0.58992748 43.24637571 -14.31884766 28.89550781 C-18.13180688 25.4453947 -22.12612863 22.94484193 -26.74072266 20.70410156 C-27.40072266 20.36507812 -28.06072266 20.02605469 -28.74072266 19.67675781 C-47.56899831 11.69680504 -68.25194633 20.41955944 -80.72900391 35.00878906 Z " fill="#002774" transform="translate(300.74072265625,148.2958984375)"/>
</svg>
