<?xml version="1.0" encoding="UTF-8"?>
<svg version="1.1" xmlns="http://www.w3.org/2000/svg" width="512" height="512">
<path d="M0 0 C0.69334946 -0.00686325 1.38669891 -0.0137265 2.10105896 -0.02079773 C4.38276917 -0.03903173 6.66378952 -0.03523331 8.94555664 -0.02954102 C10.53829674 -0.03410458 12.13103486 -0.03941067 13.72377014 -0.04542542 C17.05844126 -0.05434989 20.39287281 -0.0519412 23.72753906 -0.04199219 C27.99253259 -0.03050502 32.25669786 -0.05071278 36.5215826 -0.07990932 C39.809954 -0.09829109 43.09812765 -0.09797495 46.38653755 -0.0922718 C47.95855432 -0.09211882 49.53058469 -0.09814423 51.10255241 -0.11056328 C53.30456765 -0.12550931 55.50506229 -0.11477202 57.70703125 -0.09765625 C59.58303261 -0.097407 59.58303261 -0.097407 61.49693298 -0.09715271 C66.40822694 0.62233454 69.52527468 2.83006175 72.78149414 6.50952148 C74.50160105 10.88958754 74.23404634 15.06035177 74.10571289 19.71655273 C74.09217773 20.64790039 74.07864258 21.57924805 74.06469727 22.53881836 C74.02948171 24.8278292 73.98023388 27.11563732 73.91821289 29.40405273 C74.93399414 29.65155273 75.94977539 29.89905273 76.99633789 30.15405273 C80.97568238 31.29215327 84.17479279 33.1735122 87.66821289 35.40405273 C88.77680664 36.10530273 89.88540039 36.80655273 91.02758789 37.52905273 C92.99939656 38.80806376 94.96264711 40.10034221 96.91821289 41.40405273 C100.45955985 41.05657193 103.01017552 39.19212314 105.98071289 37.34155273 C111.60254089 34.22665471 116.56409591 32.98998624 122.91821289 34.40405273 C130.60836856 37.36658098 133.18739519 43.14283961 136.98071289 50.15405273 C137.95671309 51.90288876 138.9327432 53.65170925 139.91090393 55.39933777 C140.9166744 57.20044431 141.91513064 59.00547982 142.91333008 60.81079102 C146.04948067 66.45902915 149.33377062 72.02128963 152.60571289 77.59155273 C154.24759687 80.39780707 155.88815039 83.20467677 157.51904297 86.01733398 C158.38813928 87.49984761 159.27321376 88.97326054 160.18261719 90.43139648 C163.51262751 95.85731545 163.69797596 100.20445502 162.91821289 106.40405273 C159.87952747 114.16958215 151.79351451 117.58444072 144.91821289 121.40405273 C144.91821289 130.64405273 144.91821289 139.88405273 144.91821289 149.40405273 C149.33449106 151.74270388 149.33449106 151.74270388 153.77270508 154.0390625 C158.29151991 156.52597516 161.31504152 159.37208902 162.91821289 164.40405273 C164.8174499 173.93747774 160.7314347 180.57492053 155.85571289 188.46655273 C155.12966684 189.67943399 154.40598966 190.8937361 153.68457031 192.109375 C152.19186258 194.62022806 150.6879063 197.1238401 149.17700195 199.6237793 C146.95126179 203.32506649 144.81138281 207.07098056 142.69165039 210.83374023 C142.0186142 212.02379668 141.34551952 213.21382005 140.67236328 214.40380859 C139.40512196 216.64749336 138.14113483 218.89302012 136.88085938 221.140625 C129.52159021 234.01806679 129.52159021 234.01806679 122.91821289 236.40405273 C116.07968589 237.67502897 111.41959335 236.48345766 105.54321289 232.84155273 C104.10848633 231.84961914 104.10848633 231.84961914 102.64477539 230.83764648 C100.04872013 229.180548 100.04872013 229.180548 97.32836914 229.51733398 C94.78356855 230.45358963 92.92024457 231.56017226 90.73071289 233.15405273 C78.8539013 241.40405273 78.8539013 241.40405273 73.91821289 241.40405273 C73.93916016 241.97849121 73.96010742 242.55292969 73.98168945 243.14477539 C74.06535054 245.77268648 74.11702749 248.40031663 74.16821289 251.02905273 C74.20172852 251.93268555 74.23524414 252.83631836 74.26977539 253.76733398 C74.35336011 259.49288719 73.92714703 262.97240785 69.91821289 267.40405273 C65.84870106 270.42425623 62.85606001 270.78640644 57.83642578 270.80810547 C57.14307632 270.81496872 56.44972687 270.82183197 55.73536682 270.8289032 C53.45365661 270.84713719 51.17263626 270.84333878 48.89086914 270.83764648 C47.29812904 270.84221005 45.70539092 270.84751614 44.11265564 270.85353088 C40.77798452 270.86245536 37.44355297 270.86004667 34.10888672 270.85009766 C29.84389319 270.83861049 25.57972792 270.85881825 21.31484318 270.88801479 C18.02647178 270.90639656 14.73829813 270.90608042 11.44988823 270.90037727 C9.87787146 270.90022429 8.30584109 270.9062497 6.73387337 270.91866875 C4.53185813 270.93361478 2.3313635 270.92287749 0.12939453 270.90576172 C-1.12127304 270.90559555 -2.37194061 270.90542938 -3.6605072 270.90525818 C-8.57180116 270.18577093 -11.68884889 267.97804372 -14.94506836 264.29858398 C-16.66517527 259.91851793 -16.39762056 255.74775369 -16.26928711 251.09155273 C-16.25575195 250.16020508 -16.2422168 249.22885742 -16.22827148 248.26928711 C-16.19305593 245.98027627 -16.1438081 243.69246815 -16.08178711 241.40405273 C-17.34442383 241.03280273 -17.34442383 241.03280273 -18.63256836 240.65405273 C-22.46669844 239.26456052 -25.76788166 237.46678038 -29.26928711 235.40405273 C-30.19257813 234.87038086 -30.19257813 234.87038086 -31.13452148 234.32592773 C-33.83928391 232.75523146 -36.47858257 231.13952243 -39.08178711 229.40405273 C-42.62313407 229.75153354 -45.17374974 231.61598233 -48.14428711 233.46655273 C-53.76611511 236.58145076 -58.72767013 237.81811923 -65.08178711 236.40405273 C-72.73117396 233.44299976 -75.30158998 227.76222821 -79.08178711 220.77905273 C-80.05435318 219.03742081 -81.02694941 217.29580496 -82.00128174 215.55516052 C-83.01457987 213.73996368 -84.02021199 211.92066823 -85.02514648 210.10083008 C-88.37750738 204.05022261 -91.86382558 198.07633634 -95.33178711 192.09155273 C-96.5663133 189.94971279 -97.80069883 187.80779176 -99.03491211 185.66577148 C-100.57170735 182.99888117 -102.11457161 180.35155807 -103.74511719 177.74072266 C-105.32405816 174.98053196 -105.51475669 173.1912836 -105.51928711 170.02905273 C-105.53862305 169.13444336 -105.55795898 168.23983398 -105.57788086 167.31811523 C-104.79988062 162.74812957 -103.08153451 158.99528158 -99.44091797 156.09838867 C-97.60479228 154.95560265 -95.75904819 153.94874043 -93.83178711 152.96655273 C-90.49053711 151.20311523 -90.49053711 151.20311523 -87.08178711 149.40405273 C-87.08178711 140.16405273 -87.08178711 130.92405273 -87.08178711 121.40405273 C-91.49806528 119.06540159 -91.49806528 119.06540159 -95.9362793 116.76904297 C-100.45545914 114.28192942 -103.47767596 111.43593341 -105.08178711 106.40405273 C-107.00063547 96.83286017 -102.84425605 90.14042858 -97.95678711 82.21655273 C-97.22961574 80.99845101 -96.50479403 79.77894381 -95.78222656 78.55810547 C-94.30044343 76.06140743 -92.80648478 73.57268184 -91.30200195 71.08959961 C-88.5071117 66.46720503 -85.8034925 61.79368879 -83.09594727 57.11962891 C-81.36285656 54.12806695 -79.62153683 51.14154419 -77.87475586 48.15795898 C-77.40577881 47.35688721 -76.93680176 46.55581543 -76.45361328 45.73046875 C-75.77455933 44.57889282 -75.77455933 44.57889282 -75.08178711 43.40405273 C-74.59105713 42.52869873 -74.10032715 41.65334473 -73.59472656 40.75146484 C-71.40904706 37.36025806 -68.81406617 35.7004568 -65.08178711 34.40405273 C-58.17458566 33.03348993 -53.66097501 34.30469056 -47.70678711 37.96655273 C-46.75030273 38.6278418 -45.79381836 39.28913086 -44.80834961 39.97045898 C-42.21229435 41.62755747 -42.21229435 41.62755747 -39.49194336 41.29077148 C-36.94714277 40.35451584 -35.08381879 39.24793321 -32.89428711 37.65405273 C-21.01747552 29.40405273 -21.01747552 29.40405273 -16.08178711 29.40405273 C-16.11320801 28.54239502 -16.11320801 28.54239502 -16.14526367 27.66333008 C-16.22892475 25.03541899 -16.28060171 22.40778884 -16.33178711 19.77905273 C-16.36530273 18.87541992 -16.39881836 17.97178711 -16.43334961 17.04077148 C-16.51693433 11.31521828 -16.09072125 7.83569762 -12.08178711 3.40405273 C-8.01227527 0.38384924 -5.01963423 0.02169903 0 0 Z M-7.06616211 108.67358398 C-15.08916152 119.54194947 -16.15518001 131.32445319 -15.08178711 144.40405273 C-12.57959122 156.52897909 -4.88947453 166.16404314 4.91821289 173.40405273 C16.22434605 179.69355727 28.5243254 181.3426498 41.23071289 178.72045898 C52.72374724 174.78605376 62.61061939 167.14746485 68.55883789 156.45483398 C73.69427582 145.40183683 75.3161269 132.09313557 71.29321289 120.34155273 C65.77157514 107.78366132 57.09311226 98.62325247 44.36352539 93.27905273 C25.03401719 86.3624236 5.87887321 93.71437359 -7.06616211 108.67358398 Z " fill="#002774" transform="translate(227.081787109375,-0.404052734375)"/>
<path d="M0 0 C1.20350894 2.13095525 2.23647213 4.21697493 3.25 6.4375 C8.56435498 17.54454047 14.85456363 28.08764668 21.07617188 38.70361328 C22.92706969 41.87503742 24.75542681 45.0583994 26.578125 48.24609375 C27.69749151 50.18514133 28.81726303 52.12395518 29.9375 54.0625 C30.67939575 55.37178467 30.67939575 55.37178467 31.4362793 56.70751953 C37.15829203 66.52403496 43.72592104 73.93599899 54 79 C54.66128906 79.3403125 55.32257813 79.680625 56.00390625 80.03125 C65.08792894 83.87107172 77.50628894 82.87754413 87 81 C87.29132813 81.76183594 87.58265625 82.52367187 87.8828125 83.30859375 C92.99363931 96.18209146 99.48333588 106.51954275 112.25 112.875 C122.71052883 117.0939045 133.79633886 117.30307021 144.9375 117.265625 C146.22003662 117.26753845 147.50257324 117.2694519 148.82397461 117.27142334 C151.51648883 117.2743428 154.2088688 117.27018108 156.90136719 117.26074219 C160.3132751 117.2493495 163.7248681 117.25592628 167.13676453 117.26788712 C170.44536671 117.27694549 173.75388894 117.27056121 177.0625 117.265625 C178.26704834 117.26967346 179.47159668 117.27372192 180.71264648 117.27789307 C197.00239245 117.18923252 210.87114615 114.76541976 223.03515625 103.1953125 C228.80031167 96.75392612 232.0883609 89.04982574 235 81 C235.81082031 81.15855469 236.62164062 81.31710937 237.45703125 81.48046875 C252.60682297 83.70199278 264.92797766 81.96900717 277.61328125 73.07421875 C284.11174399 67.42661856 288.21880194 60.61977824 292.4375 53.1875 C293.3339624 51.62817749 293.3339624 51.62817749 294.24853516 50.03735352 C295.51760976 47.82924279 296.78382025 45.61948383 298.04736328 43.40820312 C300.00670197 39.98830214 301.98300719 36.57878124 303.96484375 33.171875 C310.52147848 21.88883679 317.01046499 10.59635213 323 -1 C327.92040196 0.49627749 332.36242388 2.5301332 336.94555664 4.81958008 C337.71868698 5.20198349 338.49181732 5.5843869 339.28837585 5.9783783 C341.83114625 7.2377629 344.37084678 8.50318428 346.91015625 9.76953125 C348.68319297 10.65156378 350.45625963 11.53353614 352.22935486 12.41545105 C355.94028211 14.26268259 359.64944646 16.11340393 363.35766602 17.96606445 C368.10303113 20.33605188 372.85472638 22.69303952 377.60810184 25.04691029 C381.27039039 26.86316751 384.92813243 28.68843585 388.58468437 30.51621056 C390.3344904 31.38901402 392.08594104 32.25852856 393.83906746 33.12464333 C396.29217186 34.33773237 398.73860661 35.56337158 401.18383789 36.79223633 C401.90449432 37.1451474 402.62515076 37.49805847 403.36764526 37.86166382 C408.81304555 40.6239619 412.5717982 43.8576973 416 49 C416.3359375 51.70703125 416.3359375 51.70703125 416.375 54.8125 C416.40335937 55.82957031 416.43171875 56.84664062 416.4609375 57.89453125 C415.88931895 61.74569015 414.66011865 64.22223005 412 67 C408.7159373 69.20553082 405.22418377 70.91583155 401.67497253 72.65301514 C400.6514812 73.16988538 399.62798987 73.68675561 398.57348365 74.21928859 C396.43613211 75.2970827 394.2954115 76.3682197 392.15150046 77.43290615 C389.21940069 78.8909023 386.29843402 80.36838391 383.38167763 81.85678864 C377.66376415 84.77338566 371.93279507 87.66367321 366.20043945 90.55175781 C364.02931556 91.64703612 361.85823012 92.74239066 359.68717957 93.83781433 C340.10209283 103.71604443 320.50169812 113.56392972 300.89710712 123.40338516 C298.28984763 124.71204648 295.68262604 126.02078328 293.07543945 127.32958984 C292.42767723 127.65476207 291.77991501 127.97993429 291.11252364 128.31496021 C280.57441166 133.60567075 270.04550299 138.91444924 259.51991627 144.23002639 C248.66188144 149.71303661 237.79479054 155.17775752 226.91896027 160.625386 C220.83272769 163.67455886 214.75081461 166.73173485 208.67925453 169.81003571 C202.98238801 172.69728637 197.27459056 175.56164516 191.55766487 178.40896034 C189.46696358 179.45516144 187.38033798 180.50955477 185.29826736 181.57282829 C182.44826014 183.02670605 179.58482671 184.44993142 176.71626282 185.86676025 C175.49654131 186.50232499 175.49654131 186.50232499 174.25217897 187.15072942 C167.12891561 190.60087893 160.00845496 191.51123194 152.33522123 189.1959399 C149.61420451 188.0644757 147.020495 186.79429619 144.40333557 185.4400177 C143.40839063 184.94943569 142.41344569 184.45885369 141.3883509 183.95340556 C138.08118618 182.31547024 134.792215 180.64400067 131.50219727 178.97192383 C129.12532082 177.7858876 126.74757076 176.60177769 124.36860657 175.41995239 C118.59530998 172.54645117 112.83506974 169.64768055 107.07890583 166.74003861 C100.37026196 163.35249557 93.64888098 159.99059647 86.92687582 156.62966689 C74.93332797 150.63195728 62.95135777 144.61147915 50.97583008 138.57788086 C39.36258797 132.72684007 27.74159951 126.89158253 16.11157227 121.07397461 C15.39469903 120.71537516 14.6778258 120.35677571 13.93922914 119.98730961 C13.22357614 119.62932432 12.50792314 119.27133903 11.77058369 118.9025057 C10.32957081 118.18167134 8.88856173 117.46082938 7.4475565 116.73997974 C6.73685398 116.38445821 6.02615146 116.02893667 5.2939125 115.66264175 C-5.80221734 110.11107063 -16.89093406 104.54471732 -27.97898577 98.97703395 C-31.99360145 96.96141823 -36.00935132 94.94808318 -40.02594947 92.93642113 C-46.39491867 89.74657527 -52.76063549 86.55043337 -59.11974096 83.34096215 C-62.02426551 81.87518982 -64.9307604 80.41360774 -67.84062195 78.95845222 C-70.99589448 77.37980413 -74.14474053 75.78901399 -77.29222107 74.19490051 C-78.21108091 73.73865998 -79.12994076 73.28241944 -80.07664484 72.81235343 C-86.04111257 69.76890572 -90.22633713 66.6604943 -94 61 C-94.3359375 58.29296875 -94.3359375 58.29296875 -94.375 55.1875 C-94.40335937 54.17042969 -94.43171875 53.15335938 -94.4609375 52.10546875 C-93.89176226 48.27077116 -92.62500341 45.78561688 -90 43 C-86.93694606 40.89838054 -83.66118673 39.30508633 -80.328125 37.67578125 C-79.32928284 37.17154129 -78.33044067 36.66730133 -77.30133057 36.14778137 C-75.0816824 35.02887445 -72.85855974 33.91684164 -70.63256836 32.81060791 C-66.79764876 30.90430544 -62.98131164 28.96230005 -59.16601562 27.01708984 C-52.86539253 23.80766872 -46.55424736 20.61982093 -40.23508453 17.44706535 C-36.5892395 15.61638697 -32.94556672 13.78165536 -29.30664062 11.93725586 C-25.71837888 10.11858553 -22.12539304 8.30960886 -18.52869415 6.50768471 C-17.17297626 5.82647255 -15.81896044 5.14186172 -14.46672821 4.45375633 C-12.59921638 3.50431036 -10.72589523 2.56747202 -8.85058594 1.63354492 C-7.78966736 1.09904221 -6.72874878 0.56453949 -5.63568115 0.01383972 C-3 -1 -3 -1 0 0 Z " fill="#002774" transform="translate(95,182)"/>
<path d="M0 0 C1.59623337 0.79587788 3.19026952 1.59617201 4.78253269 2.39996338 C5.66476759 2.84128475 6.54700249 3.28260612 7.45597178 3.73730087 C10.40793132 5.21514398 13.3569904 6.69868376 16.30610752 8.18218994 C18.42350561 9.24362703 20.54108943 10.3046937 22.65884495 11.36541748 C27.21724384 13.64947156 31.77440718 15.93596621 36.33065701 18.2243042 C42.92522822 21.53614891 49.52240674 24.84276483 56.12048168 28.14762259 C66.83537706 33.51457129 77.54891924 38.88421463 88.26118565 44.25640869 C88.90192925 44.57773946 89.54267286 44.89907023 90.20283294 45.2301383 C97.3514259 48.8152081 104.49969237 52.40092816 111.64759922 55.98736572 C114.23981952 57.28799183 116.83204291 58.58861177 119.42427158 59.88922119 C120.06392847 60.21016046 120.70358535 60.53109973 121.36262577 60.86176443 C132.03364907 66.21564551 142.70700617 71.56485583 153.38219839 76.91041946 C160.5481981 80.49904089 167.71126276 84.09342748 174.87234008 87.69186401 C179.32739714 89.9289857 183.78494695 92.16110356 188.24320889 94.39183044 C190.31024762 95.42735998 192.37625106 96.46495906 194.44113636 97.504776 C197.26011478 98.92396939 200.0827076 100.33570478 202.90631199 101.7456665 C204.13025532 102.36521524 204.13025532 102.36521524 205.37892479 102.99728012 C212.80026064 106.68488686 219.35658072 108.43355148 227.65791416 108.44781494 C228.7600626 108.48455322 228.7600626 108.48455322 229.88447666 108.52203369 C239.80825139 108.57354117 248.7204345 103.89715423 257.3905344 99.47824097 C258.27774699 99.03238848 259.16495958 98.586536 260.0790574 98.12717283 C263.01882417 96.64813267 265.95416077 95.16051345 268.88960361 93.6729126 C271.00925038 92.60447138 273.12919768 91.53662624 275.24942112 90.46932983 C279.79783699 88.17857522 284.34448112 85.8843543 288.88987255 83.58760452 C296.07513525 79.95788719 303.26651983 76.34042697 310.45922947 72.72549438 C312.92462868 71.48623329 315.38998998 70.2468968 317.85534286 69.00754356 C318.4712107 68.6979474 319.08707853 68.38835124 319.72160903 68.06937338 C326.71321123 64.55450801 333.70357804 61.03718963 340.69331455 57.51861572 C341.33149296 57.19736671 341.96967138 56.8761177 342.62718853 56.54513387 C352.99230453 51.32704889 363.35206474 46.09840146 373.71045611 40.86698325 C384.35952796 35.48921962 395.01622013 30.12677555 405.67963856 24.77751577 C411.661264 21.77621518 417.63860469 18.76694139 423.60743237 15.74025345 C429.21244343 12.8980713 434.82636919 10.0743744 440.44778347 7.26478195 C442.51127598 6.22925594 444.57132022 5.18682629 446.62763309 4.13711548 C449.42962094 2.70799227 452.24280106 1.30389649 455.06021214 -0.09451294 C455.8756766 -0.51783256 456.69114107 -0.94115218 457.53131658 -1.37729967 C463.09054556 -4.09064897 463.09054556 -4.09064897 467.29414749 -3.24997902 C468.58796199 -2.59519601 468.58796199 -2.59519601 469.90791416 -1.92718506 C471.22855869 -1.26782959 471.22855869 -1.26782959 472.57588291 -0.59515381 C473.40732822 -0.10659912 474.23877354 0.38195557 475.09541416 0.88531494 C475.93459385 1.36613525 476.77377354 1.84695557 477.63838291 2.34234619 C481.17395977 5.03814748 482.68441462 7.57677749 483.34150791 11.97515869 C483.34279697 12.97676025 483.34408604 13.97836182 483.34541416 15.01031494 C483.37441807 16.5088501 483.37441807 16.5088501 483.40400791 18.03765869 C482.7835881 21.83345547 481.53462871 24.3233784 478.90791416 27.07281494 C475.62413081 29.27872724 472.13207218 30.9886591 468.5828867 32.72583008 C467.0476497 33.50113544 467.0476497 33.50113544 465.48139781 34.29210353 C463.34404627 35.36989765 461.20332566 36.44103464 459.05941463 37.50572109 C456.12731485 38.96371724 453.20634818 40.44119885 450.28959179 41.92960358 C444.57167831 44.8462006 438.84070923 47.73648815 433.10835361 50.62457275 C430.93722972 51.71985106 428.76614428 52.81520561 426.59509373 53.91062927 C407.01000699 63.78885937 387.40961228 73.63674466 367.80502129 83.4762001 C365.19776179 84.78486142 362.5905402 86.09359822 359.98335361 87.40240479 C359.01171029 87.89016312 359.01171029 87.89016312 358.0204378 88.38777515 C347.48232582 93.67848569 336.95341715 98.98726418 326.42783044 104.30284134 C315.5697956 109.78585155 304.70270471 115.25057246 293.82687443 120.69820094 C287.74064185 123.74737381 281.65872877 126.80454979 275.58716869 129.88285065 C269.89030217 132.77010131 264.18250473 135.6344601 258.46557903 138.48177528 C256.37487774 139.52797638 254.28825214 140.58236971 252.20618153 141.64564323 C249.3561743 143.09952099 246.49274087 144.52274636 243.62417698 145.9395752 C242.40445547 146.57513993 242.40445547 146.57513993 241.16009313 147.22354436 C234.03682977 150.67369387 226.91636912 151.58404689 219.24313539 149.26875484 C216.52211867 148.13729064 213.92840916 146.86711113 211.31124973 145.51283264 C210.31630479 145.02225064 209.32135985 144.53166863 208.29626507 144.0262205 C204.98910035 142.38828518 201.70012916 140.71681561 198.41011143 139.04473877 C196.03323498 137.85870254 193.65548492 136.67459263 191.27652073 135.49276733 C185.50322414 132.61926612 179.7429839 129.7204955 173.98681999 126.81285355 C167.27817612 123.42531052 160.55679514 120.06341141 153.83478998 116.70248183 C141.84124213 110.70477222 129.85927193 104.68429409 117.88374424 98.6506958 C106.27050213 92.79965501 94.64951367 86.96439748 83.01948643 81.14678955 C82.3026132 80.7881901 81.58573996 80.42959065 80.8471433 80.06012455 C80.1314903 79.70213926 79.4158373 79.34415397 78.67849785 78.97532064 C77.23748497 78.25448628 75.7964759 77.53364432 74.35547066 76.81279469 C73.64476814 76.45727315 72.93406562 76.10175161 72.20182667 75.73545669 C61.10569683 70.18388557 50.0169801 64.61753226 38.92892839 59.04984889 C34.91431271 57.03423317 30.89856285 55.02089813 26.88196469 53.00923607 C20.51299549 49.81939021 14.14727867 46.62324831 7.78817321 43.41377709 C4.88364865 41.94800477 1.97715376 40.48642268 -0.93270779 39.03126717 C-4.08798032 37.45261907 -7.23682637 35.86182893 -10.38430691 34.26771545 C-11.30316675 33.81147492 -12.22202659 33.35523438 -13.16873068 32.88516837 C-19.13319841 29.84172066 -23.31842297 26.73330924 -27.09208584 21.07281494 C-27.42802334 18.36578369 -27.42802334 18.36578369 -27.46708584 15.26031494 C-27.49544521 14.24324463 -27.52380459 13.22617432 -27.55302334 12.17828369 C-26.95945527 8.17924456 -25.66781127 6.17808919 -23.09208584 3.07281494 C-20.06864834 0.88531494 -20.06864834 0.88531494 -16.71708584 -0.92718506 C-15.61622646 -1.54593506 -14.51536709 -2.16468506 -13.38114834 -2.80218506 C-8.27320816 -4.54931899 -4.65384128 -2.24406206 0 0 Z " fill="#002774" transform="translate(28.09208583831787,361.92718505859375)"/>
<path d="M0 0 C1.59623337 0.79587788 3.19026952 1.59617201 4.78253269 2.39996338 C5.66476759 2.84128475 6.54700249 3.28260612 7.45597178 3.73730087 C10.40793132 5.21514398 13.3569904 6.69868376 16.30610752 8.18218994 C18.42350561 9.24362703 20.54108943 10.3046937 22.65884495 11.36541748 C27.21724384 13.64947156 31.77440718 15.93596621 36.33065701 18.2243042 C42.92522822 21.53614891 49.52240674 24.84276483 56.12048168 28.14762259 C66.83537706 33.51457129 77.54891924 38.88421463 88.26118565 44.25640869 C88.90192925 44.57773946 89.54267286 44.89907023 90.20283294 45.2301383 C97.3514259 48.8152081 104.49969237 52.40092816 111.64759922 55.98736572 C114.23981952 57.28799183 116.83204291 58.58861177 119.42427158 59.88922119 C120.06392847 60.21016046 120.70358535 60.53109973 121.36262577 60.86176443 C132.03364907 66.21564551 142.70700617 71.56485583 153.38219839 76.91041946 C160.5481981 80.49904089 167.71126276 84.09342748 174.87234008 87.69186401 C179.32739714 89.9289857 183.78494695 92.16110356 188.24320889 94.39183044 C190.31024762 95.42735998 192.37625106 96.46495906 194.44113636 97.504776 C197.26011478 98.92396939 200.0827076 100.33570478 202.90631199 101.7456665 C204.13025532 102.36521524 204.13025532 102.36521524 205.37892479 102.99728012 C212.80026064 106.68488686 219.35658072 108.43355148 227.65791416 108.44781494 C228.7600626 108.48455322 228.7600626 108.48455322 229.88447666 108.52203369 C239.80825139 108.57354117 248.7204345 103.89715423 257.3905344 99.47824097 C258.27774699 99.03238848 259.16495958 98.586536 260.0790574 98.12717283 C263.01882417 96.64813267 265.95416077 95.16051345 268.88960361 93.6729126 C271.00925038 92.60447138 273.12919768 91.53662624 275.24942112 90.46932983 C279.79783699 88.17857522 284.34448112 85.8843543 288.88987255 83.58760452 C296.07513525 79.95788719 303.26651983 76.34042697 310.45922947 72.72549438 C312.92462868 71.48623329 315.38998998 70.2468968 317.85534286 69.00754356 C318.4712107 68.6979474 319.08707853 68.38835124 319.72160903 68.06937338 C326.71321123 64.55450801 333.70357804 61.03718963 340.69331455 57.51861572 C341.33149296 57.19736671 341.96967138 56.8761177 342.62718853 56.54513387 C352.99230453 51.32704889 363.35206474 46.09840146 373.71045611 40.86698325 C384.35952796 35.48921962 395.01622013 30.12677555 405.67963856 24.77751577 C411.661264 21.77621518 417.63860469 18.76694139 423.60743237 15.74025345 C429.21244343 12.8980713 434.82636919 10.0743744 440.44778347 7.26478195 C442.51127598 6.22925594 444.57132022 5.18682629 446.62763309 4.13711548 C449.42962094 2.70799227 452.24280106 1.30389649 455.06021214 -0.09451294 C455.8756766 -0.51783256 456.69114107 -0.94115218 457.53131658 -1.37729967 C463.09054556 -4.09064897 463.09054556 -4.09064897 467.29414749 -3.24997902 C468.58796199 -2.59519601 468.58796199 -2.59519601 469.90791416 -1.92718506 C471.22855869 -1.26782959 471.22855869 -1.26782959 472.57588291 -0.59515381 C473.40732822 -0.10659912 474.23877354 0.38195557 475.09541416 0.88531494 C475.93459385 1.36613525 476.77377354 1.84695557 477.63838291 2.34234619 C481.17395977 5.03814748 482.68441462 7.57677749 483.34150791 11.97515869 C483.34279697 12.97676025 483.34408604 13.97836182 483.34541416 15.01031494 C483.37441807 16.5088501 483.37441807 16.5088501 483.40400791 18.03765869 C482.7835881 21.83345547 481.53462871 24.3233784 478.90791416 27.07281494 C475.62413081 29.27872724 472.13207218 30.9886591 468.5828867 32.72583008 C467.0476497 33.50113544 467.0476497 33.50113544 465.48139781 34.29210353 C463.34404627 35.36989765 461.20332566 36.44103464 459.05941463 37.50572109 C456.12731485 38.96371724 453.20634818 40.44119885 450.28959179 41.92960358 C444.57167831 44.8462006 438.84070923 47.73648815 433.10835361 50.62457275 C430.93722972 51.71985106 428.76614428 52.81520561 426.59509373 53.91062927 C407.01000699 63.78885937 387.40961228 73.63674466 367.80502129 83.4762001 C365.19776179 84.78486142 362.5905402 86.09359822 359.98335361 87.40240479 C359.01171029 87.89016312 359.01171029 87.89016312 358.0204378 88.38777515 C347.48232582 93.67848569 336.95341715 98.98726418 326.42783044 104.30284134 C315.5697956 109.78585155 304.70270471 115.25057246 293.82687443 120.69820094 C287.74064185 123.74737381 281.65872877 126.80454979 275.58716869 129.88285065 C269.89030217 132.77010131 264.18250473 135.6344601 258.46557903 138.48177528 C256.37487774 139.52797638 254.28825214 140.58236971 252.20618153 141.64564323 C249.3561743 143.09952099 246.49274087 144.52274636 243.62417698 145.9395752 C242.40445547 146.57513993 242.40445547 146.57513993 241.16009313 147.22354436 C234.03682977 150.67369387 226.91636912 151.58404689 219.24313539 149.26875484 C216.52211867 148.13729064 213.92840916 146.86711113 211.31124973 145.51283264 C210.31630479 145.02225064 209.32135985 144.53166863 208.29626507 144.0262205 C204.98910035 142.38828518 201.70012916 140.71681561 198.41011143 139.04473877 C196.03323498 137.85870254 193.65548492 136.67459263 191.27652073 135.49276733 C185.50322414 132.61926612 179.7429839 129.7204955 173.98681999 126.81285355 C167.27817612 123.42531052 160.55679514 120.06341141 153.83478998 116.70248183 C141.84124213 110.70477222 129.85927193 104.68429409 117.88374424 98.6506958 C106.27050213 92.79965501 94.64951367 86.96439748 83.01948643 81.14678955 C82.3026132 80.7881901 81.58573996 80.42959065 80.8471433 80.06012455 C80.1314903 79.70213926 79.4158373 79.34415397 78.67849785 78.97532064 C77.23748497 78.25448628 75.7964759 77.53364432 74.35547066 76.81279469 C73.64476814 76.45727315 72.93406562 76.10175161 72.20182667 75.73545669 C61.10569683 70.18388557 50.0169801 64.61753226 38.92892839 59.04984889 C34.91431271 57.03423317 30.89856285 55.02089813 26.88196469 53.00923607 C20.51299549 49.81939021 14.14727867 46.62324831 7.78817321 43.41377709 C4.88364865 41.94800477 1.97715376 40.48642268 -0.93270779 39.03126717 C-4.08798032 37.45261907 -7.23682637 35.86182893 -10.38430691 34.26771545 C-11.30316675 33.81147492 -12.22202659 33.35523438 -13.16873068 32.88516837 C-19.13319841 29.84172066 -23.31842297 26.73330924 -27.09208584 21.07281494 C-27.42802334 18.36578369 -27.42802334 18.36578369 -27.46708584 15.26031494 C-27.49544521 14.24324463 -27.52380459 13.22617432 -27.55302334 12.17828369 C-26.95945527 8.17924456 -25.66781127 6.17808919 -23.09208584 3.07281494 C-20.06864834 0.88531494 -20.06864834 0.88531494 -16.71708584 -0.92718506 C-15.61622646 -1.54593506 -14.51536709 -2.16468506 -13.38114834 -2.80218506 C-8.27320816 -4.54931899 -4.65384128 -2.24406206 0 0 Z " fill="#002774" transform="translate(28.09208583831787,291.92718505859375)"/>
</svg>
