<?xml version="1.0" encoding="UTF-8"?>
<svg version="1.1" xmlns="http://www.w3.org/2000/svg" width="512" height="512">
<path d="M0 0 C1.65157971 -0.00461525 3.30315531 -0.01097235 4.9547224 -0.01890898 C9.46937536 -0.03553973 13.98368819 -0.02738453 18.49834204 -0.0149641 C23.37640988 -0.00589023 28.25442045 -0.01989491 33.13247681 -0.03088379 C42.67920787 -0.04864867 52.22581297 -0.04483807 61.77254891 -0.03323323 C69.53297727 -0.02419119 77.29337038 -0.02297824 85.05380249 -0.02732849 C86.71201972 -0.02824789 86.71201972 -0.02824789 88.40373629 -0.02918586 C90.64965639 -0.03046479 92.89557647 -0.03176165 95.14149654 -0.03307623 C116.19005513 -0.04447608 137.23854398 -0.03137764 158.28709114 -0.00987476 C176.33864581 0.00799566 194.39009758 0.00489139 212.44165039 -0.0135498 C233.41608149 -0.03496701 254.3904515 -0.0433775 275.36489201 -0.03110075 C277.60244305 -0.02982658 279.8399941 -0.0285691 282.07754517 -0.02732849 C283.72882228 -0.02640284 283.72882228 -0.02640284 285.41345853 -0.02545848 C293.16248461 -0.02200814 300.91147187 -0.02782713 308.66049194 -0.0372467 C318.10695077 -0.04847749 327.55327669 -0.04540388 336.99972034 -0.02412373 C341.81731781 -0.01362791 346.63469386 -0.00946648 351.45228958 -0.02272034 C355.86645643 -0.03468044 360.28019756 -0.02802229 364.69432604 -0.00681013 C366.28704492 -0.00235936 367.87980011 -0.00457588 369.47249544 -0.01431328 C382.95664641 -0.09039833 393.56127698 1.9574234 403.56567383 11.50793457 C412.11029835 20.45864026 415.18651978 30.34875823 415.0736084 42.5513916 C415.08296834 44.13418254 415.08296834 44.13418254 415.09251738 45.74894905 C415.10836395 49.25478147 415.09587541 52.75991054 415.08325195 56.26574707 C415.08867675 58.79136559 415.09580141 61.31698094 415.10449219 63.84259033 C415.12079939 69.97235312 415.11846632 76.1018591 415.10684162 82.23162508 C415.09778214 87.2165058 415.09659413 92.20133166 415.10093689 97.18621826 C415.10154982 97.89759512 415.10216275 98.60897198 415.10279426 99.34190571 C415.10407325 100.78737181 415.10537011 102.23283789 415.10668463 103.67830396 C415.11807161 117.21009012 415.10500635 130.74176763 415.08348316 144.27353597 C415.06561386 155.86669717 415.0687185 167.45969813 415.0871582 179.05285645 C415.10859827 192.53854189 415.11697315 206.02413227 415.10470915 219.50983238 C415.10343505 220.94977187 415.10217756 222.38971137 415.10093689 223.82965088 C415.10001124 224.89217251 415.10001124 224.89217251 415.09906688 225.97615921 C415.09562337 230.9509874 415.10142069 235.92575494 415.1108551 240.90057373 C415.12329092 247.60497131 415.11434828 254.30902093 415.09127808 261.01340485 C415.0860025 263.46955108 415.08748493 265.92572284 415.09632874 268.38185883 C415.10731287 271.74307112 415.0934848 275.10332571 415.0736084 278.46447754 C415.08699273 279.91095767 415.08699273 279.91095767 415.10064745 281.38665962 C414.97476489 292.41492808 411.17633487 301.53557875 403.56567383 309.50793457 C391.47659726 321.04854641 378.58693507 321.07246109 362.80395508 320.89855957 C360.80186023 320.8910871 358.79975801 320.88539893 356.7976532 320.88140869 C351.56148623 320.86623155 346.3257723 320.82701899 341.08978271 320.78259277 C335.73350144 320.74146813 330.37714604 320.72336114 325.02075195 320.70324707 C314.53552829 320.66051627 304.05063893 320.59236221 293.56567383 320.50793457 C293.51151117 319.90248715 293.45734852 319.29703974 293.40154457 318.67324543 C293.15202254 315.906627 292.89722375 313.1405185 292.64233398 310.37438965 C292.55722061 309.42191597 292.47210724 308.46944229 292.38441467 307.48810577 C291.79866533 301.18424982 290.95128104 295.22047279 288.94067383 289.19543457 C288.68125 288.381875 288.42182617 287.56831543 288.15454102 286.73010254 C278.20263766 256.7983791 257.43077538 234.74761572 229.56567383 220.50793457 C230.16132437 217.30543694 231.15874768 215.53866906 233.25317383 213.07043457 C244.28600474 198.84738749 245.86786331 182.82705472 244.56567383 165.50793457 C241.72203257 149.22162552 232.10561836 135.10658529 218.82348633 125.58605957 C203.10390072 115.55869801 186.79284372 112.60211245 168.56567383 116.50793457 C152.26884276 121.10988946 139.68005281 130.21960362 130.56567383 144.50793457 C122.2549322 159.88635818 119.25837862 177.59681117 124.19067383 194.69543457 C126.89216198 201.98849799 130.31930574 209.10312774 135.44067383 215.00793457 C137.56567383 217.50793457 137.56567383 217.50793457 137.56567383 220.50793457 C136.53829102 221.05320801 135.5109082 221.59848145 134.45239258 222.16027832 C117.35065888 231.39645677 101.870859 243.78954628 91.56567383 260.50793457 C90.90954102 261.54305176 90.2534082 262.57816895 89.57739258 263.64465332 C80.17667354 278.93273613 75.26530836 295.90374378 74.03173828 313.7611084 C73.94382523 315.02393143 73.85591217 316.28675446 73.76533508 317.58784485 C73.69944687 318.55147446 73.63355865 319.51510406 73.56567383 320.50793457 C62.0211786 320.60089382 50.47677342 320.6718308 38.93197918 320.71518326 C33.57040305 320.73599744 28.2090843 320.76420185 22.84765625 320.80969238 C17.66698005 320.85337079 12.48655034 320.877118 7.30570412 320.88744354 C5.33587582 320.89479558 3.36605997 320.90915182 1.39633751 320.9308548 C-13.42662562 321.08758226 -25.1828929 320.24890584 -36.43432617 309.50793457 C-44.9789507 300.55722888 -48.05517213 290.66711091 -47.94226074 278.46447754 C-47.9485007 277.40928358 -47.95474067 276.35408962 -47.96116972 275.26692009 C-47.97701629 271.76108767 -47.96452775 268.2559586 -47.9519043 264.75012207 C-47.95732909 262.22450355 -47.96445375 259.6988882 -47.97314453 257.17327881 C-47.98945174 251.04351602 -47.98711866 244.91401004 -47.97549397 238.78424406 C-47.96643448 233.79936334 -47.96524647 228.81453748 -47.96958923 223.82965088 C-47.97020217 223.11827402 -47.9708151 222.40689716 -47.9714466 221.67396343 C-47.9727256 220.22849733 -47.97402245 218.78303125 -47.97533697 217.33756518 C-47.98672395 203.80577902 -47.9736587 190.27410151 -47.9521355 176.74233317 C-47.93426621 165.14917197 -47.93737084 153.55617101 -47.95581055 141.9630127 C-47.97725061 128.47732725 -47.98562549 114.99173687 -47.97336149 101.50603676 C-47.97208739 100.06609727 -47.97082991 98.62615778 -47.96958923 97.18621826 C-47.96897213 96.47787051 -47.96835503 95.76952276 -47.96771923 95.03970993 C-47.96427572 90.06488174 -47.97007303 85.0901142 -47.97950745 80.11529541 C-47.99194327 73.41089784 -47.98300062 66.70684821 -47.95993042 60.00246429 C-47.95465484 57.54631806 -47.95613728 55.0901463 -47.96498108 52.63401031 C-47.97596522 49.27279802 -47.96213715 45.91254343 -47.94226074 42.5513916 C-47.95118363 41.58707151 -47.96010652 40.62275143 -47.96929979 39.62920952 C-47.84341723 28.60094106 -44.04498721 19.48029039 -36.43432617 11.50793457 C-25.71763422 1.27744415 -14.26625047 -0.08722083 0 0 Z M39.56567383 46.50793457 C34.51618983 54.91412449 31.18101014 64.47149676 27.51489258 73.53918457 C27.02530532 74.74786949 27.02530532 74.74786949 26.52582741 75.98097229 C24.80252134 80.23744447 23.08469684 84.49608262 21.37109375 88.75646973 C19.60928286 93.13323786 17.82746362 97.50156958 16.04115582 101.86838531 C14.6612675 105.25257033 13.29684997 108.64284033 11.93644142 112.03489685 C11.28641781 113.6478449 10.6306131 115.25847658 9.9687252 116.86659241 C4.76381048 128.76977817 4.76381048 128.76977817 4.56567383 141.50793457 C6.7286622 145.914022 8.96247862 148.70668427 13.56567383 150.50793457 C18.4203479 151.16660894 22.33105518 151.02041778 26.87817383 149.13293457 C30.61868592 145.76593576 30.61868592 145.76593576 34.56567383 136.50793457 C45.12567383 136.50793457 55.68567383 136.50793457 66.56567383 136.50793457 C68.21567383 139.80793457 69.86567383 143.10793457 71.56567383 146.50793457 C75.07401282 149.93468428 77.794665 150.76473472 82.56567383 151.00793457 C87.25473005 150.80344941 90.01533771 149.71189643 93.56567383 146.50793457 C96.87316623 142.75944318 96.99243494 139.27941516 96.92749023 134.48303223 C96.20609572 128.55124168 93.6461466 123.21040795 91.31567383 117.75793457 C90.76915204 116.44294425 90.22451047 115.12717111 89.68164062 113.81066895 C88.55230629 111.07585922 87.41498898 108.34457646 86.2722168 105.61535645 C83.81993192 99.73849371 81.47859706 93.81774625 79.13000488 87.89889526 C77.89306932 84.7878286 76.64486653 81.68132251 75.39770508 78.57434082 C73.57148644 74.02397657 71.75732308 69.46912341 69.95239258 64.91027832 C69.15723498 62.92183094 68.36168718 60.93353953 67.56567383 58.94543457 C67.04130737 57.6073877 67.04130737 57.6073877 66.50634766 56.24230957 C64.41751707 51.06115567 62.44535023 46.41615387 57.62036133 43.21887207 C51.152755 40.9810311 44.50013146 41.68823177 39.56567383 46.50793457 Z M305.56567383 46.50793457 C301.22461198 52.34591429 301.42718445 58.34694771 301.50317383 65.32043457 C301.50768555 66.10869629 301.51219727 66.89695801 301.5168457 67.70910645 C301.52856071 69.64208218 301.54649385 71.5750185 301.56567383 73.50793457 C300.94668213 73.48714844 300.32769043 73.4663623 299.68994141 73.44494629 C293.37000978 73.26572751 288.15324491 73.78288718 282.75317383 77.38293457 C279.28290866 80.75404931 278.26561371 83.57179437 278.19067383 88.38293457 C278.29645874 93.17146509 279.28719883 95.87502984 282.56567383 99.50793457 C288.49909177 103.91996329 294.4746377 103.64697449 301.56567383 103.50793457 C300.60631629 109.9513807 299.27085931 113.91477731 294.56567383 118.50793457 C290.33532673 121.08741451 285.5581563 121.60787421 280.75708008 122.53137207 C276.50109305 123.83369368 273.7467904 125.72552228 271.27661133 129.45324707 C269.9037431 133.42098711 270.03729577 137.37875788 270.56567383 141.50793457 C272.79672783 146.0526742 275.07021316 148.28560232 279.56567383 150.50793457 C292.63801704 152.31945779 303.42545727 148.66319099 313.80004883 140.89855957 C314.6740332 140.2102002 314.6740332 140.2102002 315.56567383 139.50793457 C318.70134555 141.03556951 321.7196658 142.72513348 324.75317383 144.44543457 C334.3980699 149.64960672 342.44305519 151.73469398 353.56567383 150.50793457 C357.11348061 149.29489769 358.97342232 147.17915295 361.44067383 144.38293457 C363.13051634 140.06444815 363.22528366 136.08122937 362.56567383 131.50793457 C360.31775791 126.92884659 358.03491329 124.81851871 353.56567383 122.50793457 C351.43585948 121.98014578 349.28717884 121.52455621 347.12817383 121.13293457 C340.66404086 119.73627236 337.11229475 118.14596446 333.25317383 112.63293457 C332.28310157 109.63452939 331.92603838 106.63109406 331.56567383 103.50793457 C332.13415039 103.5311377 332.70262695 103.55434082 333.28833008 103.57824707 C339.82954237 103.73113016 345.21852191 103.5421329 350.37817383 99.07043457 C354.31646246 94.45701074 355.01113263 91.91775045 354.88208008 86.01574707 C354.41525366 82.31571544 353.04003802 80.2497976 350.56567383 77.50793457 C344.63225589 73.09590585 338.65670996 73.36889465 331.56567383 73.50793457 C331.58887695 72.36195801 331.61208008 71.21598145 331.63598633 70.03527832 C331.65475861 68.50533697 331.67295724 66.97538851 331.69067383 65.44543457 C331.70743164 64.6932666 331.72418945 63.94109863 331.74145508 63.1661377 C331.7954199 56.93320073 331.36205909 51.58068679 327.12817383 46.69543457 C322.51475 42.75714594 319.9754897 42.06247577 314.07348633 42.19152832 C310.3734547 42.65835474 308.30753686 44.03357037 305.56567383 46.50793457 Z " fill="#002774" transform="translate(72.434326171875,48.4920654296875)"/>
<path d="M0 0 C0.83802824 -0.00465992 1.67605649 -0.00931984 2.53947952 -0.01412097 C5.36034008 -0.02611492 8.1807229 -0.01665859 11.00158787 -0.00736332 C13.03928136 -0.01153431 15.07697253 -0.01701052 17.11465937 -0.02368313 C22.72420242 -0.03818726 28.33359917 -0.03387752 33.9431504 -0.02651632 C39.98891938 -0.02179923 46.03465604 -0.03428153 52.08041477 -0.04453373 C63.24309685 -0.06075957 74.4057334 -0.06316111 85.56842104 -0.05822874 C95.88068872 -0.0536743 106.19293899 -0.05426732 116.50520611 -0.06006908 C117.8876492 -0.06082594 119.2700923 -0.06158192 120.6525354 -0.06233703 C122.73566659 -0.0634822 124.81879777 -0.06463208 126.90192895 -0.06579627 C146.27299701 -0.07650379 165.64405925 -0.08122393 185.01512909 -0.07332611 C185.74558067 -0.07302894 186.47603225 -0.07273176 187.22861872 -0.07242559 C193.1606752 -0.06997657 199.0927316 -0.06736502 205.024788 -0.06474145 C228.1662165 -0.05463812 251.30757244 -0.06299502 274.44899082 -0.086236 C300.44036409 -0.11229687 326.43169368 -0.1251597 352.4230805 -0.11804825 C355.19340614 -0.11733217 357.96373178 -0.11665779 360.73405743 -0.1160078 C361.41619672 -0.115838 362.09833602 -0.11566819 362.80114621 -0.11549323 C373.10684724 -0.11318841 383.41250778 -0.12117595 393.71819973 -0.13429928 C405.43581623 -0.14919382 417.15335397 -0.14970079 428.87097424 -0.13222837 C434.85242798 -0.12368835 440.83370005 -0.1216419 446.81514454 -0.13687992 C452.28707906 -0.15064768 457.75867492 -0.14606624 463.23058946 -0.12664068 C465.21370893 -0.12285596 467.19685502 -0.12587314 469.17995095 -0.13625234 C471.86945888 -0.14933155 474.55778215 -0.13792031 477.24723816 -0.12025452 C478.02259349 -0.12990503 478.79794882 -0.13955554 479.59679976 -0.14949849 C484.77261385 -0.07938318 487.68373697 1.139777 491.68653965 4.38031673 C495.94431104 9.04316151 495.16413467 15.04938347 495.12403965 21.00531673 C495.14402012 22.03527767 495.16400059 23.06523861 495.18458652 24.12641048 C495.17731941 35.68112606 491.69200289 44.99439584 483.68653965 53.38031673 C472.39393587 64.16059066 460.21934255 64.96879777 445.35402012 64.8882513 C443.496201 64.89286508 441.63838554 64.89922119 439.78057766 64.90716028 C434.69585889 64.92381114 429.61144161 64.9156265 424.52672195 64.90321541 C419.03515391 64.89414988 413.54363702 64.90814211 408.0520792 64.91913509 C397.30217928 64.93690882 386.55239117 64.9330854 375.8024869 64.92148453 C367.06475216 64.91244599 358.32704872 64.91122804 349.58931065 64.9155798 C348.34506443 64.91619273 347.10081821 64.91680566 345.81886756 64.91743717 C343.29109747 64.91871608 340.76332739 64.92001294 338.23555732 64.92132753 C315.21554362 64.93240501 292.19557941 64.92092297 269.17557785 64.89995714 C248.17464187 64.88097563 227.17380291 64.88267418 206.17286777 64.90180111 C182.5615581 64.92323375 158.95028973 64.93163137 135.33896923 64.91935205 C132.82056905 64.91807788 130.30216885 64.91682039 127.78376865 64.9155798 C126.54471173 64.91496269 125.30565481 64.91434559 124.02905071 64.91370979 C115.3031931 64.91025807 106.57736995 64.91608141 97.85151768 64.92549801 C87.21563579 64.93672368 76.57987197 64.93366588 65.94400358 64.91237503 C60.51883446 64.90187239 55.0938621 64.89772956 49.6686945 64.91097164 C44.69941788 64.92291739 39.73051986 64.91629681 34.76127744 64.89506143 C32.96667518 64.89060465 31.17204074 64.8928408 29.37745929 64.90256459 C15.3882098 64.97253138 4.19137701 63.40856412 -6.31346035 53.38031673 C-15.26003593 44.00855737 -18.0056065 33.80550554 -17.81346035 21.06781673 C-17.8289291 20.02303158 -17.84439785 18.97824642 -17.86033535 17.90180111 C-17.83002161 11.94136127 -17.55010884 7.94341931 -13.31346035 3.38031673 C-9.04510165 0.1035427 -5.19364097 -0.04499563 0 0 Z " fill="#002774" transform="translate(17.31346035003662,398.61968326568604)"/>
<path d="M0 0 C0.81726563 0.30035156 1.63453125 0.60070312 2.4765625 0.91015625 C4.72826053 1.82913548 6.84734601 2.86881627 9 4 C9.90878906 4.45761719 10.81757813 4.91523438 11.75390625 5.38671875 C30.75892176 15.62018864 43.35655647 32.36854336 50.25390625 52.6953125 C52.8476975 61.49793508 53 67.20903002 53 77 C-0.46 77 -53.92 77 -109 77 C-109 63.39793286 -107.32278252 52.03231857 -101 40 C-100.31357422 38.63681641 -100.31357422 38.63681641 -99.61328125 37.24609375 C-89.01369224 17.56114274 -71.65835384 5.62482968 -51.07421875 -2.09765625 C-35.21272286 -6.71229985 -15.35979009 -5.8254322 0 0 Z " fill="#002774" transform="translate(284,292)"/>
<path d="M0 0 C7.27363642 5.18041951 13.38523045 11.95089541 15 21 C15.80514858 32.95843622 15.20180936 42.20675407 7.3125 51.8125 C0.84781999 58.63968543 -6.17674344 62.0363516 -15.53295898 62.29296875 C-26.87993194 62.39890385 -34.5696962 60.22382749 -43.01953125 52.22265625 C-50.84579928 43.43932981 -51.70102447 34.23967387 -51.17041016 22.93994141 C-50.41145414 14.30002093 -45.30627922 7.61912753 -39 2 C-27.90432514 -5.63397006 -11.777235 -7.28383001 0 0 Z " fill="#002774" transform="translate(274,196)"/>
<path d="M0 0 C0.66 0 1.32 0 2 0 C2.99 2.97 3.98 5.94 5 9 C2.36 9 -0.28 9 -3 9 C-2.01 6.03 -1.02 3.06 0 0 Z " fill="#002774" transform="translate(122,145)"/>
</svg>
