<?xml version="1.0" encoding="UTF-8"?>
<svg version="1.1" xmlns="http://www.w3.org/2000/svg" width="512" height="512">
<path d="M0 0 C1.52228492 -0.00417836 3.04456672 -0.00965863 4.56684279 -0.01631981 C8.72850746 -0.03072635 12.88997328 -0.02654484 17.05164862 -0.019153 C21.54789921 -0.01441196 26.04410736 -0.02693916 30.54034424 -0.03717041 C39.3388779 -0.05434299 48.13734011 -0.05520195 56.93588617 -0.04995751 C64.08568024 -0.04591321 71.23545322 -0.04736244 78.38524628 -0.05270576 C79.40349198 -0.05345419 80.42173768 -0.05420261 81.47083931 -0.05497371 C83.53944558 -0.0565052 85.60805186 -0.05804355 87.67665812 -0.05958868 C107.06164471 -0.07330709 126.4465909 -0.06787971 145.83157656 -0.05640347 C163.57107609 -0.04646251 181.31047145 -0.05942782 199.04995492 -0.08333766 C217.26837126 -0.10770806 235.48673903 -0.11734217 253.70517135 -0.11068493 C263.93224478 -0.10718932 274.15923801 -0.10944781 284.38629913 -0.12693596 C293.08815704 -0.14163179 301.78987819 -0.14232727 310.49173334 -0.12486505 C314.93201611 -0.11633278 319.37205429 -0.11425985 323.81232452 -0.1295166 C327.87592891 -0.14330662 331.93907783 -0.13867445 336.00265548 -0.11927737 C337.47351549 -0.11549963 338.9444115 -0.11849016 340.4152396 -0.12888902 C342.41331716 -0.14201252 344.41151761 -0.12811993 346.40958023 -0.1128912 C347.51977783 -0.11278386 348.62997544 -0.11267652 349.77381539 -0.11256593 C354.95637346 0.72555019 357.86549824 3.20980695 361.21066618 7.14358521 C363.16558884 10.97220373 363.42506612 14.09416423 363.37049103 18.29319763 C363.37630479 19.07497501 363.38211855 19.8567524 363.38810849 20.66222 C363.40272421 23.2858637 363.38881623 25.90857418 363.37506104 28.5322113 C363.37966933 30.43052652 363.38602176 32.32883817 363.39397001 34.22714233 C363.41069622 39.44682338 363.40240195 44.66621257 363.39002514 49.88589478 C363.38099047 55.51378882 363.39493651 61.14163199 363.40594482 66.76951599 C363.42375153 77.79582073 363.41988046 88.82201669 363.40829426 99.84832573 C363.39926868 108.80790476 363.39803215 117.76745325 363.40238953 126.72703552 C363.40300246 128.00115642 363.40361539 129.27527731 363.4042469 130.58800793 C363.40552577 133.17618435 363.40682262 135.76436075 363.40813726 138.35253716 C363.4192239 161.94176296 363.40771752 185.5309158 363.38676687 209.12012935 C363.36778424 230.65726139 363.36948274 252.19429884 363.38861084 273.73143005 C363.41002636 297.92497564 363.41845067 322.11845394 363.40616179 346.31201172 C363.40488756 348.89078267 363.40363008 351.46955362 363.40238953 354.04832458 C363.40146387 355.95163937 363.40146387 355.95163937 363.40051952 357.89340496 C363.39706268 366.8444718 363.40290216 375.79550512 363.41230774 384.74656677 C363.42351449 395.65170564 363.42051552 406.5567293 363.39918476 417.46185493 C363.38865658 423.02813687 363.38458271 428.59422659 363.39778137 434.1605072 C363.40967435 439.2530805 363.40319376 444.34528284 363.38187116 449.43782234 C363.37739197 451.28295588 363.37970076 453.12812056 363.38937432 454.97323418 C363.40149547 457.47665914 363.38910749 459.97880485 363.37049103 462.48216248 C363.37985569 463.20268421 363.38922036 463.92320595 363.3988688 464.66556168 C363.3236025 469.7112251 362.12126919 472.56094367 358.86712646 476.38768005 C354.66308659 479.84858307 351.82625703 480.88787631 346.41516685 480.89104462 C345.12873138 480.90147561 343.8422959 480.9119066 342.51687753 480.92265368 C341.09646467 480.9140061 339.67605407 480.90497951 338.25564575 480.89561462 C336.7410871 480.90022456 335.22653292 480.9065781 333.71198809 480.9145236 C329.55281057 480.93122866 325.39399996 480.92296519 321.23482108 480.91057873 C316.74792219 480.90153487 312.26108676 480.91549498 307.77420044 480.92649841 C298.98377591 480.94429793 290.19348789 480.94043651 281.40305798 480.92884785 C274.25607617 480.91981599 267.10913263 480.91858847 259.96214676 480.92294312 C258.43656378 480.92386251 258.43656378 480.92386251 256.88016094 480.92480049 C254.8139829 480.9260794 252.74780488 480.92737625 250.68162687 480.92869085 C231.29836816 480.94010174 211.91518506 480.92697676 192.53193875 480.90548939 C175.9110454 480.8876341 159.29026386 480.89070858 142.66937256 480.90916443 C123.36499428 480.93059002 104.0606824 480.93898604 84.75629389 480.92671537 C82.69586286 480.9254412 80.63543182 480.92418372 78.57500076 480.92294312 C77.56126666 480.92232601 76.54753255 480.92170891 75.50307923 480.92107311 C68.37023497 480.91762407 61.23743291 480.92343928 54.10459518 480.93286133 C45.40353677 480.94410216 36.70262262 480.94099819 28.00158064 480.91973835 C23.5646378 480.90925346 19.12793512 480.905062 14.69099426 480.91833496 C10.62320866 480.93031904 6.55588415 480.92359806 2.48813994 480.90242475 C1.0224404 480.89798381 -0.44329868 480.90016806 -1.90897246 480.9099279 C-17.75849659 481.0073102 -29.24306207 476.87447997 -40.88287354 466.07518005 C-51.98197645 454.34782603 -53.58392013 441.42732005 -53.52055359 425.92848206 C-53.52473096 424.26198082 -53.53021069 422.59548244 -53.5368734 420.92898929 C-53.5512938 416.36845722 -53.54709395 411.8081064 -53.53970659 407.24756455 C-53.53496878 402.32174893 -53.5474902 397.39597216 -53.557724 392.47016907 C-53.57490535 382.82740233 -53.57575337 373.18470077 -53.5705111 363.5419227 C-53.5664669 355.70282146 -53.56791592 347.86373946 -53.57325935 340.02463913 C-53.57400778 338.90821276 -53.5747562 337.7917864 -53.5755273 336.64152893 C-53.5770588 334.37338504 -53.57859715 332.10524115 -53.58014227 329.83709727 C-53.59386493 308.57487924 -53.58843127 287.31269802 -53.57695705 266.05048083 C-53.56702509 246.60787516 -53.57996515 227.16536467 -53.60389125 207.72277369 C-53.62828628 187.74829006 -53.63788911 167.77385075 -53.63123852 147.79935253 C-53.62774718 136.58952051 -53.62997276 125.37976169 -53.64748955 114.16994095 C-53.66221655 104.62724123 -53.66284039 95.08466624 -53.64541864 85.54196896 C-53.63691041 80.67564439 -53.63475485 75.80954259 -53.65007019 70.94322968 C-53.66393239 66.48333582 -53.65913445 62.02385526 -53.63983095 57.56398521 C-53.63607534 55.95573791 -53.63898021 54.34745737 -53.64944261 52.73923971 C-53.74693737 36.59753983 -49.95928862 24.643539 -38.82037354 12.63768005 C-27.4907324 1.91498398 -15.07732361 -0.06764045 0 0 Z M-15.71099854 36.67674255 C-22.33930913 43.80027176 -21.41413915 53.0031492 -21.37338257 62.06124878 C-21.37425533 63.46147348 -21.3760076 64.86169786 -21.3785609 66.26192051 C-21.38302464 70.09987908 -21.37504416 73.93772563 -21.36500478 77.77566993 C-21.35635854 81.91805313 -21.35929127 86.06043014 -21.36080933 90.20281982 C-21.36185743 97.37656587 -21.35558858 104.55027549 -21.34433365 111.72401237 C-21.32807157 122.09599484 -21.32286992 132.46795972 -21.32035767 142.83995355 C-21.31598168 159.66829098 -21.30267517 176.49660901 -21.28375244 193.32493591 C-21.26539116 209.67096357 -21.25123587 226.01698596 -21.24273682 242.36302185 C-21.24221137 243.37078729 -21.24168592 244.37855273 -21.24114455 245.41685652 C-21.23853446 250.47257813 -21.23600705 255.52829978 -21.23352075 260.58402145 C-21.21279124 302.51858781 -21.17756831 344.45313282 -21.13287354 386.38768005 C-19.15287354 386.05768005 -17.17287354 385.72768005 -15.13287354 385.38768005 C-6.55287354 385.05768005 2.02712646 384.72768005 10.86712646 384.38768005 C10.86712646 268.22768005 10.86712646 152.06768005 10.86712646 32.38768005 C-3.24924606 31.45743454 -3.24924606 31.45743454 -15.71099854 36.67674255 Z M42.86712646 32.38768005 C42.86712646 148.54768005 42.86712646 264.70768005 42.86712646 384.38768005 C137.90712646 384.38768005 232.94712646 384.38768005 330.86712646 384.38768005 C330.86712646 268.22768005 330.86712646 152.06768005 330.86712646 32.38768005 C235.82712646 32.38768005 140.78712646 32.38768005 42.86712646 32.38768005 Z M-17.07037354 422.07518005 C-19.80181383 426.46203871 -21.64214497 430.25681819 -20.78912354 435.5009613 C-19.17794063 440.59345012 -16.65555411 443.43054276 -12.13287354 446.38768005 C-5.41371396 449.01993721 1.32996563 448.66048598 8.46476746 448.62818909 C9.85674256 448.62906186 11.24871735 448.63081415 12.64069039 448.63336742 C16.45584606 448.63783094 20.27088904 448.62985098 24.08603036 448.6198113 C28.20387345 448.61116474 32.32171032 448.61409781 36.43955994 448.61561584 C43.57074422 448.61666393 50.70189187 448.61039528 57.83306694 448.59914017 C68.14351124 448.58287782 78.45393784 448.57767641 88.76439358 448.57516418 C105.49290247 448.57078824 122.22139184 448.55748185 138.94989014 448.53855896 C155.19891258 448.52019757 171.44792972 448.50604233 187.69696045 448.49754333 C189.19964762 448.49675516 189.19964762 448.49675516 190.73269212 448.49595107 C195.75844558 448.49334097 200.78419909 448.49081356 205.80995262 448.48832726 C247.49569144 448.46759789 289.18140641 448.43182418 330.86712646 448.38768005 C330.86712646 437.82768005 330.86712646 427.26768005 330.86712646 416.38768005 C288.21591828 416.3198584 245.56472303 416.26614983 202.91347161 416.23448407 C197.87792223 416.23073195 192.84237295 416.22684898 187.80682373 416.22288513 C186.80433796 416.2220982 185.80185219 416.22131127 184.76898807 416.22050049 C168.53760329 416.20744714 152.3062504 416.18379367 136.07488454 416.15622167 C119.4195903 416.12816554 102.76431276 416.11150335 86.10899585 416.10541457 C75.83206013 416.10129857 65.55521452 416.08829914 55.27830654 416.06393065 C48.23072402 416.04807092 41.18318808 416.04328024 34.13558901 416.04717592 C30.06970224 416.04909709 26.00397293 416.04615516 21.93811417 416.03006363 C18.21265837 416.01542722 14.48746542 416.0147518 10.76199733 416.02498337 C8.78232379 416.02684409 6.80265318 416.01393894 4.82302481 416.00043613 C-3.42964025 416.04191782 -10.77214467 416.31297067 -17.07037354 422.07518005 Z " fill="#000000" transform="translate(101.13287353515625,15.612319946289063)"/>
<path d="M0 0 C4.63535813 2.15213056 8.01334219 5.23793392 10 10 C10.47845787 13.80651159 10.37844376 17.54638798 10.25 21.375 C10.23195313 22.39722656 10.21390625 23.41945313 10.1953125 24.47265625 C10.14839491 26.98274749 10.08276729 29.49087764 10 32 C10.87736816 31.97905273 11.75473633 31.95810547 12.65869141 31.93652344 C15.93516683 31.868074 19.21087512 31.81806949 22.48779297 31.78027344 C23.90197795 31.76024157 25.31608097 31.73300752 26.72998047 31.69824219 C28.77071419 31.64934511 30.8103469 31.62694877 32.8515625 31.609375 C34.68968506 31.5779541 34.68968506 31.5779541 36.56494141 31.54589844 C41.82848771 32.24171906 44.86345163 34.73274857 48.34375 38.61328125 C50.60481957 43.23674189 50.60137929 47.10481145 50.5 52.1875 C50.48864014 53.1556665 50.47728027 54.12383301 50.46557617 55.12133789 C50.21182435 64.73641073 48.52638064 73.74580404 46 83 C45.67257812 84.24652344 45.34515625 85.49304688 45.0078125 86.77734375 C39.98691668 103.65415051 30.72920184 119.15211476 20 133 C20.97453125 133.34804688 20.97453125 133.34804688 21.96875 133.703125 C25.9955912 135.42594881 29.71527965 137.5536856 33.5 139.75 C34.24636719 140.16765625 34.99273437 140.5853125 35.76171875 141.015625 C41.21455644 144.18116617 45.32151316 147.35692062 48.03125 153.23828125 C49.35368366 159.09005022 48.96787108 163.70096375 46 169 C43.20086181 172.11840329 40.01466138 174.71929762 35.78515625 175.30859375 C30.38344572 175.56434188 26.57132024 175.13746361 21.8515625 172.40234375 C20.90128174 171.85811768 19.95100098 171.3138916 18.97192383 170.75317383 C17.99118896 170.17462646 17.0104541 169.5960791 16 169 C15.02764404 168.43498779 14.05528809 167.86997559 13.0534668 167.2878418 C10.13131106 165.58084473 7.22045348 163.85606456 4.3125 162.125 C3.31283203 161.53203125 2.31316406 160.9390625 1.28320312 160.328125 C-1.14555981 158.88713646 -3.5732721 157.44441208 -6 156 C-12.44314396 159.62693534 -18.85559081 163.28842223 -25.171875 167.1328125 C-26.05391602 167.66874023 -26.93595703 168.20466797 -27.84472656 168.75683594 C-29.58939924 169.82006603 -31.3310445 170.8882829 -33.06933594 171.96191406 C-39.33221169 175.77528744 -44.57458798 178.77578406 -52.046875 177.53515625 C-56.48072474 176.32028142 -59.27411361 173.76409094 -62.375 170.5 C-65.04178084 164.75616435 -65.33489536 158.78660911 -63.2109375 152.76171875 C-58.94781401 145.89946513 -50.80492532 142.68604525 -43.89990234 139.03857422 C-40.09445621 136.95834191 -36.53560163 134.50438449 -33 132 C-33.52787109 131.21689453 -33.52787109 131.21689453 -34.06640625 130.41796875 C-35.7206751 127.95168281 -37.36104257 125.47648633 -39 123 C-39.56460938 122.15695313 -40.12921875 121.31390625 -40.7109375 120.4453125 C-54.25599695 99.79062909 -62.06637028 77.13057586 -62.4375 52.375 C-62.45989746 51.43817383 -62.48229492 50.50134766 -62.50537109 49.53613281 C-62.48589841 43.86855796 -61.9483269 40.37535061 -58 36 C-53.48118558 32.42139645 -50.58943098 31.51129178 -44.8515625 31.609375 C-44.19417084 31.61503479 -43.53677917 31.62069458 -42.85946655 31.62652588 C-40.78053809 31.64873725 -38.70339837 31.6988958 -36.625 31.75 C-35.20705632 31.77008511 -33.78908535 31.78833235 -32.37109375 31.8046875 C-28.91349123 31.84854933 -25.45692049 31.91746563 -22 32 C-22.02094727 31.36497559 -22.04189453 30.72995117 -22.06347656 30.07568359 C-22.14704581 27.17561924 -22.19878774 24.27580884 -22.25 21.375 C-22.28351563 20.37597656 -22.31703125 19.37695312 -22.3515625 18.34765625 C-22.43315123 12.18770715 -22.1132688 8.68372214 -18 4 C-12.72867143 -1.00776214 -6.89190982 -0.92775709 0 0 Z M-28 64 C-24.85036372 81.32299954 -18.48071879 96.49532471 -7 110 C-2.72265623 108.50002651 -0.90792524 105.37260296 1.375 101.6875 C1.7671167 101.06230469 2.1592334 100.43710938 2.56323242 99.79296875 C8.8761728 89.52036369 16 76.37474498 16 64 C1.48 64 -13.04 64 -28 64 Z " fill="#000000" transform="translate(222,72)"/>
<path d="M0 0 C2.44225447 1.66159248 4.74768159 3.38773224 7.0390625 5.25 C7.86148438 5.86875 8.68390625 6.4875 9.53125 7.125 C18.95249656 15.10811235 24.41465465 26.3383385 27.0390625 38.25 C27.14890667 41.10070957 27.20658112 43.9276819 27.21606445 46.77880859 C27.22263565 47.63782272 27.22920685 48.49683685 27.23597717 49.38188171 C27.25566648 52.22073457 27.26736152 55.0595347 27.27734375 57.8984375 C27.28141928 58.86917835 27.2854948 59.8399192 27.28969383 60.84007645 C27.31053347 65.97573889 27.32484569 71.11137476 27.33422852 76.24707031 C27.34530341 81.54889682 27.37972187 86.85030485 27.41940022 92.15198326 C27.44554631 96.23209411 27.45391845 100.31210477 27.45750999 104.39229202 C27.46237919 106.3467047 27.47400264 108.30111282 27.49254799 110.25544357 C27.51690224 112.99143461 27.51598155 115.72633604 27.5090332 118.46240234 C27.52184326 119.26676224 27.53465332 120.07112213 27.54785156 120.89985657 C27.49934074 126.1487693 26.46686072 129.06095795 23.0390625 133.25 C19.21976078 136.87833663 16.15627244 137.56000458 11.0390625 137.75 C5.92185256 137.56000458 2.85836422 136.87833663 -0.9609375 133.25 C-4.53204861 128.7243569 -5.44969589 125.84236597 -5.3515625 120.1015625 C-5.34157227 118.89838379 -5.33158203 117.69520508 -5.32128906 116.45556641 C-5.28487305 114.94397949 -5.24845703 113.43239258 -5.2109375 111.875 C-5.1284375 107.04875 -5.0459375 102.2225 -4.9609375 97.25 C-20.8009375 97.25 -36.6409375 97.25 -52.9609375 97.25 C-52.80314891 106.85324421 -52.80314891 106.85324421 -52.60058594 116.45556641 C-52.5905957 117.65874512 -52.58060547 118.86192383 -52.5703125 120.1015625 C-52.54936523 121.32697754 -52.52841797 122.55239258 -52.50683594 123.81494141 C-53.19732407 129.03815003 -55.71434324 132.06573546 -59.4609375 135.625 C-64.62593759 138.02303575 -69.3611663 138.00381535 -74.9609375 137.25 C-79.93021926 134.94283347 -82.330996 131.99946693 -84.9609375 127.25 C-85.51993153 124.37148152 -85.51864344 121.5627721 -85.49438477 118.63696289 C-85.50300034 117.79211334 -85.51161591 116.94726379 -85.52049255 116.07681274 C-85.54313575 113.29177917 -85.53641087 110.50775442 -85.52734375 107.72265625 C-85.53258416 105.77176111 -85.53886217 103.82086851 -85.54612732 101.86997986 C-85.55653167 97.77867733 -85.55197567 93.68772249 -85.53735352 89.59643555 C-85.52026207 84.39173582 -85.54354093 79.1881501 -85.57884312 73.98357487 C-85.60098317 69.9502196 -85.5993342 65.91712335 -85.5910778 61.88372612 C-85.59026547 59.96747055 -85.59698937 58.05119454 -85.61184883 56.13499641 C-85.71959253 39.71080603 -83.6640628 26.41939354 -72.9609375 13.25 C-72.3421875 12.42757813 -71.7234375 11.60515625 -71.0859375 10.7578125 C-54.25015514 -9.11088653 -22.01325939 -13.01047521 0 0 Z M-47.61328125 34.11328125 C-54.23830154 43.69555697 -52.9609375 53.66587112 -52.9609375 65.25 C-37.1209375 65.25 -21.2809375 65.25 -4.9609375 65.25 C-4.24370175 47.3489378 -4.24370175 47.3489378 -11.9609375 32.25 C-18.19074853 26.70582282 -24.30746712 25.27720055 -32.55078125 25.671875 C-38.8017923 26.73161112 -43.41214676 29.37583172 -47.61328125 34.11328125 Z " fill="#000000" transform="translate(388.9609375,246.75)"/>
<path d="M0 0 C4.10289757 2.89905338 6.22373206 6.22445709 7.6875 11 C8.65301985 17.75863898 6.08015332 22.70932886 2.17578125 28.07910156 C0.46557843 30.21081908 -1.28583487 32.29838767 -3.0625 34.375 C-4.32729706 35.88111237 -5.59162355 37.38762005 -6.85546875 38.89453125 C-7.45794434 39.60818848 -8.06041992 40.3218457 -8.68115234 41.05712891 C-10.61713114 43.36280374 -12.50455986 45.70342239 -14.375 48.0625 C-17.82316207 52.40051034 -21.31463957 56.70206279 -24.8125 61 C-28.32830965 65.32090365 -31.8397445 69.64434055 -35.3125 74 C-39.35242386 79.06702315 -43.44521376 84.09054617 -47.53515625 89.1171875 C-50.47572262 92.73319719 -53.40694076 96.35573925 -56.3125 100 C-60.35242386 105.06702315 -64.44521376 110.09054617 -68.53515625 115.1171875 C-71.47572262 118.73319719 -74.40694076 122.35573925 -77.3125 126 C-81.35242386 131.06702315 -85.44521376 136.09054617 -89.53515625 141.1171875 C-92.47572262 144.73319719 -95.40694076 148.35573925 -98.3125 152 C-102.35242386 157.06702315 -106.44521376 162.09054617 -110.53515625 167.1171875 C-113.47572262 170.73319719 -116.40694076 174.35573925 -119.3125 178 C-123.35242386 183.06702315 -127.44521376 188.09054617 -131.53515625 193.1171875 C-134.47572262 196.73319719 -137.40694076 200.35573925 -140.3125 204 C-144.3461175 209.05911348 -148.42744676 214.07913685 -152.51977539 219.09082031 C-155.6548683 222.93516675 -158.7215879 226.82062077 -161.75 230.75 C-165.38419391 235.21938133 -168.13714994 238.58773079 -174.140625 239.3671875 C-178.94692407 239.56843648 -182.41485519 239.41676366 -186.8125 237.375 C-191.52369564 232.89936414 -193.57125945 229.73821173 -193.9375 223.1875 C-193.66842467 216.55030861 -191.52651781 212.97872375 -187.3125 208 C-186.50039062 207.02546875 -185.68828125 206.0509375 -184.8515625 205.046875 C-182.99165833 202.83178079 -181.1126737 200.63419964 -179.2265625 198.44140625 C-176.38644683 195.11788669 -173.68057994 191.70272494 -171 188.25 C-166.20821932 182.08702481 -161.27095239 176.05394857 -156.29589844 170.03833008 C-152.63337179 165.60848897 -149.01023144 161.15198472 -145.43359375 156.65234375 C-142.58054033 153.08471342 -139.69599326 149.54304387 -136.8125 146 C-133.29669035 141.67909635 -129.7852555 137.35565945 -126.3125 133 C-122.27257614 127.93297685 -118.17978624 122.90945383 -114.08984375 117.8828125 C-111.14927738 114.26680281 -108.21805924 110.64426075 -105.3125 107 C-101.27257614 101.93297685 -97.17978624 96.90945383 -93.08984375 91.8828125 C-90.14927738 88.26680281 -87.21805924 84.64426075 -84.3125 81 C-80.27257614 75.93297685 -76.17978624 70.90945383 -72.08984375 65.8828125 C-69.14927738 62.26680281 -66.21805924 58.64426075 -63.3125 55 C-59.27257614 49.93297685 -55.17978624 44.90945383 -51.08984375 39.8828125 C-48.14927738 36.26680281 -45.21805924 32.64426075 -42.3125 29 C-37.17166563 22.56031364 -31.99169238 16.15280746 -26.76904297 9.77929688 C-25.54054473 8.27857694 -24.31837234 6.7726819 -23.09765625 5.265625 C-16.95219063 -2.10355478 -8.93830115 -4.95275269 0 0 Z " fill="#000000" transform="translate(393.3125,121)"/>
</svg>
