<?xml version="1.0" encoding="UTF-8"?>
<svg version="1.1" xmlns="http://www.w3.org/2000/svg" width="512" height="512">
<path d="M0 0 C0.82551865 -0.00992981 1.65103729 -0.01985962 2.50157166 -0.03009033 C5.20689331 -0.05907637 7.91198085 -0.07289069 10.61743164 -0.08398438 C11.54766207 -0.08963913 12.47789249 -0.09529388 13.43631172 -0.10112 C18.35501345 -0.13099412 23.27359943 -0.14952443 28.19238281 -0.15820312 C33.2541851 -0.16918339 38.31491439 -0.21729041 43.37637997 -0.27414703 C47.28763382 -0.31150493 51.19863115 -0.32181627 55.11004829 -0.32487488 C56.97548885 -0.33090109 58.84092633 -0.34686734 60.70619011 -0.37324524 C78.27625585 -0.60407314 78.27625585 -0.60407314 84.80348206 4.73986816 C89.69038348 9.7724017 90.61439895 13.25810152 90.96508789 20.19726562 C90.7854371 26.02042911 89.71865549 29.74344788 86.33618164 34.45507812 C81.18180733 39.27658678 76.78201567 40.82100499 69.78759766 40.83642578 C68.7080632 40.84711342 68.7080632 40.84711342 67.60671997 40.85801697 C65.24802571 40.87718005 62.89023955 40.86904015 60.53149414 40.86132812 C58.87913213 40.87124586 57.22678117 40.88319119 55.57444763 40.89706421 C51.23578169 40.92934933 46.89736797 40.9398106 42.55859375 40.94390869 C35.6189992 40.95267967 28.67961117 40.98838376 21.74018669 41.03608322 C19.3273265 41.04859055 16.91473209 41.04791704 14.50184631 41.04580688 C13.00855308 41.05239323 11.51526162 41.05940067 10.02197266 41.06689453 C8.72848404 41.06815338 7.43499542 41.06941223 6.10231018 41.07070923 C-0.61949313 41.52015439 -6.39254169 42.89288595 -11.65991211 47.32226562 C-16.62002887 53.8353902 -16.80980784 60.69027862 -16.79362488 68.58273315 C-16.79702321 69.8070219 -16.79702321 69.8070219 -16.8004902 71.05604374 C-16.80680493 73.78265696 -16.80600246 76.50922014 -16.80517578 79.23583984 C-16.80816883 81.19416366 -16.81157169 83.15248688 -16.81535339 85.11080933 C-16.82418228 90.42487445 -16.82653103 95.73892346 -16.82716918 101.0529952 C-16.82788026 104.37413926 -16.83001566 107.69527923 -16.8326664 111.01642227 C-16.84191579 122.60584015 -16.84600175 134.19524652 -16.84521484 145.78466797 C-16.84461399 156.58304262 -16.85516828 167.38136733 -16.87095851 178.17972934 C-16.88403832 187.45548483 -16.88939856 196.731224 -16.88875943 206.00698864 C-16.8885046 211.54488769 -16.89134796 217.08274233 -16.90193748 222.62063217 C-16.91162597 227.82940794 -16.91169245 233.03809692 -16.90442085 238.24687576 C-16.90337598 240.15601478 -16.90573209 242.06515922 -16.91178131 243.97428894 C-16.91951798 246.58557115 -16.91484539 249.19655486 -16.90715027 251.80783081 C-16.91229383 252.55862502 -16.91743739 253.30941923 -16.92273682 254.08296478 C-16.87393304 261.60609923 -15.6392017 268.40094827 -10.65991211 274.32226562 C-4.9206052 278.693076 1.02359085 279.44577086 8.05358696 279.45090008 C9.17528624 279.45412452 10.29698553 279.45734897 11.4526757 279.46067113 C13.28592987 279.45834822 13.28592987 279.45834822 15.15621948 279.45597839 C16.46243826 279.45824395 17.76865704 279.46050951 19.1144582 279.46284372 C22.73396717 279.46895423 26.35345301 279.46882901 29.97296596 279.46764934 C33.87898409 279.46744515 37.78499484 279.47296585 41.69100952 279.47770691 C49.3410451 279.48600971 56.99107297 279.48876158 64.64111267 279.48931929 C70.85943801 279.48979458 77.07776082 279.49185002 83.29608536 279.49501991 C100.92812154 279.50382516 118.56015164 279.50843944 136.19219004 279.50768944 C137.6177066 279.5076295 137.6177066 279.5076295 139.07202148 279.50756836 C140.49927934 279.50750704 140.49927934 279.50750704 141.95537068 279.50744448 C157.37872732 279.50703795 172.80205955 279.51660944 188.22540914 279.53070673 C204.06389326 279.54506919 219.90236548 279.55197699 235.74085629 279.55111295 C244.63222924 279.55078095 253.52357661 279.55352919 262.4149437 279.564291 C269.98447024 279.57339425 277.55395959 279.57557266 285.12348925 279.56878158 C288.98470614 279.5655156 292.84585166 279.5654625 296.70706177 279.57413483 C300.89475826 279.58344366 305.08228933 279.57722589 309.26998901 279.56950378 C311.09655102 279.57721913 311.09655102 279.57721913 312.96001327 279.58509034 C321.68804488 279.54947235 329.36944579 279.18394194 336.34008789 273.32226562 C341.95726554 265.94635503 341.48632945 257.83720945 341.48193359 249.01196289 C341.48540802 247.88116302 341.48888245 246.75036316 341.49246216 245.58529663 C341.49980174 243.13484244 341.50515668 240.68438168 341.50875282 238.23391914 C341.51593277 234.3542914 341.53160978 230.47478905 341.5500946 226.59519958 C341.60250101 215.56633274 341.65099268 204.53753449 341.66601562 193.50854492 C341.67530455 186.75822798 341.70541191 180.00827508 341.74733543 173.25806999 C341.759647 170.68770696 341.76476642 168.11729898 341.762537 165.54690742 C341.76018525 161.95157958 341.78234145 158.35716706 341.81005859 154.76196289 C341.80345718 153.70251968 341.79685577 152.64307648 341.79005432 151.55152893 C341.88007843 144.43627942 343.02225463 140.03043221 347.86743164 134.61523438 C354.18496704 129.66270662 359.40085369 128.36470913 367.34008789 129.32226562 C373.5371723 131.14750918 377.77929052 135.01187231 381.34008789 140.32226562 C382.34439455 143.33518559 382.46813081 145.33954724 382.47380066 148.48857117 C382.47806564 149.5581456 382.48233063 150.62772003 382.48672485 151.72970581 C382.48627167 152.90324615 382.48581848 154.0767865 382.48535156 155.28588867 C382.49038948 157.13995583 382.49038948 157.13995583 382.49552917 159.03147888 C382.50341081 162.42431092 382.50670739 165.81708175 382.50734496 169.20991874 C382.50805581 171.33151051 382.51019086 173.45309587 382.51284218 175.57468605 C382.52209787 182.98200512 382.52617706 190.3893062 382.52539062 197.79663086 C382.52479077 204.69083493 382.5353238 211.58496052 382.55113429 218.47914475 C382.56423656 224.40455037 382.56957335 230.32993043 382.56893522 236.25535041 C382.56868088 239.79127593 382.57149584 243.3271318 382.58211327 246.86304283 C382.59364828 250.81261594 382.58903098 254.76208274 382.58300781 258.71166992 C382.58862732 259.87508911 382.59424683 261.0385083 382.60003662 262.23718262 C382.57660442 268.29104446 382.11746547 273.52560948 380.34008789 279.32226562 C381.05028076 279.3211377 381.76047363 279.32000977 382.4921875 279.31884766 C385.75491713 279.33106066 389.01537126 279.38884876 392.27758789 279.44726562 C393.39456055 279.4446875 394.5115332 279.44210937 395.66235352 279.43945312 C403.19630642 279.61620275 408.95185595 280.74918749 414.34008789 286.32226562 C419.15169403 292.63793005 418.92397114 298.48935556 418.87133789 306.23632812 C418.87516479 307.48296234 418.8789917 308.72959656 418.88293457 310.01400757 C418.88634439 313.32021253 418.87032959 316.62565843 418.84790039 319.9317627 C418.83501482 323.25603882 418.86564073 326.58009078 418.88696289 329.90429688 C418.88431746 332.47331121 418.87918804 335.04232442 418.87133789 337.61132812 C418.87943481 338.79095123 418.88753174 339.97057434 418.89587402 341.1859436 C418.71678989 357.34399557 412.7869029 371.36113902 401.67993164 383.04101562 C390.81367876 393.63515867 377.31161125 400.56216013 361.92642689 400.57953453 C361.22210418 400.58304061 360.51778148 400.58654668 359.79211566 400.590159 C357.44416 400.59942475 355.09645502 400.59456228 352.74848938 400.58969116 C351.04318055 400.59342986 349.33787343 400.59803226 347.63256902 400.60342181 C342.95547051 400.61564013 338.2784436 400.61539271 333.60133278 400.61303306 C328.55344997 400.61262459 323.50559003 400.62366689 318.4577179 400.63314819 C308.5710473 400.64975298 298.68440056 400.65525751 288.79771719 400.65637295 C280.75978131 400.65732371 272.7218533 400.66143541 264.68391991 400.6677742 C241.88729796 400.68538552 219.09069484 400.69461329 196.29406605 400.69311325 C195.06538851 400.69303334 193.83671097 400.69295343 192.57080078 400.69287109 C191.34062031 400.69278933 190.11043985 400.69270757 188.84298118 400.69262333 C168.90947206 400.69181056 148.97603852 400.71094635 129.04255126 400.73914783 C108.56753514 400.7678865 88.09255588 400.78168756 67.61751908 400.77996027 C56.12536978 400.77929669 44.63329971 400.78477502 33.14116859 400.80631638 C23.35581278 400.82454111 13.57057211 400.82886487 3.78520665 400.81529753 C-1.20477167 400.80877434 -6.19452917 400.8086273 -11.18448639 400.82600403 C-15.758611 400.84176846 -20.33234032 400.83883676 -24.90645549 400.82143576 C-26.55515994 400.81837328 -28.20389413 400.82196975 -29.85256346 400.83315592 C-47.89992351 400.94742994 -63.08451684 396.30416841 -76.37866211 383.66210938 C-89.08812882 370.62620088 -93.93926559 356.07263075 -94.06616211 338.16992188 C-94.07756226 336.91521591 -94.0889624 335.66050995 -94.10070801 334.36778259 C-94.11954012 331.72266172 -94.13336934 329.07799082 -94.14038086 326.43286133 C-94.15135816 323.06577856 -94.19947612 319.70031014 -94.25632477 316.33373356 C-94.30280655 313.09175509 -94.30648864 309.84968669 -94.31616211 306.60742188 C-94.35320251 304.81172508 -94.35320251 304.81172508 -94.39099121 302.97975159 C-94.34977006 295.18698209 -92.96321179 290.15452526 -87.65991211 284.32226562 C-81.5972536 279.34856871 -75.34062047 279.66754737 -67.72241211 279.57226562 C-65.98121094 279.52779297 -65.98121094 279.52779297 -64.20483398 279.48242188 C-61.35645831 279.41209161 -58.50888374 279.35921148 -55.65991211 279.32226562 C-56.14663863 277.63006283 -56.14663863 277.63006283 -56.64319801 275.90367413 C-57.80379776 271.23300404 -57.94519144 266.81359409 -57.92733765 262.01972961 C-57.93186876 261.11551795 -57.93639987 260.21130628 -57.94106829 259.27969426 C-57.95367132 256.26689507 -57.95209456 253.25427761 -57.95043945 250.24145508 C-57.95642731 248.07420114 -57.96323345 245.90694934 -57.97079468 243.73970032 C-57.98843701 237.86344408 -57.99314936 231.98724613 -57.99442625 226.11096597 C-57.99584957 222.43565216 -58.00012263 218.76035309 -58.00542068 215.08504295 C-58.02391613 202.2514286 -58.03209203 189.41785575 -58.03051758 176.58422852 C-58.02931678 164.64069387 -58.0504084 152.69734012 -58.0820049 140.75385123 C-58.1082001 130.48434869 -58.11888349 120.2149051 -58.11760676 109.94536942 C-58.11709802 103.81875794 -58.12273237 97.69230721 -58.14396286 91.56572914 C-58.16339941 85.79953178 -58.16343254 80.03364763 -58.1489296 74.26743889 C-58.14684703 72.15882533 -58.15150919 70.05019188 -58.16365051 67.94161224 C-58.26937502 48.29806821 -55.05001607 32.37849808 -40.99975586 17.60351562 C-29.67548518 6.56282435 -15.90177212 0.04670124 0 0 Z M-53.65991211 320.32226562 C-54.78145397 338.57017837 -54.78145397 338.57017837 -47.65991211 354.32226562 C-41.06356985 359.53732254 -35.15857696 360.44594097 -26.82196236 360.45090008 C-26.15559358 360.45265312 -25.4892248 360.45440615 -24.80266303 360.45621231 C-22.57188177 360.4608607 -20.34116602 360.45840981 -18.11038208 360.45597839 C-16.49398301 360.45784695 -14.87758439 360.46014783 -13.26118648 360.46284372 C-8.82076539 360.46896256 -4.38036313 360.46882802 0.06006122 360.46764934 C4.84952253 360.46744536 9.63897779 360.47296383 14.42843628 360.47770691 C23.81104133 360.48601429 33.19364009 360.48876178 42.57624851 360.48931929 C50.20189653 360.48979437 57.82754248 360.49184872 65.45318985 360.49501991 C87.06952784 360.50382642 108.68586086 360.50843925 130.30220066 360.50768944 C132.05031275 360.5076295 132.05031275 360.5076295 133.83374023 360.50756836 C135.00056973 360.50752748 136.16739923 360.5074866 137.3695872 360.50744448 C156.28486619 360.50703792 175.20012528 360.5166099 194.11539851 360.53070673 C213.5337616 360.54506441 232.95211498 360.55197726 252.37048352 360.55111295 C263.27394331 360.55078079 274.17738224 360.55353629 285.08083725 360.564291 C294.36313884 360.57338796 303.6454101 360.57557784 312.92771421 360.56878158 C317.66384142 360.56551242 322.39991041 360.56547398 327.1360321 360.57413483 C331.47240471 360.58198315 335.80867279 360.58058547 340.14504279 360.57185069 C341.71296357 360.57031204 343.28089209 360.57214561 344.84880374 360.57771077 C359.55943661 360.85748067 359.55943661 360.85748067 372.34008789 354.32226562 C380.56004579 343.92512969 378.34008789 334.07364544 378.34008789 320.32226562 C235.78008789 320.32226562 93.22008789 320.32226562 -53.65991211 320.32226562 Z " fill="#000000" transform="translate(93.659912109375,95.677734375)"/>
<path d="M0 0 C1.20406998 -0.00574036 1.20406998 -0.00574036 2.4324646 -0.01159668 C4.12507385 -0.01430587 5.81772567 -0.00701445 7.51025391 0.00976562 C10.05860561 0.03102202 12.6040836 0.01002035 15.15234375 -0.015625 C33.02933805 -0.04649461 47.98396241 4.67777361 61.17578125 17.1796875 C66.71973459 22.88474717 75.4609375 32.05945651 75.4609375 40.53125 C76.24262897 40.52756283 77.02432043 40.52387566 77.82969952 40.52007675 C96.89465916 40.43154363 115.95957749 40.36545207 135.02469921 40.32400131 C144.24465021 40.30342062 153.46446356 40.27538645 162.68432617 40.22949219 C170.72512243 40.18948629 178.76581894 40.16378457 186.80671197 40.15489602 C191.06002523 40.14970443 195.31305326 40.13759728 199.56627464 40.10832977 C203.5791932 40.08094264 207.5917122 40.07285139 211.60471535 40.07881927 C213.0683167 40.07772935 214.53193306 40.06991514 215.99545288 40.0544281 C233.57545483 39.87770504 248.35482865 44.99561484 261.1796875 57.19140625 C272.9541048 69.26824866 278.81249766 83.42410528 278.8359375 100.21875 C278.86042969 101.12302734 278.88492187 102.02730469 278.91015625 102.95898438 C278.96127381 115.04828671 274.3079938 125.61713218 269.0234375 136.28125 C268.50338135 137.34110107 267.9833252 138.40095215 267.44750977 139.49291992 C266.35099583 141.71656569 265.24895551 143.93749425 264.14160156 146.15576172 C263.02165879 148.40508315 261.91160253 150.6593544 260.81152344 152.91845703 C248.87555488 177.42664739 248.87555488 177.42664739 238.4609375 186.53125 C237.76484375 187.14484375 237.06875 187.7584375 236.3515625 188.390625 C231.72857065 192.12600241 224.55609923 197.53125 218.4609375 197.53125 C218.4923584 198.39290771 218.5237793 199.25456543 218.55615234 200.14233398 C218.65921087 203.37954594 218.73401192 206.6159145 218.79052734 209.85424805 C218.8204608 211.24808482 218.86122521 212.64173713 218.91357422 214.03491211 C219.20579018 222.01928361 219.15253075 228.32009454 214.05322266 234.859375 C209.19920317 239.95602103 205.48374555 240.8076511 198.5859375 241.15625 C192.76277402 240.97659921 189.03975524 239.9098176 184.328125 236.52734375 C177.63024768 229.36706068 177.95492696 223.0553783 178.2109375 213.59375 C178.2934375 209.283125 178.3759375 204.9725 178.4609375 200.53125 C165.2609375 200.53125 152.0609375 200.53125 138.4609375 200.53125 C138.69688031 209.01280008 138.69688031 209.01280008 139.00146484 217.49194336 C139.11290591 225.47795398 137.94749808 230.5887379 132.4609375 236.53125 C127.09363019 241.11582499 121.86957309 241.25755365 114.9140625 241.04296875 C108.21241802 240.04985175 104.39924808 236.92523359 100.234375 231.78125 C97.02468661 225.87126062 98.04936487 218.62448536 98.2109375 212.09375 C98.2310292 210.68036379 98.24927527 209.26695007 98.265625 207.85351562 C98.30941933 204.41218317 98.37829847 200.97189425 98.4609375 197.53125 C97.51637695 197.22131104 96.57181641 196.91137207 95.59863281 196.59204102 C82.53587046 192.17578655 71.3953754 181.78656904 64.94833374 169.69412231 C61.27989912 161.96301136 58.90914952 154.50147832 57.125 146.1484375 C56.83944244 144.87201385 56.55388489 143.59559021 56.25967407 142.28048706 C55.47596775 138.77707194 54.71019486 135.26995883 53.94764709 131.7618866 C53.10654144 127.907019 52.2494251 124.05571291 51.39355469 120.20410156 C51.03617396 118.59377476 50.67881329 116.9834435 50.32147217 115.37310791 C49.59574713 112.10399188 48.86982126 108.83492048 48.14385986 105.56585693 C47.96310535 104.75165157 47.78235085 103.93744621 47.59611893 103.09856796 C47.22974417 101.44856726 46.86314386 99.79861663 46.49631882 98.14871597 C45.56225411 93.94418863 44.63418768 89.73847255 43.71679688 85.53027344 C42.8078136 81.36240018 41.88388035 77.19809107 40.94984818 73.03576279 C40.60239982 71.47499531 40.26028826 69.91302861 39.92396164 68.34982681 C37.49078783 55.44630713 37.49078783 55.44630713 29.81063843 45.21365356 C24.27535408 41.74510978 18.65330515 41.41643008 12.28515625 41.42578125 C10.54782227 41.40354492 10.54782227 41.40354492 8.77539062 41.38085938 C6.36926093 41.35624092 3.96285322 41.35084159 1.55664062 41.36523438 C-6.39396924 41.21971573 -11.57640607 39.94187067 -17.5390625 34.53125 C-22.12363749 29.16394269 -22.26536615 23.93988559 -22.05078125 16.984375 C-21.2830517 11.80366569 -19.36099168 8.10636183 -15.5390625 4.53125 C-10.16537033 0.9091752 -6.42001335 -0.06891535 0 0 Z M85.4609375 80.53125 C85.97308884 85.63059804 86.57882815 90.62890669 87.67260742 95.64257812 C87.91343552 96.75403198 88.15426361 97.86548584 88.40238953 99.01062012 C88.66276505 100.18274048 88.92314056 101.35486084 89.19140625 102.5625 C89.46430984 103.79359497 89.73721344 105.02468994 90.01838684 106.29309082 C90.59633669 108.88571464 91.17693585 111.47760582 91.76098633 114.06884766 C92.50217148 117.36333132 93.22102573 120.6622735 93.93499279 123.96274567 C94.62899608 127.1455249 95.34963682 130.32228365 96.06640625 133.5 C96.31666061 134.67212036 96.56691498 135.84424072 96.82475281 137.05187988 C98.57309527 144.6250913 100.93771056 151.85733001 107.18009949 156.9276123 C113.16817118 160.63859646 119.52176689 160.68085378 126.35888672 160.67651367 C127.12719818 160.67987228 127.89550964 160.6832309 128.68710327 160.68669128 C131.21329387 160.69614795 133.73941783 160.69814168 136.265625 160.69921875 C138.03150458 160.70243484 139.79738391 160.70579917 141.56326294 160.70930481 C145.26011777 160.71528274 148.95694927 160.71714607 152.65380859 160.71655273 C157.37681616 160.71645115 162.09967326 160.73010543 166.82264519 160.74732494 C170.46876708 160.75847565 174.11485294 160.760471 177.76099014 160.75994301 C179.50160363 160.76111841 181.2422182 160.76551536 182.98281479 160.77327538 C185.42338175 160.78313815 187.8636264 160.78017271 190.30419922 160.77416992 C191.01406982 160.77978943 191.72394043 160.78540894 192.45532227 160.79119873 C199.92997304 160.74478236 206.63033557 159.45486941 212.4609375 154.53125 C218.02284192 146.81297804 222.08148208 137.94880401 226.38305664 129.49707031 C227.30894541 127.68853884 228.24482454 125.88508681 229.19067383 124.08691406 C237.03701543 110.10938304 237.03701543 110.10938304 237.4609375 94.53125 C235.19035285 88.81665643 231.83457671 85.59947088 226.62109375 82.44140625 C222.16135605 80.56234859 217.47549157 80.40647254 212.69021606 80.41099548 C211.56288559 80.40962082 210.43555511 80.40824615 209.27406311 80.40682983 C207.44094826 80.41222275 207.44094826 80.41222275 205.57080078 80.41772461 C204.27269974 80.41757858 202.97459869 80.41743256 201.63716125 80.4172821 C198.09009506 80.41699595 194.54306289 80.42286334 190.99600458 80.42985606 C187.28443736 80.43611982 183.5728693 80.43669579 179.86129761 80.43788147 C172.83850361 80.44098588 165.81572524 80.44918726 158.79293811 80.45923096 C150.79537168 80.47041975 142.79780449 80.47590951 134.80023217 80.48092639 C118.35379148 80.49137063 101.90736649 80.50895282 85.4609375 80.53125 Z " fill="#000000" transform="translate(177.5390625,15.46875)"/>
<path d="M0 0 C0.90340118 -0.01022186 1.80680237 -0.02044373 2.73757935 -0.03097534 C5.70830171 -0.05865542 8.6780902 -0.05686266 11.64892578 -0.05224609 C13.72486716 -0.06002646 15.80080537 -0.06869712 17.8767395 -0.07821655 C22.22261893 -0.09311701 26.56817334 -0.09257634 30.9140625 -0.08203125 C36.46806252 -0.07044729 42.02072739 -0.10429915 47.57450676 -0.1507206 C51.86068425 -0.18026549 56.14654281 -0.18192929 60.43280411 -0.17570114 C62.47963225 -0.17672415 64.52647904 -0.18713553 66.57320786 -0.20732498 C85.87731649 -0.3743807 85.87731649 -0.3743807 92.24539185 4.96939087 C97.8746984 11.00386296 98.48384402 15.89916497 98.23095703 24.09619141 C97.46322748 29.27690072 95.54116746 32.97420457 91.71923828 36.54931641 C86.13261583 40.37017442 82.1309505 41.13812496 75.43847656 41.09863281 C74.08337479 41.11396561 74.08337479 41.11396561 72.70089722 41.12960815 C69.73017485 41.15728824 66.76038636 41.15549548 63.78955078 41.15087891 C61.7136094 41.15865927 59.63767119 41.16732994 57.56173706 41.17684937 C53.21585764 41.19174983 48.87030322 41.19120915 44.52441406 41.18066406 C38.97041405 41.1690801 33.41774917 41.20293196 27.8639698 41.24935341 C23.57779231 41.27889831 19.29193375 41.2805621 15.00567245 41.27433395 C12.95884432 41.27535697 10.91199753 41.28576834 8.86526871 41.30595779 C-10.43883993 41.47301351 -10.43883993 41.47301351 -16.80691528 36.12924194 C-22.43622184 30.09476985 -23.04536745 25.19946785 -22.79248047 17.00244141 C-22.02475092 11.82173209 -20.1026909 8.12442824 -16.28076172 4.54931641 C-10.69413927 0.7284584 -6.69247394 -0.03949215 0 0 Z " fill="#000000" transform="translate(138.28076171875,295.45068359375)"/>
<path d="M0 0 C1.7510051 -0.01285538 1.7510051 -0.01285538 3.53738403 -0.02597046 C5.99999403 -0.03742637 8.46267168 -0.03848017 10.92529297 -0.02978516 C14.67664032 -0.02346894 18.42482399 -0.07039849 22.17578125 -0.12109375 C24.57551688 -0.12564079 26.97526094 -0.12704624 29.375 -0.125 C30.48777313 -0.14341949 31.60054626 -0.16183899 32.74703979 -0.18081665 C40.31150318 -0.09173485 45.12370579 1.54941644 50.8203125 6.6015625 C55.40488749 11.96886981 55.54661615 17.19292691 55.33203125 24.1484375 C54.5643017 29.32914681 52.64224168 33.02645067 48.8203125 36.6015625 C42.57463879 41.13631885 37.2176352 41.21549178 29.640625 41.203125 C28.47328827 41.21169525 27.30595154 41.2202655 26.10324097 41.22909546 C23.64063097 41.24055137 21.17795332 41.24160517 18.71533203 41.23291016 C14.96398468 41.22659394 11.21580101 41.27352349 7.46484375 41.32421875 C5.06510812 41.32876579 2.66536406 41.33017124 0.265625 41.328125 C-0.84714813 41.34654449 -1.95992126 41.36496399 -3.10641479 41.38394165 C-10.67087818 41.29485985 -15.48308079 39.65370856 -21.1796875 34.6015625 C-25.76426249 29.23425519 -25.90599115 24.01019809 -25.69140625 17.0546875 C-24.9236767 11.87397819 -23.00161668 8.17667433 -19.1796875 4.6015625 C-12.93401379 0.06680615 -7.5770102 -0.01236678 0 0 Z " fill="#000000" transform="translate(141.1796875,215.3984375)"/>
</svg>
