<?xml version="1.0" encoding="UTF-8"?>
<svg version="1.1" xmlns="http://www.w3.org/2000/svg" width="512" height="512">
<path d="M0 0 C2.39459394 -0.00678423 4.78918266 -0.01569186 7.1837616 -0.02655029 C12.9864241 -0.04690226 18.78872252 -0.04403525 24.59139574 -0.02948709 C29.31163388 -0.01814754 34.03178153 -0.01668419 38.75202942 -0.02210617 C39.42647816 -0.02287234 40.10092689 -0.0236385 40.79581347 -0.02442788 C42.16638405 -0.02602668 43.5369546 -0.02764775 44.90752512 -0.02929084 C57.72836071 -0.04351347 70.54901689 -0.02721063 83.36982304 -0.00028901 C94.34608506 0.02204667 105.32208259 0.01816556 116.29833984 -0.00488281 C129.07651219 -0.03170275 141.85452772 -0.0421405 154.63272429 -0.02682149 C155.99796261 -0.02522892 157.36320096 -0.02365706 158.72843933 -0.02210617 C159.73575371 -0.0209491 159.73575371 -0.0209491 160.76341787 -0.01976866 C165.47234752 -0.01547017 170.18117684 -0.02269799 174.89009094 -0.03450394 C181.24000899 -0.04900318 187.58943015 -0.03882668 193.93929482 -0.01003265 C196.26236969 -0.00345105 198.58548675 -0.00526902 200.90854454 -0.01634598 C218.42389517 -0.09213038 231.58061805 1.5634659 245.24023438 13.64697266 C253.6179856 22.1516595 258.38625525 33.54421895 258.39413452 45.3991394 C258.39851678 46.19699014 258.40289903 46.99484087 258.40741408 47.8168689 C258.42080529 50.49965976 258.4269818 53.18241777 258.43310547 55.86523438 C258.44100652 57.78544768 258.44927547 59.7056595 258.45788574 61.62586975 C258.4841172 67.94278544 258.49941982 74.25970778 258.51367188 80.57666016 C258.5190321 82.75285979 258.52440961 84.92905939 258.52980423 87.10525894 C258.55143933 96.1623801 258.57017318 105.21949947 258.58142662 114.27663994 C258.59764484 127.2437725 258.63076384 140.2106044 258.68782747 153.17762363 C258.72659972 162.30052942 258.74606825 171.42335507 258.75134718 180.54634106 C258.75499216 185.99122437 258.7669218 191.43578707 258.79944992 196.8805809 C258.82965671 202.01065757 258.8357975 207.14022181 258.82406616 212.27036858 C258.82384644 214.1451719 258.83206641 216.01999986 258.84972 217.89472008 C258.96854379 231.24904047 257.81261411 242.66361112 249.24023438 253.64697266 C248.53898437 254.61634766 247.83773438 255.58572266 247.11523438 256.58447266 C240.25104919 264.53028703 229.52908922 270.60294515 219.07705307 271.91943741 C213.18127197 272.33642376 207.28251208 272.22203578 201.37695312 272.13525391 C199.48982183 272.12590766 197.60267825 272.11880014 195.7155304 272.11381531 C190.79161014 272.09488786 185.86844845 272.04591316 180.94482422 271.99029541 C175.90342464 271.9387922 170.86190034 271.91623545 165.8203125 271.89111328 C155.95995645 271.837778 146.10015893 271.75264192 136.24023438 271.64697266 C136.92879768 273.40889198 136.92879768 273.40889198 137.63127136 275.20640564 C140.89896667 283.58001996 144.14703695 291.95653651 147.22851562 300.40087891 C147.56905975 301.3294017 147.90960388 302.2579245 148.26046753 303.21458435 C149.35951065 306.21228945 150.45613091 309.21087434 151.55273438 312.20947266 C152.3387648 314.35472229 153.12498312 316.49990309 153.91137695 318.64501953 C155.54155401 323.09219142 157.17093212 327.53965485 158.79980469 331.98730469 C161.53859895 339.46361639 164.2844804 346.93731573 167.0327301 354.41015625 C168.91155059 359.51926265 170.7881123 364.62917012 172.65893555 369.74121094 C175.93838201 378.69751349 179.22943936 387.64803538 182.60292053 396.56942749 C184.02969162 400.34606179 185.44479074 404.12701751 186.85879517 407.90844727 C187.52013427 409.66688457 188.18726382 411.42315702 188.86068726 413.17700195 C195.79127201 431.23305112 195.79127201 431.23305112 194.24023438 438.64697266 C191.62702599 443.78006056 188.70086197 446.82676346 183.24023438 448.64697266 C179.06931545 449.05312956 175.39772765 449.12049263 171.49023438 447.52197266 C165.48231125 442.51537006 162.98685414 437.29932613 160.44726562 430.06494141 C160.10402756 429.11980179 159.76078949 428.17466217 159.40715027 427.20088196 C158.27757283 424.08274384 157.16535226 420.958698 156.05273438 417.83447266 C155.25652382 415.62826829 154.45897462 413.42254663 153.66015625 411.21728516 C152.00147562 406.63499239 150.34857828 402.05067497 148.69970703 397.46484375 C145.29603816 388.01210423 141.8226065 378.58518256 138.34912109 369.15792847 C136.49050057 364.11122336 134.6371191 359.06259494 132.78320312 354.01416016 C132.03501404 351.97736875 131.28680426 349.94058495 130.53857422 347.90380859 C128.5534952 342.49986998 126.56860526 337.09586193 124.58377075 331.6918335 C122.9630396 327.27915745 121.34223997 322.86650656 119.72143555 318.45385742 C118.95772968 316.37460558 118.1940564 314.29534177 117.43041992 312.21606445 C116.71092726 310.25698918 115.99135501 308.29794313 115.271698 306.33892822 C114.58520349 304.46973039 113.89909673 302.60039009 113.21340942 300.730896 C111.54283538 296.17874135 109.86339461 291.63018315 108.16748047 287.08740234 C107.83942917 286.20587494 107.51137787 285.32434753 107.17338562 284.41610718 C106.55355452 282.75170159 105.93114176 281.08825439 105.30574036 279.42593384 C103.24023438 273.87086104 103.24023438 273.87086104 103.24023438 271.64697266 C99.94023437 271.64697266 96.64023437 271.64697266 93.24023438 271.64697266 C93.11424866 272.35774963 92.98826294 273.06852661 92.85845947 273.80084229 C92.22641249 276.71060464 91.35597488 279.38377109 90.34863281 282.18505859 C89.95520691 283.284216 89.56178101 284.38337341 89.15643311 285.51583862 C88.72518127 286.7089566 88.29392944 287.90207458 87.84960938 289.13134766 C87.39275032 290.40258781 86.93615264 291.67392193 86.47979736 292.94534302 C85.24545224 296.38087833 84.00631345 299.81466645 82.76605225 303.24806976 C81.98795476 305.40328685 81.21127051 307.55900794 80.43505859 309.71490479 C72.27738071 332.37091455 64.0061619 354.98348061 55.62963867 377.55957031 C51.59799593 388.43861846 47.61922167 399.32962289 43.80664062 410.28759766 C43.46136322 411.27531158 43.11608582 412.26302551 42.76034546 413.28067017 C41.16430987 417.84805015 39.58276885 422.41925846 38.03125 427.00195312 C37.47786955 428.59479186 36.92387196 430.18741638 36.36914062 431.77978516 C36.13876602 432.48113586 35.90839142 433.18248657 35.67103577 433.90509033 C33.66955726 439.56486404 30.51879895 444.76157825 25.19728088 447.82180786 C21.35499646 449.44186023 17.31630885 449.16293145 13.24023438 448.64697266 C8.39907461 446.31604388 5.53722316 443.5059874 3.24023438 438.64697266 C2.19594312 430.38243338 4.18097441 423.54150044 7.09570312 415.88916016 C7.50471863 414.7723436 7.91373413 413.65552704 8.33514404 412.50486755 C9.45024884 409.47029378 10.58076637 406.44203872 11.71842575 403.41586685 C12.91997785 400.20765471 14.10063983 396.99177047 15.28344727 393.77661133 C17.2603508 388.41055923 19.24877784 383.04891603 21.24609375 377.69042969 C24.1222821 369.97317531 26.97403889 362.24712427 29.81835938 354.51806641 C30.71947355 352.06973957 31.62059652 349.62141598 32.52172852 347.1730957 C32.96147003 345.97824554 33.40121155 344.78339539 33.85427856 343.55233765 C35.17017813 339.97998605 36.48882899 336.408662 37.80834961 332.83764648 C43.71235387 316.85330203 49.52763751 300.83930655 55.24389648 284.78686523 C55.51187546 284.03528137 55.77985443 283.28369751 56.05595398 282.50933838 C56.54802916 281.1283173 57.03892964 279.74687684 57.52839661 278.3649292 C58.3463039 276.06792315 59.148629 273.8301834 60.24023438 271.64697266 C52.98051203 271.53609933 45.7234198 271.50372901 38.46289062 271.52490234 C35.99536358 271.52296043 33.52778242 271.50330965 31.06054688 271.46533203 C27.50423542 271.41370816 23.95298337 271.42662013 20.39648438 271.45166016 C18.75226501 271.40705154 18.75226501 271.40705154 17.0748291 271.36154175 C12.38657522 271.4483495 9.42465682 271.55859358 5.88354492 274.81256104 C3.77777122 277.41547758 3.77777122 277.41547758 2.05114746 280.11087036 C-2.95689522 287.12440879 -12.23468733 291.63841441 -20.58398438 293.36181641 C-39.68449329 295.8651147 -55.13778871 286.2814719 -71.57226562 277.89697266 C-73.72869544 276.80619681 -75.8855929 275.71634495 -78.04296875 274.62744141 C-83.28734392 271.97792155 -88.5258171 269.31702541 -93.75976562 266.64697266 C-93.76123219 267.52180833 -93.76269875 268.396644 -93.76420975 269.29798985 C-93.80126873 290.58914994 -93.86027145 311.88015074 -93.94366837 333.17118168 C-93.98346998 343.46739525 -94.01585679 353.76353226 -94.03076172 364.05981445 C-94.04377239 373.03453665 -94.07072217 382.00909048 -94.11437869 390.98371786 C-94.1370066 395.73531476 -94.15267551 400.48670389 -94.15164948 405.23835945 C-94.15090365 409.71262312 -94.1688232 414.18642728 -94.20093346 418.66057205 C-94.20943805 420.30080634 -94.21117856 421.94109214 -94.20556831 423.58133888 C-94.19891494 425.82588349 -94.21687833 428.06897172 -94.24078369 430.31336975 C-94.24631445 432.19521013 -94.24631445 432.19521013 -94.25195694 434.11506748 C-95.06745691 439.78702359 -97.263523 443.48540395 -101.8578949 447.05212402 C-106.47438466 449.34663047 -111.12866566 449.2073894 -116.18969727 449.16455078 C-117.72759163 449.1750647 -117.72759163 449.1750647 -119.29655457 449.18579102 C-122.67128925 449.20333571 -126.04517929 449.19176108 -129.41992188 449.17822266 C-131.77209127 449.18091836 -134.12425958 449.18480143 -136.47642517 449.18981934 C-141.39983761 449.19570946 -146.3229593 449.18716594 -151.24633789 449.16845703 C-157.55366407 449.14565566 -163.86030983 449.1588018 -170.16761112 449.18274689 C-175.02238586 449.19720701 -179.87699949 449.192598 -184.7317791 449.18223572 C-187.05737832 449.1795697 -189.38299222 449.18283376 -191.7085743 449.19215393 C-194.95918614 449.20232399 -198.20869847 449.18681129 -201.45922852 449.16455078 C-202.41783783 449.17264771 -203.37644714 449.18074463 -204.36410522 449.18908691 C-209.97981325 449.11791956 -213.41463638 448.55268165 -217.75976562 444.64697266 C-222.01212392 439.76002894 -222.32346633 435.97385925 -222.21386719 429.79589844 C-222.21445129 428.9269545 -222.2150354 428.05801056 -222.21563721 427.16273499 C-222.21286208 424.30550461 -222.18179739 421.4493321 -222.15039062 418.59228516 C-222.1429262 416.60546437 -222.13723422 414.61863621 -222.13323975 412.63180542 C-222.11799935 407.41365069 -222.07873109 402.1959444 -222.03442383 396.97796631 C-221.99343683 391.64894679 -221.9752214 386.31985451 -221.95507812 380.99072266 C-221.91223544 370.54260944 -221.84400327 360.0948284 -221.75976562 349.64697266 C-222.37927094 349.448311 -222.99877625 349.24964935 -223.63705444 349.04496765 C-224.85481064 348.64819572 -224.85481064 348.64819572 -226.09716797 348.2434082 C-226.90229828 347.98287155 -227.70742859 347.7223349 -228.53695679 347.4539032 C-238.69349117 343.76684849 -246.16575816 333.57188218 -250.71679688 324.23681641 C-252.97818751 318.62145314 -254.01233742 313.54727607 -254.05029297 307.49682617 C-254.05701019 306.81924759 -254.06372742 306.14166901 -254.07064819 305.44355774 C-254.08951767 303.22092168 -254.09354807 300.99858993 -254.09570312 298.77587891 C-254.10214348 297.20995466 -254.10887273 295.64403158 -254.11587524 294.07810974 C-254.12782397 290.79740621 -254.13155904 287.51680772 -254.13037109 284.23608398 C-254.13016914 280.07753478 -254.15735284 275.91967849 -254.19191551 271.76129246 C-254.21441309 268.52401279 -254.21820159 265.28689313 -254.21715164 262.04954338 C-254.21947799 260.5192726 -254.22812929 258.98899532 -254.24381638 257.45880318 C-254.4621038 233.9469817 -246.76336806 212.79235508 -231.75976562 194.64697266 C-230.88578125 193.55255859 -230.88578125 193.55255859 -229.99414062 192.43603516 C-226.0820803 187.7514251 -221.81181035 183.87958686 -217.00976562 180.14697266 C-216.17711182 179.49643921 -216.17711182 179.49643921 -215.32763672 178.83276367 C-212.56013102 176.74688282 -210.23901428 175.11988024 -206.75976562 174.64697266 C-207.32824219 173.98052734 -207.89671875 173.31408203 -208.48242188 172.62744141 C-225.03437179 152.87010553 -231.57017222 134.29597919 -229.75976562 108.64697266 C-227.42619963 89.56024293 -216.10862927 74.55973316 -202.00976562 62.33447266 C-185.79063179 49.99662125 -165.545742 46.26119447 -145.57568359 48.93994141 C-127.15099829 52.2744016 -111.06744631 62.91642647 -99.75976562 77.64697266 C-88.27446443 94.84432418 -83.78330563 114.7847511 -87.83642578 135.19824219 C-90.71475936 147.85423155 -96.19520942 158.80684425 -104.75976562 168.64697266 C-94.26571665 174.24049876 -83.71728893 179.70502175 -73.07226562 185.00634766 C-71.97720703 185.55274902 -70.88214844 186.09915039 -69.75390625 186.66210938 C-67.08965447 187.99132669 -64.42493654 189.3195995 -61.75976562 190.64697266 C-61.76160921 189.91074299 -61.7634528 189.17451332 -61.76535225 188.41597366 C-61.80961544 170.461247 -61.84266303 152.5065313 -61.86338997 134.55176163 C-61.87368103 125.86879765 -61.88769966 117.18587021 -61.91064453 108.50292969 C-61.93064508 100.93055723 -61.94349781 93.35821124 -61.94794261 85.78581309 C-61.95053876 81.78022275 -61.95659508 77.77470811 -61.97122574 73.76914215 C-61.98491523 69.99022494 -61.98896558 66.21141379 -61.98598099 62.43247414 C-61.9867838 60.40227014 -61.99748543 58.37207739 -62.00860596 56.34190369 C-61.97266252 40.17584789 -59.23005577 25.36255026 -47.61914062 13.31494141 C-33.30852714 0.47747931 -18.27544876 -0.0871422 0 0 Z M-25.63476562 35.89697266 C-29.77610085 41.25634765 -31.13623987 45.89247197 -31.12052917 52.60093689 C-31.12309245 53.26436979 -31.12565572 53.9278027 -31.12829667 54.61133963 C-31.13320341 56.81479646 -31.11679439 59.01755451 -31.1003418 61.22094727 C-31.09949485 62.80816634 -31.09997199 64.39538659 -31.10166931 65.98260498 C-31.10252804 70.27761178 -31.0849222 74.57236588 -31.06394744 78.8673141 C-31.04516017 83.3609569 -31.04342858 87.85460585 -31.03987122 92.34828186 C-31.03055677 100.8514782 -31.00595112 109.35455846 -30.97582275 117.85770375 C-30.94226004 127.54085772 -30.92578802 137.22401731 -30.91073644 146.907215 C-30.87940103 166.82053227 -30.82665222 186.73374514 -30.75976562 206.64697266 C-27.83048172 208.18403339 -24.89019449 209.69872428 -21.94726562 211.20947266 C-21.11388672 211.64710938 -20.28050781 212.08474609 -19.421875 212.53564453 C-18.21821289 213.14956055 -18.21821289 213.14956055 -16.99023438 213.77587891 C-15.88264771 214.3493103 -15.88264771 214.3493103 -14.75268555 214.93432617 C-12.59814312 215.93598353 -12.59814312 215.93598353 -9.75976562 214.64697266 C-8.11160224 212.02876478 -8.11160224 212.02876478 -6.5769043 208.72192383 C-6.12253242 207.79499977 -6.12253242 207.79499977 -5.65898132 206.84934998 C-5.00152604 205.5053459 -4.34861597 204.15911117 -3.69969749 202.81096458 C-2.67049295 200.67491227 -1.62795841 198.54587508 -0.58137512 196.41828918 C2.39203 190.36748121 5.3407831 184.3047772 8.28051758 178.23754883 C10.07938494 174.5273233 11.89395402 170.82511662 13.71796227 167.12719154 C14.40868009 165.71847773 15.09320288 164.30670829 15.77128029 162.89186668 C16.72264332 160.90712393 17.69359383 158.9331237 18.66918945 156.96020508 C19.48834587 155.27262337 19.48834587 155.27262337 20.3240509 153.5509491 C23.12780545 149.30185851 26.45657634 147.24152533 31.24023438 145.64697266 C36.47527274 145.25187542 39.83952161 145.71316415 44.24023438 148.64697266 C47.75254218 152.82377112 49.24023438 156.17835103 49.24023438 161.64697266 C46.6798307 171.11984092 41.82473474 179.85047399 37.41210938 188.56103516 C36.65495084 190.06719972 35.89838969 191.57366473 35.14239502 193.08041382 C33.16828827 197.01164854 31.18732338 200.93938317 29.20446777 204.86621094 C26.0154609 211.18459311 22.83695004 217.50826072 19.65866852 223.83204269 C18.54844121 226.03851421 17.43519297 228.2434408 16.32147217 230.44815063 C15.64686923 231.78734226 14.97232569 233.12656381 14.29785156 234.46582031 C13.70591003 235.63843414 13.11396851 236.81104797 12.50408936 238.01919556 C11.1679954 240.31118491 11.1679954 240.31118491 11.24023438 241.64697266 C37.16153924 241.71708093 63.08282987 241.7699698 89.00421047 241.80240917 C101.04019276 241.81787226 113.0761161 241.83895121 125.11206055 241.87329102 C135.6036564 241.90321034 146.09520956 241.92255171 156.58684689 241.92923814 C162.14111146 241.93314608 167.6952539 241.94231885 173.24947929 241.96416283 C178.48035708 241.9845679 183.71106274 241.99079828 188.94197655 241.9862957 C190.85876146 241.9871191 192.77555229 241.99306069 194.6923027 242.00458908 C197.31680093 242.01959621 199.94065603 242.0158965 202.56517029 242.00773621 C203.31714437 242.01647473 204.06911846 242.02521325 204.84387964 242.03421658 C211.54466007 241.97820648 217.67632271 240.5420378 223.11523438 236.52197266 C229.51209475 227.86739685 228.66886201 217.74601441 228.62841797 207.52001953 C228.63248809 205.78947113 228.63783244 204.05892532 228.64434814 202.3283844 C228.65797515 197.6486449 228.65274222 192.96910475 228.64321089 188.28936195 C228.63559032 183.38085029 228.64266655 178.47235514 228.64736938 173.56384277 C228.65281996 165.32247875 228.64565365 157.0811955 228.63134766 148.83984375 C228.6150225 139.32571358 228.6203115 129.81177631 228.63682687 120.29765081 C228.65046163 112.11394019 228.65235168 103.93028748 228.64451087 95.74656916 C228.63984529 90.86539201 228.63917875 85.9843054 228.64912033 81.10313416 C228.65781671 76.513117 228.65171946 71.92334741 228.63443756 67.33335686 C228.63048695 65.65362394 228.63158221 63.97387001 228.63822556 62.29414558 C228.85730701 48.28697072 228.85730701 48.28697072 223.11523438 35.77197266 C216.63786994 30.98435547 209.53169696 30.20367228 201.67663574 30.26602173 C200.75649673 30.26134176 199.83635772 30.25666178 198.8883357 30.25184 C195.82775104 30.23994433 192.76761865 30.24932599 189.70703125 30.25878906 C187.50358317 30.25472096 185.30013714 30.24937773 183.09669495 30.24285889 C177.12775461 30.22920803 171.15897022 30.23447481 165.19002724 30.24399614 C158.93621025 30.25160425 152.68240639 30.24454393 146.42858887 30.23983765 C135.25530703 30.23403435 124.0820823 30.24334315 112.90881413 30.25861566 C102.79089963 30.27201777 92.67308842 30.26968934 82.55517578 30.25585938 C70.78790843 30.23978233 59.02069136 30.23384075 47.25341272 30.24269617 C41.03084999 30.2473674 34.80835831 30.24801259 28.58580017 30.2380867 C22.73509089 30.22940547 16.88457618 30.2354603 11.03388786 30.25276947 C8.88973755 30.2567281 6.7455708 30.25561099 4.60142708 30.24898148 C1.66867643 30.24075134 -1.26345547 30.2511055 -4.19616699 30.26602173 C-5.03927571 30.25932956 -5.88238442 30.2526374 -6.75104189 30.24574244 C-13.7295606 30.3143172 -20.05518908 31.53034753 -25.63476562 35.89697266 Z M-189.50976562 93.33447266 C-197.6249151 103.11039691 -199.61360595 114.19223073 -198.98193359 126.49804688 C-197.97714737 136.21686923 -191.87025255 144.8878317 -184.88476562 151.39306641 C-175.15493084 159.25932396 -164.00428383 161.5878098 -151.75976562 160.64697266 C-141.21016269 158.58177607 -131.53835282 153.12075555 -125.32226562 144.20947266 C-119.03978954 133.6963118 -116.03612646 123.69333364 -118.37304688 111.42822266 C-121.186038 101.01891629 -126.60049511 92.02899266 -135.60742188 85.85791016 C-154.02201528 75.4976126 -174.77904956 77.81007577 -189.50976562 93.33447266 Z M-205.75976562 211.64697266 C-220.37372803 228.28685819 -223.86817175 246.39888651 -223.96289062 267.90478516 C-223.9685907 268.93328583 -223.97429077 269.9617865 -223.98016357 271.02145386 C-223.98953671 273.1777038 -223.99611658 275.33396756 -224 277.49023438 C-224.00976153 280.77059767 -224.04088067 284.05034801 -224.07226562 287.33056641 C-224.07879234 289.43863565 -224.08404411 291.54670931 -224.08789062 293.65478516 C-224.10641083 295.10825851 -224.10641083 295.10825851 -224.12530518 296.59109497 C-224.10139244 303.95998853 -222.87030205 310.17966282 -219.00976562 316.52197266 C-214.75506792 320.54029826 -210.29907006 321.60378215 -204.69726562 322.52197266 C-199.63708112 323.46931313 -197.19781485 324.77916727 -193.75976562 328.64697266 C-191.91370485 333.77362746 -191.4566429 338.57061577 -191.44091797 343.96899414 C-191.42584953 345.1702166 -191.42584953 345.1702166 -191.41047668 346.39570618 C-191.37979992 349.01981953 -191.36265305 351.64383159 -191.34570312 354.26806641 C-191.32697897 356.09653078 -191.30740464 357.92498663 -191.28701782 359.75343323 C-191.23582233 364.54880736 -191.19612945 369.34420947 -191.15887451 374.13970947 C-191.11169303 379.90265849 -191.05014936 385.66547006 -190.99102783 391.42830658 C-190.90296906 400.16780607 -190.8330949 408.90728127 -190.75976562 417.64697266 C-169.30976563 417.64697266 -147.85976562 417.64697266 -125.75976562 417.64697266 C-125.74518311 412.19536621 -125.73060059 406.74375977 -125.71557617 401.12695312 C-125.66529441 383.13772358 -125.59886166 365.14858066 -125.52405071 347.15943718 C-125.47907804 336.25001872 -125.43966674 325.34063302 -125.41333008 314.43115234 C-125.39036195 304.92286253 -125.35697714 295.41467624 -125.31106406 285.90646851 C-125.28711592 280.87156836 -125.26839755 275.83677085 -125.26215172 270.80181503 C-125.25610811 266.06251675 -125.23613432 261.32348111 -125.20549011 256.58428001 C-125.19669831 254.84525691 -125.19298967 253.1061995 -125.19475746 251.36715508 C-125.19641013 248.99111975 -125.17971222 246.61588516 -125.15849304 244.23995972 C-125.16334062 243.55317512 -125.16818819 242.86639053 -125.17318267 242.15879428 C-125.10626806 237.61287428 -124.1465187 234.50711527 -121.75976562 230.64697266 C-117.90107896 227.47427473 -114.78026585 225.74352074 -109.75976562 225.64697266 C-101.34640443 227.27528677 -93.83924013 231.38113479 -86.29253387 235.2608242 C-84.07633384 236.39943411 -81.85472419 237.52679704 -79.63140869 238.65144348 C-73.31838864 241.84744188 -67.01600552 245.06418909 -60.71582031 248.28540039 C-56.84496054 250.26357336 -52.96829971 252.22997451 -49.08802032 254.18959999 C-47.61689423 254.93570584 -46.1481177 255.68646386 -44.6818161 256.44200706 C-42.63471949 257.496803 -40.580617 258.53658169 -38.52441406 259.57348633 C-37.35988708 260.16844406 -36.19536011 260.76340179 -34.99554443 261.37638855 C-31.6026134 262.70868117 -29.36573789 263.00654111 -25.75976562 262.64697266 C-22.26569793 260.97934944 -20.93305881 259.90691244 -18.75976562 256.64697266 C-18.09617118 252.54105342 -18.09617118 252.54105342 -18.75976562 248.64697266 C-23.50772848 244.12118981 -28.74195382 241.38620612 -34.59960938 238.51416016 C-35.55758926 238.03681427 -36.51556915 237.55946838 -37.50257874 237.06765747 C-40.56379583 235.54488556 -43.6304718 234.03347599 -46.69726562 232.52197266 C-48.69175365 231.53048369 -50.68589731 230.53830166 -52.6796875 229.54541016 C-63.68016904 224.07949533 -74.7324212 218.73040923 -85.82429504 213.45271301 C-94.13379468 209.49044441 -102.33879183 205.34642132 -110.49804688 201.08251953 C-141.0992606 185.47474867 -180.39597157 186.86138059 -205.75976562 211.64697266 Z " fill="#000000" transform="translate(253.759765625,31.35302734375)"/>
<path d="M0 0 C0.69509706 -0.0055344 1.39019411 -0.01106879 2.10635471 -0.0167709 C4.42340476 -0.03032771 6.73936826 -0.01543647 9.05639648 -0.00050354 C10.72240658 -0.00428855 12.38841352 -0.00979009 14.05441284 -0.01687622 C18.57097943 -0.03082443 23.0871648 -0.01966556 27.60371017 -0.00316501 C32.33346598 0.01069825 37.06319995 0.00422396 41.79296875 0.0007019 C49.73533258 -0.00199921 57.6775452 0.01146688 65.61987305 0.03465271 C74.79830027 0.06126182 83.97647468 0.06300917 93.15492725 0.05126435 C101.98945661 0.04047977 110.82389464 0.04667898 119.65841675 0.06081963 C123.41586469 0.06657353 127.17324567 0.06650143 130.93069458 0.06175423 C135.35652568 0.05697687 139.78208048 0.06711752 144.20785904 0.08870888 C145.83079217 0.09426658 147.4537519 0.09475137 149.07668686 0.08975601 C151.29475653 0.08378574 153.51198635 0.09634061 155.72998047 0.11352539 C156.97029526 0.11595529 158.21061005 0.11838518 159.48851013 0.12088871 C164.5096286 0.68645265 167.75742464 2.30383724 171.17749023 6.00120544 C174.3048323 10.6343048 174.48739706 15.07995177 173.86499023 20.50120544 C172.53173127 24.85765034 170.46259739 27.09002189 166.71569824 29.66807556 C160.17408921 32.74485301 152.82326627 32.05822948 145.75366211 32.01878357 C144.12015663 32.02420968 142.48665605 32.03133508 140.85316467 32.0400238 C136.43369779 32.05820206 132.01460596 32.05121248 127.59513283 32.03850746 C122.9610763 32.02835121 118.327051 32.03778042 113.69299316 32.04405212 C105.91221374 32.0513209 98.13158639 32.04176107 90.35083008 32.02268982 C81.36662149 32.00092254 72.38277605 32.00797446 63.39857626 32.02999544 C55.67263232 32.04817141 47.94679744 32.05069703 40.22083902 32.04024076 C35.6118414 32.0340179 31.00301425 32.03313689 26.39402771 32.04638672 C22.06002821 32.05797664 17.72649504 32.04986246 13.3925457 32.02680969 C11.8059256 32.02153932 10.21926598 32.02300766 8.63266182 32.03186035 C-6.3173103 32.10755916 -6.3173103 32.10755916 -13.13500977 27.50120544 C-16.68212679 23.8654105 -17.42079203 20.93490759 -17.63500977 16.00120544 C-17.43470725 11.08044034 -16.56418049 8.20110017 -13.13500977 4.50120544 C-8.62908984 0.95177204 -5.71083552 0.00096361 0 0 Z " fill="#000000" transform="translate(274.135009765625,95.49879455566406)"/>
<path d="M0 0 C0.85784592 -0.00700928 1.71569183 -0.01401855 2.59953308 -0.02124023 C5.41760222 -0.0387558 8.23465613 -0.02722054 11.05273438 -0.01367188 C13.02136425 -0.01636864 14.98999283 -0.0202526 16.95861816 -0.02526855 C21.07752202 -0.03115488 25.19607808 -0.02262849 29.31494141 -0.00390625 C34.58416684 0.01888267 39.85257721 0.00575496 45.12177277 -0.01819611 C49.18481544 -0.03267743 53.24766614 -0.02803737 57.31071472 -0.01768494 C59.2531087 -0.01502411 61.19552033 -0.01826467 63.13789368 -0.02760315 C65.85671904 -0.03780724 68.57424007 -0.02221416 71.29296875 0 C72.08902023 -0.00809692 72.88507172 -0.01619385 73.70524597 -0.02453613 C79.2853114 0.05956602 82.52949007 1.35821412 87.14648438 4.51757812 C90.93463384 8.68454254 91.50866286 12.71235151 91.41992188 18.16992188 C90.97181533 22.01723662 89.61202914 24.57777811 87.14648438 27.51757812 C81.73586589 31.29782837 77.82339659 32.10453611 71.30883789 32.05102539 C70.45259827 32.05964096 69.59635864 32.06825653 68.71417236 32.07713318 C65.90093222 32.09972265 63.08869397 32.09306714 60.27539062 32.08398438 C58.30915534 32.08922321 56.34292256 32.09550065 54.37669373 32.10276794 C50.26199492 32.11315932 46.14764221 32.108629 42.03295898 32.09399414 C36.77267685 32.07681165 31.51348759 32.10030182 26.25332737 32.13548374 C22.19452239 32.15749596 18.13597734 32.15600694 14.07713127 32.14771843 C12.1383437 32.14690094 10.19953666 32.15372542 8.26080513 32.16848946 C5.54437175 32.18600558 2.82988235 32.17133495 0.11352539 32.14868164 C-0.67893082 32.16037384 -1.47138702 32.17206604 -2.28785706 32.18411255 C-8.1993943 32.08433893 -12.28177169 30.27612394 -16.85351562 26.51757812 C-20.24750962 21.85083638 -20.7111025 17.11138345 -19.85351562 11.51757812 C-18.21377113 6.53978233 -15.503253 3.83975628 -10.87117004 1.33045959 C-7.29416222 -0.11066102 -3.81250987 -0.0387784 0 0 Z " fill="#000000" transform="translate(356.853515625,151.482421875)"/>
<path d="M0 0 C0.82654083 -0.0065712 1.65308167 -0.0131424 2.50466919 -0.01991272 C5.23651222 -0.03960202 7.96830038 -0.05129871 10.70019531 -0.0612793 C11.63534218 -0.06535482 12.57048904 -0.06943035 13.53397369 -0.07362938 C18.48390989 -0.09447171 23.43381851 -0.10878126 28.38378906 -0.11816406 C33.48588806 -0.12922338 38.58755034 -0.16362311 43.68949509 -0.20333576 C47.62213938 -0.22952932 51.55468002 -0.23785834 55.48740387 -0.24144554 C57.36759642 -0.24630456 59.24778456 -0.25789896 61.12789154 -0.27648354 C63.76529693 -0.30093312 66.40157756 -0.29989952 69.0390625 -0.29296875 C69.80817963 -0.30577881 70.57729675 -0.31858887 71.36972046 -0.33178711 C76.86375515 -0.27944381 81.22846414 1.02197074 85.77832031 4.17700195 C89.46839492 8.37330294 90.38055605 12.51068147 90.09863281 18.03637695 C89.41183183 22.62621766 87.64010632 25.3798499 84.27832031 28.48950195 C79.76719575 31.53451103 75.6118159 31.33090894 70.36303711 31.33813477 C69.50416901 31.34309967 68.6453009 31.34806458 67.76040649 31.35317993 C64.91610923 31.36779721 62.07186774 31.374603 59.22753906 31.38012695 C57.25079853 31.38587897 55.27405801 31.3916367 53.2973175 31.3973999 C49.15043884 31.4079088 45.00357956 31.41375213 40.85668945 31.41723633 C35.54706367 31.42271938 30.23769454 31.44674391 24.92814922 31.47520828 C20.84374751 31.49384699 16.75940746 31.49904093 12.67496681 31.5005722 C10.71777761 31.50359671 8.76058944 31.51161841 6.803442 31.52475739 C4.06269272 31.54184278 1.32256827 31.53993149 -1.41821289 31.53344727 C-2.22414383 31.54266205 -3.03007477 31.55187683 -3.86042786 31.56137085 C-8.71663005 31.52544374 -12.00214966 30.83458045 -16.22167969 28.17700195 C-20.57178281 23.47418777 -21.58402519 19.702606 -21.50292969 13.45825195 C-20.91944758 8.72556375 -18.08949902 5.97973484 -14.72167969 2.86450195 C-10.07632922 -0.27110961 -5.46604361 0.0189107 0 0 Z " fill="#000000" transform="translate(358.2216796875,207.822998046875)"/>
</svg>
