<?xml version="1.0" encoding="UTF-8"?>
<svg version="1.1" xmlns="http://www.w3.org/2000/svg" width="512" height="512">
<path d="M0 0 C25.41 0 50.82 0 77 0 C77 9.9 77 19.8 77 30 C61.49 30 45.98 30 30 30 C30 46.83 30 63.66 30 81 C33.3 81.99 36.6 82.98 40 84 C43.15408029 85.11181496 46.29041023 86.24287423 49.421875 87.4140625 C50.30296936 87.74066864 51.18406372 88.06727478 52.09185791 88.40377808 C54.9789685 89.47467925 57.86446487 90.54986185 60.75 91.625 C62.80065924 92.3863964 64.85144287 93.14745786 66.90234375 93.90820312 C71.15868522 95.48731225 75.41449043 97.06785429 79.66992188 98.64941406 C88.49605624 101.92847223 97.32867032 105.18996521 106.16125488 108.45159912 C110.94114422 110.21690033 115.7205457 111.98352139 120.5 113.75 C122.41666437 114.45833956 124.33333103 115.16667289 126.25 115.875 C183.75 137.125 183.75 137.125 186.62431335 138.18725586 C188.5432605 138.89642556 190.462216 139.60557265 192.38117981 140.31469727 C197.1380235 142.07255001 201.89472694 143.83078027 206.65112305 145.58984375 C215.69149839 148.93278682 224.73339249 152.27147432 233.77981567 155.59802246 C238.08638835 157.18187902 242.39222289 158.76773661 246.69799805 160.35375977 C248.76468513 161.1143693 250.83173944 161.87398179 252.89916992 162.63256836 C255.75270499 163.67966256 258.60499458 164.73008275 261.45703125 165.78125 C262.31190628 166.09392822 263.16678131 166.40660645 264.04756165 166.72875977 C269.88613392 168.88613392 269.88613392 168.88613392 271 170 C271.09381302 171.84118029 271.11743954 173.68597641 271.11352539 175.52954102 C271.11344986 176.71068985 271.11337433 177.89183868 271.11329651 179.10877991 C271.10813522 180.3941716 271.10297394 181.67956329 271.09765625 183.00390625 C271.0962413 184.31205795 271.09482635 185.62020966 271.09336853 186.96800232 C271.0895441 190.45162859 271.07971446 193.93521339 271.06866455 197.41882324 C271.05844882 200.97126698 271.05381586 204.52371759 271.04882812 208.07617188 C271.03862232 215.05081791 271.01905064 222.02534997 271 229 C260.44 229 249.88 229 239 229 C239 292.69 239 356.38 239 422 C241.64 422 244.28 422 247 422 C271 476 271 476 271 512 C102.04 512 -66.92 512 -241 512 C-241 470.57908459 -241 470.57908459 -232.375 454.625 C-231.55194617 452.98378564 -230.73555519 451.33921339 -229.92578125 449.69140625 C-228.37527726 446.55255817 -226.79397033 443.43319971 -225.18261719 440.32519531 C-222.12230967 434.35804703 -219.53366443 428.20640799 -217 422 C-214.36 422 -211.72 422 -209 422 C-209 358.31 -209 294.62 -209 229 C-219.56 229 -230.12 229 -241 229 C-241 209.53 -241 190.06 -241 170 C-233.02228404 166.67595169 -225.0836554 163.47782144 -216.9765625 160.515625 C-215.85414154 160.10306458 -214.73172058 159.69050415 -213.57528687 159.26544189 C-209.92604097 157.92463413 -206.27551504 156.58734802 -202.625 155.25 C-200.05315988 154.30595211 -197.48163756 153.36104036 -194.91015625 152.41601562 C-191.0020646 150.97991708 -187.09392911 149.54393978 -183.18536377 148.10913086 C-172.69399122 144.2575959 -162.20940714 140.38787668 -151.72796631 136.50939941 C-134.87914091 130.27501359 -118.02372012 124.05862063 -101.16540527 117.84994507 C-73.90990933 107.81238338 -73.90990933 107.81238338 -46.65942383 97.76123047 C-44.76682632 97.06276241 -42.87409266 96.36466315 -40.98120117 95.66699219 C-38.35686191 94.69963935 -35.7329659 93.7310993 -33.109375 92.76171875 C-32.28445557 92.45704681 -31.45953613 92.15237488 -30.60961914 91.83847046 C-26.10084907 90.16757136 -21.6035267 88.46982889 -17.11523438 86.74462891 C-16.14765198 86.37304153 -15.18006958 86.00145416 -14.1831665 85.61860657 C-12.3161904 84.8998964 -10.45037324 84.17816652 -8.58587646 83.45304871 C-7.75219543 83.13185562 -6.9185144 82.81066254 -6.05957031 82.47973633 C-5.32232727 82.19350906 -4.58508423 81.9072818 -3.82550049 81.61238098 C-2 81 -2 81 0 81 C0 54.27 0 27.54 0 0 Z M8.62939453 110.42675781 C7.76071243 110.743414 6.89203033 111.06007019 5.99702454 111.38632202 C5.05183456 111.738367 4.10664459 112.09041199 3.1328125 112.453125 C2.13215256 112.82007477 1.13149261 113.18702454 0.10050964 113.56509399 C-3.22698597 114.78717452 -6.55096535 116.01853994 -9.875 117.25 C-12.22482633 118.11526212 -14.57484597 118.97999941 -16.92504883 119.84423828 C-24.28667014 122.55391504 -31.64350215 125.27645119 -39 128 C-41.2755149 128.84157543 -43.55106726 129.68304955 -45.82666016 130.52441406 C-55.81829583 134.21929111 -65.80804793 137.919217 -75.79589844 141.62431335 C-89.98364997 146.88702519 -104.1799236 152.12633346 -118.38034058 157.35476685 C-121.97119665 158.67689481 -125.56191449 159.99939749 -129.15258789 161.32202148 C-147.88678679 168.22257396 -147.88678679 168.22257396 -156.73535156 171.47851562 C-162.04495269 173.43236701 -167.35379531 175.38826628 -172.66210938 177.34561157 C-174.59900591 178.05939928 -176.53616947 178.77246294 -178.47363281 179.48471069 C-189.38440713 183.49606036 -200.23610227 187.60776418 -211 192 C-211 194.31 -211 196.62 -211 199 C-61.84 199 87.32 199 241 199 C241 196.69 241 194.38 241 192 C228.05579615 186.71801327 215.03151801 181.75185591 201.86691284 177.04736328 C196.72049799 175.20734747 191.57895178 173.3538304 186.4375 171.5 C185.39194443 171.12311035 184.34638885 170.7462207 183.26914978 170.35791016 C172.96714741 166.6381801 162.69830508 162.83166959 152.4375 159 C151.55998077 158.6724472 150.68246155 158.34489441 149.77835083 158.00741577 C146.21042369 156.67557392 142.64254464 155.34360361 139.07484436 154.01115417 C129.01639647 150.25618559 118.94641961 146.53251013 108.875 142.8125 C107.48779755 142.30005234 107.48779755 142.30005234 106.0725708 141.7772522 C89.45715431 135.64010242 72.83766916 129.51397102 56.21756744 123.38952255 C54.3312893 122.69442391 52.44503225 121.99926804 50.55877686 121.30410767 C47.01454754 119.99803279 43.4701882 118.69231147 39.92578125 117.38671875 C38.88183701 117.00200409 37.83789276 116.61728943 36.76231384 116.22091675 C34.79710456 115.49721462 32.83116771 114.77548426 30.8644104 114.05599976 C28.89058592 113.32832534 26.92120937 112.58850945 24.95565796 111.83877563 C23.49490341 111.28786758 23.49490341 111.28786758 22.00463867 110.72583008 C21.13771896 110.39416336 20.27079926 110.06249664 19.37760925 109.72077942 C15.39302727 108.51284137 12.41170271 109.03252141 8.62939453 110.42675781 Z M-179 229 C-179 238.9 -179 248.8 -179 259 C-169.1 259 -159.2 259 -149 259 C-149 249.1 -149 239.2 -149 229 C-158.9 229 -168.8 229 -179 229 Z M-119 229 C-119 292.69 -119 356.38 -119 422 C-89.63 422 -60.26 422 -30 422 C-30 358.31 -30 294.62 -30 229 C-59.37 229 -88.74 229 -119 229 Z M0 229 C0 238.9 0 248.8 0 259 C9.9 259 19.8 259 30 259 C30 249.1 30 239.2 30 229 C20.1 229 10.2 229 0 229 Z M60 229 C60 292.69 60 356.38 60 422 C89.37 422 118.74 422 149 422 C149 358.31 149 294.62 149 229 C119.63 229 90.26 229 60 229 Z M179 229 C179 238.9 179 248.8 179 259 C188.9 259 198.8 259 209 259 C209 249.1 209 239.2 209 229 C199.1 229 189.2 229 179 229 Z M-179 289 C-179 332.89 -179 376.78 -179 422 C-169.1 422 -159.2 422 -149 422 C-149 378.11 -149 334.22 -149 289 C-158.9 289 -168.8 289 -179 289 Z M0 289 C0 332.89 0 376.78 0 422 C9.9 422 19.8 422 30 422 C30 378.11 30 334.22 30 289 C20.1 289 10.2 289 0 289 Z M179 289 C179 332.89 179 376.78 179 422 C188.9 422 198.8 422 209 422 C209 378.11 209 334.22 209 289 C199.1 289 189.2 289 179 289 Z M-196 452 C-204.72905235 466.52324048 -204.72905235 466.52324048 -209 482 C-61.16 482 86.68 482 239 482 C232.56658543 466.97093647 232.56658543 466.97093647 226 452 C86.74 452 -52.52 452 -196 452 Z " fill="#000000" transform="translate(241,0)"/>
<path d="M0 0 C9.9 0 19.8 0 30 0 C30 9.9 30 19.8 30 30 C20.1 30 10.2 30 0 30 C0 20.1 0 10.2 0 0 Z " fill="#000000" transform="translate(241,139)"/>
</svg>
