<?xml version="1.0" encoding="UTF-8"?>
<svg version="1.1" xmlns="http://www.w3.org/2000/svg" width="512" height="512">
<path d="M0 0 C1.05507248 -0.01283524 2.11014496 -0.02567047 3.19718933 -0.03889465 C4.33779312 -0.04628159 5.47839691 -0.05366852 6.65356445 -0.0612793 C7.82893265 -0.06935104 9.00430084 -0.07742279 10.21528625 -0.08573914 C12.70600917 -0.09957929 15.19675104 -0.11030175 17.6875 -0.11816406 C21.4845001 -0.13535163 25.28062388 -0.17923733 29.07739258 -0.22338867 C31.49861014 -0.23351795 33.9198351 -0.24203331 36.34106445 -0.2487793 C37.47154709 -0.26628738 38.60202972 -0.28379547 39.76676941 -0.30183411 C47.44736588 -0.28085035 52.78749341 0.77041132 58.81762695 5.8527832 C64.39286921 12.74371685 66.15404085 18.67115915 66.4230957 27.50512695 C66.89652949 30.61886458 67.44841484 31.22492814 69.8293457 33.17700195 C71.73375291 33.99397357 71.73375291 33.99397357 73.86450195 34.5012207 C74.66476807 34.72084473 75.46503418 34.94046875 76.28955078 35.16674805 C77.14830811 35.39700684 78.00706543 35.62726563 78.8918457 35.86450195 C92.71507399 39.79970023 105.54510089 45.53170933 117.97314453 52.73901367 C121.38492084 54.66216459 123.90813956 55.93909683 127.8293457 55.17700195 C130.09077016 53.55031368 130.09077016 53.55031368 132.1418457 51.36450195 C137.43728626 46.41917317 141.95254504 44.15934304 149.2043457 43.73950195 C158.8275256 44.24532475 165.55128121 48.98496906 172.1027832 55.65356445 C172.83381256 56.37885345 173.56484192 57.10414246 174.31802368 57.85140991 C175.84951993 59.37884889 177.37356893 60.91378845 178.89038086 62.45581055 C181.19847344 64.79604791 183.53686048 67.10251376 185.88012695 69.4074707 C187.37293976 70.90424881 188.86389003 72.40288731 190.3527832 73.90356445 C191.04447601 74.58311188 191.73616882 75.2626593 192.44882202 75.96279907 C198.19039618 81.87191797 201.7611631 88.40659655 202.3293457 96.73950195 C201.88389071 104.90138699 197.97351375 110.63086665 192.12231445 116.05981445 C190.55060134 118.21748937 190.55060134 118.21748937 190.84106445 121.3684082 C192.05826816 126.059213 194.07594434 129.7962335 196.4543457 133.98950195 C203.8221 147.4891377 208.86989045 161.33968844 212.8293457 176.17700195 C213.1593457 177.16700195 213.4893457 178.15700195 213.8293457 179.17700195 C214.72395508 179.19118164 215.61856445 179.20536133 216.5402832 179.2199707 C225.5446855 179.57515502 232.87193698 180.65336649 239.7043457 186.88793945 C244.0214247 191.64087739 246.06627433 196.07789865 246.11987305 202.57470703 C246.13263275 203.62962845 246.14539246 204.68454987 246.15853882 205.7714386 C246.16187729 207.46686043 246.16187729 207.46686043 246.1652832 209.1965332 C246.17194 210.3690715 246.1785968 211.5416098 246.18545532 212.74967957 C246.19557178 215.22844883 246.20027265 217.70724527 246.19995117 220.18603516 C246.20431784 223.96538549 246.24063262 227.74356175 246.27856445 231.52270508 C246.28443418 233.93481047 246.28840253 236.3469214 246.2902832 238.7590332 C246.31183975 240.44534599 246.31183975 240.44534599 246.33383179 242.16572571 C246.28961426 249.81438029 245.21445192 255.16064049 240.15356445 261.1652832 C233.26263081 266.74052546 227.33518851 268.5016971 218.5012207 268.77075195 C215.38764099 269.24416173 214.7886104 269.80446276 212.8293457 272.17700195 C211.98355927 274.03218581 211.98355927 274.03218581 211.43481445 276.09887695 C211.20503906 276.8690918 210.97526367 277.63930664 210.73852539 278.43286133 C210.50037109 279.25592773 210.2622168 280.07899414 210.0168457 280.92700195 C205.95057913 294.27967409 200.92952969 306.56574728 194.08032227 318.74536133 C193.65976562 319.50913086 193.23920898 320.27290039 192.8059082 321.05981445 C192.42515137 321.73415527 192.04439453 322.40849609 191.65209961 323.10327148 C190.65212923 325.6236716 190.57341735 327.4871315 190.8293457 330.17700195 C192.45603397 332.43842641 192.45603397 332.43842641 194.6418457 334.48950195 C199.58717449 339.78494251 201.84700461 344.30020129 202.2668457 351.55200195 C201.7610229 361.17518185 197.02137859 367.89893746 190.3527832 374.45043945 C189.6274942 375.18146881 188.9022052 375.91249817 188.15493774 376.66567993 C186.62749876 378.19717618 185.09255921 379.72122518 183.55053711 381.23803711 C181.21029975 383.54612969 178.90383389 385.88451673 176.59887695 388.2277832 C175.10209885 389.72059601 173.60346034 391.21154628 172.1027832 392.70043945 C171.42323578 393.39213226 170.74368835 394.08382507 170.04354858 394.79647827 C164.13442969 400.53805243 157.59975111 404.10881935 149.2668457 404.67700195 C141.10496067 404.23154696 135.375481 400.32117 129.9465332 394.4699707 C127.78885829 392.89825759 127.78885829 392.89825759 124.63793945 393.1887207 C119.947116 394.40592925 116.21014521 396.42364136 112.0168457 398.80200195 C99.45660844 405.65604735 86.44355387 410.66643736 72.68994141 414.58056641 C71.05292968 415.05849372 69.43806126 415.61109016 67.8293457 416.17700195 C66.36085241 419.11398854 66.40340936 422.04192155 66.0793457 425.30200195 C65.16988411 432.80461516 63.54754072 437.88000872 57.8293457 442.95043945 C53.12329064 446.6356958 49.71204366 448.28982551 43.65869141 448.35400391 C42.60361893 448.36683914 41.54854645 448.37967438 40.46150208 448.39289856 C39.32089828 448.40028549 38.18029449 448.40767242 37.00512695 448.4152832 C35.82975876 448.42335495 34.65439056 448.4314267 33.44340515 448.43974304 C30.95268224 448.4535832 28.46194036 448.46430565 25.97119141 448.47216797 C22.17419131 448.48935554 18.37806752 448.53324124 14.58129883 448.57739258 C12.16008127 448.58752185 9.73885631 448.59603722 7.31762695 448.6027832 C6.18714432 448.62029129 5.05666168 448.63779938 3.891922 448.65583801 C-3.96476507 448.63437317 -9.30244488 447.50608811 -15.4128418 442.24731445 C-21.2582108 435.28321455 -22.37755192 429.90333717 -22.72924805 420.8840332 C-23.23873895 417.75945622 -23.78728081 417.14468258 -26.1706543 415.17700195 C-28.02583816 414.33121552 -28.02583816 414.33121552 -30.0925293 413.7824707 C-30.86274414 413.55269531 -31.63295898 413.32291992 -32.42651367 413.08618164 C-33.24958008 412.84802734 -34.07264648 412.60987305 -34.9206543 412.36450195 C-48.27332643 408.29823538 -60.55939962 403.27718594 -72.73901367 396.42797852 C-73.5027832 396.00742187 -74.26655273 395.58686523 -75.0534668 395.15356445 C-75.72780762 394.77280762 -76.40214844 394.39205078 -77.09692383 393.99975586 C-79.61732395 392.99978548 -81.48078384 392.9210736 -84.1706543 393.17700195 C-86.43207875 394.80369022 -86.43207875 394.80369022 -88.4831543 396.98950195 C-93.77859485 401.93483074 -98.29385364 404.19466086 -105.5456543 404.61450195 C-115.16883419 404.10867915 -121.89258981 399.36903484 -128.4440918 392.70043945 C-129.17512115 391.97515045 -129.90615051 391.24986145 -130.65933228 390.50259399 C-132.19082852 388.97515501 -133.71487752 387.44021546 -135.23168945 385.89819336 C-137.53978203 383.557956 -139.87816907 381.25149014 -142.22143555 378.9465332 C-143.71424836 377.4497551 -145.20519862 375.95111659 -146.6940918 374.45043945 C-147.38578461 373.77089203 -148.07747742 373.0913446 -148.79013062 372.39120483 C-154.53167329 366.48211835 -158.10253874 359.94738275 -158.6706543 351.61450195 C-158.21943931 343.33252372 -153.89998879 337.36726302 -148.46362305 331.4152832 C-146.94023214 329.2131841 -146.94023214 329.2131841 -147.1862793 326.44262695 C-148.48342279 322.1394049 -150.53064467 318.51527845 -152.7331543 314.61450195 C-159.64667889 301.93700545 -165.45385348 288.30469298 -168.50268555 274.13793945 C-169.33231133 271.70242984 -170.06167773 270.66350526 -172.1706543 269.17700195 C-174.80088118 268.78187186 -174.80088118 268.78187186 -177.7331543 268.80200195 C-185.79574688 268.29504329 -192.19174433 265.73821153 -197.6706543 259.67700195 C-201.12534274 255.41889759 -202.4162072 251.23073915 -202.46118164 245.77929688 C-202.47394135 244.72437546 -202.48670105 243.66945404 -202.49984741 242.58256531 C-202.50207306 241.45228409 -202.50429871 240.32200287 -202.5065918 239.1574707 C-202.5132486 237.9849324 -202.5199054 236.8123941 -202.52676392 235.60432434 C-202.53688037 233.12555508 -202.54158125 230.64675864 -202.54125977 228.16796875 C-202.54562643 224.38861842 -202.58194122 220.61044216 -202.61987305 216.83129883 C-202.62574277 214.41919343 -202.62971112 212.00708251 -202.6315918 209.5949707 C-202.64596283 208.47076218 -202.66033386 207.34655365 -202.67514038 206.1882782 C-202.63084568 198.52627447 -201.52652322 193.24399548 -196.5300293 187.1887207 C-188.34259286 180.45197082 -180.62451895 179.63913926 -170.1706543 179.17700195 C-170.02370117 178.66395508 -169.87674805 178.1509082 -169.7253418 177.62231445 C-168.89844271 174.79945206 -168.03314992 171.98920033 -167.1706543 169.17700195 C-166.80327148 167.92532227 -166.43588867 166.67364258 -166.05737305 165.3840332 C-161.63984596 150.90398382 -155.589317 135.80499601 -147.1706543 123.17700195 C-147.06506836 118.63680688 -148.57998625 116.49338681 -151.5456543 113.30200195 C-157.02985518 107.35609216 -158.46115104 101.95302871 -158.66674805 93.9621582 C-157.16796215 85.54771455 -152.60280144 79.85850599 -146.65893555 74.0012207 C-145.93127487 73.2687764 -145.2036142 72.53633209 -144.4539032 71.7816925 C-142.92104348 70.24544938 -141.38192762 68.71542559 -139.83691406 67.19140625 C-137.48961399 64.87088794 -135.17020197 62.52488635 -132.85229492 60.17504883 C-131.3519422 58.67800047 -129.85003901 57.18250406 -128.34643555 55.6887207 C-127.66172684 54.99389084 -126.97701813 54.29906097 -126.27156067 53.58317566 C-121.06440657 48.49904222 -115.64331378 44.97367482 -108.38549805 43.6809082 C-99.9043017 43.8991208 -94.77348992 45.46995469 -88.6081543 51.42700195 C-87.92624023 52.1540332 -87.24432617 52.88106445 -86.54174805 53.63012695 C-84.19208397 55.46741145 -84.19208397 55.46741145 -80.9440918 55.20043945 C-76.2922686 53.93876484 -72.53085284 51.91867806 -68.3581543 49.55200195 C-55.79791703 42.69795655 -42.78486246 37.68756654 -29.03125 33.7734375 C-27.39423828 33.29551019 -25.77936985 32.74291375 -24.1706543 32.17700195 C-22.702161 29.24001537 -22.74471796 26.31208236 -22.4206543 23.05200195 C-21.5111927 15.54938875 -19.88884931 10.47399519 -14.1706543 5.40356445 C-9.46459924 1.7183081 -6.05335225 0.0641784 0 0 Z M-57.14331055 87.90356445 C-59.33961917 90.36647702 -60.77177061 92.85157156 -62.3581543 95.73950195 C-65.56414548 101.17770195 -69.41735935 103.21651459 -74.97045898 105.69604492 C-86.05300572 110.7036483 -92.19300221 120.59752392 -96.5456543 131.67700195 C-97.24190961 135.03963201 -97.24190961 135.03963201 -97.2175293 137.95043945 C-97.40559038 145.41646426 -98.72533635 148.59489509 -104.0300293 153.8137207 C-109.4316665 159.77720703 -113.33415127 168.13201603 -113.2409668 176.2590332 C-113.32832137 188.80103197 -113.32832137 188.80103197 -115.5456543 192.4230957 C-116.72455446 193.43621303 -117.94027863 194.40780647 -119.1862793 195.3371582 C-121.9579236 197.90693078 -123.42273918 201.00962546 -125.0456543 204.36450195 C-125.34358887 204.97197266 -125.64152344 205.57944336 -125.94848633 206.20532227 C-130.58736939 215.95804093 -131.05876279 228.97714355 -127.5456543 239.23950195 C-124.90694284 245.30947071 -121.6204977 251.12647223 -116.51049805 255.40356445 C-113.30938522 259.19787181 -113.58886278 261.87907121 -113.6706543 266.67700195 C-113.41012729 279.17091604 -109.66226733 288.88049669 -101.1706543 298.17700195 C-100.62280273 298.59852539 -100.07495117 299.02004883 -99.51049805 299.4543457 C-97.39413689 302.17538148 -97.58710988 305.29135308 -97.3581543 308.61450195 C-96.10688105 321.12159175 -90.52419435 330.75282005 -81.1706543 339.17700195 C-77.21009029 342.01776364 -73.22713572 344.5121245 -68.57299805 346.0168457 C-65.42622566 347.53650652 -64.64760128 349.19728651 -62.9831543 352.23950195 C-56.42760161 363.01034551 -47.82133831 368.72499187 -36.1706543 373.17700195 C-35.48487305 373.44383789 -34.7990918 373.71067383 -34.0925293 373.9855957 C-22.00910485 377.79450123 -8.46009253 375.315908 2.61450195 369.78637695 C9.66612269 365.74472404 16.15326239 360.91056193 20.8293457 354.17700195 C20.8293457 353.51700195 20.8293457 352.85700195 20.8293457 352.17700195 C21.4893457 352.17700195 22.1493457 352.17700195 22.8293457 352.17700195 C23.10907227 352.76868164 23.38879883 353.36036133 23.67700195 353.9699707 C29.2415801 364.62755259 40.73684346 370.6561736 51.8293457 374.17700195 C64.86026791 377.40226343 77.7786502 374.94984827 89.5793457 368.92700195 C96.63518875 364.66248143 102.04229055 359.87628317 106.0168457 352.61450195 C109.22085242 347.17966813 113.07169867 345.13265173 118.62695312 342.66235352 C128.68841326 338.13072252 134.38059652 329.81544252 138.8293457 319.9621582 C140.47047506 315.59896332 140.91077418 311.83236311 141.0168457 307.17700195 C141.37856983 301.09695805 143.52523944 298.58033986 147.7590332 294.3996582 C153.92306627 287.78204534 156.99924982 278.65626517 156.90258789 269.75756836 C156.8705193 262.80014284 156.96171345 257.99576427 162.0793457 252.80200195 C162.88887695 252.05950195 163.6984082 251.31700195 164.5324707 250.55200195 C171.69190507 243.14904941 173.12611851 232.36672393 173.14624023 222.52832031 C172.95694163 212.15312091 169.3838392 203.21203987 162.8293457 195.17700195 C161.95149414 194.44352539 161.07364258 193.71004883 160.16918945 192.9543457 C156.96977611 189.15671151 157.24752711 186.47652092 157.3293457 181.67700195 C157.0688187 169.18308787 153.32095873 159.47350721 144.8293457 150.17700195 C144.28149414 149.75547852 143.73364258 149.33395508 143.16918945 148.8996582 C141.05282829 146.17862243 141.24580129 143.06265083 141.0168457 139.73950195 C139.76557245 127.23241216 134.18288575 117.60118386 124.8293457 109.17700195 C120.8687817 106.33624027 116.88582712 103.8418794 112.23168945 102.3371582 C109.08491706 100.81749739 108.30629269 99.1567174 106.6418457 96.11450195 C100.08629301 85.3436584 91.48002972 79.62901204 79.8293457 75.17700195 C79.14356445 74.91016602 78.4577832 74.64333008 77.7512207 74.3684082 C65.66779626 70.55950267 52.11878394 73.03809591 41.04418945 78.56762695 C33.99256872 82.60927986 27.50542902 87.44344198 22.8293457 94.17700195 C22.8293457 94.83700195 22.8293457 95.49700195 22.8293457 96.17700195 C22.1693457 96.17700195 21.5093457 96.17700195 20.8293457 96.17700195 C20.40975586 95.28948242 20.40975586 95.28948242 19.98168945 94.3840332 C14.4171113 83.72645132 2.92184795 77.69783031 -8.1706543 74.17700195 C-26.12477138 69.68847268 -43.78327707 75.64708382 -57.14331055 87.90356445 Z " fill="#002774" transform="translate(234.170654296875,31.822998046875)"/>
<path d="M0 0 C6.23413496 4.18726065 9.90658287 9.2136663 13 16 C13.34610321 16.73961472 13.69220642 17.47922943 14.04879761 18.24125671 C15.15118034 21.43846372 15.24059616 23.9712577 15.22705078 27.35083008 C15.22682419 29.24222466 15.22682419 29.24222466 15.22659302 31.17182922 C15.21638136 32.53773152 15.2059494 33.90363219 15.1953125 35.26953125 C15.19157941 36.67485859 15.18873383 38.08018853 15.18673706 39.48551941 C15.17912389 43.17299668 15.15949553 46.86031482 15.1373291 50.54772949 C15.11682059 54.31500089 15.10772467 58.08229816 15.09765625 61.84960938 C15.07624725 69.23314523 15.04213954 76.61655026 15 84 C12.99448649 83.49010213 10.98897298 82.98020426 8.98345947 82.4703064 C4.48888867 81.40457986 0.55189899 81.09157133 -3.5625 83.5 C-5.7310621 87.27141235 -4.84157098 89.79214512 -4 94 C-3.20335937 94.15855469 -2.40671875 94.31710938 -1.5859375 94.48046875 C4.92286897 95.91367309 9.37077815 97.12054994 14 102 C15.65875797 105.31751593 15.12889303 109.02597054 15.11352539 112.67236328 C15.11367142 113.56998383 15.11381744 114.46760437 15.1139679 115.39242554 C15.11326953 118.36841218 15.10548067 121.34433675 15.09765625 124.3203125 C15.0957918 126.38011643 15.09436802 128.43992081 15.09336853 130.49972534 C15.08954548 135.92817402 15.07971699 141.35659605 15.06866455 146.78503418 C15.05844588 152.32152954 15.05386993 157.85802919 15.04882812 163.39453125 C15.03809455 174.26303256 15.02102065 185.13151406 15 196 C14.25451904 195.52296631 13.50903809 195.04593262 12.7409668 194.55444336 C11.26623901 193.61290405 11.26623901 193.61290405 9.76171875 192.65234375 C8.78936279 192.03093506 7.81700684 191.40952637 6.81518555 190.76928711 C0.35017671 186.70615997 -4.20555155 184.07523493 -12 185 C-14.12870693 185.96117905 -14.12870693 185.96117905 -15 188 C-15.55330024 192.04413163 -15.55330024 192.04413163 -13.80078125 195.546875 C-11.60060232 197.32229054 -9.43564425 198.19926239 -6.8125 199.25 C3.03639106 203.61573535 10.00762283 210.75475801 14.140625 220.76171875 C16.42497463 229.36956348 16.39271139 240.61818816 12.44921875 248.7265625 C6.4755226 258.0976977 -0.5303638 263.51012127 -11 267 C-23.80408575 267.83356375 -33.24813581 267.30047883 -43.375 258.6875 C-47.79302214 254.47722185 -50.55630154 250.59907926 -52.83203125 244.92578125 C-54.31756754 242.4763853 -55.53942102 242.02094611 -58.1875 241 C-68.19831637 236.87033739 -74.76998944 231.61517326 -80 222 C-81.47438396 217.57684813 -81.24599572 212.97150533 -81.25390625 208.3359375 C-81.3915644 204.19170271 -81.5864974 202.49843074 -84.3203125 199.203125 C-85.20460937 198.47609375 -86.08890625 197.7490625 -87 197 C-92.64731413 191.12218326 -97.12757888 186.0862789 -97.1875 177.5625 C-97.125625 176.386875 -97.06375 175.21125 -97 174 C-95.96359375 174.08378906 -94.9271875 174.16757812 -93.859375 174.25390625 C-92.48960868 174.35710782 -91.11981553 174.45995374 -89.75 174.5625 C-89.06808594 174.61857422 -88.38617188 174.67464844 -87.68359375 174.73242188 C-84.2579419 174.98186254 -81.27298823 175.13879745 -78 174 C-77.62875 172.14375 -77.62875 172.14375 -77.25 170.25 C-77.11078125 169.55390625 -76.9715625 168.8578125 -76.828125 168.140625 C-76.82406031 165.83324114 -76.82406031 165.83324114 -78.625 163.796875 C-81.4553915 161.65546038 -83.24407341 161.36330846 -86.75 161 C-92.21947187 160.24053618 -96.33528241 158.92773844 -101 156 C-101.86625 155.46375 -102.7325 154.9275 -103.625 154.375 C-110.79089931 147.20910069 -113.37362736 139.28846413 -113.45532227 129.40673828 C-113.27491368 121.40593158 -110.53337895 114.87720672 -105.11328125 108.9296875 C-100.75406977 105 -100.75406977 105 -98 105 C-97.21514594 99.40791481 -97.02248889 94.15020801 -97.1875 88.5 C-97.225297 79.04130033 -94.59306701 72.67131819 -88.08984375 65.796875 C-80.62792445 59.38101916 -72.87327661 58.46899249 -63.3828125 58.7265625 C-60 59 -60 59 -57.2265625 59.609375 C-54.83226187 60.25704083 -54.83226187 60.25704083 -52.25 58.625 C-50.13601104 57.18908852 -50.13601104 57.18908852 -49 56 C-49.01592762 52.55107891 -49.01592762 52.55107891 -50 49 C-54.36948411 45.45717505 -58.72296577 44.87048236 -64.203125 44.90234375 C-65.1828125 44.90556641 -66.1625 44.90878906 -67.171875 44.91210938 C-68.18765625 44.92048828 -69.2034375 44.92886719 -70.25 44.9375 C-71.28125 44.94201172 -72.3125 44.94652344 -73.375 44.95117188 C-75.91672573 44.96293912 -78.45833319 44.97937989 -81 45 C-78.21536294 35.55143838 -74.08096751 28.94875474 -65.25 24 C-56.76882594 20.25371452 -48.64646351 20.20332817 -39.9609375 23.2109375 C-38 24 -38 24 -36 25 C-31.13207934 25.55870498 -31.13207934 25.55870498 -27 23.375 C-25.56314493 19.9624692 -25.65410925 18.47098142 -27 15 C-32.01158204 10.37791916 -38.53510116 8.62947245 -45 7 C-43.57231271 3.51009773 -41.9453649 1.93481823 -38.8125 -0.125 C-38.07644531 -0.62257813 -37.34039062 -1.12015625 -36.58203125 -1.6328125 C-24.98849713 -7.77159759 -11.088494 -6.44111049 0 0 Z M-12 26 C-12.71340271 27.47834401 -13.37702215 28.98133511 -14 30.5 C-16.47863693 36.48595716 -19.86139971 38.56026462 -25.6875 41.0625 C-26.45449219 41.36285156 -27.22148437 41.66320312 -28.01171875 41.97265625 C-30.32696612 42.9654941 -30.32696612 42.9654941 -32 46 C-31.87102878 49.6111941 -31.69654739 52.07127015 -29.5 55 C-24.68600156 56.92559938 -19.70138463 55.5902763 -14.9375 53.9375 C-14.298125 53.628125 -13.65875 53.31875 -13 53 C-12.7525 53.845625 -12.505 54.69125 -12.25 55.5625 C-10.78802206 59.58293933 -9.52467997 62.52003571 -7 66 C-3.61124962 67.49608434 -3.61124962 67.49608434 0 67 C3.1866503 65.2301177 3.1866503 65.2301177 5 62 C5.20147734 55.95567975 3.25918787 52.11928742 0.05859375 47.078125 C-1 45 -1 45 -1 41 C-0.34258353 39.35374222 0.37044277 37.72905876 1.125 36.125 C2.57903455 32.63634465 3.06227691 31.38058113 2.4375 27.5625 C0.68764051 24.34250315 0.68764051 24.34250315 -2 22 C-6.6270448 21.14764964 -8.84231705 22.68038459 -12 26 Z M-79 91 C-80.43304064 93.86608129 -80.30644155 95.81300783 -80 99 C-78.35322796 102.09587454 -78.35322796 102.09587454 -76 105 C-75.278125 105.99 -74.55625 106.98 -73.8125 108 C-70.56900569 111.83137766 -66.36717805 114.58046324 -62 117 C-61.34 117 -60.68 117 -60 117 C-64.25264904 123.76557803 -71.57569906 126.337119 -78.9375 128.5625 C-81.61628993 129.4159198 -82.95086205 129.95808822 -85.125 131.8125 C-86.38018752 134.95046881 -86.01869204 136.80809827 -85 140 C-83.2274735 142.21565813 -81.87006183 142.85617345 -79.0859375 143.31640625 C-67.50088306 143.95092337 -58.39340415 137.32111904 -50 130 C-49.02681073 128.71373986 -48.08284351 127.4041119 -47.1875 126.0625 C-45.11689534 123.38361682 -44.05899756 123.01297256 -40.66015625 122.265625 C-38.03592478 121.96151826 -35.40792431 121.68845367 -32.77734375 121.4453125 C-26.38394647 120.69159245 -21.15389443 118.90344159 -16.3125 114.625 C-14.61404655 111.2280931 -14.8331228 109.57842342 -16 106 C-17.46540358 103.97634744 -18.48262506 103.19976733 -20.80078125 102.3046875 C-23.70659109 101.90210639 -25.21373301 102.73628982 -27.875 103.9375 C-35.96336983 107.04092532 -44.86879204 107.66628106 -53 104.3125 C-58.5037414 101.39277028 -62.48798248 97.83053252 -66.0625 92.75 C-67.89705527 90.22270901 -68.68685776 89.1451147 -71.5625 87.8125 C-74.73505984 88.05654306 -76.4729965 89.10474738 -79 91 Z M-49.25 167.75 C-53.83188094 172.50882349 -59 179.1882657 -59 186 C-60.60875 186.0928125 -60.60875 186.0928125 -62.25 186.1875 C-66.05982408 186.69612302 -66.05982408 186.69612302 -68.5 189.1875 C-70.25576993 191.92850694 -70.25576993 191.92850694 -69.9375 195.125 C-68.93825356 198.18935574 -68.53663445 199.11324711 -66 201 C-62.62480064 201.83755351 -62.62480064 201.83755351 -58.8125 202.375 C-49.81628098 203.9690763 -43.93779746 206.99589725 -38.24609375 214.19921875 C-34.84394589 219.11580234 -33.90379325 223.35363057 -33.125 229.1875 C-32.52783374 233.09355472 -32.26185994 234.67267508 -29.75 237.8125 C-26.28394777 239.30920437 -24.56898301 239.16379881 -21 238 C-19.24305178 236.86894479 -19.24305178 236.86894479 -18 235 C-16.29349735 224.17677596 -19.29996489 214.79441402 -25.1875 205.8125 C-30.18450902 199.07833334 -36.16805554 193.21310542 -44 190 C-42.73276657 185.45908019 -41.00096864 182.60116237 -38 179 C-38 178.34 -38 177.68 -38 177 C-37.42507812 176.72027344 -36.85015625 176.44054687 -36.2578125 176.15234375 C-34.07140963 175.03644609 -31.98650786 173.81304248 -29.875 172.5625 C-26.50052476 170.64620032 -23.38077619 169.46090765 -19.625 168.5 C-16.33220306 167.58191487 -15.194638 167.20004461 -12.75 164.6875 C-11.73819058 161.06184958 -12.32996087 159.34007826 -14 156 C-23.72379975 146.27620025 -41.70678002 160.79141521 -49.25 167.75 Z " fill="#002774" transform="translate(233,125)"/>
<path d="M0 0 C2.88183966 2.14302408 5.4871003 4.4366983 8 7 C4.76745634 8.76391205 1.5267118 9.77652841 -2 10.8125 C-5.66874564 12.02645613 -7.83427006 12.86005027 -10.8125 15.375 C-12.33163841 18.73309542 -12.08466391 20.51358029 -11 24 C-9.09170375 26.33145587 -9.09170375 26.33145587 -5.8125 26.3125 C-1.62050981 25.96889425 1.20494153 24.75697152 5 23 C13.87065438 20.56057005 22.2130407 22.46572743 30.1875 26.6875 C37.10547078 32.37560931 40.4640188 37.46299953 43 46 C42.30438965 45.98428955 41.6087793 45.9685791 40.89208984 45.95239258 C37.71981029 45.88977137 34.54766115 45.85092323 31.375 45.8125 C30.28058594 45.78736328 29.18617188 45.76222656 28.05859375 45.73632812 C20.09057398 45.62036379 20.09057398 45.62036379 13 49 C10.43312633 52.8503105 11.16711276 54.58569763 12 59 C15.95936823 60.52975591 17.97434585 61.05567854 22 60 C32.29071653 59.02287668 40.31984607 59.93596665 49 66 C54.41288254 70.59274882 58.58537234 77.47498511 59.23974609 84.61645508 C59.20582448 88.26768428 58.99343593 91.89231582 58.75585938 95.53515625 C58.47497352 101.13269481 58.47497352 101.13269481 61.24609375 105.87109375 C62.15488281 106.57363281 63.06367188 107.27617187 64 108 C71.59687792 115.74992858 75.0496358 120.98327478 75.4375 131.9375 C75.19462584 141.41971202 72.17223134 147.17262003 65.9765625 154.17578125 C60.76442158 158.9861959 56.0376527 160.76434687 49.25 162.0625 C46.43898828 162.60344259 43.7669774 163.23236808 41 164 C38.83382585 167.24926122 38.78664331 167.5985242 39.375 171.1875 C39.684375 173.0746875 39.684375 173.0746875 40 175 C46.21456124 176.9886596 52.67959784 175.88707399 59 175 C59.65850965 182.11190418 58.07376999 187.10841503 54 193 C51.7350368 195.30726302 49.40457791 197.37510924 46.890625 199.40625 C44.89936464 200.87158413 44.89936464 200.87158413 44 203 C43.92484181 204.90400745 43.85396127 206.80835047 43.81201172 208.71337891 C43.53588821 218.89516146 41.74946196 226.1827943 34.6875 233.875 C30.16577895 238.05342335 25.15790448 240.34165626 19.3125 242.125 C15.03744536 244.54484225 14.31783451 247.00516404 12.359375 251.3671875 C7.76241085 260.27050312 -0.79756879 264.93252293 -10 268 C-22.70879155 268.82735996 -32.16224916 268.28393214 -42.3125 259.875 C-48.37138313 254.12096633 -52.68793919 246.79345863 -53.23828125 238.33984375 C-53.51344997 227.51942005 -52.81502847 219.29640326 -45.625 210.6875 C-44.43534796 209.44024375 -43.22824734 208.2092678 -42 207 C-41.113125 206.113125 -40.22625 205.22625 -39.3125 204.3125 C-35.56296569 201.28008974 -30.97805398 199.79983096 -26.51171875 198.11328125 C-23.86406778 197.25854138 -23.86406778 197.25854138 -23 195 C-22.63724048 190.88917391 -22.63724048 190.88917391 -24.0625 187.125 C-27.20608493 185.29969262 -29.40798476 185.59444989 -33 186 C-38.95837666 187.92451217 -44.0447193 191.17224713 -49.15234375 194.73046875 C-51 196 -51 196 -53 197 C-53.11589364 185.108419 -53.20471562 173.21697255 -53.25906086 161.32494164 C-53.2851451 155.80285049 -53.32052239 150.28114598 -53.37719727 144.75927734 C-53.43155789 139.42948232 -53.46142937 134.10005897 -53.47438622 128.77000809 C-53.48361875 126.73741429 -53.50164795 124.70484064 -53.52865028 122.67240524 C-53.56499416 119.8233127 -53.56994308 116.97575222 -53.56762695 114.12646484 C-53.58560333 113.28776855 -53.60357971 112.44907227 -53.62210083 111.58496094 C-53.58547037 107.41552883 -53.2640808 104.8064186 -50.58854675 101.51113892 C-46.79532963 97.83135406 -43.88604658 96.82111384 -38.75 95.875 C-37.85796875 95.70742187 -36.9659375 95.53984375 -36.046875 95.3671875 C-35.37140625 95.24601562 -34.6959375 95.12484375 -34 95 C-32.71368346 89.53177873 -32.71368346 89.53177873 -34.4375 84.5 C-39.29737782 81.65519347 -43.97388763 82.70512867 -49.14941406 84.02099609 C-51.0554541 84.50560303 -51.0554541 84.50560303 -53 85 C-53.09304872 76.9413159 -53.16394017 68.88285962 -53.20724869 60.82376957 C-53.22804413 57.0808051 -53.25621208 53.33821059 -53.30175781 49.59545898 C-53.34550624 45.97739001 -53.36919746 42.35967486 -53.37950897 38.74136162 C-53.38684881 37.36715571 -53.40118084 35.9929672 -53.42292023 34.61891365 C-53.54617135 26.49918248 -53.17815029 20.0823674 -49 13 C-48.54238281 12.20207031 -48.08476562 11.40414062 -47.61328125 10.58203125 C-43.82432674 5.42768773 -39.5857357 2.09141579 -34 -1 C-33.39671875 -1.34160156 -32.7934375 -1.68320313 -32.171875 -2.03515625 C-22.3886315 -6.60775919 -9.2553247 -5.11400903 0 0 Z M-38.375 24.5 C-40.63842588 27.98219366 -40.76338545 31.02463428 -40 35 C-39.02207185 37.15926536 -37.94605874 39.13760644 -36.6796875 41.140625 C-36 43 -36 43 -36.71484375 44.90234375 C-37.13894531 45.59457031 -37.56304687 46.28679687 -38 47 C-42.01972678 54.11652705 -42.01972678 54.11652705 -43.0625 62 C-42.19110268 64.99317313 -42.19110268 64.99317313 -40.375 67 C-36.88418213 68.46981805 -34.60851044 67.98413921 -31 67 C-27.32382826 63.84899565 -26.3581415 58.50787392 -25 54 C-23.80375 54.495 -22.6075 54.99 -21.375 55.5 C-17.740399 56.83332806 -14.89817473 57.69300884 -11 57 C-7.91666667 55.08333333 -7.91666667 55.08333333 -6 52 C-5.66339855 48.35592863 -5.66339855 48.35592863 -7 45 C-9.07201057 43.15412336 -9.07201057 43.15412336 -12 42 C-20.38456914 38.22361668 -23.34300108 34.58599746 -27 26 C-28.16884106 23.99515224 -28.16884106 23.99515224 -30 23 C-33.5572204 22.47020122 -35.31593299 22.56795768 -38.375 24.5 Z M29 92 C27.89583628 93.44262597 26.81472695 94.90302726 25.75 96.375 C21.51762739 102.06138246 16.02573288 105.68835671 9 107 C1.32195103 107.63463548 -4.85815069 107.29816652 -11.78125 103.77734375 C-14.58968662 102.79340205 -16.18196713 103.13970944 -19 104 C-21.5 105.5 -21.5 105.5 -23 108 C-23.07365533 112.12469869 -22.75013211 114.18167406 -19.9375 117.25 C-13.65770671 120.99115345 -8.72713045 122.0502779 -1.5 122.625 C3.86057249 123.26404362 6.64758181 123.80675962 10.0625 128.0625 C10.64902344 128.85914063 11.23554688 129.65578125 11.83984375 130.4765625 C14.57113296 133.66718245 17.59436081 135.70822555 21.125 137.9375 C21.711604 138.31463135 22.29820801 138.6917627 22.90258789 139.08032227 C29.20525072 142.9853586 35.5713516 145.32216311 43 144 C46.2539921 142.08088544 46.2539921 142.08088544 48 139 C48 135.84826531 47.73020801 133.97280204 45.82421875 131.43359375 C43.32089726 129.4663154 40.8872884 128.97692398 37.8125 128.1875 C31.92179618 126.48281588 27.39395504 124.31989962 23 120 C22.505 119.01 22.505 119.01 22 118 C22.825 117.814375 23.65 117.62875 24.5 117.4375 C32.37488567 114.20317196 38.23652445 107.55452235 42 100 C42.61102408 96.40174711 42.46095745 94.89765397 40.8125 91.6875 C36.64606592 87.8084062 33.17879368 88.61716702 29 92 Z M-22.6875 155.6875 C-25.28148367 158.28148367 -26 159.35351261 -26 163 C-24.53206209 166.25150752 -23.65765732 167.70381063 -20.36328125 169.1875 C-19.35652344 169.455625 -18.34976563 169.72375 -17.3125 170 C-12.51882866 171.42185167 -8.71855137 173.10302775 -4.62109375 175.94921875 C-2.86319056 177.18485397 -2.86319056 177.18485397 0 178 C0.9375 179.625 0.9375 179.625 2 182 C2.7010268 183.2125869 3.4099166 184.42064902 4.125 185.625 C6 189 6 189 6 191 C4.05859375 192.26171875 4.05859375 192.26171875 1.4375 193.6875 C-8.98009165 199.80600101 -14.79017562 208.324333 -19.4375 219.4375 C-20.29985752 224.89909765 -21.02133706 230.53620387 -20 236 C-17.78445783 238.48331557 -17.78445783 238.48331557 -15 240 C-11.91592652 239.93831853 -9.95430725 239.6642727 -7.40625 237.890625 C-5.30545429 235.06622188 -5.15840548 232.26578095 -4.625 228.8125 C-3.03021794 219.81229802 -0.00088991 213.93766937 7.203125 208.2421875 C12.19769535 204.7894193 16.86570529 203.83944259 22.75 202.75 C27.09682291 201.89180416 27.09682291 201.89180416 30.609375 199.4296875 C31.72407463 197.41035652 31.72407463 197.41035652 32 194 C30.54188148 190.3547037 29.28419493 189.18946329 26 187 C23.37468476 186.83286431 23.37468476 186.83286431 21 187 C20.8865625 186.27296875 20.773125 185.5459375 20.65625 184.796875 C18.26360414 174.59964621 9.62718849 165.98437305 1.25 160.1875 C-5.08962559 156.50642708 -15.9868825 151.48013552 -22.6875 155.6875 Z " fill="#002774" transform="translate(317,124)"/>
</svg>
