<?xml version="1.0" encoding="UTF-8"?>
<svg version="1.1" xmlns="http://www.w3.org/2000/svg" width="512" height="512">
<path d="M0 0 C1.62523842 -0.01029488 1.62523842 -0.01029488 3.28330994 -0.02079773 C6.86356728 -0.03909342 10.44338759 -0.03522412 14.02368164 -0.02954102 C16.51323082 -0.03410146 19.00277874 -0.03940662 21.49232483 -0.04542542 C27.37828154 -0.05550638 33.26408265 -0.04938967 39.15003258 -0.03817183 C43.8390621 -0.03099041 48.52781252 -0.04177705 53.21679688 -0.0625 C59.68707045 -0.09075363 66.15705254 -0.09945792 72.62738228 -0.0922718 C75.09254255 -0.0921184 77.55771133 -0.09817814 80.0228405 -0.11056328 C83.46999101 -0.12544179 86.91616139 -0.11481804 90.36328125 -0.09765625 C91.38113708 -0.10732422 92.39899292 -0.11699219 93.44769287 -0.12695312 C99.19165815 -0.06707768 102.81234039 0.37001331 107.24633789 4.40405273 C111.5359607 9.07610346 110.62408763 15.08168449 110.53930664 21.04858398 C110.5350618 22.17350754 110.53081696 23.29843109 110.52644348 24.45744324 C110.50967479 28.04405835 110.47202477 31.63010795 110.43383789 35.21655273 C110.41878876 37.6507894 110.40510076 40.08503489 110.39282227 42.51928711 C110.35977714 48.48106802 110.30959517 54.44251997 110.24633789 60.40405273 C124.58095652 60.46042282 138.91497008 60.47040122 153.24964905 60.42739868 C159.9062266 60.40877603 166.56191504 60.40488089 173.21850586 60.43481445 C179.64443764 60.46316612 186.0692432 60.45260876 192.49511719 60.41525269 C194.94465909 60.40781522 197.39428488 60.41431743 199.84375 60.43508911 C203.27998878 60.46183015 206.71258795 60.43867883 210.14868164 60.40405273 C211.15785141 60.4234642 212.16702118 60.44287567 213.20677185 60.46287537 C218.82305283 60.34750615 221.69540802 59.55149071 225.7277832 55.51879883 C226.90503963 54.15099572 228.07822156 52.77966979 229.24633789 51.40405273 C244.95082987 37.57797591 264.25657 28.92292306 284.24633789 23.40405273 C284.92744629 23.21198242 285.60855469 23.01991211 286.31030273 22.82202148 C305.52877947 17.69056579 331.14279208 18.01691609 350.24633789 23.40405273 C351.44395752 23.73469727 351.44395752 23.73469727 352.66577148 24.07202148 C375.83034282 30.66927744 394.76075017 41.90275306 412.24633789 58.40405273 C412.98368164 59.07694336 413.72102539 59.74983398 414.48071289 60.44311523 C437.15665826 81.91289329 451.12392878 114.08289492 452.55883789 145.13842773 C452.61083447 147.12255893 452.65260161 149.10698615 452.68383789 151.09155273 C452.70631592 152.02475342 452.72879395 152.9579541 452.75195312 153.91943359 C452.73130655 159.73912128 452.04606428 162.94043363 448.24633789 167.40405273 C443.71797568 171.38352255 438.00647754 171.11150624 432.24633789 171.40405273 C432.10534668 172.00354736 431.96435547 172.60304199 431.8190918 173.22070312 C431.17154571 175.96972452 430.52146085 178.71813966 429.87133789 181.46655273 C429.64961914 182.40950195 429.42790039 183.35245117 429.19946289 184.32397461 C427.99888085 189.39113706 426.72812931 194.41166201 425.24633789 199.40405273 C426.67526367 200.16588867 426.67526367 200.16588867 428.13305664 200.94311523 C429.40034165 201.63777516 430.66724883 202.33312468 431.93383789 203.02905273 C432.55967773 203.3603418 433.18551758 203.69163086 433.83032227 204.03295898 C439.19437202 207.00986618 443.24149235 210.38951611 445.24633789 216.40405273 C445.61478099 222.02280997 445.43824017 225.56116652 442.24633789 230.40405273 C437.34147577 234.83039172 434.06268969 235.95241924 427.53930664 235.97827148 C422.70544328 235.13535581 419.05313836 232.78963959 415.01879883 230.07421875 C413.13616394 228.79879575 413.13616394 228.79879575 410.24633789 227.40405273 C406.45730299 228.22535538 404.43739494 231.22462782 401.99633789 234.09155273 C398.04154965 238.61037379 393.87900869 242.59188222 389.24633789 246.40405273 C390.60209927 250.07645491 392.31741552 253.20507209 394.37133789 256.52905273 C397.50665 262.22333281 398.45438786 266.98500757 397.24633789 273.40405273 C395.24394139 277.40884574 393.06634912 280.06275553 389.24633789 282.40405273 C384.32727561 284.04374016 379.99330918 283.96308355 375.12133789 282.40405273 C368.51430701 277.80785734 364.90492089 270.39745032 361.24633789 263.40405273 C360.38975586 263.67668945 360.38975586 263.67668945 359.51586914 263.95483398 C341.04628771 269.68069786 341.04628771 269.68069786 332.24633789 269.40405273 C332.26728516 270.03907715 332.28823242 270.67410156 332.30981445 271.32836914 C332.3933837 274.2284335 332.44512563 277.12824389 332.49633789 280.02905273 C332.52985352 281.02807617 332.56336914 282.02709961 332.59790039 283.05639648 C332.67669011 289.00502024 332.484858 292.83394772 328.24633789 297.40405273 C323.02373932 301.46035672 317.59293647 301.17802817 311.24633789 300.40405273 C306.67168077 298.23710989 304.28784034 296.00329963 302.24633789 291.40405273 C301.88164506 287.62583502 301.96424078 283.8827139 302.05883789 280.09155273 C302.07237305 279.06481445 302.0859082 278.03807617 302.09985352 276.98022461 C302.13509906 274.45429364 302.1843709 271.92944613 302.24633789 269.40405273 C301.22527954 269.36562256 301.22527954 269.36562256 300.18359375 269.32641602 C292.5114552 268.98058186 285.77140606 266.87724077 278.55493164 264.46264648 C275.50782853 263.30247443 275.50782853 263.30247443 273.24633789 263.40405273 C272.73844727 264.35666992 272.23055664 265.30928711 271.70727539 266.29077148 C271.01261546 267.55805649 270.31726595 268.82496367 269.62133789 270.09155273 C269.29004883 270.71739258 268.95875977 271.34323242 268.61743164 271.98803711 C265.64052444 277.35208687 262.26087451 281.39920719 256.24633789 283.40405273 C250.62758065 283.77249583 247.0892241 283.59595501 242.24633789 280.40405273 C237.8199989 275.49919061 236.69797139 272.22040454 236.67211914 265.69702148 C237.51503481 260.86315813 239.86075103 257.21085321 242.57617188 253.17651367 C243.85159487 251.29387879 243.85159487 251.29387879 245.24633789 248.40405273 C244.43159581 245.03209099 242.32530101 243.40289581 239.68383789 241.27905273 C234.71072677 237.09068942 230.50435609 232.30274497 226.24633789 227.40405273 C222.57393572 228.75981411 219.44531853 230.47513037 216.12133789 232.52905273 C210.42705781 235.66436484 205.66538305 236.6121027 199.24633789 235.40405273 C194.09780108 232.82978433 191.06432989 229.85802872 189.24633789 224.40405273 C188.87998899 218.81723207 188.94756775 215.14603481 192.24633789 210.40405273 C197.27403048 205.78943348 203.2324113 202.55022729 209.24633789 199.40405273 C209.06458008 198.82139648 208.88282227 198.23874023 208.69555664 197.63842773 C207.22884756 192.85469965 205.83974393 188.05349793 204.55883789 183.21655273 C204.3074707 182.27424805 204.05610352 181.33194336 203.79711914 180.36108398 C203.24633789 177.40405273 203.24633789 177.40405273 203.24633789 170.40405273 C172.55633789 170.40405273 141.86633789 170.40405273 110.24633789 170.40405273 C110.16383789 182.05717773 110.08133789 193.71030273 109.99633789 205.71655273 C109.91077637 211.20469604 109.91077637 211.20469604 109.82348633 216.80371094 C109.82998799 220.12732587 109.82998799 220.12732587 109.85235596 223.45085144 C109.85466275 224.91383212 109.83368532 226.37697699 109.79327393 227.83940125 C109.46907809 237.49462285 109.46907809 237.49462285 113.8964386 245.76849365 C116.80874187 248.59912768 119.99536265 250.9777188 123.24633789 253.40405273 C139.71948748 269.9387746 150.33711355 294.99177036 150.37075806 318.25823975 C150.36716278 319.28395081 150.3635675 320.30966187 150.35986328 321.36645508 C150.36000931 322.45973114 150.36015533 323.5530072 150.36030579 324.67941284 C150.35961068 328.28295902 150.35183708 331.88645312 150.34399414 335.48999023 C150.34212853 337.99248222 150.3407053 340.49497456 150.33970642 342.99746704 C150.33628204 348.90465896 150.32840534 354.81183424 150.31835693 360.71901762 C150.30606277 368.1075156 150.30070764 375.4960159 150.29516602 382.88452148 C150.28444852 396.05770801 150.26757842 409.23087919 150.24633789 422.40405273 C150.86403868 422.40253385 151.48173947 422.40101497 152.11815846 422.39945006 C188.71853241 422.3099607 225.31889018 422.24131812 261.91935111 422.19979142 C266.31285209 422.19478852 270.70635286 422.18961124 275.09985352 422.18432617 C276.41186791 422.18275231 276.41186791 422.18275231 277.75038765 422.18114665 C291.91776143 422.16373581 306.08507036 422.13219439 320.25240566 422.09544155 C334.78665008 422.05805101 349.32086051 422.03582088 363.85515106 422.02769876 C372.82544836 422.02220706 381.79556237 422.00485473 390.76580326 421.97238687 C396.91491541 421.95126226 403.06393264 421.94484802 409.21307845 421.95004722 C412.76221453 421.95261223 416.31103007 421.94864783 419.86010933 421.92723083 C423.70732449 421.90418416 427.55412097 421.91209196 431.40139771 421.92303467 C432.52396851 421.9113833 433.64653931 421.89973194 434.80312741 421.8877275 C440.93308985 421.93500728 444.59956301 422.26816726 449.24633789 426.40405273 C452.41261104 430.35368628 452.62883092 433.49843527 452.65039062 438.48583984 C452.6606855 439.52586403 452.6606855 439.52586403 452.67118835 440.5868988 C452.68942235 442.86860901 452.68562393 445.14962936 452.67993164 447.43139648 C452.6844952 449.02413658 452.6898013 450.61687471 452.69581604 452.20960999 C452.70474051 455.54428111 452.70233182 458.87871266 452.69238281 462.21337891 C452.68089564 466.47837244 452.70110341 470.7425377 452.73029995 475.00742245 C452.74868171 478.29579385 452.74836558 481.58396749 452.74266243 484.8723774 C452.74250945 486.44439417 452.74853486 488.01642454 452.7609539 489.58839226 C452.77589994 491.7904075 452.76516265 493.99090213 452.74804688 496.19287109 C452.74779762 498.06887245 452.74779762 498.06887245 452.74754333 499.98277283 C452.02338989 504.92591872 450.06509978 507.99282402 446.12335771 511.05133301 C442.37037104 512.8159156 438.99480733 512.8195604 434.93287754 512.78436947 C434.0948493 512.78902939 433.25682105 512.79368931 432.39339802 512.79849043 C429.57253746 512.81048439 426.75215464 512.80102806 423.93128967 512.79173279 C421.89359618 512.79590377 419.85590501 512.80137999 417.81821817 512.8080526 C412.20867512 512.82255673 406.59927837 512.81824699 400.98972714 512.81088579 C394.94395816 512.80616869 388.8982215 512.818651 382.85246277 512.8289032 C371.68978069 512.84512904 360.52714414 512.84753058 349.36445651 512.84259821 C339.05218882 512.83804377 328.73993855 512.83863679 318.42767143 512.84443855 C317.04522834 512.84519541 315.66278524 512.84595139 314.28034214 512.8467065 C312.19721095 512.84785167 310.11407977 512.84900155 308.03094859 512.85016574 C288.65988053 512.86087325 269.28881829 512.8655934 249.91774845 512.85769558 C249.18729687 512.85739841 248.4568453 512.85710123 247.70425882 512.85679505 C241.77220234 512.85434603 235.84014594 512.85173449 229.90808954 512.84911092 C206.76666104 512.83900759 183.6253051 512.84736449 160.48388672 512.87060547 C134.49251345 512.89666634 108.50118386 512.90952917 82.50979704 512.90241772 C79.7394714 512.90170164 76.96914576 512.90102726 74.19882011 512.90037727 C73.51668082 512.90020746 72.83454152 512.90003766 72.13173133 512.8998627 C61.8260303 512.89755788 51.52036976 512.90554542 41.21467781 512.91866875 C29.49706131 512.93356329 17.77952357 512.93407026 6.06190331 512.91659784 C0.08044956 512.90805782 -5.90082251 512.90601137 -11.882267 512.92124939 C-17.35420152 512.93501715 -22.82579738 512.93043571 -28.29771192 512.91101015 C-30.28083139 512.90722543 -32.26397748 512.91024261 -34.2470734 512.9206218 C-36.93658134 512.93370101 -39.62490461 512.92228978 -42.31436062 512.90462399 C-43.08971595 512.9142745 -43.86507128 512.92392501 -44.66392222 512.93386796 C-49.83767854 512.86378053 -52.76124994 511.65890147 -56.75366211 508.40405273 C-60.04742189 504.37909594 -60.1829163 500.6038604 -60.14134216 495.59014893 C-60.14942047 494.41954426 -60.14942047 494.41954426 -60.15766197 493.22529101 C-60.17195592 490.61316782 -60.16483406 488.0015504 -60.15771484 485.3894043 C-60.16341817 483.5147918 -60.17038229 481.64018277 -60.17851257 479.76557922 C-60.19647671 474.67187115 -60.19526782 469.57833509 -60.18957019 464.48460484 C-60.18647878 460.22360584 -60.19257124 455.9626399 -60.19860893 451.70164561 C-60.21266724 441.6351349 -60.21108592 431.56870899 -60.19970703 421.50219727 C-60.18826283 411.14985447 -60.20223609 400.79777187 -60.22910351 390.44546342 C-60.25134734 381.53814577 -60.25787728 372.63090924 -60.25202709 363.72356582 C-60.24867236 358.41279746 -60.2509714 353.10219528 -60.26827812 347.7914505 C-60.28388064 342.78446718 -60.27964591 337.77786402 -60.26097298 332.770895 C-60.25732159 330.94616703 -60.26029306 329.12141009 -60.27085876 327.29670906 C-60.41848144 299.66237708 -51.41702238 274.41361636 -32.94116211 253.68530273 C-32.48163241 253.1692919 -32.02210272 252.65328106 -31.54864788 252.12163353 C-29.75366211 250.40405273 -29.75366211 250.40405273 -27.51054859 249.11414528 C-23.93740294 246.83082749 -21.29995457 244.59288739 -20.23684478 240.33331633 C-19.37282204 233.6587978 -19.60932971 226.91677438 -19.70361328 220.20239258 C-19.70283751 217.91540568 -19.69804548 215.62841715 -19.68954468 213.34144592 C-19.67985214 208.42415696 -19.69846749 203.5080818 -19.73915672 198.59095383 C-19.80327916 190.81733715 -19.8042183 183.04449063 -19.79670715 175.2706604 C-19.79281379 164.37418229 -19.81739398 153.4781498 -19.8671875 142.58178711 C-19.91825941 131.37639513 -19.96182552 120.17105638 -19.98828125 108.96557617 C-19.98992038 108.27510041 -19.99155951 107.58462465 -19.99324831 106.87322538 C-20.01068845 99.33290402 -20.02318854 91.79259303 -20.02779865 84.25225258 C-20.02840672 83.2578753 -20.02840672 83.2578753 -20.02902708 82.24340958 C-20.03089943 78.93823953 -20.03221258 75.63307007 -20.03301603 72.32789958 C-20.03675507 64.59869011 -20.06357037 56.86999869 -20.10909402 49.14092612 C-20.133991 44.33657893 -20.14287233 39.53229309 -20.14785385 34.72788811 C-20.15371195 32.49859228 -20.16651358 30.26930237 -20.18673515 28.04009056 C-20.21350208 24.99889385 -20.2157635 21.95861771 -20.21208191 18.91732788 C-20.2259814 18.03367093 -20.2398809 17.15001399 -20.25420159 16.23957956 C-20.21500678 10.79868408 -19.36047132 7.73148353 -15.75366211 3.40405273 C-11.18025108 -0.66720564 -5.7981702 -0.02559254 0 0 Z M10.24633789 30.40405273 C10.24633789 94.75405273 10.24633789 159.10405273 10.24633789 225.40405273 C17.62081546 223.9319562 17.62081546 223.9319562 24.96118164 222.30249023 C31.53799328 220.99662048 38.12435679 221.02231647 44.80883789 221.02905273 C45.79722153 221.02687744 45.79722153 221.02687744 46.80557251 221.0246582 C56.36494228 221.02698002 65.13431096 221.78267631 74.28930664 224.52905273 C77.21182579 225.54592437 77.21182579 225.54592437 80.24633789 225.40405273 C80.24633789 161.05405273 80.24633789 96.70405273 80.24633789 30.40405273 C57.14633789 30.40405273 34.04633789 30.40405273 10.24633789 30.40405273 Z M251.24633789 74.40405273 C250.38911133 75.11174805 249.53188477 75.81944336 248.64868164 76.54858398 C231.36009958 91.37882053 218.09583656 112.74603862 214.24633789 135.40405273 C214.24633789 137.05405273 214.24633789 138.70405273 214.24633789 140.40405273 C223.81633789 140.40405273 233.38633789 140.40405273 243.24633789 140.40405273 C244.09196289 137.84655273 244.93758789 135.28905273 245.80883789 132.65405273 C250.06913555 120.36988134 256.0480338 110.6493669 265.24633789 101.40405273 C266.24213867 100.35604492 266.24213867 100.35604492 267.25805664 99.28686523 C281.44013615 85.40193406 301.1525642 80.74470844 320.40258789 80.93530273 C340.9323272 81.55741605 358.15111476 89.73079207 372.24633789 104.40405273 C373.13192383 105.27803711 373.13192383 105.27803711 374.03540039 106.16967773 C383.04546272 115.70974373 387.53396295 128.10681074 391.24633789 140.40405273 C400.81633789 140.40405273 410.38633789 140.40405273 420.24633789 140.40405273 C418.07487384 118.68941227 408.39789891 100.74093727 394.24633789 84.40405273 C393.28147461 83.28643555 393.28147461 83.28643555 392.29711914 82.14624023 C373.23135783 61.71568473 346.31273397 51.80806282 318.8996582 50.45874023 C294.30020423 49.95172168 269.96137339 58.4698546 251.24633789 74.40405273 Z M110.24633789 90.40405273 C110.24633789 106.90405273 110.24633789 123.40405273 110.24633789 140.40405273 C123.01879661 140.4331173 123.01879661 140.4331173 135.79125977 140.45288086 C140.99724338 140.45886894 146.20320948 140.46596829 151.40917969 140.47949219 C155.60424047 140.49032233 159.79928248 140.49632984 163.99435616 140.49892998 C165.59840757 140.500784 167.20245792 140.50440418 168.80650139 140.50978279 C171.04550304 140.51699492 173.28442619 140.51804361 175.5234375 140.51757812 C176.80028915 140.51979874 178.07714081 140.52201935 179.39268494 140.52430725 C182.14522644 140.73073362 182.14522644 140.73073362 183.24633789 139.40405273 C183.52459734 137.71737235 183.79745413 136.02964283 184.04467773 134.33813477 C185.21920511 126.48512884 187.10035922 119.05804989 189.62133789 111.52905273 C189.90122559 110.68697266 190.18111328 109.84489258 190.46948242 108.97729492 C192.69134037 102.53176926 195.39600526 96.67478453 198.24633789 90.40405273 C169.20633789 90.40405273 140.16633789 90.40405273 110.24633789 90.40405273 Z M281.24633789 128.40405273 C279.26633789 132.36405273 277.28633789 136.32405273 275.24633789 140.40405273 C302.96633789 140.40405273 330.68633789 140.40405273 359.24633789 140.40405273 C351.60820508 125.12778711 345.24082031 118.67820727 330.24633789 112.40405273 C311.84056693 107.05010759 293.35548236 114.23863845 281.24633789 128.40405273 Z M234.24633789 170.40405273 C237.24734825 185.40910453 241.89121859 196.42073938 251.24633789 208.40405273 C251.93469727 209.28834961 252.62305664 210.17264648 253.33227539 211.08374023 C267.94094983 228.51639635 289.69418528 238.13654961 312.04711914 240.15014648 C336.08571808 241.85349674 357.39856835 232.37295296 375.43383789 217.21655273 C387.91100842 205.57119358 396.21818399 189.87209368 400.24633789 173.40405273 C400.24633789 172.41405273 400.24633789 171.42405273 400.24633789 170.40405273 C345.46633789 170.40405273 290.68633789 170.40405273 234.24633789 170.40405273 Z M-8.75366211 273.40405273 C-28.89770065 294.35385282 -29.92235133 320.28972488 -29.85131836 347.79467773 C-29.84984519 349.70857718 -29.84882679 351.62247703 -29.8482666 353.53637695 C-29.84305715 360.57560842 -29.82909596 367.61483122 -29.81616211 374.65405273 C-29.79553711 390.41155273 -29.77491211 406.16905273 -29.75366211 422.40405273 C19.74633789 422.40405273 69.24633789 422.40405273 120.24633789 422.40405273 C120.28758789 406.74967773 120.32883789 391.09530273 120.37133789 374.96655273 C120.3895459 370.05723877 120.40775391 365.1479248 120.42651367 360.08984375 C120.43321008 355.61809679 120.43321008 355.61809679 120.43722534 351.14634705 C120.4402596 349.18291818 120.44721516 347.21949259 120.45748901 345.25608826 C120.59816998 316.90830808 117.52284414 292.94972927 97.24633789 271.40405273 C67.03486432 242.30218253 20.84858385 245.20738105 -8.75366211 273.40405273 Z M-29.75366211 452.40405273 C-29.75366211 462.30405273 -29.75366211 472.20405273 -29.75366211 482.40405273 C119.40633789 482.40405273 268.56633789 482.40405273 422.24633789 482.40405273 C422.24633789 472.50405273 422.24633789 462.60405273 422.24633789 452.40405273 C273.08633789 452.40405273 123.92633789 452.40405273 -29.75366211 452.40405273 Z " fill="#000000" transform="translate(59.753662109375,-0.404052734375)"/>
<path d="M0 0 C9.47463573 6.94911196 16.95161439 16.64389635 19.421875 28.35546875 C20.71840454 42.36291128 19.58515159 54.65161646 11.046875 66.29296875 C3.79710687 74.80019131 -6.14121373 82.4819878 -17.66186523 83.54833984 C-32.20672027 84.0750382 -44.10662342 82.99872375 -55.65625 73.15625 C-63.78698313 65.53781916 -70.43729869 55.48683287 -70.8515625 44.046875 C-71.2686331 29.19654597 -69.07220246 17.55522171 -58.578125 6.35546875 C-43.56002846 -9.51550735 -18.09084176 -11.53976422 0 0 Z M-38.453125 30.48046875 C-40.14296751 34.79895517 -40.23773483 38.78217395 -39.578125 43.35546875 C-37.41513663 47.76155618 -35.18132021 50.55421845 -30.578125 52.35546875 C-25.53487116 53.03972932 -21.74735616 52.92945495 -17.140625 50.66796875 C-13.78156488 47.63662181 -11.88456869 45.61407227 -11.26171875 41.0234375 C-10.99598848 35.30595066 -11.60965348 31.75296422 -15.578125 27.35546875 C-19.41525696 23.96976408 -23.21213962 23.84255703 -28.140625 24.00390625 C-32.80338646 24.67641992 -35.43002792 27.05429206 -38.453125 30.48046875 Z " fill="#000000" transform="translate(130.578125,286.64453125)"/>
<path d="M0 0 C4.61581142 2.18643699 6.72864085 4.49599804 9 9 C9.82885269 14.54808604 9.7240695 19.47140883 7.3125 24.5625 C4.21064779 27.8320199 1.61649202 29.75850523 -2.90234375 30.43359375 C-9.05071801 30.44150672 -13.31314296 30.4465054 -18 26 C-21.88937897 20.55860924 -21.79042609 15.48149391 -21 9 C-16.63929544 -0.20593186 -9.3488659 -1.1401056 0 0 Z " fill="#000000" transform="translate(111,88)"/>
</svg>
