<?xml version="1.0" encoding="UTF-8"?>
<svg version="1.1" xmlns="http://www.w3.org/2000/svg" width="512" height="512">
<path d="M0 0 C1.53450793 -0.00417831 3.06901277 -0.00965854 4.60351193 -0.01631981 C8.79919869 -0.03072805 12.99468824 -0.02654422 17.19038558 -0.019153 C21.72356094 -0.01441214 26.2566942 -0.02693929 30.78985596 -0.03717041 C39.66259329 -0.05434584 48.53525976 -0.05520101 57.4080094 -0.04995751 C64.62163438 -0.04591219 71.83523847 -0.04736366 79.04886246 -0.05270576 C80.59028467 -0.0538284 80.59028467 -0.0538284 82.16284672 -0.05497371 C84.25060661 -0.05650523 86.3383665 -0.05804357 88.42612638 -0.05958868 C107.99442155 -0.07330921 127.56267671 -0.06787919 147.13097097 -0.05640347 C165.02161346 -0.04647183 182.91215252 -0.05941136 200.80277906 -0.08333766 C219.18620609 -0.10773721 237.56958495 -0.1173344 255.95302784 -0.11068493 C266.26860062 -0.10719459 276.58409387 -0.10941261 286.89965439 -0.12693596 C295.68112349 -0.14166863 304.46245705 -0.14227942 313.24392353 -0.12486505 C317.72140371 -0.11636144 322.19864185 -0.11418984 326.67610931 -0.1295166 C330.78073443 -0.14339277 334.88491084 -0.13856322 338.98951019 -0.11927737 C340.46855234 -0.11552599 341.94763068 -0.11841431 343.4266405 -0.12888902 C359.32709185 -0.23342725 370.82535548 3.86332431 382.50564575 14.70018005 C393.26287724 26.06631144 395.21061424 38.50996143 395.14332581 53.6320343 C395.14750411 55.16654223 395.15298435 56.70104707 395.15964562 58.23554623 C395.17405385 62.43123299 395.16987003 66.62672254 395.1624788 70.82241988 C395.15773795 75.35559524 395.1702651 79.8887285 395.18049622 84.42189026 C395.19767165 93.29462759 395.19852682 102.16729406 395.19328331 111.0400437 C395.189238 118.25366868 395.19068947 125.46727277 395.19603157 132.68089676 C395.19677999 133.70851157 395.19752841 134.73612637 395.19829952 135.79488102 C395.19983103 137.88264091 395.20136938 139.9704008 395.20291448 142.05816068 C395.21663502 161.62645585 395.211205 181.19471102 395.19972927 200.76300527 C395.18979764 218.65364776 395.20273717 236.54418683 395.22666346 254.43481337 C395.25106302 272.81824039 395.2606602 291.20161926 395.25401074 309.58506215 C395.25052039 319.90063493 395.25273841 330.21612817 395.27026176 340.53168869 C395.28499444 349.31315779 395.28560523 358.09449136 395.26819085 366.87595783 C395.25968724 371.35343801 395.25751565 375.83067616 395.27284241 380.30814362 C395.28671858 384.41276873 395.28188903 388.51694514 395.26260317 392.6215445 C395.2588518 394.10058664 395.26174011 395.57966499 395.27221482 397.0586748 C395.37675305 412.95912615 391.2800015 424.45738978 380.44314575 436.13768005 C371.13751212 444.9447976 359.98537604 448.88426291 347.31494141 448.7484436 C346.4202663 448.75100688 345.52559119 448.75357015 344.60380471 448.7562111 C341.6358372 448.76111316 338.66838982 448.74471563 335.70046997 448.72825623 C333.56109123 448.72740918 331.42171161 448.72788661 329.28233337 448.72958374 C323.49584293 448.73044208 317.70954025 448.71284227 311.92309332 448.69186187 C305.86794844 448.67306828 299.81279894 448.67134251 293.75762939 448.66778564 C282.30085563 448.65847307 270.84416807 448.63386989 259.38743222 448.60373718 C246.34030228 448.57016869 233.29316816 448.55370099 220.24600577 448.53865087 C193.41583804 448.50731969 166.58574673 448.45457446 139.75564575 448.38768005 C139.76861694 449.6408905 139.78158813 450.89410095 139.79495239 452.18528748 C139.91332299 463.6216516 134.21691978 474.21926896 126.79470825 482.6025238 C115.3303723 493.70460378 102.27142056 496.89056993 86.8298645 496.6650238 C76.63934632 496.28717947 68.76460551 492.47448947 60.75564575 486.38768005 C59.20877075 485.30486755 59.20877075 485.30486755 57.63064575 484.20018005 C49.18523511 476.77006468 44.57939865 464.4486512 39.697052 454.5712738 C39.32265991 453.81386902 38.94826782 453.05646423 38.56253052 452.27610779 C37.75564575 450.38768005 37.75564575 450.38768005 37.75564575 448.38768005 C37.11830505 448.3965625 36.48096436 448.40544495 35.8243103 448.41459656 C29.13989305 448.50367453 22.45564672 448.56366323 15.77078247 448.60740662 C13.28210593 448.62741672 10.79347577 448.65463348 8.30496216 448.68943787 C4.71028131 448.7384235 1.11622663 448.76075589 -2.47872925 448.77830505 C-4.12479156 448.80927277 -4.12479156 448.80927277 -5.80410767 448.84086609 C-19.96574123 448.84490174 -30.726695 443.60141096 -40.99435425 434.07518005 C-48.26756288 426.39028036 -53.37525844 416.47815226 -53.43185425 405.76268005 C-53.36997925 404.64893005 -53.30810425 403.53518005 -53.24435425 402.38768005 C-54.06935425 402.55268005 -54.89435425 402.71768005 -55.74435425 402.88768005 C-68.42748384 404.69955571 -81.50314788 401.88148563 -91.86935425 394.20018005 C-100.04464142 387.3053019 -105.53363014 379.89533615 -110.11935425 370.26268005 C-110.59115112 369.31264099 -111.062948 368.36260193 -111.54904175 367.3837738 C-117.75290017 354.67643879 -119.4245202 341.44686436 -116.4045105 327.51268005 C-111.51878199 313.82606011 -102.11763525 305.03265905 -91.22872925 296.03269958 C-87.9957434 293.35259887 -84.80925084 290.61876759 -81.61935425 287.88768005 C-80.7683313 287.16753723 -80.7683313 287.16753723 -79.90011597 286.43284607 C-72.45961868 280.17372638 -72.45961868 280.17372638 -67.93185425 271.70018005 C-65.08181173 264.38054705 -60.85916236 257.79755213 -54.24435425 253.38768005 C-53.94662865 250.54236926 -53.84631112 247.91375726 -53.87254333 245.06568909 C-53.86871877 244.19448327 -53.86489421 243.32327745 -53.86095375 242.42567146 C-53.85162311 239.48853123 -53.86368906 236.55185682 -53.87545776 233.61473083 C-53.8729913 231.51570438 -53.86915446 229.41667915 -53.86404419 227.31765747 C-53.85568597 222.78702329 -53.85653119 218.25651471 -53.8642292 213.72587967 C-53.87578843 206.55611077 -53.86366749 199.38650416 -53.84761047 192.2167511 C-53.81136731 174.3981475 -53.80518127 156.57954712 -53.80770874 138.76091003 C-53.80942141 124.93304593 -53.80223862 111.10531393 -53.76773018 97.27748668 C-53.75096407 90.15720547 -53.7527085 83.03724646 -53.7685529 75.91696668 C-53.77436903 71.47281696 -53.76357424 67.02881835 -53.74830627 62.58469582 C-53.74459405 60.53211221 -53.74764731 58.47950278 -53.7581768 56.42694283 C-53.84267209 38.77065158 -51.32513071 25.99552757 -38.93185425 12.63768005 C-27.56572286 1.88044856 -15.12207287 -0.06728843 0 0 Z M-17.18185425 38.13768005 C-22.67402367 46.79200762 -21.24435425 53.8285561 -21.24435425 64.38768005 C105.47564575 64.38768005 232.19564575 64.38768005 362.75564575 64.38768005 C363.68589126 50.27130753 363.68589126 50.27130753 358.46658325 37.80955505 C351.24361962 31.08872259 341.78631291 32.09996127 332.61114502 32.12698364 C331.15958614 32.12396129 329.70802885 32.12007139 328.25647438 32.11539108 C324.27628383 32.10511308 320.29618337 32.10729239 316.31598544 32.11157167 C312.02004447 32.11403925 307.72412517 32.10502432 303.42819214 32.09753418 C295.01527305 32.08478603 286.60238587 32.08299364 278.18945874 32.08533444 C271.35093066 32.08711764 264.51241227 32.08536792 257.67388535 32.08111 C256.70050512 32.08051481 255.7271249 32.07991962 254.72424831 32.0793064 C252.74680663 32.07809464 250.76936495 32.07688051 248.79192327 32.07566402 C230.24810635 32.06478802 211.70430761 32.06695125 193.16048966 32.07304887 C176.19882642 32.078218 159.23722062 32.06696277 142.27556874 32.04795065 C124.85615708 32.02857522 107.43677259 32.02031574 90.01735008 32.0240739 C80.23895559 32.0259864 70.46060998 32.0234936 60.68222427 32.00935936 C52.3577233 31.99744836 44.03330131 31.99603753 35.70879926 32.00814953 C31.46262557 32.01404019 27.21659636 32.01513248 22.97043228 32.00314713 C19.08055912 31.99229516 15.19095118 31.99538342 11.30109046 32.00940881 C9.89670754 32.01205764 8.49230388 32.00968333 7.0879413 32.00167295 C-6.17014616 31.70443561 -6.17014616 31.70443561 -17.18185425 38.13768005 Z M-21.24435425 97.38768005 C-21.24435425 142.92768005 -21.24435425 188.46768005 -21.24435425 235.38768005 C-17.53501034 234.15123208 -14.46370058 233.12245871 -11.06588745 231.41990662 C-10.30101517 231.03900879 -9.53614288 230.65811096 -8.74809265 230.26567078 C-7.93861679 229.85734009 -7.12914093 229.4490094 -6.2951355 229.02830505 C-5.01523994 228.38801361 -5.01523994 228.38801361 -3.70948792 227.73478699 C-1.90741488 226.83224404 -0.1063111 225.92776353 1.69387817 225.02146912 C4.41468351 223.65200596 7.13858019 222.28886298 9.86306763 220.92674255 C14.83813696 218.43490138 19.80232035 215.92246802 24.75564575 213.38768005 C25.38223083 213.06722717 26.00881592 212.74677429 26.65438843 212.41661072 C28.2102898 211.61493844 29.75876626 210.79889795 31.306427 209.98143005 C32.10347046 209.56055115 32.90051392 209.13967224 33.72171021 208.70603943 C41.47891082 203.67796557 45.88231857 193.39463132 50.54470825 185.65330505 C54.77213399 178.67071794 59.20161057 171.8181106 63.61599731 164.9528656 C67.00332523 159.68462842 70.37948769 154.41057611 73.71658325 149.1103363 C74.34459839 148.11485779 74.97261353 147.11937927 75.61965942 146.09373474 C76.80032057 144.22023148 77.97777956 142.34470484 79.15139771 140.46678162 C87.63557945 127.0284735 87.63557945 127.0284735 92.75564575 125.38768005 C97.89198082 124.72042202 102.37259434 124.77299054 107.13064575 126.88768005 C112.57554861 132.07330183 115.77727429 139.13151688 119.11534119 145.7925415 C119.7281569 147.00396782 119.7281569 147.00396782 120.35335273 148.23986739 C121.70971374 150.92373457 123.06048223 153.61037431 124.41116333 156.29710388 C125.38698491 158.23128806 126.36308684 160.16533081 127.33944702 162.09924316 C130.53249009 168.42798566 133.71691482 174.76104483 136.900177 181.0947113 C137.44275831 182.17392782 137.98533962 183.25314434 138.54436278 184.36506438 C143.66413713 194.54872974 148.78102098 204.73384151 153.89029408 214.92278004 C160.41541888 227.93484819 166.9552755 240.93926878 173.51562959 253.93361264 C178.13407367 263.08455115 182.73561898 272.24386332 187.32473487 281.40954417 C190.06362968 286.87873118 192.80977305 292.34398342 195.5740757 297.8003788 C198.17314211 302.93152811 200.75108679 308.07274584 203.31336975 313.2223568 C204.25545728 315.10669854 205.20504637 316.98731195 206.16277122 318.86375427 C215.74873626 337.66605885 215.74873626 337.66605885 213.75564575 346.38768005 C212.25564575 349.45018005 212.25564575 349.45018005 210.75564575 351.38768005 C210.75564575 352.04768005 210.75564575 352.70768005 210.75564575 353.38768005 C198.98203284 358.16076637 186.98241681 356.19919076 174.57590675 355.12367821 C170.04936288 354.73518938 165.52046266 354.37570796 160.99197388 354.01072693 C155.26311787 353.5471242 149.53530838 353.0750848 143.80960083 352.57395935 C139.14858132 352.1667817 134.48600964 351.78748467 129.82120323 351.42638588 C128.0554472 351.28459324 126.29046994 351.1327025 124.52649879 350.97020531 C112.23433685 349.63068709 112.23433685 349.63068709 101.07771301 354.26495361 C100.64143082 354.63545334 100.20514862 355.00595306 99.75564575 355.38768005 C101.03225253 359.45217366 102.53856992 363.20220268 104.44534302 367.00999451 C104.98252457 368.08743423 105.51970612 369.16487396 106.07316589 370.27496338 C106.65029831 371.42204269 107.22743073 372.56912201 107.822052 373.7509613 C108.42243677 374.9505374 109.0225247 376.15026209 109.62232971 377.35012817 C110.8748244 379.85355952 112.12998097 382.35563105 113.38723755 384.85667419 C115.00099882 388.06712692 116.60941634 391.28022011 118.21605015 394.49424458 C119.45232011 396.9665132 120.69066819 399.43773585 121.92973137 401.90860558 C122.81298502 403.67037597 123.6950349 405.43274969 124.57707214 407.19512939 C125.11110153 408.25680832 125.64513092 409.31848724 126.19534302 410.41233826 C126.6667421 411.35132462 127.13814117 412.29031097 127.62382507 413.25775146 C128.58199552 415.31156669 128.58199552 415.31156669 129.75564575 416.38768005 C132.52959074 416.49223589 135.27886266 416.53100022 138.05349731 416.52812195 C138.93413251 416.53109307 139.8147677 416.53406419 140.72208881 416.53712535 C143.69682554 416.54585267 146.67152221 416.54732401 149.64627075 416.54881287 C151.76972033 416.55343837 153.89316906 416.55846267 156.01661682 416.56385803 C161.80416709 416.57701411 167.59170575 416.5834338 173.37926865 416.58786869 C176.99403796 416.59079565 180.60880407 416.59489985 184.22357178 416.59937286 C195.52968106 416.61305932 206.83578306 416.62271904 218.14190006 416.62657475 C231.19858279 416.63105154 244.25516062 416.64857703 257.31181145 416.67757535 C267.39766594 416.69919837 277.48349094 416.70927945 287.56936836 416.71061587 C293.59532827 416.71166391 299.62118972 416.71757098 305.64712524 416.73543549 C311.32042138 416.75192566 316.99354519 416.75406696 322.66685677 416.74529648 C324.74650598 416.74452648 326.82616449 416.74886385 328.90579033 416.75875473 C331.75137267 416.7714917 334.59634642 416.76558767 337.44192505 416.75517273 C338.66808218 416.76725734 338.66808218 416.76725734 339.91901016 416.77958608 C345.93045557 416.72835158 352.50391318 415.98495579 357.35183239 412.11274838 C363.6260579 405.21286084 363.04007179 396.77475011 362.99615479 388.04284668 C362.99786682 386.80254196 362.99957886 385.56223724 363.00134277 384.28434753 C363.00407229 380.84682817 362.99781819 377.40953749 362.98779121 373.97204573 C362.97904478 370.206299 362.9819813 366.44055785 362.98342705 362.67480373 C362.9844895 355.36804302 362.97526328 348.06133154 362.96242439 340.75458347 C362.9480158 332.30118212 362.94643442 323.84781027 362.94485474 315.39439392 C362.93435708 293.07964817 362.90643482 270.76491337 362.88064575 248.45018005 C362.83939575 198.59955505 362.79814575 148.74893005 362.75564575 97.38768005 C236.03564575 97.38768005 109.31564575 97.38768005 -21.24435425 97.38768005 Z M95.75564575 175.38768005 C94.43334498 176.9810693 94.43334498 176.9810693 93.13845825 179.0947113 C92.35994507 180.30308655 92.35994507 180.30308655 91.56570435 181.53587341 C90.73160034 182.8547052 90.73160034 182.8547052 89.88064575 184.20018005 C89.02140503 185.54124817 89.02140503 185.54124817 88.14480591 186.90940857 C86.34057707 189.73058889 84.54715931 192.55841135 82.75564575 195.38768005 C81.61504993 197.18196943 80.47442581 198.97624083 79.33377075 200.77049255 C75.60706831 206.63978974 75.60706831 206.63978974 71.92263794 212.53562927 C70.94407453 214.08863806 69.90709852 215.60462948 68.85720825 217.1103363 C67.39128139 220.14095815 67.86932014 221.12691179 68.75564575 224.38768005 C69.87421882 227.47144574 71.12499543 230.49459334 72.39016724 233.52073669 C72.76841644 234.43187729 73.14666565 235.34301788 73.53637695 236.2817688 C77.07050591 244.7150895 80.81443524 253.05060391 84.63128567 261.35932255 C87.18530587 266.93260181 89.65656525 272.51668241 91.95803833 278.19944763 C100.87140849 302.44954703 100.87140849 302.44954703 118.62671661 319.75605011 C132.89275887 324.50782043 148.63468937 323.86106557 163.43492222 322.55167294 C165.88251611 322.37871482 168.30277533 322.36141035 170.75564575 322.38768005 C163.4332143 306.65221595 155.69368019 291.12968783 147.9196384 275.6142714 C146.14850392 272.07835009 144.37970897 268.54125875 142.61064148 265.00430298 C139.27637094 258.33884215 135.94006674 251.67440152 132.6029883 245.01034611 C128.79712756 237.40988978 124.99359986 229.80826675 121.19024551 222.20655596 C113.38126556 206.59898541 105.56942911 190.99284636 97.75564575 175.38768005 C97.09564575 175.38768005 96.43564575 175.38768005 95.75564575 175.38768005 Z M32.08450317 245.50535583 C31.07417778 246.00296165 31.07417778 246.00296165 30.04344177 246.51062012 C27.81276901 247.61168435 25.58675014 248.72178533 23.3611145 249.83299255 C21.81044731 250.60350582 20.2596902 251.37383815 18.70884705 252.14399719 C15.45430477 253.76227806 12.20228911 255.38551645 8.95169067 257.01170349 C4.79843941 259.08848112 0.63720262 261.14866822 -3.52640247 263.20459175 C-6.73483879 264.79207454 -9.93771525 266.3905294 -13.13916588 267.99204636 C-14.67014324 268.7557714 -16.2030563 269.51562939 -17.73795509 270.27144241 C-19.89289452 271.3341079 -22.0396006 272.41192352 -24.18502808 273.49363708 C-24.81329498 273.79934128 -25.44156189 274.10504547 -26.08886719 274.42001343 C-31.38477341 277.1241653 -36.30740462 280.57683118 -38.24435425 286.38768005 C-39.7029501 295.47604161 -35.97095145 302.37489015 -31.927948 310.27830505 C-31.27082466 311.59421265 -30.61500981 312.91077439 -29.96043396 314.22795105 C-28.59010429 316.9742997 -27.20611648 319.71316177 -25.81149292 322.44725037 C-24.03399968 325.93404786 -22.28908885 329.43596334 -20.5538168 332.94392776 C-19.20588944 335.66102324 -17.84234632 338.3700427 -16.47395515 341.07688141 C-15.82489321 342.3647163 -15.18025438 343.65479119 -14.54034233 344.94719696 C-10.67927956 352.71661949 -7.28967802 359.36501817 0.75564575 363.38768005 C8.49530207 364.07849157 13.34579788 362.22590887 20.165802 358.7118988 C21.15443741 358.22066025 22.14307281 357.72942169 23.16166687 357.22329712 C25.27656539 356.16994144 27.38749799 355.10859151 29.49472046 354.03996277 C32.75642275 352.38728635 36.02902995 350.75850695 39.30593872 349.13621521 C45.94558299 345.84517068 52.57012502 342.52451916 59.19314575 339.20018005 C61.49708664 338.04569244 63.80112269 336.8913947 66.10525513 335.73728943 C71.65647825 332.95626235 77.20654502 330.17293941 82.75564575 327.38768005 C82.13123926 322.6336473 80.11256693 318.69856888 77.97024536 314.4763031 C77.57995651 313.69528732 77.18966766 312.91427155 76.78755188 312.10958862 C75.50003456 309.53663888 74.20407631 306.96804096 72.9079895 304.3993988 C72.01208543 302.61318764 71.11671194 300.82671027 70.22184753 299.03997803 C67.8680269 294.34377736 65.50702044 289.65122546 63.14450073 284.95939636 C60.73384036 280.16879307 58.32999153 275.37477497 55.92556763 270.58103943 C51.20892163 261.17989781 46.48467742 251.78259672 41.75564575 242.38768005 C37.9663439 242.38768005 35.3935455 243.84728859 32.08450317 245.50535583 Z M-69.9670105 321.5634613 C-70.67019409 322.22668396 -71.37337769 322.88990662 -72.09786987 323.57322693 C-72.82683472 324.27512146 -73.55579956 324.97701599 -74.30685425 325.70018005 C-75.03968628 326.39047302 -75.77251831 327.08076599 -76.52755737 327.79197693 C-82.64148512 333.34299768 -82.64148512 333.34299768 -84.93185425 341.01268005 C-84.85325886 346.88375566 -82.7454287 351.23921642 -80.05685425 356.32518005 C-79.6703772 357.05881775 -79.28390015 357.79245544 -78.88571167 358.54832458 C-76.05596284 363.60582249 -73.05303523 366.74928281 -67.99435425 369.70018005 C-59.21935852 371.89392898 -48.77425187 367.63789845 -40.24435425 365.38768005 C-47.608773 349.56781755 -55.39764289 333.97209738 -63.24435425 318.38768005 C-66.92425811 318.38768005 -67.36817821 319.09641366 -69.9670105 321.5634613 Z M68.75564575 370.38768005 C65.9966131 371.48697125 65.9966131 371.48697125 62.87283325 373.1337738 C61.70623169 373.7235199 60.53963013 374.31326599 59.337677 374.92088318 C58.10191235 375.55547831 56.8662364 376.1902462 55.63064575 376.82518005 C54.38752593 377.45676773 53.14404061 378.08763659 51.900177 378.71775818 C48.84832048 380.26734424 45.80042893 381.82425365 42.75564575 383.38768005 C43.39031788 387.74607754 44.95820633 391.18470174 46.91091919 395.1181488 C47.39652313 396.102061 47.39652313 396.102061 47.89193726 397.10585022 C48.96007129 399.26544702 50.03705385 401.42047638 51.11502075 403.57518005 C51.86413641 405.08051579 52.61301386 406.58597008 53.36166382 408.09153748 C54.93122649 411.24409854 56.50551062 414.39424876 58.08279419 417.54295349 C60.09882458 421.56912181 62.10017112 425.60239066 64.09765244 429.63778687 C65.64009478 432.74857938 67.19173965 435.85471276 68.74600983 438.95960999 C69.48751928 440.44431746 70.22585851 441.9306128 70.96089935 443.41853333 C71.99201585 445.50301233 73.03575308 447.58069561 74.08279419 449.6572113 C74.38117188 450.26722992 74.67954956 450.87724854 74.98696899 451.50575256 C77.6203386 456.67123631 81.14476594 461.37040892 86.75564575 463.38768005 C91.80894551 464.19180648 96.34197656 464.14185796 100.69314575 461.26268005 C104.87580325 457.74096136 106.56235103 454.29960271 107.11477661 448.83543396 C107.02276494 443.27653409 104.55749268 438.90005965 102.072052 434.03611755 C101.58040054 433.04276398 101.08874908 432.0494104 100.5821991 431.0259552 C99.5286486 428.90113134 98.46819304 426.7797196 97.40145874 424.66148376 C95.76159747 421.39951904 94.1455782 418.12679502 92.53640747 414.84959412 C89.82774488 409.33874207 87.09674934 403.8394189 84.35452271 398.34519958 C82.65769674 394.94157366 80.96944391 391.53376966 79.28103638 388.1259613 C78.19887444 385.95512891 77.11621229 383.78454579 76.0329895 381.61424255 C75.53097519 380.59786713 75.02896088 379.5814917 74.51173401 378.53431702 C74.04687088 377.60759186 73.58200775 376.6808667 73.10305786 375.72605896 C72.69655502 374.90940765 72.29005219 374.09275635 71.87123108 373.25135803 C70.88802629 371.22980852 70.88802629 371.22980852 68.75564575 370.38768005 Z M-21.24435425 395.38768005 C-20.99304245 401.74586867 -20.61583443 406.4254593 -16.24435425 411.38768005 C-10.59410571 415.83574805 -6.10818678 416.5200142 0.931427 416.4853363 C2.66682739 416.48050232 2.66682739 416.48050232 4.43728638 416.47557068 C5.63546997 416.46719177 6.83365356 416.45881287 8.06814575 416.45018005 C9.28566528 416.44566833 10.50318481 416.44115662 11.75759888 416.43650818 C14.75699801 416.42474583 17.75629664 416.40830831 20.75564575 416.38768005 C19.27994849 413.24020765 17.79951021 410.09498867 16.31814575 406.95018005 C15.89726685 406.05234802 15.47638794 405.15451599 15.04275513 404.22947693 C14.6399231 403.37547302 14.23709106 402.52146912 13.822052 401.6415863 C13.45023804 400.85082703 13.07842407 400.06006775 12.69534302 399.24534607 C11.89459787 397.42270012 11.89459787 397.42270012 10.75564575 396.38768005 C7.06808172 396.09800856 3.3801274 395.93852227 -0.31466675 395.7665863 C-4.1852595 395.39337806 -7.53934002 394.53294923 -11.24435425 393.38768005 C-15.12172017 393.01840711 -17.7144346 393.7740025 -21.24435425 395.38768005 Z " fill="#000000" transform="translate(117.24435424804688,15.612319946289063)"/>
<path d="M0 0 C4.1796989 2.8497947 7.11864324 5.98092971 8.75 10.875 C8.953125 12.92578125 8.953125 12.92578125 9 15.1875 C9.02578125 15.92613281 9.0515625 16.66476563 9.078125 17.42578125 C8.17191678 24.18997832 3.23863782 29.34403686 -0.875 34.5 C-2.14145898 36.10611357 -3.40708365 37.71288537 -4.671875 39.3203125 C-5.28611328 40.09922852 -5.90035156 40.87814453 -6.53320312 41.68066406 C-8.77566339 44.54688034 -10.95484653 47.45363956 -13.125 50.375 C-15.90109157 54.09196431 -18.69968534 57.78675469 -21.5625 61.4375 C-22.48482422 62.61505859 -22.48482422 62.61505859 -23.42578125 63.81640625 C-26.55547844 67.34820586 -29.47867218 69.60050658 -34.30078125 70.078125 C-39.39891633 70.18378583 -42.90683383 69.83624966 -47.25 66.875 C-51.16971827 62.98714936 -53.35423957 59.37693938 -53.6875 53.8125 C-53.4276286 42.96720007 -43.40796629 33.74221471 -37 25.64453125 C-34.50086617 22.48359457 -32.04430479 19.29666421 -29.625 16.07421875 C-29.04693604 15.30601807 -28.46887207 14.53781738 -27.87329102 13.74633789 C-26.77795262 12.2867856 -25.68703272 10.82390314 -24.60131836 9.35717773 C-18.04359195 0.65555887 -10.92461428 -3.78159725 0 0 Z " fill="#000000" transform="translate(318.25,124.125)"/>
<path d="M0 0 C4.46207218 2.57808615 7.16942068 5.02296667 8.671875 10.09375 C9.28256427 15.27301344 9.32841319 19.58085766 7.234375 24.40625 C1.5097645 30.41010979 -6.03895765 34.17195071 -13.4140625 37.80078125 C-14.23766266 38.21164474 -15.06126282 38.62250824 -15.90982056 39.04582214 C-17.63101832 39.9030904 -19.35364042 40.75750456 -21.07763672 41.60913086 C-23.72031114 42.91474079 -26.35851012 44.22906234 -28.99609375 45.54492188 C-30.67683317 46.38071159 -32.35781413 47.21601579 -34.0390625 48.05078125 C-34.82654877 48.44239944 -35.61403503 48.83401764 -36.42538452 49.23750305 C-37.15689728 49.59845566 -37.88841003 49.95940826 -38.64208984 50.33129883 C-39.28334808 50.64851395 -39.92460632 50.96572906 -40.58529663 51.29255676 C-45.45507534 53.53123605 -50.06116123 53.77939025 -55.328125 53.09375 C-59.64929597 51.41168345 -62.52787281 49.144081 -65.328125 45.46875 C-67.12148212 39.41616972 -67.42858944 33.62960284 -64.890625 27.78125 C-59.1660145 21.77739021 -51.61729235 18.01554929 -44.2421875 14.38671875 C-43.00678726 13.77042351 -43.00678726 13.77042351 -41.74642944 13.14167786 C-40.02523168 12.2844096 -38.30260958 11.42999544 -36.57861328 10.57836914 C-33.93593886 9.27275921 -31.29773988 7.95843766 -28.66015625 6.64257812 C-26.97941683 5.80678841 -25.29843587 4.97148421 -23.6171875 4.13671875 C-22.82970123 3.74510056 -22.04221497 3.35348236 -21.23086548 2.94999695 C-20.49935272 2.58904434 -19.76783997 2.22809174 -19.01416016 1.85620117 C-18.37290192 1.53898605 -17.73164368 1.22177094 -17.07095337 0.89494324 C-11.6720981 -1.58695711 -5.60179302 -2.18056373 0 0 Z " fill="#000000" transform="translate(373.328125,190.90625)"/>
<path d="M0 0 C1.03228729 -0.00807175 2.06457458 -0.01614349 3.12814331 -0.02445984 C5.29455943 -0.03819545 7.46099623 -0.04896387 9.62744141 -0.05688477 C11.83258451 -0.06845989 14.03769843 -0.08899767 16.24267578 -0.1184082 C19.45364119 -0.16112879 22.6637856 -0.17725241 25.875 -0.1875 C27.34092087 -0.21376213 27.34092087 -0.21376213 28.8364563 -0.24055481 C34.99017471 -0.2211573 39.68852069 0.67698016 44.8046875 4.23828125 C48.59832942 8.32374178 49.62509659 12.27403442 49.96875 17.70703125 C49.61194332 23.21204864 47.16176634 26.94740138 43.2421875 30.67578125 C39.460267 33.10008926 36.55753784 33.37571596 32.15917969 33.43115234 C30.42157379 33.45524673 30.42157379 33.45524673 28.64886475 33.47982788 C23.35102882 33.52432068 18.05334037 33.5657793 12.75537109 33.58837891 C9.96174256 33.6017024 7.16884724 33.62952735 4.37548828 33.67041016 C0.34655528 33.72936626 -3.68159542 33.74705758 -7.7109375 33.76171875 C-8.95595032 33.78438812 -10.20096313 33.8070575 -11.48370361 33.83041382 C-18.76614657 33.81268965 -22.83625876 33.32137669 -28.1953125 28.23828125 C-31.76305565 23.28947624 -32.02745127 18.1380516 -31.1953125 12.23828125 C-29.86586231 8.27997475 -27.67012343 5.66787209 -24.5703125 2.86328125 C-17.17550832 -0.69718002 -8.07621412 0.0612993 0 0 Z " fill="#000000" transform="translate(353.1953125,273.76171875)"/>
</svg>
