<?xml version="1.0" encoding="UTF-8"?>
<svg version="1.1" xmlns="http://www.w3.org/2000/svg" width="512" height="512">
<path d="M0 0 C1.2608189 -0.00128164 1.2608189 -0.00128164 2.54710889 -0.00258917 C5.36771087 -0.00423819 8.18825358 0.00126799 11.0088501 0.00672913 C13.02911884 0.00701115 15.04938769 0.00685297 17.06965637 0.00628662 C22.55892281 0.00599923 28.04816748 0.01188654 33.53742886 0.01886058 C39.2723066 0.02510383 45.00718481 0.02569869 50.74206543 0.02688599 C61.60401421 0.02999643 72.46595295 0.03820596 83.32789731 0.04823548 C95.6929288 0.05940551 108.05796077 0.06490931 120.42299604 0.06993091 C145.86079932 0.0803888 171.29859368 0.09798271 196.73638916 0.12025452 C196.74447601 1.40683456 196.75256287 2.69341461 196.76089478 4.01898193 C196.83861494 16.18527012 196.92641818 28.35145003 197.02391624 40.51759624 C197.07371323 46.77127583 197.12004399 53.02493988 197.15826416 59.27870178 C197.19532752 65.32179857 197.24174292 71.36475979 197.29445267 77.40773964 C197.31288533 79.70519936 197.32803363 82.00268801 197.33973312 84.30019188 C197.26951809 112.96931794 197.26951809 112.96931794 211.53717041 137.15150452 C223.44975026 147.81569678 237.09751617 149.23283621 252.39678955 149.32557678 C253.4222287 149.33547638 254.44766785 149.34537598 255.50418091 149.35557556 C258.86411296 149.38694241 262.22405911 149.411849 265.58404541 149.43666077 C267.92531178 149.45725177 270.26657461 149.47824878 272.60783386 149.49963379 C278.74798707 149.55463289 284.8881726 149.60413927 291.02838135 149.65248108 C297.30282441 149.70285863 303.57722097 149.75845958 309.85162354 149.81361389 C322.14650562 149.92092412 334.44142821 150.02242855 346.73638916 150.12025452 C346.8509061 191.55680266 346.93897436 232.9933325 346.99171581 274.43000762 C346.99796912 279.32521062 347.00444076 284.22041331 347.01104736 289.11561584 C347.01235892 290.09013684 347.01367047 291.06465783 347.01502176 292.06870977 C347.03676108 307.83506724 347.07617448 323.60133329 347.12215314 339.36763658 C347.16895881 355.55286127 347.19669325 371.73803816 347.20683163 387.92332774 C347.21368227 397.90551438 347.23529654 407.88744256 347.27597149 417.86954961 C347.30246062 424.72048105 347.31037622 431.57127944 347.30389605 438.42225834 C347.30070272 442.37129058 347.30549678 446.31987212 347.33241653 450.26882362 C347.35693543 453.89225289 347.35785811 457.51493287 347.34088363 461.13839827 C347.33780521 463.05350792 347.35920295 464.96861012 347.3817957 466.88358897 C347.26512397 480.53641615 342.43545235 490.98396057 333.15435791 500.79212952 C325.91918254 507.62241673 316.24005848 512.23318378 306.28295231 512.25726891 C305.16831862 512.26234345 304.05368492 512.26741799 302.90527445 512.27264631 C301.68068992 512.27314407 300.45610539 512.27364182 299.19441223 512.27415466 C297.89343013 512.27853692 296.59244803 512.28291917 295.25204223 512.28743422 C291.63767486 512.2993899 288.02332084 512.30504586 284.40893757 512.30961537 C280.51164509 512.31557543 276.61436853 512.32718441 272.71708679 512.33790588 C263.30222634 512.36242288 253.88736061 512.37705716 244.47247806 512.38996595 C241.81229018 512.39367876 239.15210282 512.39765194 236.49191546 512.40171862 C219.96560387 512.42695891 203.43929143 512.44900783 186.91296482 512.46144676 C183.08530741 512.46437637 179.25765002 512.46733805 175.42999268 512.47035217 C174.00300565 512.47147125 174.00300565 512.47147125 172.5471906 512.47261293 C157.14643814 512.48525857 141.74580134 512.51847115 126.34510291 512.56015401 C110.52586915 512.6026178 94.70669451 512.62614703 78.88740391 512.63136733 C70.00862837 512.63477668 61.1300335 512.64647549 52.25131416 512.67947006 C44.68732658 512.70753305 37.12355668 512.71844265 29.55952109 512.7072746 C25.70362638 512.70210361 21.84818709 512.70487203 17.99235916 512.72974014 C13.80166659 512.75654091 9.61196708 512.74411926 5.42121887 512.72825623 C4.21671084 512.74213831 3.0122028 512.7560204 1.77119452 512.77032316 C-11.78097557 512.64443588 -22.20724161 507.74368802 -31.93548584 498.53822327 C-39.49021777 490.53565929 -43.41932112 480.60802736 -43.40062523 469.76149845 C-43.40327706 469.01451666 -43.40592888 468.26753487 -43.40866107 467.49791726 C-43.41635472 464.98082751 -43.41691327 462.46378653 -43.41751099 459.94668579 C-43.42152558 458.12933586 -43.42596379 456.31198682 -43.43079054 454.49463886 C-43.44276249 449.48927926 -43.44840595 444.4839293 -43.4529717 439.47855818 C-43.45892551 434.08432165 -43.47053598 428.69009667 -43.48126221 423.29586792 C-43.50579236 410.26213755 -43.52041482 397.22840335 -43.53332227 384.194657 C-43.53703394 380.5134453 -43.5410072 376.83223399 -43.54507494 373.15102267 C-43.57031257 350.29280424 -43.59236644 327.43458522 -43.60480309 304.57635593 C-43.6077328 299.2808488 -43.61069446 293.98534168 -43.6137085 288.68983459 C-43.61482757 286.71556506 -43.61482757 286.71556506 -43.61596926 284.7014113 C-43.62862075 263.38379839 -43.66184058 242.06628586 -43.70351033 220.74870849 C-43.74593884 198.86356836 -43.76949924 176.97847094 -43.77472365 155.09328979 C-43.77813685 142.80516361 -43.78988137 130.5171678 -43.82282639 118.22908211 C-43.85084066 107.76290454 -43.86182013 97.29688406 -43.85063092 86.83067191 C-43.84544776 81.4923306 -43.84830915 76.15431821 -43.87309647 70.81602478 C-43.89562423 65.92341794 -43.89482151 61.03137562 -43.87589259 56.13875865 C-43.87309754 54.37418245 -43.87866346 52.60956768 -43.89370553 50.84505338 C-44.01992627 35.06663992 -40.79316225 23.19099033 -29.68157959 11.44837952 C-21.33250077 3.56652408 -11.24989542 -0.04169141 0 0 Z M19.73638916 66.12025452 C17.01562871 70.58802957 17.08544401 75.03323873 17.73638916 80.12025452 C19.92982726 84.58836917 22.22344053 87.02888808 26.73638916 89.12025452 C30.15662112 89.94705951 33.33309875 90.24720959 36.84622192 90.25396729 C37.85267761 90.25823227 38.8591333 90.26249725 39.89608765 90.26689148 C40.98920258 90.26643829 42.0823175 90.26598511 43.20855713 90.26551819 C44.36847168 90.2688768 45.52838623 90.27223541 46.72344971 90.2756958 C50.55850291 90.28519611 54.39351242 90.28714843 58.22857666 90.28822327 C60.22108251 90.29062419 62.21358838 90.29302686 64.20609391 90.29568368 C70.47026457 90.30381785 76.73442086 90.30626886 82.99859619 90.30555725 C89.44979502 90.30495666 95.90091019 90.3155071 102.35208786 90.33130091 C107.90045147 90.34439793 113.44878781 90.34974024 118.99716675 90.34910184 C122.30667689 90.34884749 125.61609607 90.35258988 128.92559433 90.36227989 C132.61894416 90.37208164 136.3120788 90.36920087 140.00543213 90.36317444 C141.63903183 90.3716037 141.63903183 90.3716037 143.30563354 90.38020325 C153.16523124 90.37631206 153.16523124 90.37631206 161.54888916 85.68275452 C165.48717779 81.06933069 166.18184796 78.53007039 166.05279541 72.62806702 C165.58596899 68.92803538 164.21075336 66.86211754 161.73638916 64.12025452 C157.00342942 60.6008742 152.40907879 59.99766477 146.6265564 59.98654175 C145.62010071 59.98227676 144.61364502 59.97801178 143.57669067 59.97361755 C142.48357574 59.97407074 141.39046082 59.97452393 140.26422119 59.97499084 C139.10430664 59.97163223 137.94439209 59.96827362 136.74932861 59.96481323 C132.91427541 59.95531292 129.0792659 59.95336061 125.24420166 59.95228577 C123.25169581 59.94988484 121.25918994 59.94748217 119.26668441 59.94482535 C113.00251376 59.93669119 106.73835746 59.93424017 100.47418213 59.93495178 C94.0229833 59.93555237 87.57186813 59.92500193 81.12069046 59.90920812 C75.57232685 59.8961111 70.02399051 59.89076879 64.47561157 59.89140719 C61.16610143 59.89166154 57.85668225 59.88791915 54.54718399 59.87822914 C50.85383416 59.8684274 47.16069952 59.87130817 43.46734619 59.87733459 C42.37827972 59.87171509 41.28921326 59.86609558 40.16714478 59.86030579 C32.18489283 59.89338712 25.74734099 60.28104417 19.73638916 66.12025452 Z M19.73638916 126.12025452 C17.01562871 130.58802957 17.08544401 135.03323873 17.73638916 140.12025452 C19.92982726 144.58836917 22.22344053 147.02888808 26.73638916 149.12025452 C30.15662112 149.94705951 33.33309875 150.24720959 36.84622192 150.25396729 C37.85267761 150.25823227 38.8591333 150.26249725 39.89608765 150.26689148 C40.98920258 150.26643829 42.0823175 150.26598511 43.20855713 150.26551819 C44.36847168 150.2688768 45.52838623 150.27223541 46.72344971 150.2756958 C50.55850291 150.28519611 54.39351242 150.28714843 58.22857666 150.28822327 C60.22108251 150.29062419 62.21358838 150.29302686 64.20609391 150.29568368 C70.47026457 150.30381785 76.73442086 150.30626886 82.99859619 150.30555725 C89.44979502 150.30495666 95.90091019 150.3155071 102.35208786 150.33130091 C107.90045147 150.34439793 113.44878781 150.34974024 118.99716675 150.34910184 C122.30667689 150.34884749 125.61609607 150.35258988 128.92559433 150.36227989 C132.61894416 150.37208164 136.3120788 150.36920087 140.00543213 150.36317444 C141.63903183 150.3716037 141.63903183 150.3716037 143.30563354 150.38020325 C153.16523124 150.37631206 153.16523124 150.37631206 161.54888916 145.68275452 C165.48717779 141.06933069 166.18184796 138.53007039 166.05279541 132.62806702 C165.58596899 128.92803538 164.21075336 126.86211754 161.73638916 124.12025452 C157.00342942 120.6008742 152.40907879 119.99766477 146.6265564 119.98654175 C145.62010071 119.98227676 144.61364502 119.97801178 143.57669067 119.97361755 C142.48357574 119.97407074 141.39046082 119.97452393 140.26422119 119.97499084 C139.10430664 119.97163223 137.94439209 119.96827362 136.74932861 119.96481323 C132.91427541 119.95531292 129.0792659 119.95336061 125.24420166 119.95228577 C123.25169581 119.94988484 121.25918994 119.94748217 119.26668441 119.94482535 C113.00251376 119.93669119 106.73835746 119.93424017 100.47418213 119.93495178 C94.0229833 119.93555237 87.57186813 119.92500193 81.12069046 119.90920812 C75.57232685 119.8961111 70.02399051 119.89076879 64.47561157 119.89140719 C61.16610143 119.89166154 57.85668225 119.88791915 54.54718399 119.87822914 C50.85383416 119.8684274 47.16069952 119.87130817 43.46734619 119.87733459 C42.37827972 119.87171509 41.28921326 119.86609558 40.16714478 119.86030579 C32.18489283 119.89338712 25.74734099 120.28104417 19.73638916 126.12025452 Z M128.01422119 197.16932678 C125.97770925 198.35540368 123.93692125 199.53416571 121.89215088 200.70594788 C116.91362717 203.57853489 112.10234883 206.51732833 107.43170166 209.87025452 C91.50700174 220.80965174 76.66014895 220.51997885 58.02420044 220.11323547 C46.39983798 219.93559755 35.70749112 222.264024 26.92388916 230.30775452 C16.94699448 241.20233526 16.42411128 254.8607591 16.47076416 268.93275452 C16.46885071 270.22286438 16.46693726 271.51297424 16.46496582 272.84217834 C16.46204055 275.55503711 16.46622745 278.26776294 16.47564697 280.98060608 C16.48704004 284.42639759 16.48046647 287.87187734 16.46850204 291.31765747 C16.45946291 294.64771359 16.46582511 297.9776896 16.47076416 301.30775452 C16.4667157 302.52889954 16.46266724 303.75004456 16.45849609 305.00819397 C16.52824579 317.896511 17.88607079 330.06362738 26.92388916 339.93275452 C36.41153211 348.62122236 47.82792488 350.36727125 60.24420166 350.04212952 C80.61688958 349.56309033 94.63596589 351.1190756 111.83306885 363.1388092 C116.79595336 366.52585686 122.02630979 369.44653955 127.23638916 372.43275452 C129.21073791 373.58833773 131.18470742 374.74456918 133.15826416 375.90150452 C138.21799078 378.84053361 143.32164606 381.68263049 148.48638916 384.43275452 C149.17152588 384.79989563 149.8566626 385.16703674 150.56256104 385.54530334 C159.42015732 390.19055503 169.99815609 390.56540528 179.75982666 388.47181702 C189.92282033 384.72080674 198.09388352 377.3352176 202.95513916 367.70619202 C207.08857439 358.16976645 206.88557335 348.4066644 206.88165283 338.17176819 C206.88501144 336.90225815 206.88837006 335.63274811 206.89183044 334.32476807 C206.90060559 330.86592302 206.9030058 327.40710277 206.90364623 323.94824767 C206.90436039 321.78069478 206.90650159 319.61314805 206.90914345 317.44559669 C206.91837519 309.86505869 206.92248103 302.28453819 206.92169189 294.70399475 C206.92109159 287.66773647 206.93163977 280.63155498 206.94743556 273.59531611 C206.96056316 267.52875163 206.96587362 261.46221208 206.96523649 255.39563352 C206.96498304 251.78365801 206.96774849 248.17175085 206.97841454 244.55978966 C206.99000444 240.52544886 206.98531692 236.49127745 206.97930908 232.45692444 C206.98492859 231.27990967 206.9905481 230.1028949 206.99633789 228.89021301 C206.94182539 214.41037034 204.89198801 201.86914279 194.75982666 190.94056702 C172.35654359 170.78626217 149.82754429 184.45295139 128.01422119 197.16932678 Z M254.42388916 206.68275452 C253.36621338 207.19644592 252.3085376 207.71013733 251.21881104 208.23939514 C245.04110192 211.3769698 241.00809987 213.93091433 237.73638916 220.12025452 C236.57535113 225.03122904 237.21663685 229.0614998 239.42388916 233.55775452 C242.34456396 236.79417794 244.34667645 238.76166862 248.77178955 239.42567444 C256.59871205 239.79662245 262.2076265 237.12064674 269.04888916 233.55775452 C270.10656494 233.04406311 271.16424072 232.5303717 272.25396729 232.00111389 C278.4316764 228.86353923 282.46467845 226.3095947 285.73638916 220.12025452 C286.89742719 215.20927999 286.25614148 211.17900923 284.04888916 206.68275452 C281.12821436 203.44633109 279.12610187 201.47884041 274.70098877 200.81483459 C266.87406627 200.44388659 261.26515182 203.1198623 254.42388916 206.68275452 Z M239.73638916 276.12025452 C237.01562871 280.58802957 237.08544401 285.03323873 237.73638916 290.12025452 C239.92982726 294.58836917 242.22344053 297.02888808 246.73638916 299.12025452 C251.62410936 300.46601304 256.58188635 300.3040726 261.61138916 300.30775452 C262.48408447 300.32000061 263.35677979 300.3322467 264.25592041 300.34486389 C270.8450608 300.35972661 276.37590904 300.16600396 281.54888916 295.68275452 C285.48717779 291.06933069 286.18184796 288.53007039 286.05279541 282.62806702 C285.58596899 278.92803538 284.21075336 276.86211754 281.73638916 274.12025452 C275.65311131 269.5967915 269.13514643 269.93807938 261.86138916 269.93275452 C260.98869385 269.92050842 260.11599854 269.90826233 259.21685791 269.89564514 C251.59940268 269.87846291 245.4499523 270.56993604 239.73638916 276.12025452 Z M239.73638916 336.12025452 C237.90347395 339.0763703 237.39157845 341.47053706 237.29888916 344.93275452 C237.25892822 345.74357483 237.21896729 346.55439514 237.17779541 347.38978577 C238.25480423 352.65432536 240.8826939 355.87268991 245.23614502 358.80262756 C248.25228807 360.5016152 251.31014147 362.04547121 254.42388916 363.55775452 C255.462229 364.09851624 256.50056885 364.63927795 257.57037354 365.19642639 C263.91935405 368.34504306 269.59513406 370.50266887 276.73638916 369.12025452 C281.07578804 366.97608667 283.93106525 364.69654072 285.73638916 360.12025452 C286.16194197 357.77322351 286.16194197 357.77322351 286.17388916 355.30775452 C286.2138501 354.4969342 286.25381104 353.68611389 286.29498291 352.85072327 C285.2179741 347.58618367 282.59008442 344.36781912 278.2366333 341.43788147 C275.22049025 339.73889383 272.16263685 338.19503782 269.04888916 336.68275452 C267.49137939 335.87161194 267.49137939 335.87161194 265.90240479 335.04408264 C256.85018758 330.55486395 247.40015372 327.84687232 239.73638916 336.12025452 Z M19.73638916 426.12025452 C17.01562871 430.58802957 17.08544401 435.03323873 17.73638916 440.12025452 C19.92982726 444.58836917 22.22344053 447.02888808 26.73638916 449.12025452 C31.5687299 450.45019283 36.43108678 450.26238488 41.40188599 450.25396729 C42.87096458 450.25736562 42.87096458 450.25736562 44.36972153 450.26083261 C47.65455369 450.26716747 50.93934453 450.26634357 54.22418213 450.26551819 C56.57806451 450.26850998 58.9319464 450.27191256 61.28582764 450.2756958 C67.6824944 450.28453757 74.07914778 450.28687398 80.47582006 450.28751159 C85.14126602 450.28808855 89.80670971 450.2912399 94.47215459 450.29434806 C107.01807343 450.30265204 119.56398517 450.30639042 132.10990666 450.30567833 C132.82211952 450.30563837 133.53433238 450.30559842 134.26812744 450.30555725 C134.98121131 450.30551637 135.69429517 450.30547549 136.42898764 450.30543337 C147.98610411 450.3050269 159.543188 450.31459722 171.10029505 450.32869562 C182.97126974 450.34306248 194.84222853 450.34996564 206.71321213 450.34910184 C213.37618093 450.34876999 220.03912035 450.35170652 226.70208359 450.36227989 C232.96799757 450.37195161 239.23383935 450.37204637 245.49975586 450.36476326 C247.79955272 450.36371629 250.09935405 450.36608693 252.39914322 450.37212372 C255.53848903 450.37983062 258.6775847 450.37520731 261.81692505 450.36749268 C262.72695215 450.37263624 263.63697925 450.3777798 264.57458293 450.38307923 C271.04116113 450.34796343 276.47367966 450.08126941 281.54888916 445.68275452 C285.48717779 441.06933069 286.18184796 438.53007039 286.05279541 432.62806702 C285.58596899 428.92803538 284.21075336 426.86211754 281.73638916 424.12025452 C275.6821747 419.61840274 269.29969839 419.97430043 262.07089233 419.98654175 C260.60181374 419.98314341 260.60181374 419.98314341 259.10305679 419.97967643 C255.81822463 419.97334156 252.53343379 419.97416546 249.24859619 419.97499084 C246.89471381 419.97199905 244.54083192 419.96859647 242.18695068 419.96481323 C235.79028392 419.95597147 229.39363054 419.95363505 222.99695826 419.95299745 C218.3315123 419.95242048 213.66606861 419.94926914 209.00062373 419.94616097 C196.45470489 419.93785699 183.90879315 419.93411862 171.36287166 419.9348307 C170.29455237 419.93489064 170.29455237 419.93489064 169.20465088 419.93495178 C168.49156701 419.93499266 167.77848315 419.93503354 167.04379068 419.93507566 C155.48667421 419.93548214 143.92959032 419.92591181 132.37248327 419.91181342 C120.50150858 419.89744655 108.63054979 419.89054339 96.75956619 419.89140719 C90.09659739 419.89173904 83.43365797 419.88880251 76.77069473 419.87822914 C70.50478075 419.86855743 64.23893897 419.86846266 57.97302246 419.87574577 C55.6732256 419.87679274 53.37342427 419.87442211 51.0736351 419.86838531 C47.93428929 419.86067842 44.79519362 419.86530172 41.65585327 419.87301636 C40.74582617 419.86787279 39.83579907 419.86272923 38.89819539 419.8574298 C31.41268023 419.89807879 25.34751465 420.6694469 19.73638916 426.12025452 Z " fill="#002774" transform="translate(104.26361083984375,-0.1202545166015625)"/>
<path d="M0 0 C2.66602751 2.1221875 3.87039749 3.30516305 4.50336456 6.69868469 C4.50562672 8.25609627 4.50562672 8.25609627 4.50793457 9.8449707 C4.51921387 11.0394986 4.53049316 12.23402649 4.54211426 13.4647522 C4.53401733 14.77189178 4.52592041 16.07903137 4.51757812 17.42578125 C4.52299938 18.81888562 4.53012206 20.21198425 4.53881836 21.60507202 C4.55705471 25.38611785 4.54998319 29.16672714 4.53730202 32.94778061 C4.52717584 36.90440804 4.53656663 40.86099806 4.54284668 44.81762695 C4.55012422 51.4621451 4.54053268 58.10648541 4.52148438 64.75097656 C4.4997153 72.43326093 4.5067666 80.11512068 4.52879 87.79739475 C4.54694105 94.39284939 4.54950381 100.98817619 4.53903532 107.58364773 C4.53279871 111.52300922 4.5319692 115.46217111 4.54518127 119.40151978 C4.55673502 123.10512801 4.54872352 126.80818874 4.52560425 130.51173782 C4.5177908 132.51956682 4.52967714 134.52744212 4.54211426 136.5352478 C4.52519531 138.32703964 4.52519531 138.32703964 4.50793457 140.1550293 C4.50642647 141.19330368 4.50491837 142.23157806 4.50336456 143.30131531 C3.87073415 146.69303202 2.65841851 147.87286543 0 150 C-5.2294295 151.62263333 -9.83562569 149.85961847 -14.50390625 147.4296875 C-16.53494098 146.26461989 -18.55400786 145.07851317 -20.5625 143.875 C-21.64007568 143.24988525 -22.71765137 142.62477051 -23.82788086 141.98071289 C-26.08680856 140.66731411 -28.34074382 139.3452947 -30.58984375 138.01513672 C-33.9444061 136.03285166 -37.31298771 134.07700146 -40.6875 132.12890625 C-44.74619089 129.78111531 -48.80201391 127.42881056 -52.84765625 125.05859375 C-53.65211182 124.58736084 -54.45656738 124.11612793 -55.28540039 123.63061523 C-56.18121826 123.09251221 -57.07703613 122.55440918 -58 122 C-58.67889786 121.78552719 -59.35779572 121.57105438 -60.05726624 121.3500824 C-62.8222308 120.23787424 -64.14797908 119.36612116 -66 117 C-67.32702436 110.83924518 -67.24952487 104.69878144 -67.23828125 98.41796875 C-67.25637844 96.5609628 -67.27611227 94.70397214 -67.29740906 92.84700012 C-67.33175155 88.9554132 -67.33461794 85.06527082 -67.31762695 81.17358398 C-67.30005463 76.19797549 -67.37804582 71.22906653 -67.48220539 66.2547102 C-67.54882916 62.41864225 -67.5553118 58.58417611 -67.54491234 54.74761391 C-67.54879973 52.91473751 -67.5732342 51.0817804 -67.61901283 49.24947166 C-67.87576063 37.66393782 -67.87576063 37.66393782 -66 33 C-62.07655868 29.01394097 -58.16424315 27.16877476 -53 25 C-50.96343081 23.87102641 -48.93765656 22.7220598 -46.9296875 21.54296875 C-44.91316665 20.42140218 -42.89490297 19.30296399 -40.875 18.1875 C-34.68451292 14.76600106 -28.50847455 11.34829278 -22.4765625 7.65234375 C-21.63109863 7.13969971 -20.78563477 6.62705566 -19.91455078 6.09887695 C-18.35848321 5.14903065 -16.8116669 4.1837744 -15.27685547 3.19995117 C-10.4442917 0.26959044 -5.66916899 -1.52207784 0 0 Z " fill="#002774" transform="translate(277,210)"/>
<path d="M0 0 C6.15969099 5.09574406 11.79035685 10.64845087 17.43334961 16.30395508 C18.4686455 17.33789371 19.50415352 18.37161998 20.53985596 19.40515137 C23.33300713 22.19377021 26.12301819 24.98551054 28.91231227 27.77798676 C31.83494262 30.70315843 34.76002276 33.62587877 37.68470764 36.54899597 C42.58790938 41.45038291 47.48900838 46.35386503 52.38891602 51.25854492 C58.06015488 56.93524332 63.73501183 62.60830571 69.41172594 68.27952844 C74.28839975 73.15167316 79.16313338 78.02575265 84.03623205 82.90147322 C86.94591432 85.81271705 89.85627419 88.72327481 92.76838493 91.63208961 C95.49981552 94.36064384 98.22881181 97.09160905 100.9559021 99.82450104 C101.95965655 100.82958358 102.96427373 101.83380533 103.96978951 102.83712578 C105.33579316 104.20042034 106.69844927 105.56706673 108.06089783 106.93391418 C108.8261122 107.69950559 109.59132658 108.46509699 110.37972927 109.25388813 C112 111 112 111 112 112 C98.67415197 112.09268583 85.34838066 112.16375812 72.02227592 112.20724869 C65.83439624 112.22812214 59.64673712 112.25643601 53.45898438 112.30175781 C47.48730425 112.34522322 41.51583627 112.36913893 35.54401016 112.37950897 C33.26582627 112.38689901 30.98765397 112.40132997 28.70956039 112.42292023 C25.51819531 112.45196262 22.32770647 112.45595554 19.13623047 112.45410156 C18.19467606 112.46848267 17.25312164 112.48286377 16.28303528 112.49768066 C10.7063182 112.4626318 7.32772634 111.87043704 3 108 C-0.91744184 103.51225009 -0.40509273 98.63080721 -0.34057617 92.97729492 C-0.34101425 91.97194702 -0.34145233 90.96659912 -0.34190369 89.93078613 C-0.33981672 86.61381488 -0.31648943 83.29735152 -0.29296875 79.98046875 C-0.28737248 77.67833228 -0.28310253 75.37619223 -0.28010559 73.0740509 C-0.2686593 67.01919668 -0.23919369 60.96455885 -0.20599365 54.90979004 C-0.1752883 48.72960334 -0.16159924 42.54938164 -0.14648438 36.36914062 C-0.11432401 24.24599875 -0.06313003 12.12301738 0 0 Z " fill="#002774" transform="translate(331,8)"/>
<path d="M0 0 C9.24 0 18.48 0 28 0 C28 23.1 28 46.2 28 70 C18.76 70 9.52 70 0 70 C-2.7655493 67.2344507 -2.25348601 65.61880213 -2.25878906 61.74609375 C-2.26509338 60.43133057 -2.27139771 59.11656738 -2.27789307 57.76196289 C-2.2743134 56.3204739 -2.27021146 54.87898613 -2.265625 53.4375 C-2.26697168 51.96541276 -2.26891223 50.49332595 -2.27142334 49.02124023 C-2.27437449 45.93436452 -2.27007732 42.84760447 -2.26074219 39.76074219 C-2.24934756 35.79927871 -2.25590709 31.83808622 -2.26788712 27.87663269 C-2.275106 24.83636423 -2.27281768 21.79616027 -2.26763153 18.75588989 C-2.26629511 17.2950131 -2.2679425 15.8341305 -2.27259064 14.3732605 C-2.27765606 12.33347685 -2.26856979 10.29367274 -2.25878906 8.25390625 C-2.25640228 6.51089233 -2.25640228 6.51089233 -2.25396729 4.73266602 C-2 2 -2 2 0 0 Z " fill="#002774" transform="translate(153,250)"/>
</svg>
