<?xml version="1.0" encoding="UTF-8"?>
<svg version="1.1" xmlns="http://www.w3.org/2000/svg" width="512" height="512">
<path d="M0 0 C1.31107819 -0.00445784 2.62215639 -0.00891569 3.97296423 -0.01350862 C5.42638108 -0.01341933 6.87979793 -0.01322949 8.33321476 -0.01294994 C9.87847821 -0.01625027 11.42374081 -0.01997619 12.96900231 -0.02409142 C17.21767003 -0.0341006 21.46632362 -0.03782648 25.71500146 -0.04048073 C30.29668901 -0.04438705 34.8783654 -0.05396523 39.46004581 -0.0626936 C50.52671894 -0.08244976 61.59339298 -0.09252359 72.66007933 -0.10142139 C77.87385928 -0.10580607 83.08763821 -0.11117245 88.30141735 -0.11641026 C105.63759589 -0.13342244 122.9737738 -0.14791574 140.30995941 -0.155159 C144.80811342 -0.15706884 149.30626743 -0.15898918 153.80442142 -0.16094494 C155.48137838 -0.16167055 155.48137838 -0.16167055 157.19221324 -0.16241082 C175.29520973 -0.17070787 193.39814007 -0.19603936 211.50110769 -0.22852562 C230.09455895 -0.2616195 248.68797662 -0.2796099 267.28145748 -0.28280324 C277.71790485 -0.28496628 288.15425578 -0.29368473 298.5906744 -0.31926441 C307.48052306 -0.34100329 316.37025186 -0.34900618 325.26012408 -0.33929763 C329.79250833 -0.33476204 334.32464545 -0.33659582 338.85699558 -0.35605907 C343.01433579 -0.37375698 347.17124978 -0.37263977 351.32859493 -0.35716178 C352.8246522 -0.3547957 354.32073951 -0.35905682 355.81675106 -0.37099043 C374.93616888 -0.51393599 390.17339258 5.22474156 404.07907963 18.47015858 C415.89560735 31.20139382 420.87752205 47.39276788 420.81916142 64.45431995 C420.82369253 65.44387837 420.82822364 66.43343679 420.83289206 67.45298183 C420.84547247 70.74277288 420.8439198 74.03239703 420.84226322 77.32220936 C420.8482525 79.69178446 420.85505897 82.06135762 420.86261845 84.43092823 C420.88024647 90.8506376 420.88497253 97.27029361 420.88625002 103.69002485 C420.88724108 107.70675586 420.89182168 111.72347763 420.89724445 115.74020481 C420.91484087 129.04709893 420.92408601 142.35396092 420.92258351 155.66086675 C420.92250359 156.37684907 420.92242368 157.09283139 420.92234135 157.83051014 C420.92225959 158.54737755 420.92217782 159.26424495 420.92209359 160.00283562 C420.92128148 171.60856147 420.9404042 183.2141573 420.96861808 194.81984557 C420.99742974 206.76673973 421.01115379 218.71357066 421.00943053 230.66050041 C421.0087694 237.35559002 421.01453451 244.05052296 421.03578663 250.74558353 C421.05524626 257.04777474 421.05524063 263.34967952 421.04075336 269.65188122 C421.03867364 271.9543554 421.04331576 274.25684787 421.05547428 276.55929089 C421.16467371 298.68559345 418.48610341 317.83353071 402.41892338 334.56000233 C392.01605728 343.89990527 378.82325001 351.26994319 364.5466547 351.25447559 C363.07228191 351.25653759 363.07228191 351.25653759 361.56812382 351.25864124 C360.50141453 351.25504597 359.43470524 351.25145069 358.33567142 351.24774647 C357.20352711 351.24789249 356.07138279 351.24803852 354.90493107 351.24818897 C351.16608604 351.2474928 347.42729095 351.23971414 343.68845463 351.23187733 C341.09485241 351.2300121 338.50124983 351.22858869 335.90764713 351.22758961 C329.78084186 351.22416272 323.65405717 351.2162827 317.52725965 351.20624012 C309.86549996 351.19395484 302.20373734 351.18848979 294.54197025 351.1830492 C280.87854486 351.17331679 267.21515851 351.15328336 253.55173588 351.13422108 C253.55173588 370.93422108 253.55173588 390.73422108 253.55173588 411.13422108 C267.43315484 410.97621258 267.43315484 410.97621258 281.31394291 410.77386951 C283.06246811 410.76218003 284.81100424 410.75198882 286.55954838 410.74359608 C287.45729984 410.72313221 288.35505131 410.70266834 289.28000736 410.68158436 C294.88269805 410.67847951 298.13585693 411.33682468 302.55173588 415.13422108 C305.86423013 419.8821295 306.43158198 424.51298207 305.55173588 430.13422108 C304.26969064 433.71154084 302.47481199 436.38677569 299.48799133 438.80530357 C295.36636411 440.67070753 291.73452771 440.55259658 287.2591486 440.52190113 C285.85026494 440.52997944 285.85026494 440.52997944 284.41291898 440.53822094 C281.26382711 440.55253498 278.11515354 440.5453882 274.96604252 440.53827381 C272.70905563 440.54397556 270.45207164 440.55093906 268.1950922 440.55907154 C262.06290812 440.5770394 255.93086685 440.57582773 249.79866433 440.57012916 C244.68167761 440.56704261 239.56471852 440.5731238 234.44773573 440.5791679 C221.68728687 440.59402731 208.92693919 440.59038958 196.16649651 440.5783046 C185.08717718 440.56837213 174.00802484 440.58131291 162.92873127 440.60523879 C151.5492971 440.62962747 140.16996273 440.63883846 128.79049486 440.63258606 C122.40306155 440.62921162 116.01576623 440.63166406 109.62835217 440.64883709 C103.62253975 440.66427891 97.61704673 440.66038111 91.61124706 440.64153194 C89.40617275 440.63783846 87.20107491 440.64097652 84.99602222 440.65141773 C81.98741328 440.66457699 78.9798696 440.65312455 75.9713068 440.63542652 C75.09727634 440.64503153 74.22324588 440.65463653 73.32272965 440.6645326 C67.92657069 440.59915407 64.82152459 439.74234631 60.55173588 436.13422108 C57.23924163 431.38631265 56.67188977 426.75546008 57.55173588 421.13422108 C58.82901884 417.5701896 60.63014635 414.89701159 63.57785892 412.45721912 C67.8806871 410.54300635 71.7897466 410.76209584 76.44626713 410.84125233 C77.70666813 410.84578419 77.70666813 410.84578419 78.99253178 410.8504076 C82.11655897 410.86604535 85.2404104 410.9079293 88.36423588 410.94672108 C98.85204838 411.03953358 98.85204838 411.03953358 109.55173588 411.13422108 C109.55173588 391.33422108 109.55173588 371.53422108 109.55173588 351.13422108 C101.34040775 351.18062733 93.12907963 351.22703358 84.66892338 351.27484608 C78.78126603 351.29790456 72.89364293 351.31840573 67.00596905 351.33523655 C59.39335524 351.35733649 51.78091821 351.38532036 44.1684351 351.43597889 C37.48997448 351.48040029 30.8117447 351.50340355 24.13313007 351.51373005 C21.59361737 351.52108295 19.05411435 351.53544078 16.51468372 351.5571413 C-6.40413383 351.74508532 -23.66458402 349.28734514 -40.97560787 332.79828358 C-52.7921356 320.06704834 -57.77405029 303.87567427 -57.71568966 286.8141222 C-57.72022077 285.82456378 -57.72475188 284.83500536 -57.7294203 283.81546032 C-57.74200071 280.52566927 -57.74044804 277.23604512 -57.73879147 273.9462328 C-57.74478075 271.57665769 -57.75158721 269.20708454 -57.75914669 266.83751392 C-57.77677471 260.41780455 -57.78150077 253.99814854 -57.78277826 247.5784173 C-57.78376933 243.56168629 -57.78834993 239.54496453 -57.7937727 235.52823734 C-57.81136912 222.22134322 -57.82061426 208.91448124 -57.81911175 195.6075754 C-57.81903184 194.89159308 -57.81895192 194.17561077 -57.81886959 193.43793201 C-57.81878783 192.72106461 -57.81870607 192.0041972 -57.81862183 191.26560654 C-57.81780973 179.65988068 -57.83693245 168.05428486 -57.86514632 156.44859658 C-57.89395799 144.50170242 -57.90768203 132.55487149 -57.90595877 120.60794175 C-57.90529765 113.91285213 -57.91106275 107.21791919 -57.93231487 100.52285862 C-57.9517745 94.22066742 -57.95176887 87.91876264 -57.93728161 81.61656094 C-57.93520188 79.31408676 -57.939844 77.01159428 -57.95200253 74.70915127 C-58.06120196 52.5828487 -55.38263166 33.43491145 -39.31545162 16.70843983 C-28.31225478 6.82954784 -14.98527379 0.023662 0 0 Z M-17.44826412 38.13422108 C-18.002561 38.66015858 -18.55685787 39.18609608 -19.12795162 39.72797108 C-26.04012576 47.01842341 -28.05306927 55.62878731 -27.95619869 65.41876698 C-27.96243865 66.40439168 -27.96867862 67.39001639 -27.97510767 68.40550852 C-27.99096072 71.68186499 -27.97846331 74.95746952 -27.96584225 78.23383045 C-27.97126676 80.59343872 -27.97839127 82.9530436 -27.98708248 85.3126421 C-28.00527932 91.7030983 -27.99826313 98.09329548 -27.98556614 104.48375607 C-27.97951255 108.47900705 -27.97980174 112.47422105 -27.98352718 116.46947193 C-27.98414012 117.13409186 -27.98475305 117.79871179 -27.98538455 118.48347172 C-27.98666354 119.83391609 -27.9879604 121.18436043 -27.98927492 122.53480476 C-28.00066288 135.1781075 -27.98759512 147.82129395 -27.96607345 160.46457762 C-27.94820405 171.29738806 -27.95130867 182.13002701 -27.9697485 192.96283436 C-27.99118684 205.56295068 -27.99956441 218.16296527 -27.98729944 230.76309729 C-27.98602534 232.10838825 -27.98476785 233.45367923 -27.98352718 234.79897022 C-27.98291008 235.4607638 -27.98229298 236.12255737 -27.98165718 236.8044053 C-27.97821315 241.45308113 -27.98420912 246.10168947 -27.9934454 250.75035572 C-28.00502321 257.0147998 -27.99694235 263.2789209 -27.97386837 269.54333019 C-27.96859167 271.83863953 -27.97007717 274.13397618 -27.97891903 276.42927456 C-27.98989885 279.56977169 -27.97608068 282.70924287 -27.95619869 285.84967518 C-27.96512158 286.75144411 -27.97404447 287.65321303 -27.98323774 288.58230829 C-27.85612509 298.97996412 -23.92678586 306.57981443 -16.80763912 314.00140858 C-7.29671628 322.59903088 4.99166836 322.43030551 17.14434147 322.39491749 C18.62023715 322.3979415 20.09613126 322.40183224 21.57202262 322.40651006 C25.61031175 322.41676664 29.64851187 322.41461421 33.68680823 322.41032946 C38.04889319 322.40785797 42.41095695 322.41688169 46.7730341 322.42436695 C55.31235043 322.43710444 63.8516353 322.43890881 72.39095954 322.43656669 C79.333819 322.43478222 86.27666892 322.43653593 93.21952724 322.44079113 C94.7028701 322.44168391 94.7028701 322.44168391 96.21617949 322.44259473 C98.22526291 322.44380651 100.23434633 322.44502065 102.24342974 322.44623711 C121.07729727 322.4571091 139.91114688 322.45495184 158.74501541 322.44885226 C175.96318552 322.44368405 193.18129905 322.45493665 210.39945797 322.47395048 C228.09128034 322.49333716 245.78307595 322.50158338 263.47490901 322.49782723 C273.40259901 322.49591637 283.33024085 322.49839153 293.25792217 322.51254177 C301.71001481 322.52446714 310.16202965 322.52584752 318.61412338 322.5137516 C322.92346516 322.50787091 327.23266472 322.50674103 331.54199696 322.51875401 C335.49300957 322.52963977 339.44376168 322.52647766 343.39476224 322.51249232 C344.81798118 322.50985277 346.24122071 322.51218844 347.66441939 322.52022818 C359.89459409 322.58447802 371.33309418 321.89813157 380.55173588 313.13422108 C381.10603275 312.60828358 381.66032963 312.08234608 382.23142338 311.54047108 C389.14359752 304.25001875 391.15654103 295.63965485 391.05967045 285.84967518 C391.06591041 284.86405047 391.07215037 283.87842576 391.07857943 282.86293364 C391.09443247 279.58657717 391.08193507 276.31097263 391.069314 273.0346117 C391.07473852 270.67500343 391.08186302 268.31539855 391.09055424 265.95580006 C391.10875108 259.56534385 391.10173489 253.17514668 391.0890379 246.78468609 C391.08298431 242.7894351 391.08327349 238.7942211 391.08699894 234.79897022 C391.08791834 233.80204033 391.08791834 233.80204033 391.08885631 232.78497043 C391.0901353 231.43452607 391.09143215 230.08408172 391.09274668 228.73363739 C391.10413464 216.09033466 391.09106687 203.4471482 391.06954521 190.80386454 C391.05167581 179.9710541 391.05478042 169.13841515 391.07322025 158.3056078 C391.0946586 145.70549147 391.10303617 133.10547689 391.0907712 120.50534487 C391.08949709 119.1600539 391.08823961 117.81476293 391.08699894 116.46947193 C391.08638184 115.80767836 391.08576474 115.14588478 391.08512893 114.46403685 C391.0816849 109.81536103 391.08768087 105.16675268 391.09691715 100.51808643 C391.10849497 94.25364235 391.10041411 87.98952126 391.07734013 81.72511196 C391.07206343 79.42980262 391.07354893 77.13446597 391.08239079 74.83916759 C391.09337061 71.69867046 391.07955244 68.55919928 391.05967045 65.41876698 C391.06859334 64.51699805 391.07751622 63.61522912 391.0867095 62.68613386 C390.95959684 52.28847803 387.03025762 44.68862773 379.91111088 37.26703358 C370.40018804 28.66941128 358.1118034 28.83813664 345.95913029 28.87352467 C344.48323461 28.87050065 343.0073405 28.86660991 341.53144914 28.8619321 C337.49316 28.85167551 333.45495988 28.85382794 329.41666353 28.85811269 C325.05457857 28.86058419 320.69251481 28.85156047 316.33043766 28.8440752 C307.79112133 28.83133771 299.25183645 28.82953335 290.71251222 28.83187547 C283.76965276 28.83365993 276.82680283 28.83190622 269.88394451 28.82765102 C268.40060165 28.82675824 268.40060165 28.82675824 266.88729227 28.82584742 C264.87820885 28.82463564 262.86912543 28.82342151 260.86004201 28.82220504 C242.02617449 28.81133306 223.19232488 28.81349032 204.35845635 28.81958989 C187.14028623 28.82475811 169.92217271 28.81350551 152.70401379 28.79449167 C135.01219142 28.77510499 117.32039581 28.76685877 99.62856275 28.77061492 C89.70087275 28.77252579 79.77323091 28.77005062 69.84554958 28.75590038 C61.39345695 28.74397501 52.94144211 28.74259464 44.48934837 28.75469055 C40.18000659 28.76057125 35.87080703 28.76170113 31.5614748 28.74968815 C27.61046219 28.73880238 23.65971008 28.74196449 19.70870952 28.75594983 C18.28549058 28.75858938 16.86225104 28.75625371 15.43905237 28.74821397 C3.20887766 28.68396414 -8.22962242 29.37031058 -17.44826412 38.13422108 Z M139.55173588 351.13422108 C139.55173588 370.93422108 139.55173588 390.73422108 139.55173588 411.13422108 C167.27173588 411.13422108 194.99173588 411.13422108 223.55173588 411.13422108 C223.55173588 391.33422108 223.55173588 371.53422108 223.55173588 351.13422108 C195.83173588 351.13422108 168.11173588 351.13422108 139.55173588 351.13422108 Z " fill="#000000" transform="translate(74.44826412200928,35.86577892303467)"/>
<path d="M0 0 C1.80710953 -0.01073296 1.80710953 -0.01073296 3.65072632 -0.02168274 C6.9216709 -0.03559107 10.19157154 -0.02736939 13.46245694 -0.00759244 C16.90506844 0.00893428 20.3476333 -0.00003796 23.79026794 -0.00511169 C29.56750514 -0.00961656 35.34441687 0.00613806 41.12158203 0.03417969 C47.7774863 0.06623981 54.43280447 0.06620487 61.08875042 0.04896492 C67.52327525 0.03304027 73.95758753 0.03987033 80.3921032 0.05690193 C83.11637043 0.06373048 85.84046513 0.06278371 88.56472969 0.05535698 C92.37685076 0.04988194 96.18799083 0.07035535 100 0.09765625 C101.11560806 0.09113037 102.23121613 0.08460449 103.38063049 0.07788086 C113.22158584 0.19718205 121.33668755 2.67046187 128.61108398 9.50219727 C134.30037608 16.14173515 137.54210492 23.49504055 137.57574463 32.23394775 C137.58145477 33.12812912 137.58716492 34.02231049 137.5930481 34.94358826 C137.59472488 36.39620811 137.59472488 36.39620811 137.59643555 37.87817383 C137.60140045 38.90807938 137.60636536 39.93798492 137.61148071 40.99909973 C137.62607195 44.40248282 137.63289944 47.8058193 137.63842773 51.20922852 C137.64418185 53.57948813 137.64993955 55.94974773 137.65570068 58.32000732 C137.66620214 63.28975643 137.67205036 68.25948941 137.67553711 73.22924805 C137.68101884 79.58551898 137.70504387 85.94157538 137.73350906 92.29777908 C137.75216783 97.19466772 137.75734279 102.09150503 137.75887299 106.98842621 C137.7618929 109.33109459 137.769899 111.6737622 137.78305817 114.01639557 C137.80018542 117.29991298 137.79822186 120.58291065 137.79174805 123.86645508 C137.80096283 124.82677139 137.81017761 125.78708771 137.81967163 126.77650452 C137.75836206 136.74452015 134.84774855 144.94485356 128.43530273 152.63110352 C120.04702351 160.60257383 111.44141 162.0804734 100.24291992 162.06689453 C99.0418309 162.07697037 97.84074188 162.0870462 96.60325623 162.09742737 C93.32814549 162.12094617 90.05337834 162.13095429 86.77819347 162.13287473 C84.72570326 162.13501652 82.67327175 162.14143883 80.6207962 162.14936638 C73.44222759 162.1770709 66.26382538 162.18937834 59.08520508 162.18701172 C52.4230312 162.18521167 45.76158784 162.21683447 39.09959865 162.26424271 C33.3557385 162.30364173 27.61211541 162.31955621 21.86812139 162.31764549 C18.44816283 162.31688542 15.02885405 162.32516298 11.60903168 162.35717964 C7.7871688 162.38675483 3.9671599 162.3778799 0.14526367 162.35986328 C-0.96786697 162.3767218 -2.08099762 162.39358032 -3.2278595 162.41094971 C-12.91033859 162.29564859 -21.25346088 158.95728888 -28.50219727 152.44360352 C-35.31845022 144.86711341 -37.31247424 136.11596438 -37.22753906 126.19970703 C-37.23790695 125.11522278 -37.24827484 124.03073853 -37.25895691 122.91339111 C-37.28585346 119.36186858 -37.27640122 115.81159608 -37.26391602 112.26000977 C-37.26983194 109.77098754 -37.27708158 107.28196817 -37.28559875 104.79295349 C-37.29744895 99.58903115 -37.29082082 94.38553733 -37.27148438 89.18164062 C-37.24860568 82.53624447 -37.27538439 75.8921277 -37.31654644 69.24685764 C-37.34220782 64.11044234 -37.33952159 58.97432974 -37.32865334 53.83787346 C-37.32717359 51.38883236 -37.33477561 48.93976725 -37.35190392 46.4907856 C-37.49656625 21.80226403 -37.49656625 21.80226403 -30.56469727 12.63110352 C-30.05239059 11.94863052 -29.54008392 11.26615753 -29.01225281 10.56300354 C-21.37999014 1.83684614 -11.06597659 -0.11618848 0 0 Z M-6.27794838 30.89797211 C-7.83851008 32.99990398 -7.94150253 34.056808 -7.94564819 36.6541748 C-7.95410767 37.47013626 -7.96256714 38.28609772 -7.97128296 39.12678528 C-7.96521027 40.01830795 -7.95913757 40.90983063 -7.95288086 41.82836914 C-7.95813782 42.77008469 -7.96339478 43.71180023 -7.96881104 44.68205261 C-7.98203479 47.80065405 -7.97326444 50.91874672 -7.96313477 54.03735352 C-7.96515481 56.2006439 -7.96806567 58.36393363 -7.97183228 60.52722168 C-7.97625885 65.06337969 -7.96981374 69.5993606 -7.95581055 74.13549805 C-7.9387186 79.95662786 -7.94855798 85.77734275 -7.96652794 91.59845734 C-7.97735669 96.06621439 -7.97392359 100.5338727 -7.96614456 105.00163269 C-7.96414004 107.14829049 -7.96661061 109.2949572 -7.97358322 111.44160461 C-7.98118265 114.43925807 -7.96961444 117.43623496 -7.95288086 120.43383789 C-7.95895355 121.32536057 -7.96502625 122.21688324 -7.97128296 123.13542175 C-7.96282349 123.95138321 -7.95436401 124.76734467 -7.94564819 125.60803223 C-7.94451712 126.31668175 -7.94338604 127.02533127 -7.94222069 127.75545502 C-7.43608609 130.27008203 -6.63291818 131.1354704 -4.56469727 132.63110352 C-2.43518006 133.07801652 -2.43518006 133.07801652 -0.04136658 133.00532532 C1.34881935 133.01584679 1.34881935 133.01584679 2.76708984 133.02658081 C3.78174316 133.01893707 4.79639648 133.01129333 5.84179688 133.00341797 C6.91191513 133.00706863 7.98203339 133.0107193 9.08457947 133.01448059 C12.63003289 133.02260211 16.17503162 133.00896319 19.72045898 132.99438477 C22.17760722 132.99386639 24.63475587 132.99438321 27.09190369 132.99589539 C32.24427472 132.99580559 37.3964895 132.98536082 42.54882812 132.96728516 C49.16589187 132.94458598 55.78272741 132.94405532 62.39981937 132.9508028 C67.47401471 132.95413785 72.54815765 132.94752165 77.62234306 132.93767357 C80.06288822 132.93381415 82.5034392 132.9326764 84.94398689 132.93425941 C88.34883946 132.93462865 91.753395 132.9220499 95.15820312 132.90576172 C96.68321945 132.90947784 96.68321945 132.90947784 98.23904419 132.91326904 C99.62500038 132.90264183 99.62500038 132.90264183 101.03895569 132.89179993 C102.24711236 132.88872062 102.24711236 132.88872062 103.47967625 132.88557911 C105.67035037 132.80269074 105.67035037 132.80269074 107.43530273 130.63110352 C107.63434545 127.50755362 107.70791136 124.47261807 107.6940918 121.34790039 C107.69759644 120.38521744 107.70110107 119.42253448 107.70471191 118.43067932 C107.71354051 115.23699815 107.70767607 112.04353709 107.70092773 108.84985352 C107.70227406 106.63789833 107.70421432 104.42594343 107.70672607 102.21398926 C107.70967887 97.57353911 107.70537468 92.93316584 107.69604492 88.29272461 C107.68465034 82.33366527 107.69120898 76.37478606 107.70318985 70.41573334 C107.71040424 65.8468082 107.70812245 61.27792604 107.70293427 56.70899963 C107.7015966 54.51127603 107.70324954 52.31354857 107.70789337 50.11582947 C107.71295167 47.04854952 107.70525812 43.98156453 107.6940918 40.91430664 C107.69814026 39.99891617 107.70218872 39.0835257 107.70635986 38.14039612 C107.91200393 33.40069043 107.91200393 33.40069043 105.43530273 29.63110352 C102.52594694 29.48592608 99.71535673 29.44479556 96.81030273 29.50610352 C96.00850586 29.51512695 95.20670898 29.52415039 94.38061523 29.53344727 C92.39871751 29.55704129 90.41697293 29.59291287 88.43530273 29.63110352 C88.43119385 30.49799805 88.42708496 31.36489258 88.42285156 32.25805664 C88.39570264 35.50897717 88.34644066 38.75863958 88.28271484 42.0090332 C88.25967766 43.40930758 88.24517293 44.80975172 88.23974609 46.21020508 C88.1751845 60.13564322 88.1751845 60.13564322 84.08642578 66.13305664 C78.22424151 71.45175584 71.95123426 71.08450071 64.46655273 71.06469727 C63.31288208 71.06993912 62.15921143 71.07518097 60.97058105 71.08058167 C58.53646651 71.08699232 56.10232094 71.08567731 53.66821289 71.07714844 C49.94808768 71.06863278 46.22949537 71.09742511 42.50952148 71.12915039 C40.14103236 71.13076241 37.77254052 71.13018486 35.40405273 71.12719727 C34.29453247 71.13843124 33.18501221 71.14966522 32.04187012 71.16123962 C25.86432555 71.1055858 22.09914569 70.827897 17.43530273 66.63110352 C13.16924589 61.0967595 12.34524581 57.18937966 12.11889648 50.33422852 C12.07700195 49.12895508 12.03510742 47.92368164 11.99194336 46.68188477 C11.95262695 45.42762695 11.91331055 44.17336914 11.87280273 42.88110352 C11.82961914 41.61137695 11.78643555 40.34165039 11.74194336 39.03344727 C11.63590551 35.89943986 11.53384216 32.76535418 11.43530273 29.63110352 C8.83051391 29.55017222 6.2282362 29.49064918 3.62280273 29.44360352 C2.88481445 29.4184668 2.14682617 29.39333008 1.38647461 29.36743164 C-2.6986764 29.21340349 -2.6986764 29.21340349 -6.27794838 30.89797211 Z M41.43530273 29.63110352 C41.43530273 33.92110352 41.43530273 38.21110352 41.43530273 42.63110352 C47.04530273 42.63110352 52.65530273 42.63110352 58.43530273 42.63110352 C58.43530273 38.34110352 58.43530273 34.05110352 58.43530273 29.63110352 C52.82530273 29.63110352 47.21530273 29.63110352 41.43530273 29.63110352 Z " fill="#000000" transform="translate(125.564697265625,130.368896484375)"/>
<path d="M0 0 C1.45930435 -0.01279495 1.45930435 -0.01279495 2.9480896 -0.02584839 C4.0089679 -0.02494202 5.06984619 -0.02403564 6.16287231 -0.02310181 C7.28523285 -0.02981903 8.40759338 -0.03653625 9.56396484 -0.04345703 C13.27943329 -0.0624769 16.99472148 -0.06636324 20.7102356 -0.06851196 C23.29089432 -0.07493697 25.8715523 -0.08166511 28.45220947 -0.08868408 C33.86424762 -0.10066675 39.27621415 -0.10444947 44.68826294 -0.10317993 C50.93678089 -0.10197874 57.1849533 -0.12307747 63.43338382 -0.15466726 C69.45193321 -0.18400675 75.47029548 -0.19115509 81.48892593 -0.18996048 C84.0461989 -0.19232173 86.60347437 -0.20117459 89.16070175 -0.21662521 C92.73723811 -0.2362112 96.31288425 -0.23047531 99.88943481 -0.21841431 C100.94626465 -0.22965332 102.00309448 -0.24089233 103.09194946 -0.25247192 C109.11008157 -0.20087714 112.56237707 0.27292179 117.1555481 4.26742554 C120.75565505 8.22754319 120.66184005 12.48264648 120.50320435 17.60726929 C120.00461135 21.42234604 118.79286003 23.49130771 116.1555481 26.26742554 C110.62514404 29.94604454 105.4198479 29.69909532 99.01296997 29.67147827 C97.34362144 29.68177315 97.34362144 29.68177315 95.64054871 29.692276 C91.96833476 29.71055099 88.29654769 29.70670568 84.6242981 29.70101929 C82.06891745 29.70558036 79.51353803 29.71088571 76.9581604 29.71690369 C71.60511716 29.72583593 66.25222908 29.72364409 60.89920044 29.71347046 C54.71992196 29.70198571 48.54107732 29.71607477 42.36185598 29.74286693 C36.40524755 29.76772236 30.4487736 29.77019764 24.49211121 29.76375008 C21.96275612 29.76359667 19.43339276 29.76965663 16.90406799 29.78204155 C13.36842539 29.79691616 9.83373887 29.78629948 6.29812622 29.76913452 C5.25378922 29.77880249 4.20945221 29.78847046 3.13346863 29.7984314 C-2.84496935 29.73764512 -6.28969398 29.24984807 -10.8444519 25.26742554 C-13.81620201 21.4758823 -14.59261751 18.05227893 -14.8444519 13.26742554 C-13.837901 8.69219418 -12.05448915 5.6662885 -8.8444519 2.26742554 C-5.81425268 0.40643636 -3.53202759 0.0140273 0 0 Z " fill="#000000" transform="translate(302.8444519042969,171.73257446289063)"/>
<path d="M0 0 C1.9227475 -0.01925285 1.9227475 -0.01925285 3.88433838 -0.03889465 C5.29105239 -0.0470631 6.69777077 -0.05450663 8.10449219 -0.0612793 C8.81228569 -0.06535482 9.52007919 -0.06943035 10.24932098 -0.07362938 C13.99742847 -0.09449368 17.74549934 -0.10879237 21.49365234 -0.11816406 C25.35848236 -0.12921425 29.22273434 -0.16359615 33.08736038 -0.20333576 C36.06430096 -0.22953157 39.04110463 -0.2378586 42.01815033 -0.24144554 C43.44226728 -0.24630589 44.86637834 -0.25790431 46.29038239 -0.27648354 C48.28849838 -0.30092746 50.28689584 -0.29748502 52.28515625 -0.29296875 C53.42051819 -0.29883499 54.55588013 -0.30470123 55.72564697 -0.31074524 C60.34839588 0.39924577 63.34354509 2.72661586 66.71386719 5.86450195 C69.28968645 10.88057105 69.35213923 15.6493856 67.77636719 20.98950195 C65.46016849 24.92703973 62.96571912 27.14482599 58.90136719 29.17700195 C56.87072114 29.28902454 54.83639112 29.33632143 52.80273438 29.35400391 C51.52090271 29.36683914 50.23907104 29.37967438 48.918396 29.39289856 C47.51168199 29.401067 46.10496361 29.40851054 44.69824219 29.4152832 C43.99044868 29.41935873 43.28265518 29.42343426 42.55341339 29.42763329 C38.8053059 29.44849758 35.05723504 29.46279627 31.30908203 29.47216797 C27.44425201 29.48321816 23.58000003 29.51760005 19.71537399 29.55733967 C16.73843341 29.58353547 13.76162974 29.5918625 10.78458405 29.59544945 C9.3604671 29.6003098 7.93635604 29.61190822 6.51235199 29.63048744 C4.51423599 29.65493137 2.51583853 29.65148893 0.51757812 29.64697266 C-0.61778381 29.6528389 -1.75314575 29.65870514 -2.9229126 29.66474915 C-7.55850528 28.95278551 -10.58529757 26.63815322 -13.91113281 23.42700195 C-16.03786704 19.39740025 -16.55719893 15.43707783 -15.66113281 11.02075195 C-14.14491378 6.4031758 -12.28272547 3.85911263 -8.09863281 1.17700195 C-5.33923131 -0.2026988 -3.08821092 0.02685174 0 0 Z " fill="#000000" transform="translate(304.0986328125,221.822998046875)"/>
</svg>
