<?xml version="1.0" encoding="UTF-8"?>
<svg version="1.1" xmlns="http://www.w3.org/2000/svg" width="512" height="512">
<path d="M0 0 C0.74698179 -0.00265183 1.49396358 -0.00530365 2.26358119 -0.00803584 C4.78067094 -0.0157295 7.29771192 -0.01628804 9.81481266 -0.01688576 C11.63216259 -0.02090035 13.44951163 -0.02533857 15.26685959 -0.03016531 C20.27221919 -0.04213726 25.27756915 -0.04778072 30.28294027 -0.05234647 C35.6771768 -0.05830028 41.07140178 -0.06991075 46.46563053 -0.08063698 C59.4993609 -0.10516713 72.5330951 -0.11978959 85.56684145 -0.13269705 C89.24805315 -0.13640871 92.92926446 -0.14038197 96.61047578 -0.14444971 C119.46869421 -0.16968734 142.32691323 -0.19174121 165.18514252 -0.20417786 C170.48064965 -0.20710757 175.77615677 -0.21006923 181.07166386 -0.21308327 C182.38784354 -0.21382932 183.70402323 -0.21457537 185.06008715 -0.21534403 C206.37770006 -0.22799552 227.69521259 -0.26121535 249.01278996 -0.3028851 C270.89793009 -0.34531362 292.78302751 -0.36887401 314.66820866 -0.37409842 C326.95633484 -0.37751162 339.24433065 -0.38925614 351.53241634 -0.42220116 C361.99859391 -0.45021543 372.46461439 -0.4611949 382.93082654 -0.4500057 C388.26916785 -0.44482253 393.60718024 -0.44768392 398.94547367 -0.47247124 C403.83808051 -0.494999 408.73012283 -0.49419628 413.6227398 -0.47526737 C415.387316 -0.47247231 417.15193077 -0.47803823 418.91644507 -0.4930803 C434.69485853 -0.61930104 446.57050812 2.60746298 458.31311893 13.71904564 C464.81091464 20.60201996 469.76880684 30.21389738 469.76429176 39.76780891 C469.76628263 40.69916412 469.76827351 41.63051933 469.77032471 42.59009743 C469.76741204 43.60925617 469.76449938 44.62841492 469.76149845 45.67845726 C469.76235447 46.76139565 469.76321049 47.84433403 469.76409245 48.96008873 C469.76575206 52.61250499 469.76021679 56.26487574 469.75476933 59.91728783 C469.75446311 62.57103768 469.75455185 65.22478479 469.75513458 67.87853432 C469.75566652 74.27635177 469.75104648 80.6741552 469.74463325 87.07196905 C469.73743778 94.47141914 469.73663875 101.8708608 469.73584843 109.27031517 C469.73059649 128.80921713 469.7166354 148.34811597 469.70374393 167.88701439 C469.68311893 211.52951439 469.66249393 255.17201439 469.64124393 300.13701439 C300.68124393 300.13701439 131.72124393 300.13701439 -42.35875607 300.13701439 C-42.46188107 256.68013939 -42.56500607 213.22326439 -42.67125607 168.44951439 C-42.71677608 154.73300316 -42.7622961 141.01649193 -42.80919552 126.88432884 C-42.83177853 110.1217556 -42.83177853 110.1217556 -42.83597469 102.27194786 C-42.84062886 96.79490849 -42.8589332 91.31811741 -42.88663387 85.84116173 C-42.91857018 79.51733516 -42.93291041 73.1937536 -42.92598082 66.86984588 C-42.92298205 63.63811176 -42.93040419 60.40703184 -42.95483172 57.17537367 C-43.08808998 38.68198218 -41.99779202 25.43703263 -28.77672482 11.46513939 C-20.77416084 3.91040746 -10.84652891 -0.0186959 0 0 Z M142.14124393 50.69951439 C139.17222108 55.52417652 139.02058096 59.52518663 139.64124393 65.13701439 C141.83468204 69.60512904 144.1282953 72.04564795 148.64124393 74.13701439 C153.20685857 75.33665697 157.75220609 75.35610397 162.44202518 75.45342064 C163.69658764 75.48459229 163.69658764 75.48459229 164.97649479 75.51639366 C167.63549815 75.58152473 170.29459621 75.64060389 172.95374393 75.69951439 C174.76169625 75.74273431 176.56963915 75.78634969 178.37757206 75.83037376 C182.79870015 75.93716855 187.21992306 76.03853764 191.64124393 76.13701439 C191.77762933 76.8263157 191.91401472 77.51561701 192.054533 78.22580624 C195.37645407 95.01222853 198.70693205 111.79693033 202.04689598 128.579772 C203.66188357 136.69592778 205.27398962 144.81263592 206.87928104 152.93071556 C208.2787606 160.00795046 209.68367912 167.08408023 211.09508866 174.15894598 C211.84195226 177.90367626 212.58611553 181.64889699 213.32376385 185.39545441 C214.01884347 188.92534853 214.72121366 192.4537147 215.42908192 195.98106575 C215.80941191 197.88594908 216.18210356 199.79235256 216.55452824 201.69879723 C218.93212605 213.82308151 218.93212605 213.82308151 226.64124393 223.13701439 C230.80376507 224.69795981 234.23875486 225.21993798 238.64124393 225.13701439 C238.61804081 226.13861595 238.59483768 227.14021751 238.57093143 228.17217064 C238.55215604 229.51461103 238.53395776 230.85705957 238.51624393 232.19951439 C238.49304081 233.51049095 238.46983768 234.82146751 238.44593143 236.17217064 C238.71762154 241.68747984 239.42478829 245.73341172 243.07874393 249.94951439 C247.69216776 253.88780302 250.23142806 254.58247319 256.13343143 254.45342064 C259.83346307 253.98659422 261.89938091 252.61137859 264.64124393 250.13701439 C270.28337593 242.54931964 268.64124393 234.59756339 268.64124393 225.13701439 C291.74124393 225.13701439 314.84124393 225.13701439 338.64124393 225.13701439 C338.64124393 230.08701439 338.64124393 235.03701439 338.64124393 240.13701439 C340.78006918 247.62290276 342.4119469 249.9841497 348.64124393 254.13701439 C353.58493025 254.86878207 357.57698195 254.65947027 362.07874393 252.44951439 C366.16670979 248.76037447 367.82348403 245.51936138 368.64124393 240.13701439 C368.70898537 237.52219481 368.73624652 234.93722183 368.70374393 232.32451439 C368.69697636 231.28520775 368.69697636 231.28520775 368.69007206 230.22490501 C368.6783755 228.52890371 368.66044318 226.83294736 368.64124393 225.13701439 C369.61964237 225.09834251 369.61964237 225.09834251 370.61780643 225.05888939 C376.35397214 224.68663085 380.17000097 224.06298382 384.64124393 220.13701439 C387.95371965 215.68582437 388.76325689 210.98433217 389.81775761 205.65605736 C390.11102184 204.23306076 390.11102184 204.23306076 390.41021061 202.78131676 C391.05289758 199.64916644 391.68153114 196.5143911 392.30921268 193.37920189 C392.75280342 191.19298863 393.19692866 189.00688376 393.64156437 186.8208828 C394.57150175 182.23740132 395.49439734 177.65257125 396.41248417 173.06670189 C397.58563997 167.21005091 398.776905 161.35726008 399.97365189 155.50539017 C400.8949946 150.98914221 401.80617493 146.47088868 402.71441936 141.95199013 C403.14937373 139.79454143 403.58752665 137.63773489 404.02902126 135.48161507 C404.64735664 132.45449982 405.25180069 129.42491434 405.85291386 126.39433861 C406.12636631 125.07685883 406.12636631 125.07685883 406.40534306 123.73276329 C407.82740709 116.43891438 409.26162174 108.49779799 405.95374393 101.63701439 C401.34994005 96.65992911 397.05814802 95.28329778 390.40228653 94.99834919 C389.16800572 94.99189664 387.93372492 94.98544409 386.66204166 94.97879601 C385.97173274 94.97385803 385.28142382 94.96892005 384.57019645 94.96383244 C382.2640473 94.94851109 379.95792588 94.94011143 377.65174198 94.93169212 C375.99585064 94.92210938 374.33996173 94.91209906 372.68407536 94.90169334 C368.19279468 94.87468118 363.70150353 94.85365165 359.21018672 94.83369136 C354.51497066 94.81180905 349.81978672 94.78443134 345.1245966 94.75763512 C336.23537291 94.70773859 327.34613136 94.66278848 318.45687276 94.61961275 C308.33600918 94.5702144 298.21517784 94.5153059 288.09434545 94.45993316 C267.27667499 94.34615978 246.45897374 94.23931063 225.64124393 94.13701439 C225.42508427 92.99224632 225.2089246 91.84747826 224.98621464 90.66802025 C224.1744897 86.39479346 223.33962469 82.12635467 222.49793339 77.85893822 C222.13782694 76.01640166 221.78388751 74.1726481 221.43640995 72.32768822 C220.93389543 69.6655834 220.40886949 67.00874162 219.87952518 64.35185814 C219.73034138 63.53490974 219.58115757 62.71796135 219.42745304 61.87625694 C218.26446627 56.19714477 216.34684502 52.61478896 212.64124393 48.13701439 C206.69872751 44.29881526 198.9606461 44.69793707 192.14124393 44.73857689 C191.06552128 44.73570671 189.98979862 44.73283653 188.88147831 44.72987938 C186.61910313 44.72784826 184.35671 44.73331102 182.09436893 44.74590111 C178.65125733 44.76196766 175.20931947 44.74601909 171.76624393 44.72685814 C169.55790804 44.72884074 167.34957286 44.73268476 165.14124393 44.73857689 C164.12224003 44.7325042 163.10323612 44.7264315 162.05335331 44.72017479 C154.72964629 44.79147705 147.47114656 45.2363642 142.14124393 50.69951439 Z M21.64124393 161.13701439 C18.92048348 165.60478945 18.99029879 170.0499986 19.64124393 175.13701439 C21.83468204 179.60512904 24.1282953 182.04564795 28.64124393 184.13701439 C32.34129155 185.05117836 35.80078347 185.26824738 39.6055994 185.28227806 C41.37300983 185.29184784 41.37300983 185.29184784 43.17612553 185.30161095 C44.44078648 185.30272377 45.70544743 185.30383659 47.00843143 185.30498314 C48.9705608 185.30997574 48.9705608 185.30997574 50.97232914 185.3150692 C53.7377896 185.32104463 56.50321888 185.32291073 59.26868534 185.32231712 C62.79797312 185.32221559 66.32705933 185.33586565 69.8562994 185.35308933 C73.2403462 185.36693627 76.6243567 185.36629943 80.00843143 185.36748314 C81.89935017 185.37826141 81.89935017 185.37826141 83.82846928 185.38925743 C94.42420746 185.5553034 94.42420746 185.5553034 103.45374393 180.69951439 C107.39203257 176.08609056 108.08670274 173.54683026 107.95765018 167.64482689 C107.49082376 163.94479526 106.11560813 161.87887742 103.64124393 159.13701439 C98.62953507 155.41035908 93.7829431 155.01426747 87.67688847 154.99175072 C85.90947803 154.98218094 85.90947803 154.98218094 84.10636234 154.97241783 C82.84170139 154.97130501 81.57704044 154.97019218 80.27405643 154.96904564 C78.96597019 154.96571724 77.65788395 154.96238884 76.31015873 154.95895958 C73.54469827 154.95298415 70.77926899 154.95111805 68.01380253 154.95171165 C64.48451475 154.95181319 60.95542854 154.93816313 57.42618847 154.92093945 C54.04214167 154.90709251 50.65813117 154.90772935 47.27405643 154.90654564 C45.3831377 154.89576736 45.3831377 154.89576736 43.45401859 154.88477135 C31.50655165 154.90693812 31.50655165 154.90693812 21.64124393 161.13701439 Z M141.64124393 161.13701439 C138.88333463 165.56077495 138.99402156 170.07909139 139.64124393 175.13701439 C141.80423231 179.54310182 144.03804872 182.33576409 148.64124393 184.13701439 C153.68449777 184.82127496 157.47201278 184.71100059 162.07874393 182.44951439 C165.43780405 179.41816745 167.33480024 177.39561791 167.95765018 172.80498314 C168.22338046 167.0874963 167.60971545 163.53450985 163.64124393 159.13701439 C159.84207727 155.78480851 156.04055428 155.56912453 151.14905643 155.71513939 C147.18300577 156.38232548 144.35728199 158.20492786 141.64124393 161.13701439 Z M21.64124393 221.13701439 C18.92048348 225.60478945 18.99029879 230.0499986 19.64124393 235.13701439 C21.83468204 239.60512904 24.1282953 242.04564795 28.64124393 244.13701439 C32.34129155 245.05117836 35.80078347 245.26824738 39.6055994 245.28227806 C41.37300983 245.29184784 41.37300983 245.29184784 43.17612553 245.30161095 C44.44078648 245.30272377 45.70544743 245.30383659 47.00843143 245.30498314 C48.9705608 245.30997574 48.9705608 245.30997574 50.97232914 245.3150692 C53.7377896 245.32104463 56.50321888 245.32291073 59.26868534 245.32231712 C62.79797312 245.32221559 66.32705933 245.33586565 69.8562994 245.35308933 C73.2403462 245.36693627 76.6243567 245.36629943 80.00843143 245.36748314 C81.89935017 245.37826141 81.89935017 245.37826141 83.82846928 245.38925743 C94.42420746 245.5553034 94.42420746 245.5553034 103.45374393 240.69951439 C107.39203257 236.08609056 108.08670274 233.54683026 107.95765018 227.64482689 C107.49082376 223.94479526 106.11560813 221.87887742 103.64124393 219.13701439 C98.62953507 215.41035908 93.7829431 215.01426747 87.67688847 214.99175072 C85.90947803 214.98218094 85.90947803 214.98218094 84.10636234 214.97241783 C82.84170139 214.97130501 81.57704044 214.97019218 80.27405643 214.96904564 C78.96597019 214.96571724 77.65788395 214.96238884 76.31015873 214.95895958 C73.54469827 214.95298415 70.77926899 214.95111805 68.01380253 214.95171165 C64.48451475 214.95181319 60.95542854 214.93816313 57.42618847 214.92093945 C54.04214167 214.90709251 50.65813117 214.90772935 47.27405643 214.90654564 C45.3831377 214.89576736 45.3831377 214.89576736 43.45401859 214.88477135 C31.50655165 214.90693812 31.50655165 214.90693812 21.64124393 221.13701439 Z M141.64124393 221.13701439 C138.88333463 225.56077495 138.99402156 230.07909139 139.64124393 235.13701439 C141.80423231 239.54310182 144.03804872 242.33576409 148.64124393 244.13701439 C153.68449777 244.82127496 157.47201278 244.71100059 162.07874393 242.44951439 C165.43780405 239.41816745 167.33480024 237.39561791 167.95765018 232.80498314 C168.22338046 227.0874963 167.60971545 223.53450985 163.64124393 219.13701439 C159.84207727 215.78480851 156.04055428 215.56912453 151.14905643 215.71513939 C147.18300577 216.38232548 144.35728199 218.20492786 141.64124393 221.13701439 Z " fill="#002774" transform="translate(42.35875606536865,20.862985610961914)"/>
<path d="M0 0 C168.96 0 337.92 0 512 0 C512 35.50959488 512 35.50959488 502 46 C494.21811228 52.53421316 487.23188599 55.31608414 476.9954319 55.25726891 C476.21508784 55.26077498 475.43474377 55.26428105 474.63075292 55.26789337 C472.01821892 55.27719076 469.40590865 55.27228837 466.79336548 55.26742554 C464.90045311 55.27116262 463.00754229 55.27576437 461.11463392 55.28115618 C455.91448481 55.29339417 450.71440001 55.29312477 445.51423979 55.29076743 C439.90540289 55.29035947 434.29658667 55.30139633 428.6877594 55.31088257 C417.70005388 55.3274974 406.71236981 55.33299231 395.72465278 55.33410732 C386.79468703 55.33505747 377.86472837 55.33916608 368.93476486 55.34550858 C347.74080476 55.36025544 326.54684976 55.37255819 305.35288429 55.37151146 C304.67524051 55.3714803 303.99759673 55.37144914 303.29941829 55.37141704 C299.86488962 55.37125083 296.43036095 55.37105275 292.99583228 55.37084763 C291.97267905 55.37078779 291.97267905 55.37078779 290.92885606 55.37072675 C289.54948006 55.37064587 288.17010405 55.37056228 286.79072805 55.37047596 C265.32725515 55.36925031 243.86384544 55.38426711 222.40039062 55.41162109 C198.28299482 55.44234476 174.16565138 55.45952812 150.04823053 55.45769465 C137.27963858 55.45703028 124.5111179 55.46254352 111.74254227 55.48405075 C100.87265847 55.50224244 90.00287825 55.50662632 79.13298585 55.4930319 C73.58656989 55.48649244 68.04035277 55.48642057 62.49395561 55.5037384 C57.4160815 55.51943041 52.33856451 55.51664499 47.26069932 55.49917014 C45.42428524 55.49609175 43.58784477 55.49976413 41.75146182 55.51089029 C24.12956676 55.61058115 24.12956676 55.61058115 17 51 C16.28532519 50.55462179 15.57065038 50.10924357 14.83431876 49.65036905 C7.19188376 44.67571905 2.83414866 37.50244599 0 29 C0 19.43 0 9.86 0 0 Z " fill="#002774" transform="translate(0,351)"/>
<path d="M0 0 C56.1 0 112.2 0 170 0 C170 8.25 170 16.5 170 25 C172.16820312 24.95359375 174.33640625 24.9071875 176.5703125 24.859375 C178.68519758 24.82812284 180.8000563 24.80386762 182.91503906 24.78027344 C184.37772252 24.76023668 185.84032666 24.73299896 187.30273438 24.69824219 C189.4129601 24.64936775 191.52212136 24.62695341 193.6328125 24.609375 C194.90012207 24.58842773 196.16743164 24.56748047 197.47314453 24.54589844 C202.56919155 25.20204183 205.72004694 27.35202661 208.84765625 31.37890625 C210.93568681 36.12829103 210.61920957 40.92248151 210 46 C207.82768265 50.5860033 205.56224683 52.87185253 201 55 C197.87625442 55.43609292 194.78142326 55.40909448 191.63148499 55.38768005 C190.68406211 55.39306559 189.73663923 55.39845113 188.76050657 55.40399987 C185.5837768 55.41831482 182.40746165 55.41116689 179.23071289 55.40405273 C176.95402185 55.40975443 174.67733368 55.41671791 172.40065002 55.42485046 C166.21474901 55.44281886 160.02898956 55.44160655 153.84307027 55.43590808 C148.68134773 55.43282161 143.51965259 55.43890264 138.35793394 55.44494683 C125.48596932 55.45980642 112.61410425 55.45616835 99.7421435 55.44408352 C88.56582683 55.43415102 77.38967571 55.44709185 66.21338458 55.47101771 C54.7345062 55.495406 43.25573416 55.50461747 31.77682489 55.49836498 C25.33350068 55.49499046 18.89031326 55.49744353 12.44700813 55.51461601 C6.38866702 55.53005727 0.33064255 55.52616064 -5.72768593 55.50731087 C-7.95211094 55.50361723 -10.17655926 55.50675588 -12.40096283 55.51719666 C-15.43584299 55.53035484 -18.46966694 55.51890437 -21.50450134 55.50120544 C-22.3863137 55.51081045 -23.26812606 55.52041546 -24.17666 55.53031152 C-29.59884481 55.46517786 -32.69906661 54.61085363 -37 51 C-41.05630398 45.77740143 -40.77397544 40.34659858 -40 34 C-37.82260219 29.40327129 -35.52943931 27.20194743 -31 25 C-27.58666992 24.65942383 -27.58666992 24.65942383 -23.73046875 24.70703125 C-22.70896477 24.71339851 -22.70896477 24.71339851 -21.66682434 24.71989441 C-19.50663541 24.7365939 -17.34740358 24.77422688 -15.1875 24.8125 C-13.71681042 24.82755826 -12.24610611 24.84124466 -10.77539062 24.85351562 C-7.18293466 24.88390865 -3.59252966 24.9426385 0 25 C0 16.75 0 8.5 0 0 Z " fill="#002774" transform="translate(171,436)"/>
<path d="M0 0 C47.52 0 95.04 0 144 0 C143.40685514 5.33830371 142.83921647 10.30560341 141.80078125 15.51367188 C141.44536255 17.30967834 141.44536255 17.30967834 141.08276367 19.14196777 C140.70148315 21.03622498 140.70148315 21.03622498 140.3125 22.96875 C140.04705761 24.29866131 139.78184346 25.62861819 139.5168457 26.95861816 C138.96457133 29.72584816 138.40955547 32.49250982 137.85253906 35.25878906 C137.13773724 38.80983925 136.42994089 42.36224445 135.72413635 45.91509247 C135.17960196 48.6521756 134.63142623 51.3885194 134.0821228 54.12464905 C133.69174824 56.07255202 133.30447505 58.0210757 132.91723633 59.96960449 C132.56181763 61.72778503 132.56181763 61.72778503 132.19921875 63.52148438 C131.99127686 64.55801147 131.78333496 65.59453857 131.5690918 66.66247559 C131 69 131 69 130 70 C128.49448826 70.09575309 126.9844897 70.12188187 125.47593689 70.12025452 C124.00981209 70.12231651 124.00981209 70.12231651 122.5140686 70.12442017 C121.43297821 70.12082489 120.35188782 70.11722961 119.23803711 70.11352539 C117.54069679 70.11374443 117.54069679 70.11374443 115.80906677 70.1139679 C112.04847329 70.11326819 108.28792863 70.10547311 104.52734375 70.09765625 C101.92802457 70.09579227 99.32870503 70.09436828 96.72938538 70.09336853 C90.57411423 70.08993341 84.4188634 70.08204256 78.26359993 70.07201904 C71.25766654 70.06085694 64.25173233 70.05534721 57.24579227 70.05032361 C42.83051867 70.03985992 28.41525996 70.02226108 14 70 C12.59320032 65.98476608 11.50796435 62.04464559 10.67138672 57.87451172 C10.43128876 56.68663055 10.1911908 55.49874939 9.94381714 54.27487183 C9.69165436 53.005961 9.43949158 51.73705017 9.1796875 50.4296875 C8.91372756 49.10258559 8.64753937 47.77552941 8.38113403 46.44851685 C7.82564442 43.67694541 7.27292132 40.90484058 6.72216797 38.13232422 C6.0168146 34.58271851 5.30453635 31.0345442 4.59019279 27.4867382 C4.04008274 24.75065096 3.49364322 22.0138406 2.94830704 19.27679825 C2.5603774 17.333195 2.16935643 15.39020959 1.77828979 13.44723511 C1.54449615 12.26565826 1.31070251 11.08408142 1.06982422 9.86669922 C0.86267792 8.82778534 0.65553162 7.78887146 0.44210815 6.71847534 C0 4 0 4 0 0 Z " fill="#002774" transform="translate(274,146)"/>
</svg>
