<?xml version="1.0" encoding="UTF-8"?>
<svg version="1.1" xmlns="http://www.w3.org/2000/svg" width="512" height="512">
<path d="M0 0 C168.96 0 337.92 0 512 0 C512 168.96 512 337.92 512 512 C343.04 512 174.08 512 0 512 C0 343.04 0 174.08 0 0 Z M31 31 C31 60.37 31 89.74 31 120 C179.5 120 328 120 481 120 C481 90.63 481 61.26 481 31 C332.5 31 184 31 31 31 Z M31 151 C31 259.9 31 368.8 31 481 C179.5 481 328 481 481 481 C481 372.1 481 263.2 481 151 C332.5 151 184 151 31 151 Z " fill="#000000" transform="translate(0,0)"/>
<path d="M0 0 C10.23 0 20.46 0 31 0 C31 9.9 31 19.8 31 30 C50.8 30 70.6 30 91 30 C91 40.23 91 50.46 91 61 C81.1 61 71.2 61 61 61 C61 64.63 61 68.26 61 72 C58.61472194 85.71534886 54.10211636 100.89788364 44 111 C51.74132962 114.68695077 59.41252592 118.00364239 67.515625 120.82421875 C68.33546875 121.21222656 69.1553125 121.60023438 70 122 C71.30810831 125.92432493 70.3611654 127.18020315 68.76171875 130.9453125 C68.27123047 132.10417969 67.78074219 133.26304687 67.27539062 134.45703125 C66.75138672 135.66746094 66.22738281 136.87789062 65.6875 138.125 C65.16918867 139.35516008 64.65160179 140.58562567 64.13476562 141.81640625 C60.26512097 150.86743952 60.26512097 150.86743952 58 152 C55.09432419 150.95601955 52.28674361 149.84047646 49.44921875 148.6328125 C48.59826126 148.27863251 47.74730377 147.92445251 46.87055969 147.55953979 C44.13974922 146.42200563 41.41338511 145.27428172 38.6875 144.125 C35.97190302 142.98394438 33.25541179 141.84519977 30.53657532 140.71188354 C28.84283319 140.00549923 27.15100204 139.29451098 25.46134949 138.57839966 C18.4733521 135.37831736 18.4733521 135.37831736 11.08422852 135.90869141 C10.02647217 136.38483887 8.96871582 136.86098633 7.87890625 137.3515625 C6.69490234 137.87363281 5.51089844 138.39570313 4.29101562 138.93359375 C3.04781447 139.49659582 1.80497648 140.06040048 0.5625 140.625 C-8.86224463 144.84200164 -18.23026396 148.66891933 -28 152 C-31.13280495 145.96017785 -33.76534575 139.83126712 -36.25 133.5 C-36.61351563 132.5821875 -36.97703125 131.664375 -37.3515625 130.71875 C-38.23757333 128.48040685 -39.12031257 126.24083407 -40 124 C-37.07917622 121.63055622 -34.28216393 120.13644948 -30.796875 118.73828125 C-29.8171875 118.34189453 -28.8375 117.94550781 -27.828125 117.53710938 C-26.81234375 117.13298828 -25.7965625 116.72886719 -24.75 116.3125 C-23.203125 115.68891602 -23.203125 115.68891602 -21.625 115.05273438 C-19.08541146 114.02984455 -16.54375098 113.01248401 -14 112 C-14 109.03827827 -15.54457987 107.50411052 -17.1875 105.0625 C-26.25952988 91.02376285 -30 77.68403617 -30 61 C-39.9 61 -49.8 61 -60 61 C-60 50.77 -60 40.54 -60 30 C-40.2 30 -20.4 30 0 30 C0 20.1 0 10.2 0 0 Z M1 61 C1 73.27392996 5.11021198 85.23606484 13.875 94.125 C14.57625 94.74375 15.2775 95.3625 16 96 C25.11473364 85.12536102 30 75.28207534 30 61 C20.43 61 10.86 61 1 61 Z " fill="#000000" transform="translate(120,180)"/>
<path d="M0 0 C1.18335938 0.89525391 1.18335938 0.89525391 2.390625 1.80859375 C3.11765625 2.35386719 3.8446875 2.89914062 4.59375 3.4609375 C15.86778766 12.60495659 23.17775794 26.58065844 25.390625 40.80859375 C25.91867661 48.47468599 25.74067188 56.17671377 25.68359375 63.85546875 C25.67798963 66.08033968 25.6737234 68.30521435 25.67073059 70.53009033 C25.65934605 76.34975637 25.62993455 82.16919324 25.59661865 87.98876953 C25.5657792 93.94170025 25.55219574 99.89466845 25.53710938 105.84765625 C25.50505814 117.50141831 25.4523431 129.15495101 25.390625 140.80859375 C15.160625 140.80859375 4.930625 140.80859375 -5.609375 140.80859375 C-5.609375 125.95859375 -5.609375 111.10859375 -5.609375 95.80859375 C-25.079375 95.80859375 -44.549375 95.80859375 -64.609375 95.80859375 C-64.609375 110.65859375 -64.609375 125.50859375 -64.609375 140.80859375 C-74.839375 140.80859375 -85.069375 140.80859375 -95.609375 140.80859375 C-95.67732909 127.9774678 -95.73229386 115.14646266 -95.76481152 102.31519699 C-95.7804235 96.35622181 -95.80157986 90.39737683 -95.83569336 84.43847656 C-95.86844646 78.68074525 -95.88626157 72.92313868 -95.89400673 67.16532135 C-95.8995217 64.97584319 -95.91029062 62.78637134 -95.92656517 60.59694672 C-96.07965686 39.13508947 -93.34606604 21.89168994 -77.609375 5.80859375 C-71.26588585 0.37396708 -64.32652494 -3.99308979 -56.609375 -7.19140625 C-55.83980469 -7.51109375 -55.07023437 -7.83078125 -54.27734375 -8.16015625 C-36.38303067 -14.2470407 -15.31531685 -10.66111128 0 0 Z M-58.609375 31.80859375 C-66.18984266 42.94416907 -64.609375 49.73266316 -64.609375 64.80859375 C-45.139375 64.80859375 -25.669375 64.80859375 -5.609375 64.80859375 C-4.89895367 43.98982947 -4.89895367 43.98982947 -14.81640625 28.49609375 C-21.86580622 21.86136436 -28.93616852 20.31796078 -38.359375 20.5 C-46.63751277 21.2860251 -53.130584 25.69717547 -58.609375 31.80859375 Z " fill="#000000" transform="translate(426.609375,311.19140625)"/>
<path d="M0 0 C3.71710317 1.35643702 6.8054197 3.04660225 10.08203125 5.2578125 C11.01337891 5.88300781 11.94472656 6.50820312 12.90429688 7.15234375 C13.86400391 7.80332031 14.82371094 8.45429688 15.8125 9.125 C16.79154297 9.78371094 17.77058594 10.44242188 18.77929688 11.12109375 C21.18903347 12.74325789 23.59578494 14.36966846 26 16 C25.56269174 21.36895274 22.5522984 25.05580791 19.578125 29.34765625 C18.73365814 30.58823036 18.73365814 30.58823036 17.87213135 31.85386658 C16.64858496 33.64996407 15.42144638 35.44361849 14.19116211 37.23510742 C10.85507376 42.09427471 7.54622358 46.97195055 4.234375 51.84765625 C3.54851318 52.85599518 2.86265137 53.86433411 2.15600586 54.90322876 C-4.83677332 65.19857548 -11.67537912 75.59276832 -18.5 86 C-28.65129825 101.46502398 -38.92651969 116.8399287 -49.29940796 132.15710449 C-59.38401679 147.05324572 -69.30579714 162.05117022 -79.1763916 177.08978271 C-86.49135703 188.22950787 -93.86925456 199.29824565 -101.55786133 210.18481445 C-109.34751891 221.24889987 -116.65625241 232.63722463 -124 244 C-130.053306 240.75210044 -135.83789964 237.26368779 -141.5 233.375 C-142.21414062 232.89804687 -142.92828125 232.42109375 -143.6640625 231.9296875 C-144.34210938 231.465625 -145.02015625 231.0015625 -145.71875 230.5234375 C-146.63043945 229.903479 -146.63043945 229.903479 -147.56054688 229.27099609 C-149 228 -149 228 -150 225 C-149.21444702 223.25817871 -149.21444702 223.25817871 -147.91162109 221.30273438 C-147.4233786 220.55910645 -146.93513611 219.81547852 -146.43209839 219.04931641 C-145.61106125 217.83381104 -145.61106125 217.83381104 -144.7734375 216.59375 C-144.2076297 215.73894043 -143.6418219 214.88413086 -143.05886841 214.00341797 C-141.17425018 211.16215125 -139.27477384 208.3311511 -137.375 205.5 C-136.0480497 203.50637727 -134.72188896 201.51222881 -133.39648438 199.51757812 C-123.30017696 184.34628206 -113.09648826 169.24641095 -102.88232422 154.15429688 C-94.32376868 141.49965466 -85.88531014 128.76997796 -77.5 116 C-67.34968201 100.54209386 -57.08027283 85.17127663 -46.71166992 69.85900879 C-35.76360107 53.68562309 -24.98657756 37.40337025 -14.27539062 21.07226562 C-13.68995483 20.1805365 -13.10451904 19.28880737 -12.50134277 18.37005615 C-11.4154442 16.71554232 -10.33078653 15.06021302 -9.24768066 13.40386963 C-6.26477438 8.85831853 -3.18925572 4.40344677 0 0 Z " fill="#000000" transform="translate(318,202)"/>
<path d="M0 0 C10.23 0 20.46 0 31 0 C31 10.23 31 20.46 31 31 C20.77 31 10.54 31 0 31 C0 20.77 0 10.54 0 0 Z " fill="#000000" transform="translate(180,60)"/>
<path d="M0 0 C10.23 0 20.46 0 31 0 C31 10.23 31 20.46 31 31 C20.77 31 10.54 31 0 31 C0 20.77 0 10.54 0 0 Z " fill="#000000" transform="translate(120,60)"/>
<path d="M0 0 C10.23 0 20.46 0 31 0 C31 10.23 31 20.46 31 31 C20.77 31 10.54 31 0 31 C0 20.77 0 10.54 0 0 Z " fill="#000000" transform="translate(60,60)"/>
</svg>
