<?xml version="1.0" encoding="UTF-8"?>
<svg version="1.1" xmlns="http://www.w3.org/2000/svg" width="512" height="512">
<path d="M0 0 C32.34 0 64.68 0 98 0 C101.72287626 17.03763371 105.44336833 34.07575373 109.15411377 51.11602783 C109.71265805 53.68064039 110.27137054 56.24521633 110.83026123 58.80975342 C112.3970951 65.99973966 113.96075427 73.19040109 115.51937866 80.38217163 C116.00610472 82.62575494 116.49391657 84.86910298 116.9828186 87.11221313 C117.66335028 90.23564025 118.33999233 93.35988507 119.015625 96.484375 C119.31943336 97.87274818 119.31943336 97.87274818 119.62937927 99.28916931 C119.81130325 100.1344368 119.99322723 100.97970428 120.18066406 101.85058594 C120.33988342 102.58404236 120.49910278 103.31749878 120.66314697 104.07318115 C121 106 121 106 121 109 C250.03 109 379.06 109 512 109 C512 181.6 512 254.2 512 329 C438.4900918 335.89155389 438.4900918 335.89155389 414.9621582 337.94433594 C412.18563445 338.18788601 409.40916317 338.43203191 406.63269043 338.67616272 C400.82861558 339.18625451 395.02443657 339.69514421 389.2201786 340.20314789 C380.02449896 341.00806454 370.82915085 341.81673492 361.63383484 342.62579346 C358.44625396 342.9062089 355.25867054 343.18659545 352.07108593 343.46696854 C351.2764068 343.53686689 350.48172767 343.60676525 349.66296736 343.67878173 C340.76715191 344.46117656 331.87125991 345.24269927 322.9753418 346.02392578 C321.76522903 346.13019739 321.76522903 346.13019739 320.53066953 346.2386159 C307.31636295 347.39901936 294.10188786 348.55749612 280.88738332 349.71564266 C267.17684179 350.91734716 253.46659026 352.12232423 239.75657529 353.33002114 C231.36740222 354.06888527 222.97800345 354.80507598 214.58828082 355.53767404 C208.87214179 356.03703174 203.1562795 356.53947787 197.44062237 357.04432121 C194.1557932 357.33435941 190.87082229 357.62257392 187.58558464 357.90795326 C184.01550354 358.21828804 180.44592562 358.53390353 176.87641907 358.85076904 C175.8568033 358.93812435 174.83718753 359.02547966 173.78667432 359.11548209 C157.4054829 359.85638742 157.4054829 359.85638742 144.125 368.0625 C142.36589981 372.65570606 142.43053157 377.14491657 143 382 C144.33170309 384.97984167 144.33170309 384.97984167 146 387 C146 387.66 146 388.32 146 389 C154.03631016 392.40934371 160.59671767 393.29013091 169.27029419 393.2515564 C170.39824681 393.25452654 171.52619943 393.25749667 172.68833244 393.26055682 C176.4643112 393.26818943 180.24013408 393.26170563 184.01611328 393.25537109 C186.72508619 393.25699298 189.43405146 393.26168339 192.14302063 393.26634216 C197.97603296 393.27496548 203.80901496 393.27678555 209.64203262 393.27439499 C218.08969646 393.2712926 226.53729351 393.28295343 234.98494051 393.29894479 C248.71033197 393.32489689 262.43572347 393.34491956 276.16113281 393.35839844 C277.39268043 393.35961399 277.39268043 393.35961399 278.6491078 393.3608541 C290.29079797 393.37206663 301.93248336 393.37735486 313.5741782 393.38024123 C314.8029971 393.38054721 314.8029971 393.38054721 316.05664062 393.38085938 C316.87484909 393.38105931 317.69305756 393.38125925 318.53606023 393.38146524 C332.20388083 393.38520451 345.87162901 393.40433399 359.53941333 393.43595374 C367.95966502 393.45482019 376.37973056 393.46085961 384.79999749 393.45013656 C390.57675457 393.44379412 396.35337869 393.45192334 402.13010664 393.47119068 C405.45743751 393.48182195 408.78417846 393.48390181 412.11154747 393.47271919 C433.41457462 393.40692018 450.5326686 395.25005677 466.71484375 410.5859375 C479.85629884 424.46870544 483.64923053 440.02224065 483.3125 458.5625 C482.67487962 474.01416717 475.08711608 487.50491439 464 498 C448.73454372 510.67181079 432.26328651 513.44836741 413 512 C397.70415033 509.32929609 384.33998309 500.57870269 375.1875 488.125 C367.840927 476.96652591 364.64165304 466.25444419 364.75 453 C364.74226563 452.05382812 364.73453125 451.10765625 364.7265625 450.1328125 C364.73042969 448.73675781 364.73042969 448.73675781 364.734375 447.3125 C364.73663086 446.48363281 364.73888672 445.65476562 364.74121094 444.80078125 C365.07962623 441.13823388 366.1079179 437.56832842 367 434 C339.94 434 312.88 434 285 434 C285.66 436.64 286.32 439.28 287 442 C288.89649183 459.76486923 285.98432715 476.25657046 274.96484375 490.66015625 C265.28757606 501.97590312 251.64918832 510.87857412 236.5078125 512.22094727 C217.95550431 513.02764383 202.24161572 510.14328223 187.75 497.75 C176.99103129 487.55370319 169.15670569 473.73319826 168.734375 458.6875 C168.72912338 456.79166679 168.73450318 454.89577715 168.75 453 C168.74226562 452.05382812 168.73453125 451.10765625 168.7265625 450.1328125 C168.74240956 444.41202439 169.36970391 439.48607574 171 434 C170.351521 434.02618408 169.70304199 434.05236816 169.03491211 434.0793457 C148.13421357 434.81026876 132.36077476 432.43556808 116.25 417.8125 C103.72083325 404.30305614 100.04216071 389.12488381 100.62109375 371.2578125 C101.49544235 355.84844628 108.79764047 343.4861152 119.765625 332.9609375 C122 331 122 331 125 329 C124.40052879 323.77986605 123.59806667 318.70781839 122.49577332 313.56452942 C122.34568811 312.85968735 122.19560291 312.15484528 122.04096967 311.42864436 C121.54119545 309.08559841 121.03659603 306.74361939 120.53198242 304.40161133 C120.1699109 302.70904654 119.80813835 301.01641777 119.44664001 299.32373047 C118.46085141 294.712074 117.47083702 290.10133376 116.48007369 285.49074388 C115.4219818 280.56333288 114.36775689 275.63509452 113.31306458 270.70695496 C111.29264537 261.26927459 109.2686877 251.8323566 107.24351436 242.39569539 C105.02000492 232.03397034 102.80060383 221.67136699 100.58151221 211.30869508 C88.42246638 154.53165693 76.21492847 97.7650375 64 41 C32.32 40.505 32.32 40.505 0 40 C0 26.8 0 13.6 0 0 Z M130 149 C130.82334039 155.66275334 130.82334039 155.66275334 132.015625 162.20678711 C132.2125293 163.14393051 132.40943359 164.08107391 132.61230469 165.0466156 C132.82274414 166.03025589 133.03318359 167.01389618 133.25 168.02734375 C133.46817383 169.05686661 133.68634766 170.08638947 133.91113281 171.14710999 C134.37008084 173.30814417 134.83072091 175.46881963 135.29296875 177.62915039 C136.00271992 180.95022706 136.70479733 184.27286499 137.40625 187.59570312 C137.85370816 189.69801431 138.30160896 191.80023134 138.75 193.90234375 C138.96043945 194.90015366 139.17087891 195.89796356 139.38769531 196.92601013 C139.68305176 198.29862755 139.68305176 198.29862755 139.984375 199.69897461 C140.15678711 200.50757431 140.32919922 201.31617401 140.50683594 202.14927673 C140.83496938 204.00203417 140.83496938 204.00203417 142 205 C144.67787973 205.09512944 147.32988869 205.12555279 150.00805664 205.11352539 C150.84700974 205.11367142 151.68596283 205.11381744 152.55033875 205.1139679 C155.33697044 205.1132685 158.12353616 205.10547485 160.91015625 205.09765625 C162.83686791 205.09579217 164.76358005 205.09436822 166.69029236 205.09336853 C171.77187397 205.08954259 176.8534272 205.07971166 181.93499756 205.06866455 C188.02643497 205.05665785 194.11788185 205.05204855 200.2093277 205.04621124 C209.4729049 205.03649994 218.73641976 205.01734392 228 205 C228 186.52 228 168.04 228 149 C195.66 149 163.32 149 130 149 Z M268 149 C268 167.48 268 185.96 268 205 C294.4 205 320.8 205 348 205 C348 186.52 348 168.04 348 149 C321.6 149 295.2 149 268 149 Z M388 149 C388 167.48 388 185.96 388 205 C415.72 205 443.44 205 472 205 C472 186.52 472 168.04 472 149 C444.28 149 416.56 149 388 149 Z M150 245 C151.8975 254.075 153.795 263.15 155.75 272.5 C156.63510254 276.74520508 156.63510254 276.74520508 157.53808594 281.07617188 C160.12812425 293.44686891 162.74966557 305.78339278 166 318 C180.13848766 317.42450706 194.17060048 316.33607475 208.25 314.9375 C214.7675 314.298125 221.285 313.65875 228 313 C228 290.56 228 268.12 228 245 C202.26 245 176.52 245 150 245 Z M268 245 C268 266.12 268 287.24 268 309 C285.05682712 308.15404069 285.05682712 308.15404069 302.0625 306.84375 C303.26769287 306.7365564 304.47288574 306.62936279 305.71459961 306.5189209 C308.2148508 306.29559418 310.71493396 306.07037813 313.21484375 305.84326172 C317.04901334 305.49555516 320.88381998 305.15561262 324.71875 304.81640625 C327.16670742 304.59680795 329.61462567 304.3767725 332.0625 304.15625 C333.20404541 304.05517944 334.34559082 303.95410889 335.52172852 303.84997559 C337.10618774 303.70477478 337.10618774 303.70477478 338.72265625 303.55664062 C339.64828369 303.47305298 340.57391113 303.38946533 341.52758789 303.30334473 C344.27930676 303.01700637 344.27930676 303.01700637 348 302 C348 283.19 348 264.38 348 245 C321.6 245 295.2 245 268 245 Z M388 245 C388 262.82 388 280.64 388 299 C402.12135643 297.78328511 402.12135643 297.78328511 416.2421875 296.56054688 C422.00081727 296.06055328 427.75950233 295.56126768 433.51855469 295.06616211 C438.16126129 294.66698436 442.80368558 294.26466178 447.44593048 293.86015129 C449.21765692 293.70632682 450.98948238 293.55363846 452.76140594 293.40210152 C455.24192464 293.18976981 457.72206153 292.97341258 460.20214844 292.75610352 C460.93582642 292.69424362 461.66950439 292.63238373 462.42541504 292.56864929 C465.74712816 292.2736258 468.75026579 291.81243355 472 291 C472 275.82 472 260.64 472 245 C444.28 245 416.56 245 388 245 Z M213.6875 441.5 C209.45586577 446.5646331 209.47208464 451.63513371 210 458 C211.78015739 463.4451873 215.388261 466.78226393 220 470 C225.36379133 471.78793044 230.88772338 471.69055197 236.25 469.9375 C240.66854291 466.82443568 244.27390999 463.17827004 246 458 C246.53385142 452.03523706 246.55270149 447.04254405 243 442 C238.38824821 437.36644324 234.89010417 434.87355031 228.1875 434.75 C221.69693154 434.85362301 217.99981817 436.67795155 213.6875 441.5 Z M409.6875 441.5 C405.45586577 446.5646331 405.47208464 451.63513371 406 458 C407.78015739 463.4451873 411.388261 466.78226393 416 470 C421.36379133 471.78793044 426.88772338 471.69055197 432.25 469.9375 C436.66854291 466.82443568 440.27390999 463.17827004 442 458 C442.53385142 452.03523706 442.55270149 447.04254405 439 442 C434.38824821 437.36644324 430.89010417 434.87355031 424.1875 434.75 C417.69693154 434.85362301 413.99981817 436.67795155 409.6875 441.5 Z " fill="#000000" transform="translate(0,0)"/>
</svg>
