<?xml version="1.0" encoding="UTF-8"?>
<svg version="1.1" xmlns="http://www.w3.org/2000/svg" width="512" height="512">
<path d="M0 0 C0.75771123 -0.00235223 1.51542245 -0.00470446 2.29609463 -0.00712797 C4.84966514 -0.01381532 7.40318473 -0.01335983 9.95676327 -0.01294994 C11.80028722 -0.01624873 13.64381045 -0.01997433 15.48733276 -0.02409142 C20.56496477 -0.03411785 25.64258495 -0.03782925 30.72022545 -0.04048073 C36.19213274 -0.04438189 41.66403066 -0.05396037 47.13593197 -0.0626936 C60.35653026 -0.0824635 73.57712932 -0.09252495 86.7977387 -0.10142139 C93.0220521 -0.10580349 99.24636465 -0.1111705 105.47067738 -0.11641026 C126.15924462 -0.13342318 146.8478114 -0.14794246 167.53638458 -0.155159 C168.87434637 -0.15563375 170.21230817 -0.15610964 171.55026996 -0.15658666 C172.21377475 -0.15682303 172.87727954 -0.15705941 173.56089054 -0.15730295 C176.92249798 -0.15850414 180.28410542 -0.15971959 183.64571285 -0.16094494 C184.31283248 -0.16118509 184.97995212 -0.16142524 185.66728749 -0.16167267 C207.29250462 -0.169564 228.91766688 -0.19299223 250.54286005 -0.22550088 C273.40953793 -0.25981301 296.27619188 -0.27951031 319.14289707 -0.28280324 C331.60643628 -0.28496906 344.06989485 -0.29372836 356.53341007 -0.31926441 C367.14748597 -0.34096084 377.76146163 -0.349027 388.37555719 -0.33929763 C393.79056362 -0.33474989 399.20536318 -0.33666694 404.6203413 -0.35605907 C409.58062565 -0.37366934 414.5405519 -0.37271019 419.50083994 -0.35716178 C421.29229486 -0.35478248 423.08377443 -0.35912594 424.87519164 -0.37099043 C440.15703506 -0.46590675 450.99261868 1.91117372 462.25679684 12.79047108 C468.71548057 19.75861841 472.65888845 28.18835537 472.67617416 37.68694878 C472.68063201 38.82371624 472.68508985 39.9604837 472.68968278 41.13169867 C472.68940624 43.00564036 472.68940624 43.00564036 472.68912411 44.91743946 C472.69242407 46.25773806 472.69614992 47.59803567 472.70026559 48.93833202 C472.71027882 52.62497245 472.71400129 56.3115966 472.7166549 59.9982487 C472.72055999 63.9732114 472.73013824 67.94816124 472.73886776 71.92311573 C472.75862706 81.52484515 472.76869801 91.12657561 472.77759555 100.72832027 C472.7819796 105.25112772 472.78734613 109.773934 472.79258442 114.29674053 C472.80959668 129.33388399 472.82409031 144.37102672 472.83133316 159.40817833 C472.83324302 163.3101047 472.83516336 167.21203106 472.8371191 171.11395741 C472.83760284 172.0837504 472.83808658 173.05354339 472.83858498 174.05272406 C472.84688326 189.75873432 472.87221677 205.46466837 472.90469978 221.17064536 C472.93778509 237.29949364 472.95578328 253.4283032 472.9589774 269.55718559 C472.96114121 278.61136535 472.96987083 287.66543399 472.99543858 296.71958065 C473.01716573 304.43146098 473.02518611 312.14320319 473.01547179 319.85511065 C473.01093282 323.78765164 473.01278954 327.71990779 473.03223324 331.65240955 C473.04990715 335.25822828 473.0488335 338.86355528 473.03333595 342.46937954 C473.02985048 344.37978855 473.04595468 346.29020297 473.06294042 348.20053965 C472.96578537 361.27798868 468.92131273 370.49379919 459.88570309 379.84906483 C452.84966989 386.37067107 444.4395047 390.09548245 434.90132809 390.45062733 C433.83140621 390.49252186 432.76148434 390.53441639 431.65914059 390.57758045 C430.54796871 390.61689686 429.43679684 390.65621326 428.29195309 390.69672108 C427.16531246 390.73990467 426.03867184 390.78308826 424.87789059 390.82758045 C422.09936354 390.93354123 419.32074918 391.0356125 416.54195309 391.13422108 C417.15725384 391.73841877 417.77255459 392.34261646 418.40650082 392.96512318 C424.23051625 398.68854793 430.04212456 404.42423058 435.84046364 410.17367077 C438.82119194 413.12841365 441.80634236 416.07836943 444.80245113 419.01752186 C447.69896728 421.85932232 450.58274638 424.71351091 453.45846653 427.5763483 C454.55238177 428.66109425 455.65065568 429.74146455 456.75350666 430.81712437 C465.29141071 439.1529807 472.52012091 447.48006573 472.83443356 459.98602772 C472.95845121 474.06808098 468.21345299 482.32614541 458.51851559 492.45843983 C457.07325827 493.91809736 455.62266254 495.3724872 454.16695309 496.82172108 C453.45023434 497.55455311 452.73351559 498.28738514 451.99507809 499.0424242 C444.28807012 506.75638796 436.75544899 512.27404144 425.4777441 512.51532459 C408.64047949 512.46830889 400.64906436 505.32134191 389.13653088 493.75316143 C386.38070113 490.96664442 383.6338624 488.17139945 380.88952541 485.37356663 C377.07973341 481.49435996 373.25266784 477.63222985 369.42867184 473.76703358 C364.584578 468.86885323 359.74587437 463.96567194 354.92525387 459.04437733 C351.0060818 455.04426332 347.07018524 451.06131536 343.12238979 447.0894556 C341.62494734 445.57656522 340.13382239 444.05739475 338.64919949 442.53192234 C336.58143518 440.4088472 334.49304597 438.30836532 332.3983984 436.2118578 C331.79047955 435.57720097 331.18256069 434.94254414 330.55622005 434.28865528 C328.94116749 432.69659662 327.47563816 431.31877059 325.54195309 430.13422108 C322.34411244 430.02183654 322.34411244 430.02183654 319.54195309 431.13422108 C318.4140234 431.49258045 317.28609371 431.85093983 316.12398434 432.22015858 C314.88003902 432.6455492 313.63609371 433.07093983 312.35445309 433.50922108 C281.19543227 443.56204388 247.44939994 440.69709418 218.16695309 426.25922108 C206.1736315 420.08980492 196.1775832 412.47826404 186.54195309 403.13422108 C185.65636715 402.27699451 184.77078121 401.41976795 183.85835934 400.53656483 C177.90435619 394.67782573 177.90435619 394.67782573 175.54195309 391.13422108 C173.08804833 390.83593126 170.88465985 390.73577381 168.42807674 390.76241016 C167.68683904 390.7585856 166.94560133 390.75476104 166.18190187 390.75082058 C163.68462436 390.74149498 161.18789543 390.75355245 158.69063473 390.76532459 C156.90525233 390.76285793 155.11987138 390.75902089 153.33449459 390.75391102 C149.48156649 390.74555448 145.62878608 390.74639658 141.77585697 390.75409603 C135.6775098 390.76565915 129.57935331 390.75353096 123.48102474 390.7374773 C108.32487306 390.70124022 93.16872518 390.69504743 78.01253414 390.69757557 C66.25116211 390.69928867 54.48994538 390.69209266 42.72861665 390.65759701 C36.67347044 390.64083957 30.61870318 390.64256773 24.5635587 390.65841973 C20.78264103 390.66423978 17.00190072 390.65343414 13.22101498 390.6381731 C11.47600989 390.63446384 9.73097441 390.63750552 7.9859972 390.64804363 C-7.20307048 390.73360734 -17.98446698 388.28410238 -29.17289066 377.47797108 C-35.6315744 370.50982374 -39.57498227 362.08008678 -39.59226799 352.58149338 C-39.59672583 351.44472591 -39.60118368 350.30795845 -39.60577661 349.13674349 C-39.60559225 347.88744902 -39.60540788 346.63815456 -39.60521793 345.35100269 C-39.60851789 344.01070409 -39.61224374 342.67040648 -39.61635941 341.33011013 C-39.62637265 337.6434697 -39.63009512 333.95684556 -39.63274872 330.27019346 C-39.63665382 326.29523075 -39.64623206 322.32028091 -39.65496159 318.34532642 C-39.67472088 308.74359701 -39.68479184 299.14186655 -39.69368938 289.54012188 C-39.69807342 285.01731443 -39.70343996 280.49450815 -39.70867825 275.97170162 C-39.7256905 260.93455816 -39.74018413 245.89741543 -39.74742699 230.86026382 C-39.74933685 226.95833746 -39.75125719 223.05641109 -39.75321293 219.15448475 C-39.75369667 218.18469175 -39.75418041 217.21489876 -39.75467881 216.2157181 C-39.76297709 200.50970783 -39.7883106 184.80377378 -39.82079361 169.09779679 C-39.85387892 152.96894852 -39.87187711 136.84013895 -39.87507123 120.71125656 C-39.87723503 111.65707681 -39.88596465 102.60300816 -39.9115324 93.5488615 C-39.93325956 85.83698118 -39.94127994 78.12523896 -39.93156562 70.4133315 C-39.92702665 66.48079051 -39.92888337 62.54853436 -39.94832706 58.6160326 C-39.96600098 55.01021387 -39.96492733 51.40488687 -39.94942977 47.79906262 C-39.94594431 45.88865361 -39.96204851 43.97823918 -39.97903425 42.06790251 C-39.8818792 28.99045347 -35.83740655 19.77464297 -26.80179691 10.41937733 C-19.07321837 3.25585995 -10.3880488 -0.021858 0 0 Z M-6.83304691 34.44672108 C-21.61876993 58.90003222 -9.45804691 91.55832159 -9.45804691 120.13422108 C139.70195309 120.13422108 288.86195309 120.13422108 442.54195309 120.13422108 C450.55711241 72.31280675 450.55711241 72.31280675 438.22945309 32.75922108 C433.43644134 29.86112095 428.77121173 30.00858461 423.26203251 30.00558662 C422.53573653 30.00383359 421.80944054 30.00208055 421.06113559 30.00027439 C418.6204878 29.99561193 416.17989952 29.99808053 413.73924923 30.00050831 C411.97450775 29.99864046 410.20976669 29.99633987 408.44502628 29.99364299 C403.58995902 29.98751536 398.73490895 29.98765971 393.87983871 29.98883736 C388.6459306 29.98904112 383.41202805 29.98352497 378.17812252 29.97877979 C367.92207848 29.97046755 357.66604019 29.9677247 347.40999307 29.96716741 C339.07540708 29.96669255 330.74082299 29.9646393 322.4062376 29.96146679 C298.78677487 29.95265887 275.16731668 29.94804766 251.54785229 29.94879726 C249.63720025 29.9488572 249.63720025 29.9488572 247.68794918 29.94891834 C246.41262974 29.94895922 245.1373103 29.9490001 243.82334481 29.94904222 C223.14843222 29.9494488 202.47353782 29.93987679 181.79863049 29.92577998 C160.58019425 29.91142647 139.3617669 29.90450922 118.14332569 29.90537375 C106.22657336 29.90570606 94.30984012 29.90294402 82.39309216 29.8921957 C72.24812833 29.88310422 62.10319223 29.88090432 51.9582261 29.88770512 C46.78072347 29.8909771 41.6032741 29.89100263 36.42577648 29.88235188 C31.68726072 29.87451589 26.94884071 29.87588851 22.21032737 29.88463601 C20.49502 29.8861774 18.77970559 29.88433088 17.06440653 29.87877593 C14.73400682 29.87172813 12.40394416 29.87699974 10.07355595 29.88533211 C8.13136494 29.88500606 8.13136494 29.88500606 6.14993775 29.88467342 C1.04061885 30.23806144 -3.09828401 30.81024141 -6.83304691 34.44672108 Z M-9.45804691 150.13422108 C-17.84479881 253.94888209 -17.84479881 253.94888209 -7.45804691 355.13422108 C-3.6716199 358.92064809 -0.78389488 360.03649513 4.47045422 360.25726891 C5.61716469 360.25634711 6.76387516 360.25542532 7.94533443 360.25447559 C9.26344112 360.25585026 10.58154781 360.25722492 11.93959713 360.25864124 C13.3985207 360.25510229 14.85744403 360.25146748 16.31636715 360.24774647 C17.85388341 360.24746437 19.3913998 360.24762277 20.92891598 360.24818897 C25.10211153 360.24847607 29.27527838 360.24259351 33.44846725 360.23561502 C37.81001102 360.22936687 42.17155544 360.22877652 46.53310299 360.22758961 C54.7919797 360.22448061 63.05084319 360.21627301 71.30971408 360.20624012 C80.71228635 360.19506561 90.11485925 360.18956515 99.5174365 360.18454468 C118.85894953 360.17409006 138.20045025 360.15649894 157.54195309 360.13422108 C157.23060482 358.72478594 156.9187335 357.31546634 156.60665035 355.90619373 C156.346227 354.72895237 156.346227 354.72895237 156.08054256 353.52792835 C155.57361292 351.27493003 155.04616966 349.02808349 154.50679684 346.78265858 C154.33728512 346.07625233 154.1677734 345.36984608 153.99312496 344.64203358 C153.64868415 343.2118839 153.30230736 341.78219921 152.95406246 340.35297108 C145.63851718 309.74540229 151.75552072 276.34839866 167.58882809 249.34906483 C186.12734103 219.53526229 214.65357731 200.27213915 248.54195309 192.13422108 C279.4632038 185.19050162 313.71999794 191.58924281 340.54195309 208.13422108 C348.16130143 213.11496241 354.93385175 218.89204067 361.54195309 225.13422108 C362.29218746 225.82000233 363.04242184 226.50578358 363.81539059 227.21234608 C385.18851947 247.46057344 397.7889216 278.61060414 398.74507809 307.84125233 C398.87958831 316.60412242 398.68393388 325.21072481 397.35445309 333.88422108 C397.25358395 334.56589344 397.15271481 335.2475658 397.04878902 335.94989491 C395.63275092 344.18180916 392.96380728 352.15513285 390.54195309 360.13422108 C396.25278056 360.20865536 401.96332248 360.26295741 407.67452145 360.299016 C409.61532673 360.31405599 411.55609829 360.33449322 413.49678707 360.36053944 C416.29447941 360.39713403 419.09172042 360.41399556 421.88960934 360.42718983 C422.75030529 360.44267368 423.61100124 360.45815754 424.49777889 360.4741106 C429.95127078 360.47561699 433.70470957 359.70036995 438.54195309 357.13422108 C441.58987944 354.08629472 441.6397629 352.64517202 442.54195309 348.13422108 C442.54195309 282.79422108 442.54195309 217.45422108 442.54195309 150.13422108 C293.38195309 150.13422108 144.22195309 150.13422108 -9.45804691 150.13422108 Z M206.54195309 249.13422108 C205.72468746 249.93859608 204.90742184 250.74297108 204.06539059 251.57172108 C187.35618603 269.02738494 179.99191307 293.00480779 180.18819332 316.76825428 C180.89984218 343.05367588 192.75161339 366.33427 211.45601559 384.46234608 C230.70195626 401.7016608 255.73121794 409.36061393 281.2812109 408.2821703 C307.07089455 406.5944221 328.7649744 394.0303218 346.06929684 375.41547108 C363.07242627 355.65114969 370.23052056 330.93642371 368.54195309 305.13422108 C366.30084378 282.2145075 355.78929571 262.16840614 339.54195309 246.13422108 C338.43207027 245.02627186 338.43207027 245.02627186 337.29976559 243.89593983 C318.58608626 226.24475878 294.22913589 219.4954044 269.10445309 219.86078358 C244.76158183 220.70858702 223.55661714 232.27477852 206.54195309 249.13422108 Z M371.54195309 392.13422108 C370.07553554 393.58426351 370.07553554 393.58426351 368.54195309 395.50922108 C357.27640099 408.76699713 357.27640099 408.76699713 352.54195309 411.13422108 C353.80982217 413.90197724 355.11764621 415.96422346 357.25443172 418.1275835 C357.80528942 418.68986149 358.35614712 419.25213947 358.92369747 419.83145618 C359.52580044 420.43579487 360.1279034 421.04013355 360.74825191 421.66278553 C361.38424816 422.30871159 362.02024441 422.95463764 362.67551327 423.62013721 C364.77774329 425.75154115 366.88765653 427.87511226 368.99898434 429.99750233 C370.46388974 431.47391166 371.92878936 432.95032674 373.39368343 434.42674732 C376.46404484 437.51810567 379.53902771 440.6047905 382.61641598 443.68915272 C386.56456124 447.64829531 390.49380155 451.62565889 394.41892624 455.60760689 C397.43630509 458.66216158 400.46694672 461.70328694 403.50143147 464.74083996 C404.95650287 466.20197757 406.4065551 467.66813099 407.85150242 469.13928127 C409.86966754 471.19142593 411.90576519 473.22394209 413.94747066 475.25262928 C414.84151608 476.17431904 414.84151608 476.17431904 415.75362301 477.11462879 C417.59699884 478.98976598 417.59699884 478.98976598 420.54195309 481.13422108 C426.59235109 481.05061751 429.90990681 476.42685391 433.91695309 472.38422108 C434.6658984 471.66750233 435.41484371 470.95078358 436.18648434 470.21234608 C436.8890234 469.51109608 437.59156246 468.80984608 438.31539059 468.08734608 C438.95911617 467.44958241 439.60284176 466.81181873 440.26607418 466.15472889 C441.74386364 464.22149213 441.74386364 464.22149213 441.51120663 461.92781544 C440.08308956 457.81167904 437.38031536 455.43106111 434.30977535 452.4162035 C433.65935268 451.76198414 433.00893002 451.10776478 432.33879757 450.43372059 C430.18829898 448.27581767 428.02374749 446.13264314 425.85835934 443.98968983 C424.36169451 442.49540901 422.86576802 441.00038834 421.37055111 439.5046587 C418.23680864 436.37404378 415.09646136 433.25026262 411.95088863 430.13153553 C407.91074352 426.12542856 403.88394856 422.10622237 399.86154938 418.08230591 C396.77473765 414.9960368 393.68275048 411.91499844 390.58896351 408.83572292 C389.10174328 407.35488406 387.61574627 405.87281569 386.13097477 404.3895216 C384.06014469 402.32300692 381.98287717 400.26320106 379.90352535 398.205266 C379.28578747 397.58662174 378.66804958 396.96797749 378.03159237 396.33058643 C375.29167435 393.19424216 375.29167435 393.19424216 371.54195309 392.13422108 Z " fill="#000000" transform="translate(39.45804691314697,-0.13422107696533203)"/>
<path d="M0 0 C0.78113159 -0.00686325 1.56226318 -0.0137265 2.36706543 -0.02079773 C4.9409418 -0.03905094 7.51420776 -0.03523041 10.08813477 -0.02954102 C11.88265684 -0.0341036 13.67717716 -0.03940941 15.47169495 -0.04542542 C19.23006291 -0.05435365 22.98821836 -0.05193676 26.74658203 -0.04199219 C31.55634758 -0.03050406 36.36537879 -0.05071286 41.17504787 -0.07990932 C44.88032164 -0.0982801 48.58541972 -0.09797711 52.29072762 -0.0922718 C54.0637013 -0.09211869 55.83668697 -0.09815485 57.60961723 -0.11056328 C60.0917721 -0.12548805 62.57257416 -0.11478627 65.0546875 -0.09765625 C65.78267044 -0.10732422 66.51065338 -0.11699219 67.26069641 -0.12695312 C72.32829901 -0.05394143 75.16553757 1.26086313 79.09204102 4.40405273 C82.94697631 8.53197701 83.22722998 12.92045034 83.09204102 18.40405273 C82.01312833 23.49998856 79.39240074 26.53714625 75.09204102 29.40405273 C72.04591782 30.92711433 68.86768115 30.5689203 65.5246582 30.58105469 C64.74396469 30.58762589 63.96327118 30.59419708 63.15892029 30.60096741 C60.56891793 30.62071721 57.97897364 30.63236756 55.38891602 30.64233398 C54.50460152 30.64640951 53.62028702 30.65048504 52.70917511 30.65468407 C48.02739189 30.67555336 43.34563805 30.68985056 38.66381836 30.69921875 C33.83049442 30.71027667 28.99763169 30.74466683 24.16447067 30.78439045 C20.44636181 30.81055355 16.7283628 30.81891038 13.01016998 30.82250023 C11.22880188 30.82736808 9.44743875 30.83898777 7.66616058 30.85753822 C5.16940456 30.88192051 2.67384092 30.88096651 0.17700195 30.87402344 C-0.92204216 30.89323853 -0.92204216 30.89323853 -2.04328918 30.9128418 C-7.12938524 30.86142717 -9.98485618 29.5893893 -13.90795898 26.40405273 C-17.96426297 21.18145416 -17.68193442 15.75065131 -16.90795898 9.40405273 C-13.26130197 1.70555458 -8.11892626 -0.05006601 0 0 Z " fill="#000000" transform="translate(76.907958984375,299.595947265625)"/>
<path d="M0 0 C0.78113159 -0.00686325 1.56226318 -0.0137265 2.36706543 -0.02079773 C4.9409418 -0.03905094 7.51420776 -0.03523041 10.08813477 -0.02954102 C11.88265684 -0.0341036 13.67717716 -0.03940941 15.47169495 -0.04542542 C19.23006291 -0.05435365 22.98821836 -0.05193676 26.74658203 -0.04199219 C31.55634758 -0.03050406 36.36537879 -0.05071286 41.17504787 -0.07990932 C44.88032164 -0.0982801 48.58541972 -0.09797711 52.29072762 -0.0922718 C54.0637013 -0.09211869 55.83668697 -0.09815485 57.60961723 -0.11056328 C60.0917721 -0.12548805 62.57257416 -0.11478627 65.0546875 -0.09765625 C65.78267044 -0.10732422 66.51065338 -0.11699219 67.26069641 -0.12695312 C72.32829901 -0.05394143 75.16553757 1.26086313 79.09204102 4.40405273 C82.94697631 8.53197701 83.22722998 12.92045034 83.09204102 18.40405273 C82.01312833 23.49998856 79.39240074 26.53714625 75.09204102 29.40405273 C72.04591782 30.92711433 68.86768115 30.5689203 65.5246582 30.58105469 C64.74396469 30.58762589 63.96327118 30.59419708 63.15892029 30.60096741 C60.56891793 30.62071721 57.97897364 30.63236756 55.38891602 30.64233398 C54.50460152 30.64640951 53.62028702 30.65048504 52.70917511 30.65468407 C48.02739189 30.67555336 43.34563805 30.68985056 38.66381836 30.69921875 C33.83049442 30.71027667 28.99763169 30.74466683 24.16447067 30.78439045 C20.44636181 30.81055355 16.7283628 30.81891038 13.01016998 30.82250023 C11.22880188 30.82736808 9.44743875 30.83898777 7.66616058 30.85753822 C5.16940456 30.88192051 2.67384092 30.88096651 0.17700195 30.87402344 C-0.92204216 30.89323853 -0.92204216 30.89323853 -2.04328918 30.9128418 C-7.12938524 30.86142717 -9.98485618 29.5893893 -13.90795898 26.40405273 C-17.96426297 21.18145416 -17.68193442 15.75065131 -16.90795898 9.40405273 C-13.26130197 1.70555458 -8.11892626 -0.05006601 0 0 Z " fill="#000000" transform="translate(76.907958984375,239.595947265625)"/>
<path d="M0 0 C0.78113159 -0.00686325 1.56226318 -0.0137265 2.36706543 -0.02079773 C4.9409418 -0.03905094 7.51420776 -0.03523041 10.08813477 -0.02954102 C11.88265684 -0.0341036 13.67717716 -0.03940941 15.47169495 -0.04542542 C19.23006291 -0.05435365 22.98821836 -0.05193676 26.74658203 -0.04199219 C31.55634758 -0.03050406 36.36537879 -0.05071286 41.17504787 -0.07990932 C44.88032164 -0.0982801 48.58541972 -0.09797711 52.29072762 -0.0922718 C54.0637013 -0.09211869 55.83668697 -0.09815485 57.60961723 -0.11056328 C60.0917721 -0.12548805 62.57257416 -0.11478627 65.0546875 -0.09765625 C65.78267044 -0.10732422 66.51065338 -0.11699219 67.26069641 -0.12695312 C72.32829901 -0.05394143 75.16553757 1.26086313 79.09204102 4.40405273 C82.94697631 8.53197701 83.22722998 12.92045034 83.09204102 18.40405273 C82.01312833 23.49998856 79.39240074 26.53714625 75.09204102 29.40405273 C72.04591782 30.92711433 68.86768115 30.5689203 65.5246582 30.58105469 C64.74396469 30.58762589 63.96327118 30.59419708 63.15892029 30.60096741 C60.56891793 30.62071721 57.97897364 30.63236756 55.38891602 30.64233398 C54.50460152 30.64640951 53.62028702 30.65048504 52.70917511 30.65468407 C48.02739189 30.67555336 43.34563805 30.68985056 38.66381836 30.69921875 C33.83049442 30.71027667 28.99763169 30.74466683 24.16447067 30.78439045 C20.44636181 30.81055355 16.7283628 30.81891038 13.01016998 30.82250023 C11.22880188 30.82736808 9.44743875 30.83898777 7.66616058 30.85753822 C5.16940456 30.88192051 2.67384092 30.88096651 0.17700195 30.87402344 C-0.92204216 30.89323853 -0.92204216 30.89323853 -2.04328918 30.9128418 C-7.12938524 30.86142717 -9.98485618 29.5893893 -13.90795898 26.40405273 C-17.96426297 21.18145416 -17.68193442 15.75065131 -16.90795898 9.40405273 C-13.26130197 1.70555458 -8.11892626 -0.05006601 0 0 Z " fill="#000000" transform="translate(76.907958984375,179.595947265625)"/>
<path d="M0 0 C4.61581142 2.18643699 6.72864085 4.49599804 9 9 C9.82885269 14.54808604 9.7240695 19.47140883 7.3125 24.5625 C4.21064779 27.8320199 1.61649202 29.75850523 -2.90234375 30.43359375 C-9.05071801 30.44150672 -13.31314296 30.4465054 -18 26 C-21.88937897 20.55860924 -21.79042609 15.48149391 -21 9 C-16.63929544 -0.20593186 -9.3488659 -1.1401056 0 0 Z " fill="#000000" transform="translate(443,60)"/>
<path d="M0 0 C4.61581142 2.18643699 6.72864085 4.49599804 9 9 C9.82885269 14.54808604 9.7240695 19.47140883 7.3125 24.5625 C4.21064779 27.8320199 1.61649202 29.75850523 -2.90234375 30.43359375 C-9.05071801 30.44150672 -13.31314296 30.4465054 -18 26 C-21.88937897 20.55860924 -21.79042609 15.48149391 -21 9 C-16.63929544 -0.20593186 -9.3488659 -1.1401056 0 0 Z " fill="#000000" transform="translate(141,60)"/>
<path d="M0 0 C4.61581142 2.18643699 6.72864085 4.49599804 9 9 C9.82885269 14.54808604 9.7240695 19.47140883 7.3125 24.5625 C4.21064779 27.8320199 1.61649202 29.75850523 -2.90234375 30.43359375 C-9.05071801 30.44150672 -13.31314296 30.4465054 -18 26 C-21.88937897 20.55860924 -21.79042609 15.48149391 -21 9 C-16.63929544 -0.20593186 -9.3488659 -1.1401056 0 0 Z " fill="#000000" transform="translate(81,60)"/>
</svg>
