<?xml version="1.0" encoding="UTF-8"?>
<svg version="1.1" xmlns="http://www.w3.org/2000/svg" width="512" height="512">
<path d="M0 0 C2.07065193 -0.00570839 4.14130072 -0.01267446 6.21194458 -0.02079773 C11.81533086 -0.03869287 17.41856022 -0.03756751 23.02196646 -0.03185534 C27.70867759 -0.02875805 32.39535883 -0.034862 37.0820657 -0.04089409 C48.14327759 -0.05492592 59.20441223 -0.05338934 70.265625 -0.04199219 C81.65710238 -0.03051373 93.04834425 -0.04458526 104.43979061 -0.07138866 C114.23884161 -0.09357757 124.03781887 -0.1001758 133.8368932 -0.09431225 C139.68118438 -0.09094896 145.52532464 -0.09331605 151.36959457 -0.11056328 C156.86744139 -0.12608101 162.36494057 -0.12202321 167.8627739 -0.10325813 C169.87343786 -0.09958555 171.88412787 -0.10264163 173.89476776 -0.11314392 C191.40919203 -0.19760071 204.10358308 2.43200611 217.34423828 14.71655273 C227.62005668 25.57402123 230.07191178 37.54990118 229.88720703 52.06811523 C229.88296219 53.34133636 229.87871735 54.6145575 229.87434387 55.92636108 C229.86048743 59.27694368 229.83363569 62.62688794 229.80023193 65.97729492 C229.76929232 69.40985665 229.75578803 72.84248488 229.74072266 76.27514648 C229.70778915 82.98495501 229.65769191 89.69446711 229.59423828 96.40405273 C231.24555756 96.39072906 231.24555756 96.39072906 232.93023682 96.37713623 C243.34547096 96.29576832 253.76063994 96.23595251 264.17612076 96.19680405 C269.52982158 96.17600024 274.88326416 96.14781519 280.23681641 96.10229492 C285.41101339 96.058579 290.58496322 96.03486153 295.75933075 96.02454376 C297.72554154 96.01719837 299.69174003 96.00285546 301.65784454 95.98113251 C319.29407314 95.79416536 332.00775911 98.3431016 345.34423828 110.71655273 C356.11749624 122.09961775 358.05406816 134.5308578 357.93481445 149.67602539 C357.93396671 151.19472232 357.93444619 152.71342048 357.93614197 154.2321167 C357.9369976 158.32654492 357.91944239 162.42070587 357.8984201 166.51507235 C357.87958077 170.80449831 357.87789716 175.09393138 357.87434387 179.38339233 C357.86504462 187.49337448 357.84045975 195.60323432 357.8102954 203.71316278 C357.77668515 212.95141202 357.76024877 222.18966731 357.7452091 231.42796254 C357.71390815 250.42006176 357.66118918 269.41204739 357.59423828 288.40405273 C358.2292627 288.38310547 358.86428711 288.3621582 359.51855469 288.34057617 C362.41861904 288.25700693 365.31842944 288.205265 368.21923828 288.15405273 C369.21826172 288.12053711 370.21728516 288.08702148 371.24658203 288.05249023 C377.3994239 287.97099564 380.92634564 288.27566292 385.59423828 292.40405273 C389.72281947 297.18632595 390.24298561 300.91169929 390.09423828 306.96655273 C390.08142822 307.76085693 390.06861816 308.55516113 390.05541992 309.37353516 C389.50206104 325.6573928 381.82597304 340.29697484 370.48486328 351.74389648 C357.54879513 363.64857542 342.30091401 368.72704306 325.03874207 368.66474915 C323.90429148 368.66857469 322.76984089 368.67240024 321.601013 368.67634171 C317.81509705 368.6866269 314.02933402 368.68268802 310.2434082 368.67871094 C307.52266504 368.68196786 304.80193028 368.68817956 302.08119202 368.69419861 C295.46695082 368.70692126 288.85275026 368.70874231 282.23849889 368.70639835 C276.85933049 368.70461216 271.48017439 368.70637126 266.10100746 368.71062279 C265.33414112 368.71121798 264.56727478 368.71181317 263.77717007 368.71242639 C262.21904665 368.7136382 260.66092323 368.71485233 259.10279981 368.71606877 C244.50374052 368.72693511 229.90470436 368.72478621 215.30564377 368.71868392 C201.96738295 368.71351658 188.6291952 368.72476698 175.29094883 368.74378214 C161.57676856 368.76318248 147.86262282 368.77141263 134.14842874 368.76765889 C126.45638741 368.76575005 118.76440825 368.76820337 111.07237816 368.78237343 C104.52336381 368.79431629 97.97444988 368.79565974 91.42543408 368.78358326 C88.08816357 368.77771456 84.75122613 368.77818166 81.41394424 368.78858566 C77.78602296 368.79907751 74.15858955 368.79093223 70.53068542 368.77827454 C69.49009497 368.78564882 68.44950452 368.79302311 67.37738103 368.80062085 C49.86401377 368.67271219 34.47280152 361.56723436 22.18408203 349.25952148 C11.66198893 337.65823934 5.24566219 322.94843176 5.21923828 307.27905273 C5.19474609 306.5069043 5.17025391 305.73475586 5.14501953 304.93920898 C5.11784243 299.62155553 5.97981198 296.54683371 9.59423828 292.40405273 C15.04162949 287.58995214 19.91928937 287.91753832 26.96923828 288.15405273 C27.99146484 288.17209961 29.01369141 288.19014648 30.06689453 288.20874023 C32.57698577 288.25565783 35.08511593 288.32128544 37.59423828 288.40405273 C37.58870752 287.23013285 37.58870752 287.23013285 37.58306503 286.03249741 C37.49455879 266.95119808 37.42845334 247.86993996 37.38698959 228.78847885 C37.36640281 219.56065224 37.33835684 210.33296301 37.29248047 201.10522461 C37.25249338 193.05821201 37.22677727 185.01129897 37.2178843 176.96418977 C37.21268956 172.70699625 37.20056196 168.45008742 37.17131805 164.19298553 C37.14396081 160.17760781 37.13583379 156.16262928 37.14180756 152.14716721 C37.14071632 150.68153329 37.13288401 149.21588458 37.11741638 147.75033188 C36.95780827 131.83298382 41.06152028 120.34335609 51.90673828 108.65405273 C62.29206508 98.82508273 73.98437497 95.92734684 87.92871094 96.06347656 C89.12010681 96.06303848 90.31150269 96.0626004 91.53900146 96.06214905 C94.77400302 96.0638687 98.00860429 96.07881025 101.24352694 96.09987092 C104.63607797 96.11875189 108.02863866 96.12039708 111.42123413 96.12394714 C117.83126565 96.13323434 124.24114185 96.1578025 130.65110528 96.18799561 C137.95468287 96.22164385 145.25826826 96.2380517 152.56190419 96.25308192 C167.57276844 96.28435548 182.58348775 96.33705046 197.59423828 96.40405273 C197.52691947 89.73255612 197.43698984 83.06163091 197.33178711 76.390625 C197.29865776 74.12409267 197.270589 71.85748022 197.24780273 69.59082031 C197.21403593 66.32118786 197.16170856 63.05228176 197.10595703 59.78295898 C197.09637215 58.27772423 197.09637215 58.27772423 197.08659363 56.74208069 C196.93897476 49.58033113 196.38085766 42.42289039 191.34423828 36.96655273 C186.10203486 33.98802806 180.88997999 33.15608135 174.92456055 33.08520508 C173.00336143 33.05540054 173.00336143 33.05540054 171.04335022 33.0249939 C169.66578341 33.01312115 168.28821477 33.00145808 166.91064453 32.98999023 C165.48574224 32.97125719 164.06085079 32.95168222 162.63597107 32.93130493 C158.90591861 32.88020305 155.17583028 32.84046075 151.44561768 32.80316162 C147.63113693 32.7629835 143.8168026 32.71195451 140.00244141 32.66186523 C132.53314119 32.56536619 125.06376951 32.48087919 117.59423828 32.40405273 C117.61478271 34.29982056 117.61478271 34.29982056 117.63574219 36.23388672 C117.71755438 43.78322669 114.40545456 50.40353328 109.29736328 55.87280273 C101.0523942 63.28571072 92.31584892 64.9868918 81.51220703 64.71655273 C76.4138115 64.30990105 72.86321364 63.15327287 68.59423828 60.40405273 C67.88783203 59.96834961 67.18142578 59.53264648 66.45361328 59.08374023 C59.76266269 54.54876261 55.41142674 48.33360237 53.59423828 40.40405273 C53.5064888 37.73391589 53.56411731 35.07660442 53.59423828 32.40405273 C45.40487329 32.46550079 37.2158701 32.54277485 29.02685642 32.63976765 C25.22357399 32.68432781 21.42039514 32.72361456 17.61694336 32.75048828 C13.94033879 32.77666582 10.26413593 32.81716756 6.58778191 32.867239 C5.19135506 32.88381078 3.7948589 32.89538499 2.39834785 32.90166664 C-10.68128495 32.74148895 -10.68128495 32.74148895 -21.84326172 38.65405273 C-26.16832939 46.26617184 -25.69159241 54.01446786 -25.66645813 62.54855347 C-25.66948048 64.00011235 -25.67337038 65.45166963 -25.6780507 66.90322411 C-25.68832869 70.88341466 -25.68614938 74.86351511 -25.6818701 78.84371305 C-25.67940252 83.13965402 -25.68841745 87.43557332 -25.69590759 91.73150635 C-25.70865574 100.14442544 -25.71044814 108.55731262 -25.70810733 116.97023974 C-25.70632413 123.80876782 -25.70807385 130.64728622 -25.71233177 137.48581314 C-25.71292696 138.45919336 -25.71352215 139.43257358 -25.71413537 140.43545017 C-25.71534713 142.41289186 -25.71656126 144.39033354 -25.71777775 146.36777522 C-25.72865375 164.91159214 -25.72649052 183.45539088 -25.72039291 201.99920882 C-25.71522377 218.96087206 -25.726479 235.92247787 -25.74549112 252.88412975 C-25.76486656 270.30354141 -25.77312604 287.7229259 -25.76936787 305.14234841 C-25.76745537 314.9207429 -25.76994817 324.69908851 -25.78408241 334.47747421 C-25.79599342 342.80197518 -25.79740424 351.12639718 -25.78529225 359.45089923 C-25.77940158 363.69707291 -25.7783093 367.94310213 -25.79029465 372.1892662 C-25.80114661 376.07913936 -25.79805835 379.96874731 -25.78403296 383.85860802 C-25.78138414 385.26299095 -25.78375844 386.66739461 -25.79176883 388.07175718 C-26.01136532 400.90519345 -26.01136532 400.90519345 -20.15576172 411.84155273 C-14.46107192 415.07717194 -8.77520972 415.69852667 -2.33547974 415.66474915 C-1.5518068 415.66857469 -0.76813387 415.67240024 0.03928673 415.67634171 C2.64995846 415.6866124 5.26040781 415.68269091 7.87109375 415.67871094 C9.74912722 415.68306071 11.62715892 415.68824474 13.50518799 415.69419861 C18.59614455 415.7075716 23.68702679 415.70816914 28.77799749 415.70563531 C33.03238843 415.7045644 37.2867644 415.70945205 41.54115212 415.71424073 C51.58050606 415.72533013 61.61982259 415.72577656 71.65917969 415.71972656 C82.00599791 415.71368702 92.35268014 415.72599864 102.69947517 415.74729663 C111.59226117 415.76492664 120.48500395 415.77091176 129.37780678 415.76765889 C134.68491129 415.76584806 139.99191878 415.76846224 145.29900742 415.78237343 C150.29115842 415.79496981 155.28309782 415.79299048 160.27524567 415.77996254 C162.10333707 415.77760113 163.93144345 415.7803158 165.75951767 415.78858566 C180.38054134 416.37976962 180.38054134 416.37976962 193.03564453 410.18139648 C194.9208341 406.82207371 195.70993949 403.72713432 196.53173828 399.96655273 C198.07268028 393.52706175 199.52600941 388.93559253 205.38330078 385.29077148 C209.90106642 383.47887608 214.82604008 383.89271781 219.59423828 384.40405273 C224.56697949 386.71282544 226.92978393 389.67464625 229.59423828 394.40405273 C231.33743771 406.4270017 229.04011002 417.59421668 222.28173828 427.71655273 C214.32855107 438.24778581 204.81025112 445.87123665 191.59423828 448.40405273 C184.8167381 448.98754314 177.98454938 448.82502167 171.18847656 448.80810547 C169.11782463 448.81381386 167.04717585 448.82077993 164.97653198 448.8289032 C159.3731457 448.84679834 153.76991634 448.84567298 148.16651011 448.83996081 C143.47979897 448.83686352 138.79311773 448.84296747 134.10641086 448.84899956 C123.04519897 448.86303139 111.98406433 448.86149481 100.92285156 448.85009766 C89.53137418 448.8386192 78.14013231 448.85269073 66.74868596 448.87949413 C56.94963495 448.90168304 47.1506577 448.90828126 37.35158336 448.90241772 C31.50729218 448.89905442 25.66315192 448.90142151 19.81888199 448.91866875 C14.32103517 448.93418648 8.82353599 448.93012868 3.32570267 448.9113636 C1.3150387 448.90769102 -0.6956513 448.9107471 -2.7062912 448.92124939 C-20.22071547 449.00570618 -32.91510651 446.37609936 -46.15576172 434.09155273 C-56.91299321 422.72542135 -58.86073021 410.28177136 -58.79344177 395.15969849 C-58.79762008 393.62519056 -58.80310031 392.09068572 -58.80976158 390.55618656 C-58.82416982 386.3604998 -58.819986 382.16501025 -58.81259477 377.96931291 C-58.80785392 373.43613754 -58.82038106 368.90300428 -58.83061218 364.36984253 C-58.84778762 355.4971052 -58.84864279 346.62443873 -58.84339928 337.75168909 C-58.83935396 330.5380641 -58.84080543 323.32446002 -58.84614754 316.11083603 C-58.84689596 315.08322122 -58.84764438 314.05560641 -58.84841548 312.99685176 C-58.849947 310.90909187 -58.85148535 308.82133199 -58.85303045 306.73357211 C-58.86675098 287.16527694 -58.86132097 267.59702177 -58.84984524 248.02872752 C-58.83991361 230.13808502 -58.85285313 212.24754596 -58.87677943 194.35691942 C-58.90117899 175.9734924 -58.91077617 157.59011353 -58.9041267 139.20667064 C-58.90063636 128.89109786 -58.90285438 118.57560461 -58.92037773 108.2600441 C-58.93511041 99.47857499 -58.9357212 90.69724143 -58.91830682 81.91577496 C-58.90980321 77.43829478 -58.90763162 72.96105663 -58.92295837 68.48358917 C-58.93683454 64.37896406 -58.93200499 60.27478765 -58.91271914 56.17018829 C-58.90896777 54.69114615 -58.91185608 53.2120678 -58.92233079 51.73305799 C-59.02686902 35.83260664 -54.93011746 24.33434301 -44.09326172 12.65405273 C-31.11918275 0.37501371 -16.85790565 -0.04196125 0 0 Z M73.65673828 134.15405273 C68.78139346 141.83641427 69.31802407 149.58012667 69.3671875 158.41748047 C69.36780082 159.86010509 69.36753209 161.3027303 69.36645699 162.74535465 C69.36600708 166.59452196 69.37756472 170.44356389 69.39167786 174.29270172 C69.40310187 177.90994138 69.40360595 181.52715117 69.4050293 185.14440918 C69.4155071 195.71014018 69.44342955 206.27584806 69.46923828 216.84155273 C69.51048828 240.45717773 69.55173828 264.07280273 69.59423828 288.40405273 C154.07423828 288.40405273 238.55423828 288.40405273 325.59423828 288.40405273 C325.65611328 264.82967773 325.71798828 241.25530273 325.78173828 216.96655273 C325.80905029 209.53067627 325.8363623 202.0947998 325.86450195 194.43359375 C325.87453701 187.7516424 325.87453701 187.7516424 325.88056946 181.06968689 C325.88335752 178.1000136 325.89457233 175.13050219 325.91096497 172.16087341 C325.93163573 168.36559956 325.93769459 164.57055903 325.93345511 160.7752341 C325.93475673 158.7350078 325.95079879 156.69480694 325.96752453 154.65464878 C326.00113364 143.58642071 326.00113364 143.58642071 321.31920147 133.82711124 C315.33014638 128.3025938 307.98408244 128.10903123 300.30911255 128.14335632 C299.39476594 128.13953078 298.48041933 128.13570523 297.53836524 128.13176376 C294.48547868 128.12147447 291.43278162 128.12541818 288.37988281 128.12939453 C286.18658271 128.1250458 283.99328412 128.11986212 281.79998779 128.11390686 C275.84955742 128.10052281 269.8991906 128.09993756 263.94874811 128.10247016 C258.97858351 128.10354029 254.00843173 128.0986554 249.03826988 128.09386474 C236.64102952 128.0821375 224.24382047 128.08299346 211.84657823 128.08942155 C201.09276713 128.09458948 190.33904666 128.08333709 179.58525349 128.06432333 C168.53006776 128.04492728 157.47492695 128.0369832 146.41972435 128.04044658 C140.21836361 128.04225871 134.01708586 128.03963017 127.81573868 128.02573204 C121.98312348 128.0131493 116.15068953 128.0151022 110.31807709 128.02814293 C108.18037479 128.03050728 106.04265972 128.0277791 103.90497208 128.01951981 C100.98088246 128.00903886 98.05739946 128.01716406 95.1333313 128.02983093 C94.29274929 128.02245665 93.45216728 128.01508236 92.5861131 128.00748461 C85.83744416 128.06874624 78.42388396 128.9148754 73.65673828 134.15405273 Z M42.59423828 320.40405273 C47.36664116 327.27692158 47.36664116 327.27692158 53.28173828 331.77905273 C54.02810547 332.24053711 54.77447266 332.70202148 55.54345703 333.17749023 C63.5210336 336.38486417 72.06321108 336.69765861 80.56176758 336.65802002 C81.60879443 336.66114 82.65582129 336.66425998 83.73457623 336.66747451 C87.21259525 336.67539648 90.69043698 336.66915357 94.16845703 336.6628418 C96.6743683 336.66555423 99.18027877 336.66911658 101.68618774 336.67346191 C107.76776281 336.68161503 113.84926934 336.68044913 119.93084168 336.67463663 C124.87661789 336.67010671 129.82238027 336.66951298 134.76815796 336.67168427 C135.4739841 336.67199073 136.17981023 336.6722972 136.90702504 336.67261295 C138.34121712 336.67325245 139.77540921 336.67390087 141.20960128 336.67455813 C154.63548566 336.68025147 168.06134266 336.67371921 181.48722255 336.6629574 C192.98937952 336.6540228 204.49149611 336.65557512 215.99365234 336.66479492 C229.37384232 336.67551519 242.75400834 336.67970224 256.134202 336.67357039 C257.56290753 336.67293334 258.99161307 336.6723046 260.4203186 336.67168427 C261.12313813 336.67137571 261.82595766 336.67106716 262.55007476 336.67074926 C267.48581215 336.66902759 272.42153426 336.67192601 277.35726929 336.67664337 C284.00903915 336.68286153 290.66074484 336.67838925 297.31251144 336.66685486 C299.7493108 336.66421723 302.18611659 336.66495798 304.62291336 336.66938019 C307.9575974 336.6748725 311.29204017 336.66795683 314.62670898 336.65802002 C315.58324718 336.66248146 316.53978537 336.66694291 317.52530956 336.67153955 C325.74729158 336.624254 334.75137521 336.20326686 341.90673828 331.77905273 C342.66599609 331.33303711 343.42525391 330.88702148 344.20751953 330.42749023 C347.55262084 327.7434721 347.55262084 327.7434721 352.59423828 320.40405273 C250.29423828 320.40405273 147.99423828 320.40405273 42.59423828 320.40405273 Z " fill="#000000" transform="translate(90.40576171875,31.595947265625)"/>
<path d="M0 0 C5.41343331 3.12426822 9.56598671 7.27522088 13.953125 11.6875 C14.6945575 12.42701904 15.43598999 13.16653809 16.19989014 13.9284668 C17.75876596 15.48598675 19.31513951 17.04601475 20.86914062 18.60839844 C23.24908972 20.99908561 25.63955579 23.37888184 28.03125 25.7578125 C29.54751695 27.27540055 31.06316364 28.79360862 32.578125 30.3125 C33.2926886 31.02301514 34.0072522 31.73353027 34.74346924 32.46557617 C35.40465759 33.13306885 36.06584595 33.80056152 36.74707031 34.48828125 C37.32853821 35.07134033 37.9100061 35.65439941 38.50909424 36.25512695 C41.6783952 39.96430024 42.31355315 43.04527755 42.375 47.875 C42.40335937 48.88304687 42.43171875 49.89109375 42.4609375 50.9296875 C41.3852156 58.09508929 35.23095224 63.06269774 30.3125 67.953125 C29.57298096 68.6945575 28.83346191 69.43598999 28.0715332 70.19989014 C26.51401325 71.75876596 24.95398525 73.31513951 23.39160156 74.86914062 C21.00091439 77.24908972 18.62111816 79.63955579 16.2421875 82.03125 C14.72459945 83.54751695 13.20639138 85.06316364 11.6875 86.578125 C10.97698486 87.2926886 10.26646973 88.0072522 9.53442383 88.74346924 C8.86693115 89.40465759 8.19943848 90.06584595 7.51171875 90.74707031 C6.92865967 91.32853821 6.34560059 91.9100061 5.74487305 92.50909424 C1.12235179 96.45880484 -3.19457053 96.42717381 -9.0859375 96.3125 C-14.38740101 95.74397844 -16.83972495 93.22134216 -20.375 89.5 C-22.72325726 84.44221514 -22.97097307 79.48314207 -22 74 C-18.75079583 67.69797213 -13.26125442 63.04002649 -8.25 58.125 C-7.36183594 57.24585938 -6.47367187 56.36671875 -5.55859375 55.4609375 C-3.37687168 53.30267481 -1.19060654 51.14923832 1 49 C-0.5005231 45.46676828 -2.537999 43.25463484 -5.28125 40.59375 C-6.12300781 39.76746094 -6.96476562 38.94117188 -7.83203125 38.08984375 C-8.71246094 37.23519531 -9.59289062 36.38054687 -10.5 35.5 C-12.24422423 33.80685115 -13.98400821 32.10911292 -15.71875 30.40625 C-16.49154297 29.65666016 -17.26433594 28.90707031 -18.06054688 28.13476562 C-22.39681965 23.36180879 -22.43449608 19.1816112 -22.3125 12.9140625 C-21.74397844 7.61259899 -19.22134216 5.16027505 -15.5 1.625 C-10.44221514 -0.72325726 -5.48314207 -0.97097307 0 0 Z " fill="#000000" transform="translate(358,192)"/>
<path d="M0 0 C4.8846525 2.26787438 7.73212562 5.1153475 10 10 C10.80122442 15.95195283 11.16761841 21.21344339 7.484375 26.25488281 C3.98900424 30.36424304 0.09839468 34.10050359 -3.75 37.875 C-4.63816406 38.75414062 -5.52632812 39.63328125 -6.44140625 40.5390625 C-8.62312832 42.69732519 -10.80939346 44.85076168 -13 47 C-11.4994769 50.53323172 -9.462001 52.74536516 -6.71875 55.40625 C-5.87699219 56.23253906 -5.03523438 57.05882812 -4.16796875 57.91015625 C-3.28753906 58.76480469 -2.40710938 59.61945313 -1.5 60.5 C0.24422423 62.19314885 1.98400821 63.89088708 3.71875 65.59375 C4.49154297 66.34333984 5.26433594 67.09292969 6.06054688 67.86523438 C10.39681965 72.63819121 10.43449608 76.8183888 10.3125 83.0859375 C9.74397844 88.38740101 7.22134216 90.83972495 3.5 94.375 C-1.55778486 96.72325726 -6.51685793 96.97097307 -12 96 C-17.41343331 92.87573178 -21.56598671 88.72477912 -25.953125 84.3125 C-27.06527374 83.20322144 -27.06527374 83.20322144 -28.19989014 82.0715332 C-29.75876596 80.51401325 -31.31513951 78.95398525 -32.86914062 77.39160156 C-35.24908972 75.00091439 -37.63955579 72.62111816 -40.03125 70.2421875 C-41.54751695 68.72459945 -43.06316364 67.20639138 -44.578125 65.6875 C-45.2926886 64.97698486 -46.0072522 64.26646973 -46.74346924 63.53442383 C-47.40465759 62.86693115 -48.06584595 62.19943848 -48.74707031 61.51171875 C-49.32853821 60.92865967 -49.9100061 60.34560059 -50.50909424 59.74487305 C-53.6783952 56.03569976 -54.31355315 52.95472245 -54.375 48.125 C-54.40335938 47.11695313 -54.43171875 46.10890625 -54.4609375 45.0703125 C-53.3852156 37.90491071 -47.23095224 32.93730226 -42.3125 28.046875 C-41.57298096 27.3054425 -40.83346191 26.56401001 -40.0715332 25.80010986 C-38.51401325 24.24123404 -36.95398525 22.68486049 -35.39160156 21.13085938 C-33.00091439 18.75091028 -30.62111816 16.36044421 -28.2421875 13.96875 C-26.72459945 12.45248305 -25.20639138 10.93683636 -23.6875 9.421875 C-22.97698486 8.7073114 -22.26646973 7.9927478 -21.53442383 7.25653076 C-20.86693115 6.59534241 -20.19943848 5.93415405 -19.51171875 5.25292969 C-18.92865967 4.67146179 -18.34560059 4.0899939 -17.74487305 3.49090576 C-12.47667871 -1.01049983 -6.62819829 -0.71079874 0 0 Z " fill="#000000" transform="translate(230,192)"/>
<path d="M0 0 C4.8846525 2.26787438 7.73212562 5.1153475 10 10 C11.81765587 20.60792032 7.46406453 28.76264512 2.7734375 37.87109375 C2.0238263 39.36569184 1.27594189 40.86115712 0.5296936 42.35743713 C-1.0309343 45.47384915 -2.60740662 48.58150139 -4.19677734 51.68334961 C-6.22688061 55.64694771 -8.22282051 59.62656972 -10.20806313 63.61279202 C-11.74654305 66.69563363 -13.29920219 69.77115156 -14.85654831 72.84449959 C-15.59760795 74.30945943 -16.33513727 75.77621096 -17.06895828 77.2448101 C-18.09816448 79.29742028 -19.14525622 81.3398708 -20.19775391 83.38061523 C-21.08377792 85.121688 -21.08377792 85.121688 -21.98770142 86.89793396 C-24.61428845 90.94695854 -27.62517444 93.81258722 -32 96 C-37.53042052 96.50502343 -42.41030524 96.73807257 -47.5 94.375 C-51.98588404 90.11341016 -54.24077597 87.04109917 -54.55322266 80.77319336 C-54.41462919 72.2797477 -50.56749395 65.49635798 -46.7734375 58.12890625 C-46.0238263 56.63430816 -45.27594189 55.13884288 -44.5296936 53.64256287 C-42.9690657 50.52615085 -41.39259338 47.41849861 -39.80322266 44.31665039 C-37.77311939 40.35305229 -35.77717949 36.37343028 -33.79193687 32.38720798 C-32.25345695 29.30436637 -30.70079781 26.22884844 -29.14345169 23.15550041 C-28.40239205 21.69054057 -27.66486273 20.22378904 -26.93104172 18.7551899 C-25.90183552 16.70257972 -24.85474378 14.6601292 -23.80224609 12.61938477 C-23.21156342 11.45866959 -22.62088074 10.29795441 -22.01229858 9.10206604 C-16.39712287 0.44597194 -9.88892448 -0.91899691 0 0 Z " fill="#000000" transform="translate(310,192)"/>
</svg>
