<?xml version="1.0" encoding="UTF-8"?>
<svg version="1.1" xmlns="http://www.w3.org/2000/svg" width="512" height="512">
<path d="M0 0 C1.39992369 -0.00373921 2.79984529 -0.00834181 4.1997636 -0.01373065 C8.03733995 -0.02594288 11.874829 -0.02570228 15.71242034 -0.02334189 C19.85504677 -0.02293327 23.99764537 -0.03397727 28.14025879 -0.04345703 C36.25338779 -0.06005873 44.36648772 -0.06556622 52.47963228 -0.06668179 C59.07643032 -0.06763274 65.67321879 -0.07174543 72.27001381 -0.07808304 C90.98263333 -0.09569392 109.69522993 -0.10492226 128.4078578 -0.10342209 C129.92055979 -0.10330222 129.92055979 -0.10330222 131.46382141 -0.10317993 C132.4735242 -0.10309817 133.48322698 -0.10301641 134.52352683 -0.10293217 C150.88179307 -0.10211952 167.23996718 -0.1212522 183.59820678 -0.14945666 C200.40403732 -0.17820363 217.20982296 -0.19199593 234.0156787 -0.19026911 C243.44710386 -0.18960579 252.87843246 -0.19507256 262.30983543 -0.21662521 C270.34111912 -0.23486096 278.37226247 -0.23916479 286.40355792 -0.22560637 C290.49825524 -0.21908851 294.59268353 -0.21891646 298.68735504 -0.23631287 C302.4423759 -0.25210158 306.19691572 -0.24912151 309.95192526 -0.2317446 C311.93998235 -0.22724889 313.92805471 -0.24228647 315.916053 -0.25822389 C330.55518328 -0.14638623 341.411528 4.68066203 352.08125305 14.57992554 C368.24611035 31.65977476 365.48265379 55.46424936 365.46064758 77.24349976 C365.46200547 79.5189161 365.46378757 81.79433221 365.46595764 84.06974792 C365.47048852 90.20878569 365.4687597 96.34780651 365.46557856 102.48684454 C365.4630293 108.94887173 365.46539988 115.41089756 365.46696472 121.8729248 C365.46889628 133.42550657 365.46580439 144.97808068 365.46070538 156.53066124 C365.45624921 166.94780261 365.45700591 177.36493281 365.46162415 187.78207397 C365.46701077 199.93775343 365.46894838 212.09342495 365.46601188 224.24910557 C365.46446594 230.66155523 365.46420825 237.07399724 365.46754837 243.48644638 C365.47047634 249.52929877 365.46836277 255.5721305 365.46265411 261.6149807 C365.46135195 263.81005125 365.4616762 266.00512361 365.46391678 268.20019341 C365.47479949 279.96343574 365.33035258 291.71423805 364.94816589 303.47180176 C364.91780908 304.57637942 364.88745226 305.68095709 364.85617554 306.8190068 C364.81809057 307.85054732 364.78000559 308.88208784 364.74076653 309.94488716 C364.71016919 310.85348838 364.67957186 311.7620896 364.64804733 312.69822419 C364.30340057 315.49330917 363.48208434 317.70766527 362.33125305 320.26742554 C362.9860968 320.22101929 363.64094055 320.17461304 364.31562805 320.12680054 C376.82938398 319.63190623 387.92032225 324.12694002 397.51875305 332.07992554 C406.56398314 340.57695987 412.16760849 351.2643993 412.7648468 363.74789429 C412.78860981 365.65009006 412.78930212 367.55269233 412.76875305 369.45492554 C412.75972961 370.46305298 412.75070618 371.47118042 412.7414093 372.50985718 C412.33043983 390.36277058 405.45612876 408.00508644 393.33125305 421.26742554 C392.53074524 422.15945679 391.73023743 423.05148804 390.9054718 423.97055054 C378.17263171 437.45888476 360.48018088 447.07658082 341.76113164 448.54806983 C337.71746689 448.65503655 333.6833726 448.67290926 329.63879395 448.65510559 C328.07994925 448.65928603 326.5211076 448.66476742 324.96227151 448.6714254 C320.70848652 448.68580576 316.45489651 448.68165862 312.20110118 448.67425859 C307.601782 448.66951073 303.00250403 448.68205107 298.40319824 448.692276 C289.40406382 448.70943809 280.40499929 448.71030934 271.40585276 448.7050631 C264.08789644 448.7010151 256.76996072 448.70247243 249.45200539 448.70781136 C248.40887556 448.70855978 247.36574573 448.7093082 246.29100591 448.7100793 C244.17160429 448.71161084 242.05220266 448.71314919 239.93280105 448.71469427 C220.07445538 448.72841011 200.21614915 448.72298821 180.3578044 448.71150906 C162.21065524 448.7015791 144.06360809 448.71451489 125.91647466 448.73844325 C107.26063701 448.76285607 88.60484681 448.77243666 69.9489935 448.76579052 C59.48412536 448.76230297 49.01933562 448.76449963 38.5544796 448.78204155 C29.6454191 448.79679089 20.73649222 448.79736337 11.82743426 448.77997064 C7.28678644 448.77148049 2.74637703 448.76926226 -1.79425812 448.78462219 C-5.96002161 448.79853891 -10.12534403 448.79361737 -14.29108246 448.77438296 C-15.78896065 448.77064389 -17.28687478 448.77348373 -18.78472076 448.78399461 C-31.94627108 448.86970317 -44.31063257 446.71310975 -56.04374695 440.45492554 C-56.71236755 440.10728149 -57.38098816 439.75963745 -58.06987 439.40145874 C-63.41870981 436.54861417 -68.18817308 433.37257792 -72.66874695 429.26742554 C-73.57237976 428.4437146 -74.47601257 427.62000366 -75.4070282 426.77133179 C-90.46613235 412.40506869 -99.46246178 393.6071283 -100.19462585 372.71810913 C-100.3908596 356.57199645 -96.96699868 344.95310443 -85.60624695 333.11898804 C-76.19888734 324.08120327 -64.76165657 319.95342724 -51.8289032 320.19711304 C-50.75962585 320.23191772 -50.75962585 320.23191772 -49.66874695 320.26742554 C-49.99031224 319.54736261 -50.31187753 318.82729969 -50.64318722 318.08541667 C-51.66834322 315.26853487 -51.97254726 313.15813848 -52.07770252 310.17956734 C-52.11570412 309.1956252 -52.15370571 308.21168306 -52.19285887 307.19792449 C-52.22315588 306.14264969 -52.25345288 305.08737489 -52.28466797 304.00012207 C-52.3222567 302.89047722 -52.35984543 301.78083237 -52.39857322 300.63756192 C-52.76518209 288.94040337 -52.81705659 277.24615647 -52.81401062 265.54428101 C-52.81701351 263.19057666 -52.82041857 260.8368728 -52.82418823 258.48316956 C-52.83290862 252.17599009 -52.83536096 245.86882423 -52.83600402 239.56163931 C-52.83684137 234.94117224 -52.83975185 230.3207081 -52.8428405 225.70024208 C-52.85110204 213.25540711 -52.85488748 200.81057922 -52.85417076 188.3657416 C-52.85413081 187.66395159 -52.85409085 186.96216159 -52.85404968 186.23910522 C-52.8540088 185.53643926 -52.85396792 184.83377329 -52.8539258 184.10981442 C-52.85351828 172.69193766 -52.86312531 161.27409369 -52.87718805 149.85622643 C-52.89158738 138.07046088 -52.8984566 126.28471133 -52.89759427 114.49893677 C-52.89726401 107.90643276 -52.90013604 101.31395915 -52.91077232 94.72146225 C-52.92049198 88.53076945 -52.92050608 82.34014957 -52.91325569 76.14945412 C-52.9122153 73.88847687 -52.91454004 71.62749497 -52.92061615 69.36652565 C-53.02197346 29.01777403 -53.02197346 29.01777403 -37.56718445 13.10336304 C-26.3149716 2.4873177 -15.02776937 -0.03595949 0 0 Z M-15.60624695 38.01742554 C-19.86682671 44.73106637 -19.95960392 51.02995688 -19.92944336 58.76739502 C-19.93326891 59.81241531 -19.93709445 60.85743559 -19.94103593 61.93412316 C-19.95133916 65.42922722 -19.9473788 68.92416618 -19.94340515 72.41928101 C-19.9477531 74.92784782 -19.95293653 77.4364133 -19.95889282 79.94497681 C-19.97089463 86.04781207 -19.97343527 92.15058666 -19.97109256 98.25343142 C-19.96930761 103.21553036 -19.97106283 108.17761595 -19.975317 113.13971329 C-19.97591219 113.84665883 -19.97650738 114.55360437 -19.9771206 115.28197251 C-19.97833239 116.71826219 -19.97954652 118.15455187 -19.98076298 119.59084155 C-19.99163314 133.05288878 -19.98947855 146.51491096 -19.98337813 159.9769596 C-19.97820979 172.28273247 -19.98946316 184.58842617 -20.00847635 196.89418338 C-20.0278653 209.54042472 -20.03610888 222.18662861 -20.0323531 234.83288491 C-20.03044261 241.92850165 -20.03291371 249.02405101 -20.04706764 256.11965561 C-20.06024442 262.79274245 -20.0577071 269.46564531 -20.04465675 276.13874054 C-20.0422902 278.58605376 -20.04502846 281.03337811 -20.05327988 283.48067856 C-20.06374195 286.82513241 -20.05565039 290.16905393 -20.04296875 293.51348877 C-20.05034303 294.47858112 -20.05771732 295.44367347 -20.06531507 296.43801105 C-20.0146663 302.80097227 -19.52881513 309.69922952 -15.39384156 314.85798633 C-8.37201185 321.26976333 0.36937792 320.55569841 9.26091003 320.52812195 C10.56727767 320.5319475 11.87364531 320.53577304 13.21959984 320.53971452 C16.83494285 320.54998442 20.45018658 320.54781528 24.06553769 320.54353392 C27.96883793 320.54106486 31.87211438 320.5500831 35.77540588 320.55757141 C43.41829481 320.57031549 51.06114859 320.57211246 58.70404635 320.56977115 C64.91709796 320.56798748 71.13013891 320.56973867 77.34318924 320.57399559 C78.2277579 320.57459078 79.11232656 320.57518597 80.02370033 320.57579919 C81.82075802 320.57701096 83.6178157 320.57822509 85.41487338 320.57944157 C102.26476692 320.59031601 119.11464046 320.58815508 135.96453513 320.58205672 C151.37423433 320.5768878 166.78387031 320.58814253 182.19355701 320.60715494 C198.02191176 320.62653397 213.8502366 320.63478922 229.67860329 320.63103169 C238.56273804 320.62911973 247.44681899 320.63160675 256.33094406 320.64574623 C263.89421336 320.65766182 271.45739573 320.65906292 279.02066623 320.64695606 C282.87799392 320.6410686 286.73516262 320.63996422 290.59247971 320.65195847 C294.7776553 320.66482073 298.96245276 320.6543497 303.14762878 320.64164734 C304.96879835 320.65270877 304.96879835 320.65270877 306.82675922 320.66399366 C313.75276067 320.6197563 321.26239496 320.5483743 326.91232288 315.99252015 C332.78062694 309.61083984 332.62366014 301.90256426 332.59194946 293.76745605 C332.59577501 292.72243577 332.59960056 291.67741548 332.60354203 290.60072792 C332.61384527 287.10562385 332.60988491 283.61068489 332.60591125 280.11557007 C332.6102592 277.60700326 332.61544263 275.09843778 332.62139893 272.58987427 C332.63340073 266.48703901 332.63594138 260.38426442 332.63359866 254.28141965 C332.63181371 249.31932072 332.63356894 244.35723512 332.6378231 239.39513779 C332.63871589 238.33471947 332.63871589 238.33471947 332.63962671 237.25287857 C332.64083849 235.81658889 332.64205263 234.38029921 332.64326908 232.94400953 C332.65413924 219.48196229 332.65198465 206.01994012 332.64588424 192.55789147 C332.64071589 180.2521186 332.65196926 167.9464249 332.67098246 155.64066769 C332.6903714 142.99442636 332.69861498 130.34822246 332.69485921 117.70196617 C332.69294872 110.60634942 332.69541981 103.51080006 332.70957375 96.41519547 C332.72275052 89.74210863 332.7202132 83.06920576 332.70716286 76.39611053 C332.7047963 73.94879732 332.70753457 71.50147297 332.71578598 69.05417252 C332.72624805 65.70971867 332.7181565 62.36579715 332.70547485 59.0213623 C332.71284914 58.05626995 332.72022342 57.0911776 332.72782117 56.09684002 C332.6771724 49.73387881 332.19132123 42.83562156 328.05634767 37.67686474 C321.03451796 31.26508774 312.29312819 31.97915266 303.40159607 32.00672913 C302.09522843 32.00290358 300.7888608 31.99907803 299.44290626 31.99513656 C295.82756325 31.98486665 292.21231953 31.9870358 288.59696841 31.99131715 C284.69366817 31.99378621 280.79039172 31.98476797 276.88710022 31.97727966 C269.2442113 31.96453559 261.60135751 31.96273861 253.95845975 31.96507993 C247.74540814 31.96686359 241.5323672 31.9651124 235.31931686 31.96085548 C234.4347482 31.9602603 233.55017954 31.95966511 232.63880577 31.95905188 C230.84174809 31.95784012 229.04469041 31.95662598 227.24763273 31.9554095 C210.39773918 31.94453506 193.54786565 31.94669599 176.69797097 31.95279435 C161.28827177 31.95796327 145.87863579 31.94670854 130.46894909 31.92769613 C114.64059434 31.9083171 98.8122695 31.90006185 82.98390281 31.90381938 C74.09976806 31.90573135 65.21568711 31.90324432 56.33156204 31.88910484 C48.76829274 31.87718925 41.20511037 31.87578815 33.64183988 31.88789501 C29.78451219 31.89378248 25.92734348 31.89488685 22.0700264 31.88289261 C17.8848508 31.87003035 13.70005334 31.88050137 9.51487732 31.89320374 C8.30076428 31.88582945 7.08665123 31.87845517 5.83574688 31.87085742 C-1.78551115 31.91953548 -10.10214266 32.03180626 -15.60624695 38.01742554 Z M-63.66874695 358.32992554 C-67.77094518 364.35502919 -67.18261066 370.11737908 -66.66874695 377.26742554 C-64.18499351 389.68619274 -56.61688732 400.57483852 -46.35624695 407.92367554 C-33.49408225 416.12330553 -20.15589892 416.41935712 -5.31065369 416.40113831 C-3.86022087 416.40300887 -2.40978855 416.40531055 -0.95935702 416.40800363 C3.00857064 416.41409763 6.97647715 416.41399087 10.94440842 416.41280925 C15.23084078 416.41260464 19.51726646 416.41812979 23.80369568 416.42286682 C32.19494944 416.43116071 40.58619617 416.43392109 48.97745368 416.4344792 C55.80064142 416.43495495 62.62382685 416.43701264 69.44701385 416.44017982 C88.80679807 416.44898288 108.16657675 416.45359973 127.52636299 416.45284935 C129.0907406 416.45278942 129.0907406 416.45278942 130.6867218 416.45272827 C131.73091865 416.45268739 132.7751155 416.45264651 133.85095468 416.45260439 C150.77097599 416.452198 167.69097503 416.46176674 184.6109899 416.47586664 C201.99883999 416.49024167 219.38667923 416.4971362 236.77453542 416.49627286 C246.53066146 416.49594129 256.28676415 416.49867109 266.04288483 416.50945091 C274.34964039 416.51857073 282.65636202 416.52071899 290.96312043 416.51394149 C295.19762442 416.5106838 299.43206338 416.5105924 303.66656113 416.51929474 C307.55034284 416.52719393 311.43400832 416.52569367 315.31778732 416.51701061 C316.71545285 416.51548311 318.11312721 416.51726315 319.51078233 416.52287068 C337.99948419 416.59207843 352.90740376 414.36134416 366.49531555 401.16586304 C375.94287273 391.15216011 379.87641344 380.2337536 379.64375305 366.52133179 C379.24440796 362.36315102 378.28875361 360.22492609 375.33125305 357.26742554 C369.88384635 352.97904154 365.50950623 352.14070979 358.71875 352.14717102 C357.60120834 352.14579636 356.48366669 352.14442169 355.33226013 352.14300537 C354.11593903 352.14660065 352.89961792 352.15019592 351.6464386 352.15390015 C350.35823715 352.15375412 349.07003571 352.15360809 347.74279785 352.15345764 C344.21839893 352.15317114 340.69403416 352.15904418 337.16964316 352.1660316 C333.48342802 352.17228954 329.79721207 352.17287087 326.11099243 352.17405701 C319.13420585 352.17716312 312.15743497 352.18536682 305.1806553 352.1954065 C297.23631541 352.20658997 289.29197476 352.21208372 281.34762895 352.21710193 C265.0088278 352.22755003 248.67004243 352.24513555 232.33125305 352.26742554 C231.92809875 353.45296021 231.52494446 354.63849487 231.10957336 355.85995483 C229.60650776 360.27107024 228.09003405 364.67747796 226.5695343 369.08261108 C225.91419103 370.98728342 225.26245658 372.89320152 224.61445618 374.80038452 C223.6806412 377.54668855 222.73380018 380.28820265 221.78437805 383.02914429 C221.49879028 383.87828903 221.21320251 384.72743378 220.91896057 385.60231018 C219.1222017 390.73902291 217.37515695 395.43240164 212.48791313 398.3786869 C210.08693347 399.36810726 208.38001064 399.52379406 205.79051208 399.53485107 C204.43217758 399.54764603 204.43217758 399.54764603 203.04640198 399.56069946 C202.06032959 399.55979309 201.0742572 399.55888672 200.05830383 399.55795288 C199.01397186 399.5646701 197.96963989 399.57138733 196.8936615 399.57830811 C193.43791458 399.59732149 189.98236153 399.60121399 186.52656555 399.60336304 C184.12526875 399.60978853 181.72397275 399.6165167 179.32267761 399.62353516 C174.28726893 399.63551621 169.25192889 399.63921511 164.21650696 399.63803101 C157.76453879 399.63782775 151.31301076 399.66513368 144.86114693 399.69957542 C139.90088377 399.72181361 134.94072706 399.72586949 129.98041916 399.72481155 C127.60177468 399.72717201 125.22312745 399.73602041 122.84453201 399.75147629 C119.51703827 399.77107356 116.19050049 399.76532215 112.86299133 399.75326538 C111.38995544 399.7701239 111.38995544 399.7701239 109.88716125 399.787323 C104.24505867 399.73537866 100.59877155 399.33384652 96.33125305 395.26742554 C93.05416787 390.24994975 91.20229481 384.48034085 89.31562805 378.82992554 C88.92458893 377.68161255 88.92458893 377.68161255 88.52565002 376.51010132 C87.70548528 374.09765615 86.89324175 371.68263329 86.08125305 369.26742554 C85.52188205 367.61750793 84.96199083 365.96776659 84.40156555 364.31820679 C83.03878032 360.30328967 81.68308546 356.28604305 80.33125305 352.26742554 C63.27604881 352.1972405 46.22088985 352.14439096 29.16557407 352.11198902 C21.24589767 352.09654212 13.32631118 352.07549441 5.4066925 352.04110718 C-1.4987391 352.01113796 -8.40410557 351.99183472 -15.30960041 351.98516005 C-18.96358722 351.98126048 -22.61738772 351.97214181 -26.27131462 351.95023537 C-30.3575696 351.92593732 -34.44350387 351.92546035 -38.52983093 351.92684937 C-40.33274094 351.91067062 -40.33274094 351.91067062 -42.17207336 351.89416504 C-49.98868853 351.92286896 -58.2317268 352.00030712 -63.66874695 358.32992554 Z M115.33125305 352.26742554 C117.86165728 362.36895039 117.86165728 362.36895039 120.33125305 368.26742554 C144.09125305 368.26742554 167.85125305 368.26742554 192.33125305 368.26742554 C195.77092395 360.43018946 195.77092395 360.43018946 197.33125305 352.26742554 C170.27125305 352.26742554 143.21125305 352.26742554 115.33125305 352.26742554 Z " fill="#000000" transform="translate(99.66874694824219,31.732574462890625)"/>
<path d="M0 0 C1.83893829 -0.00935994 1.83893829 -0.00935994 3.71502686 -0.01890898 C7.11067264 -0.03209356 10.50543213 -0.02736248 13.90102386 -0.0149641 C17.56571995 -0.0059106 21.23033881 -0.0198848 24.89501953 -0.03088379 C32.07118816 -0.04867046 39.24718945 -0.04482842 46.42336464 -0.03323323 C52.25556435 -0.02419974 58.08771717 -0.02297453 63.91992188 -0.02732849 C64.74998497 -0.02794142 65.58004807 -0.02855436 66.43526459 -0.02918586 C68.12152101 -0.03046476 69.80777742 -0.03176162 71.49403381 -0.03307623 C87.30614256 -0.04448245 103.11815854 -0.03136766 118.93025208 -0.00987476 C132.49781867 0.00799627 146.06524837 0.00489218 159.6328125 -0.0135498 C175.38832859 -0.03495577 191.14376339 -0.04338381 206.89929199 -0.03110075 C208.57934569 -0.02982655 210.2593994 -0.02856907 211.93945312 -0.02732849 C212.76607201 -0.02671139 213.59269089 -0.02609429 214.44435883 -0.02545848 C220.26956636 -0.02200476 226.09472233 -0.02783441 231.91992188 -0.0372467 C239.01891224 -0.04846503 246.11772569 -0.04543022 253.21669579 -0.02412373 C256.83875643 -0.01361096 260.4605221 -0.00949506 264.08258057 -0.02272034 C268.00834553 -0.03683776 271.93362745 -0.01998152 275.859375 0 C277.00508972 -0.00892289 278.15080444 -0.01784577 279.33123779 -0.02703905 C285.33085387 0.03237804 289.35085276 0.20862791 293.9296875 4.50793457 C298.39085199 9.5482581 298.50142369 13.73689799 298.43762207 20.14855957 C298.44698201 21.59547684 298.44698201 21.59547684 298.45653105 23.07162476 C298.47247306 26.30064407 298.4598517 29.52890979 298.44726562 32.75793457 C298.45268618 35.07418254 298.45980847 37.39042706 298.46850586 39.70666504 C298.48674979 45.99585413 298.47966707 52.2847809 298.46698952 58.57397461 C298.45686751 65.15353099 298.46625298 71.73306481 298.47253418 78.31262207 C298.48107899 90.0700416 298.46784299 101.82735072 298.44749683 113.58475113 C298.42962618 124.24149642 298.43273041 134.89806742 298.45117188 145.55480957 C298.472586 157.93512082 298.48054174 170.31532095 298.46872282 182.69564819 C298.46248438 189.24737737 298.46166203 195.79898652 298.47486877 202.35070801 C298.48641711 208.51002971 298.47841965 214.66902202 298.45529175 220.82830811 C298.44999929 223.08981784 298.45152755 225.35135526 298.46034241 227.612854 C298.47125982 230.69804772 298.4575794 233.78218342 298.43762207 236.86730957 C298.4510064 238.21235062 298.4510064 238.21235062 298.46466112 239.58456421 C298.39621054 245.03336608 297.67812831 248.27286221 293.9296875 252.50793457 C288.51086305 257.59595137 282.886553 257.07059717 275.859375 257.01586914 C274.02043671 257.02522908 274.02043671 257.02522908 272.14434814 257.03477812 C268.74870236 257.0479627 265.35394287 257.04323162 261.95835114 257.03083324 C258.29365505 257.02177974 254.62903619 257.03575394 250.96435547 257.04675293 C243.78818684 257.0645396 236.61218555 257.06069756 229.43601036 257.04910237 C223.60381065 257.04006888 217.77165783 257.03884367 211.93945312 257.04319763 C211.10939003 257.04381056 210.27932693 257.0444235 209.42411041 257.045055 C207.73785399 257.0463339 206.05159758 257.04763076 204.36534119 257.04894537 C188.55323244 257.06035159 172.74121646 257.0472368 156.92912292 257.0257439 C143.36155633 257.00787287 129.79412663 257.01097697 116.2265625 257.02941895 C100.47104641 257.05082491 84.71561161 257.05925295 68.96008301 257.04696989 C67.28002931 257.04569569 65.5999756 257.04443821 63.91992188 257.04319763 C63.09330299 257.04258053 62.26668411 257.04196343 61.41501617 257.04132763 C55.58980864 257.0378739 49.76465267 257.04370355 43.93945312 257.05311584 C36.84046276 257.06433418 29.74164931 257.06129936 22.64267921 257.03999287 C19.02061857 257.0294801 15.3988529 257.0253642 11.77679443 257.03858948 C7.85102947 257.0527069 3.92574755 257.03585066 0 257.01586914 C-1.71857208 257.02925347 -1.71857208 257.02925347 -3.47186279 257.04290819 C-9.47147887 256.9834911 -13.49147776 256.80724124 -18.0703125 252.50793457 C-22.53147699 247.46761104 -22.64204869 243.27897115 -22.57824707 236.86730957 C-22.58448703 235.90269806 -22.590727 234.93808655 -22.59715605 233.94424438 C-22.61309806 230.71522507 -22.6004767 227.48695935 -22.58789062 224.25793457 C-22.59331118 221.9416866 -22.60043347 219.62544208 -22.60913086 217.3092041 C-22.62737479 211.02001502 -22.62029207 204.73108824 -22.60761452 198.44189453 C-22.59749251 191.86233815 -22.60687798 185.28280433 -22.61315918 178.70324707 C-22.62170399 166.94582754 -22.60846799 155.18851842 -22.58812183 143.43111801 C-22.57025118 132.77437272 -22.57335541 122.11780172 -22.59179688 111.46105957 C-22.613211 99.08074833 -22.62116674 86.70054819 -22.60934782 74.32022095 C-22.60310938 67.76849177 -22.60228703 61.21688262 -22.61549377 54.66516113 C-22.62704211 48.50583943 -22.61904465 42.34684712 -22.59591675 36.18756104 C-22.59062429 33.9260513 -22.59215255 31.66451388 -22.60096741 29.40301514 C-22.61188482 26.31782142 -22.5982044 23.23368572 -22.57824707 20.14855957 C-22.58716996 19.25186554 -22.59609284 18.35517151 -22.60528612 17.43130493 C-22.53683554 11.98250306 -21.81875331 8.74300693 -18.0703125 4.50793457 C-12.65148805 -0.58008223 -7.027178 -0.05472803 0 0 Z M9.9296875 32.50793457 C9.9296875 95.86793457 9.9296875 159.22793457 9.9296875 224.50793457 C94.4096875 224.50793457 178.8896875 224.50793457 265.9296875 224.50793457 C265.9296875 161.14793457 265.9296875 97.78793457 265.9296875 32.50793457 C181.4496875 32.50793457 96.9696875 32.50793457 9.9296875 32.50793457 Z " fill="#000000" transform="translate(118.0703125,79.4920654296875)"/>
</svg>
