<?xml version="1.0" encoding="UTF-8"?>
<svg version="1.1" xmlns="http://www.w3.org/2000/svg" width="512" height="512">
<path d="M0 0 C15.28176136 13.19588876 21.73123888 30.54526523 26.25 49.75 C27.26320313 49.40066406 28.27640625 49.05132812 29.3203125 48.69140625 C30.67179229 48.23152771 32.02335947 47.77190591 33.375 47.3125 C34.04015625 47.08240234 34.7053125 46.85230469 35.390625 46.61523438 C54.60108984 40.11757715 76.35524669 43.37923864 94.43603516 51.83154297 C110.55682588 59.99391372 123.66550946 74.13114689 131.5078125 90.3515625 C133.13339942 95.60477498 133.12769112 101.50701157 131.125 106.625 C125.23658444 113.29853763 119.998841 115.03041506 111.4375 117 C109.34703362 117.5026258 107.25715337 118.00769784 105.16796875 118.515625 C104.24781982 118.72993164 103.3276709 118.94423828 102.37963867 119.16503906 C100.28299183 119.55215351 100.28299183 119.55215351 99.25 120.75 C99.91 121.36875 100.57 121.9875 101.25 122.625 C119.82413743 141.460745 127.0368314 166.25239473 131.25 191.75 C131.44207031 192.90628906 131.63414062 194.06257812 131.83203125 195.25390625 C132.33417323 199.45406581 132.50962209 203.58579233 132.5625 207.8125 C132.59150391 208.58916016 132.62050781 209.36582031 132.65039062 210.16601562 C132.70946786 215.53295536 131.77601611 218.47623642 128.25 222.75 C123.68763136 227.08425021 119.61382641 227.31316067 113.59423828 227.21875 C107.46745827 226.35998101 102.66004504 223.22586576 97.4375 220.0625 C96.26376936 219.37701521 95.08852824 218.69411084 93.91186523 218.01367188 C91.51494364 216.62359323 89.12621509 215.22084716 86.74316406 213.80712891 C82.4523997 211.26873586 78.105063 208.83363738 73.75537109 206.39794922 C65.2004813 201.60738127 56.68957843 196.74114853 48.25 191.75 C48.4665625 193.0184375 48.683125 194.286875 48.90625 195.59375 C55.32645889 236.99591512 52.23898559 279.59418552 34.25 317.75 C33.43267653 319.58118806 32.61925579 321.41413169 31.8125 323.25 C31.296875 324.405 30.78125 325.56 30.25 326.75 C31.09175781 326.99621094 31.93351562 327.24242187 32.80078125 327.49609375 C36.61713939 328.88346743 39.98162547 330.71472196 43.4375 332.8125 C44.09387451 333.20953125 44.75024902 333.6065625 45.42651367 334.015625 C51.47914297 337.75711626 56.90994559 342.04878645 62.25 346.75 C63.09046875 347.46929687 63.9309375 348.18859375 64.796875 348.9296875 C79.30987248 361.59475673 97.79300634 381.5783854 100.25 401.75 C100.95898438 401.853125 101.66796875 401.95625 102.3984375 402.0625 C113.24422928 404.67737583 123.39951649 413.67391261 130.9375 421.5625 C133.00724609 426.58902621 132.97752535 431.40011663 132.25 436.75 C130.5625 440.25 130.5625 440.25 128.25 442.75 C127.54875 443.513125 126.8475 444.27625 126.125 445.0625 C121.93432733 447.52224265 118.06886056 447.91721598 113.25 447.75 C107.29714593 446.15548552 103.42963886 442.55340033 98.71875 438.6796875 C89.17297163 431.21827213 77.18001413 428.63347304 65.25 429.75 C53.37643216 431.67423398 45.66727231 436.27120455 36.97265625 444.34765625 C28.41586387 451.89776717 18.89043486 457.64601047 8.25 461.75 C7.18136719 462.16378906 6.11273438 462.57757813 5.01171875 463.00390625 C-15.04223222 469.5220081 -37.33511115 467.04674257 -56.0625 458 C-62.62630464 454.64735523 -68.21454007 450.62669445 -73.75 445.75 C-85.92474017 435.36111734 -96.90272414 428.95174989 -113.41796875 429.40234375 C-125.75678957 430.6897471 -136.27501987 435.87762642 -144.73046875 444.828125 C-152.67703357 452.39042653 -162.58721156 457.83023752 -172.75 461.75 C-173.81863281 462.16378906 -174.88726562 462.57757813 -175.98828125 463.00390625 C-196.04223222 469.5220081 -218.33511115 467.04674257 -237.0625 458 C-243.62630464 454.64735523 -249.21454007 450.62669445 -254.75 445.75 C-266.92474017 435.36111734 -277.90272414 428.95174989 -294.41796875 429.40234375 C-305.85719998 430.59588605 -315.97365307 435.36724401 -324.5 443 C-328.0485007 446.14413667 -331.04958889 447.71587928 -335.9140625 447.77734375 C-341.16947997 447.43459913 -344.71140821 446.31898809 -348.75 442.75 C-352.66963445 437.48943797 -353.69533356 433.2596387 -352.75 426.75 C-349.48657651 416.75576556 -339.39605276 410.711448 -330.75 405.75 C-329.94691406 405.2859375 -329.14382813 404.821875 -328.31640625 404.34375 C-318.46256216 399.03658931 -306.41480164 395.09854631 -295.1484375 396.07421875 C-285.13529418 397.09708003 -285.13529418 397.09708003 -276.08203125 393.5390625 C-273.27634177 391.0669076 -270.80560004 388.30034041 -268.34375 385.49072266 C-265.59869712 382.49252611 -262.52403401 379.88796784 -259.4375 377.25 C-258.81319092 376.71052734 -258.18888184 376.17105469 -257.5456543 375.61523438 C-245.98838625 365.71787322 -233.57570757 356.9193061 -220.75 348.75 C-220.17523926 348.38342285 -219.60047852 348.0168457 -219.00830078 347.63916016 C-167.95371306 315.3918731 -113.5970205 302.91153544 -53.75 303.75 C-38.61210075 269.14908744 -33.02124521 230.6784037 -29.17578125 193.33203125 C-28.75 189.75 -28.75 189.75 -27.75 187.75 C-53.54377066 199.58663945 -77.28568989 213.78001282 -100.75 229.75 C-102.92868466 231.23002881 -105.10846342 232.7082705 -107.29248047 234.18041992 C-108.54721756 235.02624855 -109.79912369 235.87630114 -111.04736328 236.73168945 C-117.1122896 240.82369861 -121.09610889 242.23218248 -128.31640625 241.27734375 C-132.54146402 240.36180154 -135.40420719 238.72349578 -137.8659668 235.11352539 C-140.85324981 229.57979973 -141.34378949 224.97675384 -141.1875 218.75 C-141.17356201 217.80157227 -141.15962402 216.85314453 -141.14526367 215.87597656 C-140.4102493 186.59989928 -134.83776727 155.56265927 -113.75 133.75 C-111.13780055 131.35028185 -108.46628986 129.03089961 -105.75 126.75 C-106.78817871 126.41266846 -107.82635742 126.07533691 -108.89599609 125.7277832 C-112.79378455 124.45897646 -116.6881128 123.17981683 -120.58154297 121.89770508 C-122.25836884 121.34707911 -123.93608735 120.79916305 -125.61474609 120.25415039 C-150.29524228 112.23556155 -150.29524228 112.23556155 -154.375 106.625 C-156.53910215 101.83900486 -156.68292967 96.86303317 -155.75 91.75 C-154.23593998 88.30479928 -152.16497844 85.61903431 -149.75 82.75 C-149.08484375 81.93660156 -148.4196875 81.12320313 -147.734375 80.28515625 C-136.60850658 67.29830624 -123.01486002 57.9430961 -106.875 52.4375 C-106.20525146 52.20716064 -105.53550293 51.97682129 -104.84545898 51.73950195 C-97.32049844 49.34147629 -89.51248306 48.12163827 -81.75 46.75 C-82.46655762 46.04391602 -83.18311523 45.33783203 -83.92138672 44.61035156 C-86.58403473 41.98396277 -89.24000997 39.35091216 -91.89404297 36.71582031 C-93.04262909 35.57727825 -94.19300565 34.44053942 -95.34521484 33.30566406 C-97.00314197 31.67205511 -98.65447603 30.03202321 -100.3046875 28.390625 C-100.81933563 27.88629944 -101.33398376 27.38197388 -101.86422729 26.86236572 C-106.44328749 22.28474558 -108.04278305 19.33725209 -108.125 12.875 C-108.00803693 6.46542397 -106.3744721 3.33205639 -101.81640625 -1.15234375 C-97.33752498 -4.21624087 -92.51582589 -5.66058709 -87.375 -7.3125 C-86.28936768 -7.66248047 -85.20373535 -8.01246094 -84.08520508 -8.37304688 C-80.98016973 -9.35584921 -77.86864455 -10.31137882 -74.75 -11.25 C-74.0398877 -11.46640137 -73.32977539 -11.68280273 -72.59814453 -11.90576172 C-48.44808365 -18.9367921 -19.96241459 -15.54764982 0 0 Z M-60.75 19.75 C-53.09988025 28.77321817 -45.17077611 37.39705132 -36.76367188 45.71704102 C-33.25326141 49.2041565 -29.92860927 52.75909133 -26.73828125 56.54296875 C-23.17688664 60.49618674 -19.34549014 64.19196008 -15.546875 67.91601562 C-14.95777344 68.49673828 -14.36867188 69.07746094 -13.76171875 69.67578125 C-13.23022217 70.19567627 -12.69872559 70.71557129 -12.15112305 71.2512207 C-10.75 72.75 -10.75 72.75 -8.75 75.75 C-8.09 75.75 -7.43 75.75 -6.75 75.75 C-4.5160728 60.39175047 -6.06058291 46.01646299 -14.75 32.75 C-15.348125 31.821875 -15.94625 30.89375 -16.5625 29.9375 C-25.08340922 21.41659078 -34.39736869 18.39552247 -46.18359375 17.734375 C-51.20008324 17.75635305 -55.89108175 18.55014468 -60.75 19.75 Z M29 88.375 C24.70760052 92.85626506 22.44547601 98.00798582 20.25 103.75 C24.00170001 105.00056667 25.73499559 104.34852141 29.55737305 103.39477539 C30.19179321 103.23886429 30.82621338 103.08295319 31.4798584 102.9223175 C33.57581817 102.40517806 35.66868099 101.87648664 37.76171875 101.34765625 C39.21456992 100.98678893 40.66760097 100.6266451 42.12080383 100.26719666 C45.94487356 99.31924995 49.7664179 98.36148345 53.58752441 97.40167236 C57.48721444 96.42396451 61.38920573 95.45553447 65.29101562 94.48632812 C72.9462972 92.58330708 80.5989365 90.66990907 88.25 88.75 C85.43468111 85.84412775 83.0295925 83.88967862 79.375 82.125 C78.55257812 81.72023438 77.73015625 81.31546875 76.8828125 80.8984375 C60.3293375 73.67778223 42.37571889 76.17215198 29 88.375 Z M-107.75 89.75 C-105.1279759 91.49801606 -103.30558332 92.34815023 -100.37158203 93.30297852 C-99.48345825 93.59439224 -98.59533447 93.88580597 -97.68029785 94.18605042 C-96.2336676 94.65276405 -96.2336676 94.65276405 -94.7578125 95.12890625 C-93.75165894 95.45733017 -92.74550537 95.78575409 -91.7088623 96.12413025 C-88.4324921 97.19186298 -85.15389104 98.25253602 -81.875 99.3125 C-79.63716712 100.03893956 -77.3993742 100.76550224 -75.16162109 101.4921875 C-62.91578515 105.46269864 -50.66166143 109.40748771 -38.375 113.25 C-37.20855957 113.61681885 -36.04211914 113.9836377 -34.84033203 114.36157227 C-33.79216309 114.68569092 -32.74399414 115.00980957 -31.6640625 115.34375 C-30.7767041 115.61896484 -29.8893457 115.89417969 -28.97509766 116.17773438 C-26.64867682 116.87454045 -26.64867682 116.87454045 -23.75 116.75 C-25.46548049 105.94247288 -31.10909163 97.49512879 -39.75 90.75 C-61.9620734 77.37988586 -85.09194233 77.33627692 -107.75 89.75 Z M25.25 137.75 C29.79404592 141.68379182 34.82377036 144.55857316 40 147.5625 C41.97573638 148.71923952 43.9509773 149.8768256 45.92578125 151.03515625 C46.95783691 151.6398877 47.98989258 152.24461914 49.05322266 152.86767578 C54.45084214 156.04589835 59.81891219 159.27306018 65.1875 162.5 C66.23784424 163.13019043 67.28818848 163.76038086 68.37036133 164.40966797 C72.95260207 167.16024003 77.53085284 169.91665941 82.09375 172.69921875 C82.79765869 173.12686523 83.50156738 173.55451172 84.22680664 173.99511719 C85.49132057 174.76412305 86.75370101 175.5366535 88.01342773 176.31347656 C90.92049257 178.18973442 90.92049257 178.18973442 94.25 178.75 C92.52024582 166.64172071 86.18108965 154.1292832 77.25 145.75 C76.42048828 144.92628906 76.42048828 144.92628906 75.57421875 144.0859375 C65.80032406 134.96363579 54.26982653 134.16671352 41.50097656 134.59179688 C35.96382487 134.98095895 30.60276288 136.32485869 25.25 137.75 Z M-87.75 155.75 C-88.61625 156.513125 -89.4825 157.27625 -90.375 158.0625 C-98.93478682 167.74857456 -103.39557083 179.12169808 -105.75 191.75 C-102.42213793 190.50137016 -99.49784155 189.09132155 -96.51171875 187.16796875 C-95.30068481 186.39803589 -95.30068481 186.39803589 -94.06518555 185.61254883 C-93.19804932 185.05978271 -92.33091309 184.5070166 -91.4375 183.9375 C-72.29373664 171.95733927 -52.76947508 162.00619386 -31.75 153.75 C-30.0829235 153.08435882 -28.41614193 152.41797701 -26.75 151.75 C-33.16399607 145.33600393 -48.43881312 145.31262184 -57.0625 145.25 C-68.77903518 145.38025859 -78.92054157 147.6809734 -87.75 155.75 Z M6.25 173.75 C6.17340652 174.37464645 6.09681305 174.99929291 6.01789856 175.64286804 C-1.50443432 236.88258178 -1.50443432 236.88258178 -5.75 257.75 C-6.07967773 259.37397705 -6.07967773 259.37397705 -6.41601562 261.03076172 C-9.64389577 276.58141529 -13.98903869 291.61148738 -19.11083984 306.640625 C-19.84666298 308.70166258 -19.84666298 308.70166258 -19.75 310.75 C-17.68918639 311.25690584 -15.62626474 311.75524619 -13.5625 312.25 C-12.41394531 312.5284375 -11.26539063 312.806875 -10.08203125 313.09375 C-5.91752019 313.99780381 -5.91752019 313.99780381 -1.75 313.75 C13.26212353 297.35440627 18.26183899 267.88718416 18.48828125 246.46484375 C18.50297203 245.30961967 18.50297203 245.30961967 18.51795959 244.13105774 C18.75790272 220.3635486 17.40929679 198.02017592 8.25 175.75 C7.59 175.09 6.93 174.43 6.25 173.75 Z M-226.75 390.75 C-228.19632813 391.90822266 -228.19632813 391.90822266 -229.671875 393.08984375 C-235.51566722 397.81169244 -241.18305528 402.7053859 -246.75 407.75 C-233.04440892 421.5808707 -220.83873579 433.01067338 -200.3125 433.3125 C-184.29257311 433.1565998 -173.16600267 425.74529686 -161.6875 415.125 C-146.43148258 401.16430482 -125.72682776 395.72335507 -105.36328125 396.41015625 C-83.17085112 397.73051891 -65.64411502 407.79694529 -49.5625 422.5625 C-38.8639755 432.13248816 -25.84206934 433.74422819 -12.06933594 432.98388672 C0.3277631 431.73373715 10.2323942 423.66361826 18.875 415.3125 C30.55247705 404.5988782 45.81318667 399.15693941 61.25 396.75 C59.82006855 392.25475572 57.32588603 389.28702562 54.125 385.9375 C53.38032471 385.14702271 53.38032471 385.14702271 52.62060547 384.34057617 C51.62352619 383.28599168 50.62309897 382.23456121 49.61914062 381.18652344 C48.46462695 379.9751899 47.33133783 378.74367923 46.203125 377.5078125 C21.59443863 351.32164623 -19.2763642 341.17347884 -53.75 337.75 C-54.84570312 337.63914062 -55.94140625 337.52828125 -57.0703125 337.4140625 C-118.11239285 332.1737911 -179.32487798 352.26464029 -226.75 390.75 Z " fill="#000000" transform="translate(379.75,30.25)"/>
<path d="M0 0 C9.80954212 8.35161018 17.58159171 18.57275255 19.1875 31.75 C20.34788705 47.15636966 16.96561757 60.01532502 7.29296875 72.12109375 C-1.19425976 81.45861973 -13.08171782 87.01508778 -25.60546875 87.9609375 C-39.2180766 88.41880012 -51.53616036 84.41525764 -62 75.6875 C-70.48939221 67.66529132 -76.57255675 56.51795942 -77.28125 44.734375 C-77.31555261 42.98988946 -77.32535049 41.24477544 -77.3125 39.5 C-77.30605469 38.57977051 -77.29960938 37.65954102 -77.29296875 36.71142578 C-76.95949394 24.21270201 -72.26552331 13.96365189 -63.8125 4.75 C-45.82396742 -11.0331438 -20.09137952 -14.76802255 0 0 Z M-41.25 29.75 C-44.36125348 33.67868737 -44.56655123 37.26451313 -44.2578125 42.1640625 C-43.47505503 46.70954883 -41.77380858 49.29783473 -38.08203125 52.03125 C-33.71891086 54.60906164 -29.99282278 55.34004608 -24.9921875 54.4921875 C-20.19297942 52.85804855 -16.91471871 49.61897955 -14.375 45.3125 C-13.3550816 40.66620506 -13.32946889 37.04655718 -15 32.5625 C-17.97587176 27.94476795 -21.57674379 25.36100191 -26.8125 23.75 C-32.82922682 23.75 -37.01326696 25.57336247 -41.25 29.75 Z " fill="#000000" transform="translate(140.8125,105.25)"/>
<path d="M0 0 C4.23689507 2.55882131 7.56754216 5.88932851 11.00390625 9.41796875 C11.62330078 10.03414062 12.24269531 10.6503125 12.88085938 11.28515625 C17.4040437 15.8623634 19.97231592 19.07828214 20.06640625 25.73046875 C19.94201715 31.21822338 19.11840558 34.11225164 15.69140625 38.41796875 C10.70110753 42.38983916 6.733699 42.87611339 0.4375 42.94921875 C-6.00561287 41.70275595 -10.52889705 36.53604724 -14.99609375 32.04296875 C-15.8478418 31.21539062 -15.8478418 31.21539062 -16.71679688 30.37109375 C-21.17613401 25.91698445 -24.01897759 21.98314047 -24.74609375 15.54296875 C-24.54222701 10.91608015 -23.01860932 7.15563548 -20.30859375 3.41796875 C-13.98485938 -1.61520758 -7.4531984 -3.56380797 0 0 Z " fill="#000000" transform="translate(176.30859375,185.58203125)"/>
<path d="M0 0 C4.82084149 2.14160059 7.3256999 4.55997206 9.8515625 9.30859375 C11.63757692 14.66663701 11.67744149 18.5813851 9.26953125 23.6171875 C6.71070994 27.85408257 3.38020274 31.18472966 -0.1484375 34.62109375 C-0.76460937 35.24048828 -1.38078125 35.85988281 -2.015625 36.49804688 C-6.59283215 41.0212312 -9.80875089 43.58950342 -16.4609375 43.68359375 C-21.94869213 43.55920465 -24.84272039 42.73559308 -29.1484375 39.30859375 C-33.12030791 34.31829503 -33.60658214 30.3508865 -33.6796875 24.0546875 C-32.4332247 17.61157463 -27.26651599 13.08829045 -22.7734375 8.62109375 C-22.22171875 8.05326172 -21.67 7.48542969 -21.1015625 6.90039062 C-15.05936295 0.85109929 -8.63551212 -2.77906481 0 0 Z " fill="#000000" transform="translate(61.1484375,184.69140625)"/>
<path d="M0 0 C3.72026774 1.87623892 6.34905978 4.49062699 8.20703125 8.22265625 C9.54232535 12.52088105 9.71940006 16.94246925 8.8671875 21.34765625 C6.11791687 26.2674037 2.456078 30.09409922 -1.5078125 34.03515625 C-2.05953125 34.60298828 -2.61125 35.17082031 -3.1796875 35.75585938 C-7.6337968 40.21519651 -11.56764078 43.05804009 -18.0078125 43.78515625 C-22.6347011 43.58128951 -26.39514577 42.05767182 -30.1328125 39.34765625 C-33.97423173 34.52125773 -35.19798993 30.79361154 -35.55859375 24.67578125 C-34.27824897 17.67499696 -29.02175755 12.79625232 -24.1328125 8.03515625 C-23.51664063 7.41576172 -22.90046875 6.79636719 -22.265625 6.15820312 C-15.71893475 -0.31121932 -9.28650038 -2.84037649 0 0 Z " fill="#000000" transform="translate(187.1328125,60.65234375)"/>
<path d="M0 0 C4.91974745 2.74927063 8.74644297 6.4111095 12.6875 10.375 C13.25533203 10.92671875 13.82316406 11.4784375 14.40820312 12.046875 C18.86754026 16.5009843 21.71038384 20.43482828 22.4375 26.875 C22.23363326 31.5018886 20.71001557 35.26233327 18 39 C13.17360148 42.84141923 9.44595529 44.06517743 3.328125 44.42578125 C-3.67265929 43.14543647 -8.55140393 37.88894505 -13.3125 33 C-13.93189453 32.38382813 -14.55128906 31.76765625 -15.18945312 31.1328125 C-19.71263745 26.55560535 -22.28090967 23.33968661 -22.375 16.6875 C-22.2506109 11.19974537 -21.42699933 8.30571711 -18 4 C-12.55483181 -0.33390937 -6.86995971 -1.32903915 0 0 Z " fill="#000000" transform="translate(50,60)"/>
<path d="M0 0 C4.63467863 2.15181508 8.10620753 5.19157704 10 10 C10.59657804 14.67344697 10.55785226 19.29468263 10.5 24 C10.51546875 25.258125 10.5309375 26.51625 10.546875 27.8125 C10.49867764 39.18707649 10.49867764 39.18707649 6 44 C2.18069828 47.62833663 -0.88279006 48.31000458 -6 48.5 C-12.52189504 48.25785043 -15.6860488 46.4755875 -20.125 41.7265625 C-23.48400724 36.54730228 -22.57281651 29.92240933 -22.5 24 C-22.51546875 22.741875 -22.5309375 21.48375 -22.546875 20.1875 C-22.49867764 8.81292351 -22.49867764 8.81292351 -18 4 C-12.72867143 -1.00776214 -6.89190982 -0.92775709 0 0 Z " fill="#000000" transform="translate(118,208)"/>
<path d="M0 0 C1.258125 -0.01546875 2.51625 -0.0309375 3.8125 -0.046875 C15.18707649 0.00132236 15.18707649 0.00132236 20 4.5 C23.62833663 8.31930172 24.31000458 11.38279006 24.5 16.5 C24.25785043 23.02189504 22.4755875 26.1860488 17.7265625 30.625 C12.54730228 33.98400724 5.92240933 33.07281651 0 33 C-1.258125 33.01546875 -2.51625 33.0309375 -3.8125 33.046875 C-15.18707649 32.99867764 -15.18707649 32.99867764 -20 28.5 C-23.62833663 24.68069828 -24.31000458 21.61720994 -24.5 16.5 C-24.25785043 9.97810496 -22.4755875 6.8139512 -17.7265625 2.375 C-12.54730228 -0.98400724 -5.92240933 -0.07281651 0 0 Z " fill="#000000" transform="translate(200,127.5)"/>
<path d="M0 0 C1.258125 -0.01546875 2.51625 -0.0309375 3.8125 -0.046875 C15.18707649 0.00132236 15.18707649 0.00132236 20 4.5 C23.62833663 8.31930172 24.31000458 11.38279006 24.5 16.5 C24.25785043 23.02189504 22.4755875 26.1860488 17.7265625 30.625 C12.54730228 33.98400724 5.92240933 33.07281651 0 33 C-1.258125 33.01546875 -2.51625 33.0309375 -3.8125 33.046875 C-15.18707649 32.99867764 -15.18707649 32.99867764 -20 28.5 C-23.62833663 24.68069828 -24.31000458 21.61720994 -24.5 16.5 C-24.25785043 9.97810496 -22.4755875 6.8139512 -17.7265625 2.375 C-12.54730228 -0.98400724 -5.92240933 -0.07281651 0 0 Z " fill="#000000" transform="translate(24,127.5)"/>
<path d="M0 0 C4.63467863 2.15181508 8.10620753 5.19157704 10 10 C10.59657804 14.67344697 10.55785226 19.29468263 10.5 24 C10.51546875 25.258125 10.5309375 26.51625 10.546875 27.8125 C10.49867764 39.18707649 10.49867764 39.18707649 6 44 C2.18069828 47.62833663 -0.88279006 48.31000458 -6 48.5 C-12.52189504 48.25785043 -15.6860488 46.4755875 -20.125 41.7265625 C-23.48400724 36.54730228 -22.57281651 29.92240933 -22.5 24 C-22.51546875 22.741875 -22.5309375 21.48375 -22.546875 20.1875 C-22.49867764 8.81292351 -22.49867764 8.81292351 -18 4 C-12.72867143 -1.00776214 -6.89190982 -0.92775709 0 0 Z " fill="#000000" transform="translate(118,32)"/>
</svg>
