<?xml version="1.0" encoding="UTF-8"?>
<svg version="1.1" xmlns="http://www.w3.org/2000/svg" width="512" height="512">
<path d="M0 0 C0.71689066 -0.00235223 1.43378132 -0.00470446 2.17239594 -0.00712797 C4.58711628 -0.01381249 7.00178273 -0.01335991 9.41651154 -0.01294994 C11.16032763 -0.01624892 12.90414297 -0.01997456 14.64795732 -0.02409142 C19.45002101 -0.03411588 24.25207219 -0.03782894 29.05414486 -0.04048073 C34.22954528 -0.0443825 39.40493579 -0.05396098 44.5803299 -0.0626936 C57.08457553 -0.0824624 69.58882197 -0.0925251 82.09307933 -0.10142139 C87.98104706 -0.10580392 93.86901388 -0.11117085 99.7569809 -0.11641026 C119.32950148 -0.13342353 138.9020215 -0.14791753 158.47454834 -0.155159 C163.55452729 -0.15706891 168.63450624 -0.15898923 173.71448517 -0.16094494 C175.60840157 -0.16167055 175.60840157 -0.16167055 177.5405789 -0.16241082 C197.99233554 -0.17071044 218.44403367 -0.19604579 238.89576477 -0.22852562 C259.89158093 -0.26159772 280.88736736 -0.27960793 301.88320971 -0.28280324 C313.67217415 -0.28496827 325.46105331 -0.29371597 337.24999237 -0.31926441 C347.29055366 -0.34097349 357.33100894 -0.34902079 367.37159103 -0.33929763 C372.49306223 -0.33475347 377.61431472 -0.33664606 382.73575592 -0.35605907 C387.42902148 -0.37369513 392.12190885 -0.37268932 396.81517845 -0.35716178 C398.50840173 -0.35478639 400.20165123 -0.35910569 401.89483446 -0.37099043 C419.13888126 -0.48448185 432.82996649 3.72475106 445.56409454 15.68890858 C454.9253447 25.40722134 461.03482682 37.64771809 461.05378437 51.21465778 C461.0561366 51.93154845 461.05848883 52.64843911 461.06091234 53.38705373 C461.06759686 55.80177406 461.06714428 58.21644051 461.06673431 60.63116932 C461.07003329 62.37498542 461.07375893 64.11880075 461.07787579 65.86261511 C461.08790025 70.66467879 461.09161331 75.46672998 461.0942651 80.26880264 C461.09816687 85.44420307 461.10774535 90.61959358 461.11647797 95.79498768 C461.13624677 108.29923331 461.14630947 120.80347976 461.15520576 133.30773711 C461.15958829 139.19570484 461.16495522 145.08367166 461.17019463 150.97163868 C461.1872079 170.54415926 461.2017019 190.11667928 461.20894337 209.68920612 C461.21085328 214.76918507 461.21277361 219.84916402 461.21472931 224.92914295 C461.21521305 226.19175388 461.21569679 227.45436482 461.21619519 228.75523669 C461.22449481 249.20699332 461.24983016 269.65869146 461.28230999 290.11042255 C461.31538209 311.10623871 461.3333923 332.10202514 461.33658761 353.09786749 C461.33875264 364.88683194 461.34750034 376.67571109 461.37304878 388.46465015 C461.39475786 398.50521144 461.40280516 408.54566672 461.393082 418.58624882 C461.38853784 423.70772002 461.39043043 428.82897251 461.40984344 433.9504137 C461.4274795 438.64367927 461.42647369 443.33656663 461.41094615 448.02983624 C461.40857076 449.72305951 461.41289006 451.41630901 461.4247748 453.10949224 C461.53506169 469.86663863 457.50026829 484.26714206 445.85706329 496.88422108 C432.40208148 509.51261698 417.56137439 512.59139649 399.70108795 512.52190113 C397.95209088 512.52607799 396.20309653 512.53155744 394.45410717 512.53822094 C389.66554638 512.55264801 384.87715812 512.54843938 380.088588 512.54105413 C374.9173721 512.53631799 369.74619328 512.54883627 364.57498932 512.55907154 C354.45095408 512.57625613 344.32698091 512.57710024 334.20293488 512.57185864 C325.97291093 512.56781506 317.74290531 512.56926273 309.51288223 512.5746069 C307.75498185 512.57572953 307.75498185 512.57572953 305.96156832 512.57687484 C303.58068443 512.57840634 301.19980054 512.57994469 298.81891666 512.58148981 C276.49799676 512.59521363 254.17711192 512.58977799 231.85619281 512.5783046 C211.44360992 512.56837246 191.03111768 512.5813128 170.61854877 512.60523879 C149.6496547 512.62963134 128.68080284 512.63923726 107.71189487 512.63258606 C95.94315065 512.62909418 84.17447613 512.63132389 72.40574265 512.64883709 C62.38727351 512.66356099 52.36892318 512.66419197 42.35045637 512.64676618 C37.24110353 512.63825542 32.13196291 512.63610863 27.02262115 512.65141773 C22.34068338 512.6652723 17.65913949 512.66049167 12.97722445 512.6411785 C11.28822393 512.63742056 9.59919179 512.64033448 7.91021945 512.65079015 C-8.83014268 512.74701065 -23.22723617 508.70211883 -35.83043671 497.07172108 C-48.45883261 483.61673926 -51.53761212 468.77603217 -51.46811676 450.91574574 C-51.47229362 449.16674867 -51.47777307 447.41775431 -51.48443657 445.66876495 C-51.49886364 440.88020417 -51.49465501 436.0918159 -51.48726976 431.30324578 C-51.48253362 426.13202988 -51.4950519 420.96085106 -51.50528717 415.7896471 C-51.52247176 405.66561186 -51.52331587 395.5416387 -51.51807427 385.41759266 C-51.51403069 377.18756871 -51.51547836 368.95756309 -51.52082253 360.72754002 C-51.52157095 359.55560642 -51.52231937 358.38367283 -51.52309047 357.1762261 C-51.52462197 354.79534221 -51.52616032 352.41445833 -51.52770544 350.03357445 C-51.54142926 327.71265454 -51.53599362 305.3917697 -51.52452023 283.0708506 C-51.51458809 262.6582677 -51.52752843 242.24577546 -51.55145442 221.83320655 C-51.57584697 200.86431248 -51.58545289 179.89546063 -51.57880169 158.92655265 C-51.57530981 147.15780843 -51.57753952 135.38913392 -51.59505272 123.62040043 C-51.60977662 113.6019313 -51.6104076 103.58358096 -51.59298181 93.56511416 C-51.58447105 88.45576132 -51.58232426 83.34662069 -51.59763336 78.23727894 C-51.61148793 73.55534117 -51.6067073 68.87379727 -51.58739413 64.19188224 C-51.58363619 62.50288171 -51.58655011 60.81384957 -51.59700578 59.12487723 C-51.69602425 41.89772531 -47.47739411 28.21049999 -35.52574921 15.48968983 C-25.80743644 6.12843967 -13.56693969 0.01895755 0 0 Z M-15.39293671 39.57172108 C-29.95565073 61.685472 -21.08043671 103.24983215 -21.08043671 121.13422108 C128.07956329 121.13422108 277.23956329 121.13422108 430.91956329 121.13422108 C435.75134578 82.11858902 435.75134578 82.11858902 423.91956329 38.13422108 C416.52868456 31.12236177 408.67520646 30.0113154 398.80518532 30.00558662 C398.12107855 30.00383359 397.43697179 30.00208055 396.73213452 30.00027439 C394.44702555 29.99563417 392.16198076 29.99807476 389.8768692 30.00050831 C388.21907178 29.99863935 386.56127479 29.9963383 384.9034785 29.99364299 C380.35323176 29.98752924 375.80300341 29.98765808 371.2527535 29.98883736 C366.34331686 29.98904147 361.4338861 29.98352165 356.52445221 29.97877979 C346.90836673 29.97047526 337.29228738 29.96772505 327.67619862 29.96716741 C319.86036571 29.96669221 312.04453482 29.96463723 304.22870255 29.96146679 C282.06996311 29.95266114 259.91122852 29.94804733 237.75248732 29.94879726 C236.55803743 29.94883722 235.36358754 29.94887718 234.1329422 29.94891834 C232.93703437 29.94895922 231.74112653 29.9490001 230.50897907 29.94904222 C211.12238299 29.94944878 191.73580634 29.93987659 172.34921588 29.92577998 C152.44378099 29.91142026 132.53835558 29.90450955 112.63291538 29.90537375 C101.4572479 29.90570584 90.28160077 29.90295362 79.10593796 29.8921957 C69.59202534 29.88309608 60.07814232 29.88091107 50.56422724 29.88770512 C45.71050424 29.8909729 40.85683804 29.89101767 36.00312042 29.88235188 C31.55817814 29.87449751 27.11333778 29.87590744 22.66839801 29.88463601 C21.06213158 29.88617332 19.45585759 29.88434612 17.84960009 29.87877593 C5.28229332 29.83808828 -6.22506509 29.90828884 -15.39293671 39.57172108 Z M-21.08043671 151.13422108 C-21.12168671 201.43859608 -21.16293671 251.74297108 -21.20543671 303.57172108 C-21.22364471 319.4651366 -21.24185272 335.35855213 -21.26061249 351.73358631 C-21.26730067 365.95985083 -21.26730067 365.95985083 -21.27132416 380.18611622 C-21.27319012 386.53073576 -21.28053027 392.87532013 -21.29158783 399.2199297 C-21.30432288 406.53787256 -21.31010755 413.85578165 -21.30732661 421.17373568 C-21.3061223 424.91678482 -21.30802555 428.65975849 -21.31886697 432.40279377 C-21.33041317 436.41357521 -21.32642048 440.42419277 -21.32094574 444.43498707 C-21.32677107 445.59906621 -21.3325964 446.76314535 -21.33859825 447.96249962 C-21.30216041 457.88402271 -20.34246512 466.17094795 -14.08043671 474.13422108 C-6.68955798 481.14608039 1.16392013 482.25712676 11.03394127 482.26285553 C12.06010141 482.26548509 12.06010141 482.26548509 13.10699207 482.26816776 C15.39210104 482.27280799 17.67714582 482.27036739 19.96225739 482.26793385 C21.62005481 482.26980281 23.2778518 482.27210385 24.93564808 482.27479917 C29.48589482 482.28091291 34.03612318 482.28078408 38.58637309 482.27960479 C43.49580973 482.27940068 48.40524048 482.28492051 53.31467438 482.28966236 C62.93075986 482.29796689 72.54683921 482.3007171 82.16292797 482.30127474 C89.97876088 482.30174995 97.79459177 482.30380492 105.61042404 482.30697536 C127.76916348 482.31578101 149.92789807 482.32039482 172.08663927 482.31964489 C173.28108916 482.31960493 174.47553905 482.31956498 175.70618439 482.31952381 C176.90209222 482.31948293 178.09800005 482.31944205 179.33014752 482.31939993 C198.71674359 482.31899337 218.10332025 482.32856556 237.48991071 482.34266218 C257.39534559 482.3570219 277.30077101 482.3639326 297.20621121 482.3630684 C308.38187869 482.36273632 319.55752581 482.36548853 330.73318863 482.37624645 C340.24710124 482.38534607 349.76098427 482.38753109 359.27489935 482.38073703 C364.12862234 482.37746926 368.98228855 482.37742448 373.83600616 482.38609028 C378.28094845 482.39394464 382.72578881 482.39253471 387.17072858 482.38380615 C388.776995 482.38226883 390.38326899 482.38409604 391.9895265 482.38966622 C409.26655787 482.47918792 409.26655787 482.47918792 423.91956329 474.13422108 C431.23122097 464.82986843 431.06813378 456.04892621 431.03981781 444.6754961 C431.04067383 443.42297047 431.04152985 442.17044483 431.0424118 440.87996387 C431.04464902 437.40832777 431.04064916 433.93672264 431.03563602 430.46509047 C431.0312631 426.66200824 431.03273105 422.8589274 431.03345394 419.05584335 C431.03398519 411.67651159 431.02937187 404.29719202 431.02295261 396.9178634 C431.01574857 388.38056573 431.01495764 379.84327538 431.01416779 371.30597401 C431.00891887 348.76955443 430.99495774 326.23313757 430.98206329 303.69672108 C430.96143829 253.35109608 430.94081329 203.00547108 430.91956329 151.13422108 C281.75956329 151.13422108 132.59956329 151.13422108 -21.08043671 151.13422108 Z " fill="#000000" transform="translate(51.08043670654297,-0.13422107696533203)"/>
<path d="M0 0 C0.79841309 0.22042969 1.59682617 0.44085938 2.41943359 0.66796875 C25.58400493 7.2652247 44.51441228 18.49870033 62 35 C62.73734375 35.67289063 63.4746875 36.34578125 64.234375 37.0390625 C81.86358538 53.73054892 92.61255006 75.86417074 99 99 C99.28810547 100.0216626 99.28810547 100.0216626 99.58203125 101.06396484 C104.71348695 120.28244158 104.38713665 145.89645419 99 165 C98.77957031 165.79841309 98.55914062 166.59682617 98.33203125 167.41943359 C91.7347753 190.58400493 80.50129967 209.51441228 64 227 C63.32710937 227.73734375 62.65421875 228.4746875 61.9609375 229.234375 C45.26945108 246.86358538 23.13582926 257.61255006 0 264 C-1.0216626 264.28810547 -1.0216626 264.28810547 -2.06396484 264.58203125 C-21.28244158 269.71348695 -46.89645419 269.38713665 -66 264 C-66.79841309 263.77957031 -67.59682617 263.55914062 -68.41943359 263.33203125 C-91.58400493 256.7347753 -110.51441228 245.50129967 -128 229 C-128.73734375 228.32710937 -129.4746875 227.65421875 -130.234375 226.9609375 C-147.86358538 210.26945108 -158.61255006 188.13582926 -165 165 C-165.19207031 164.3188916 -165.38414062 163.6377832 -165.58203125 162.93603516 C-170.71348695 143.71755842 -170.38713665 118.10354581 -165 99 C-164.66935547 97.80238037 -164.66935547 97.80238037 -164.33203125 96.58056641 C-157.7347753 73.41599507 -146.50129967 54.48558772 -130 37 C-129.32710937 36.26265625 -128.65421875 35.5253125 -127.9609375 34.765625 C-111.26945108 17.13641462 -89.13582926 6.38744994 -66 0 C-64.9783374 -0.28810547 -64.9783374 -0.28810547 -63.93603516 -0.58203125 C-44.71755842 -5.71348695 -19.10354581 -5.38713665 0 0 Z M-46 37 C-52.35270327 46.1478927 -61 60.30722357 -61 72 C-42.52 72 -24.04 72 -5 72 C-9.14066197 56.81757279 -14.48287534 39.15077161 -27.5 29.0625 C-36.11241298 25.40222448 -41.06798368 30.50211538 -46 37 Z M18 41 C18.69547464 44.82356502 19.69607665 48.46513587 20.84765625 52.17578125 C21.20537109 53.33271484 21.56308594 54.48964844 21.93164062 55.68164062 C22.30482422 56.87982422 22.67800781 58.07800781 23.0625 59.3125 C23.43955078 60.53001953 23.81660156 61.74753906 24.20507812 63.00195312 C25.1345013 66.00198996 26.06695756 69.00108682 27 72 C35.25 72 43.5 72 52 72 C43.37851084 59.06776626 32.14638869 47.78740872 18 41 Z M-107.25390625 58.20703125 C-114.06074986 64.36264139 -114.06074986 64.36264139 -118 72 C-109.75 72 -101.5 72 -93 72 C-91.6844784 67.77175177 -90.37246903 63.54246839 -89.0625 59.3125 C-88.50272461 57.51522461 -88.50272461 57.51522461 -87.93164062 55.68164062 C-87.57392578 54.52470703 -87.21621094 53.36777344 -86.84765625 52.17578125 C-86.51773682 51.11270752 -86.18781738 50.04963379 -85.84790039 48.9543457 C-85.08943943 46.31163447 -84.49172055 43.70337033 -84 41 C-90.88346794 41 -102.36295677 53.52840972 -107.25390625 58.20703125 Z M-133 102 C-135.73277584 112.93110336 -137.64850935 121.15881772 -137.5 132 C-137.51546875 133.12921875 -137.5309375 134.2584375 -137.546875 135.421875 C-137.50257823 145.21146035 -135.50976801 151.96092796 -133 162 C-121.45 162 -109.9 162 -98 162 C-98 142.2 -98 122.4 -98 102 C-109.55 102 -121.1 102 -133 102 Z M-67 102 C-67.86499055 107.99377582 -67.86499055 107.99377582 -68.12939453 113.90625 C-68.13254669 114.80408203 -68.13569885 115.70191406 -68.13894653 116.62695312 C-68.1369223 117.57505859 -68.13489807 118.52316406 -68.1328125 119.5 C-68.13376923 120.49451172 -68.13472595 121.48902344 -68.13571167 122.51367188 C-68.13638959 124.60807356 -68.13456247 126.7024774 -68.13037109 128.796875 C-68.12501739 131.98963167 -68.13032931 135.18224767 -68.13671875 138.375 C-68.1360579 140.41666697 -68.13477659 142.45833386 -68.1328125 144.5 C-68.13483673 145.44810547 -68.13686096 146.39621094 -68.13894653 147.37304688 C-68.13579437 148.27087891 -68.13264221 149.16871094 -68.12939453 150.09375 C-68.12859894 150.87427734 -68.12780334 151.65480469 -68.12698364 152.45898438 C-67.96714531 155.65744124 -67.45289457 158.82973801 -67 162 C-44.56 162 -22.12 162 1 162 C1.86499055 156.00622418 1.86499055 156.00622418 2.12939453 150.09375 C2.13412277 148.74700195 2.13412277 148.74700195 2.13894653 147.37304688 C2.1369223 146.42494141 2.13489807 145.47683594 2.1328125 144.5 C2.13424759 143.00823242 2.13424759 143.00823242 2.13571167 141.48632812 C2.13638959 139.39192644 2.13456247 137.2975226 2.13037109 135.203125 C2.12501739 132.01036833 2.13032931 128.81775233 2.13671875 125.625 C2.1360579 123.58333303 2.13477659 121.54166614 2.1328125 119.5 C2.13584885 118.0778418 2.13584885 118.0778418 2.13894653 116.62695312 C2.13579437 115.72912109 2.13264221 114.83128906 2.12939453 113.90625 C2.12859894 113.12572266 2.12780334 112.34519531 2.12698364 111.54101562 C1.96714531 108.34255876 1.45289457 105.17026199 1 102 C-21.44 102 -43.88 102 -67 102 Z M32 102 C32 121.8 32 141.6 32 162 C43.55 162 55.1 162 67 162 C69.73277584 151.06889664 71.64850935 142.84118228 71.5 132 C71.51546875 130.87078125 71.5309375 129.7415625 71.546875 128.578125 C71.50257823 118.78853965 69.50976801 112.03907204 67 102 C55.45 102 43.9 102 32 102 Z M-118 192 C-109.37851084 204.93223374 -98.14638869 216.21259128 -84 223 C-84.69547464 219.17643498 -85.69607665 215.53486413 -86.84765625 211.82421875 C-87.38422852 210.08881836 -87.38422852 210.08881836 -87.93164062 208.31835938 C-88.49141602 206.52108398 -88.49141602 206.52108398 -89.0625 204.6875 C-89.43955078 203.46998047 -89.81660156 202.25246094 -90.20507812 200.99804688 C-91.1345013 197.99801004 -92.06695756 194.99891318 -93 192 C-101.25 192 -109.5 192 -118 192 Z M-61 192 C-56.91480995 206.9790302 -52.15989654 224.16533061 -39.3125 234.3125 C-35.69331898 236.15623373 -33.97966305 236.76206314 -30 236 C-19.45223669 231.18471675 -13.15259482 217.35281558 -9.26025391 207.04003906 C-6.29143733 199.67591928 -6.29143733 199.67591928 -5 192 C-23.48 192 -41.96 192 -61 192 Z M27 192 C25.6844784 196.22824823 24.37246903 200.45753161 23.0625 204.6875 C22.50272461 206.48477539 22.50272461 206.48477539 21.93164062 208.31835938 C21.39506836 210.05375977 21.39506836 210.05375977 20.84765625 211.82421875 C20.51773682 212.88729248 20.18781738 213.95036621 19.84790039 215.0456543 C19.08943943 217.68836553 18.49172055 220.29662967 18 223 C30.83576052 216.99671149 45.60412754 204.79174492 52 192 C43.75 192 35.5 192 27 192 Z " fill="#000000" transform="translate(289,184)"/>
<path d="M0 0 C4.61581142 2.18643699 6.72864085 4.49599804 9 9 C9.82885269 14.54808604 9.7240695 19.47140883 7.3125 24.5625 C4.21064779 27.8320199 1.61649202 29.75850523 -2.90234375 30.43359375 C-9.05071801 30.44150672 -13.31314296 30.4465054 -18 26 C-21.88937897 20.55860924 -21.79042609 15.48149391 -21 9 C-16.63929544 -0.20593186 -9.3488659 -1.1401056 0 0 Z " fill="#000000" transform="translate(442,61)"/>
<path d="M0 0 C4.61581142 2.18643699 6.72864085 4.49599804 9 9 C9.82885269 14.54808604 9.7240695 19.47140883 7.3125 24.5625 C4.21064779 27.8320199 1.61649202 29.75850523 -2.90234375 30.43359375 C-9.05071801 30.44150672 -13.31314296 30.4465054 -18 26 C-21.88937897 20.55860924 -21.79042609 15.48149391 -21 9 C-16.63929544 -0.20593186 -9.3488659 -1.1401056 0 0 Z " fill="#000000" transform="translate(382,61)"/>
<path d="M0 0 C4.61581142 2.18643699 6.72864085 4.49599804 9 9 C9.82885269 14.54808604 9.7240695 19.47140883 7.3125 24.5625 C4.21064779 27.8320199 1.61649202 29.75850523 -2.90234375 30.43359375 C-9.05071801 30.44150672 -13.31314296 30.4465054 -18 26 C-21.88937897 20.55860924 -21.79042609 15.48149391 -21 9 C-16.63929544 -0.20593186 -9.3488659 -1.1401056 0 0 Z " fill="#000000" transform="translate(322,61)"/>
</svg>
